<?xml version="1.0" standalone="no"?>
<!DOCTYPE svg PUBLIC "-//W3C//DTD SVG 20010904//EN"
 "http://www.w3.org/TR/2001/REC-SVG-20010904/DTD/svg10.dtd">
<svg version="1.0" xmlns="http://www.w3.org/2000/svg"
 width="1920.000000pt" height="1080.000000pt" viewBox="0 0 1920.000000 1080.000000"
 preserveAspectRatio="xMidYMid meet">

<g transform="translate(0.000000,1080.000000) scale(0.100000,-0.100000)"
fill="#000000" stroke="none">
<path d="M9300 7745 c-519 -64 -1037 -323 -1400 -701 -305 -317 -529 -736
-611 -1141 l-13 -63 -3171 0 c-3434 0 -3214 3 -3331 -51 -128 -61 -234 -232
-234 -381 0 -159 96 -325 228 -392 119 -60 -125 -56 3339 -56 3015 0 3173 -1
3173 -17 0 -34 61 -257 96 -352 20 -53 66 -159 104 -236 346 -707 1015 -1187
1815 -1300 132 -19 478 -19 610 0 599 85 1132 377 1507 825 164 195 323 471
412 711 35 95 96 318 96 352 0 16 158 17 3178 17 2894 0 3183 1 3233 16 176
52 291 179 321 354 31 178 -65 375 -220 454 -119 60 125 56 -3337 56 l-3171 0
-13 68 c-25 125 -119 393 -191 538 -109 221 -242 411 -418 595 -363 381 -884
641 -1412 705 -142 17 -449 16 -590 -1z"/>
</g>
</svg>
