<?xml version="1.0" standalone="no"?>
<!DOCTYPE svg PUBLIC "-//W3C//DTD SVG 20010904//EN"
 "http://www.w3.org/TR/2001/REC-SVG-20010904/DTD/svg10.dtd">
<svg version="1.0" xmlns="http://www.w3.org/2000/svg"
 width="1920.000000pt" height="1080.000000pt" viewBox="0 0 1920.000000 1080.000000"
 preserveAspectRatio="xMidYMid meet">

<g transform="translate(0.000000,1080.000000) scale(0.100000,-0.100000)"
fill="#000000" stroke="none">
<path d="M9253 7740 c-240 -37 -465 -107 -688 -216 -457 -222 -816 -570 -1058
-1024 -95 -178 -181 -414 -218 -597 l-13 -63 -3171 0 c-2816 0 -3177 -2 -3230
-15 -224 -59 -365 -272 -327 -497 23 -130 112 -257 220 -312 119 -60 -125 -56
3337 -56 l3170 0 18 -87 c28 -133 101 -343 171 -488 118 -245 261 -449 451
-641 379 -383 827 -609 1366 -688 174 -26 497 -22 689 9 747 117 1403 595
1740 1264 89 178 185 452 205 584 l7 47 3172 0 c3463 0 3219 -4 3338 56 108
55 198 184 221 318 30 174 -63 364 -219 448 -115 62 137 58 -3339 58 l-3170 0
-18 87 c-48 229 -183 548 -324 763 -384 584 -1000 971 -1683 1056 -165 20
-492 17 -647 -6z m262 -1615 l7 -115 49 0 c37 0 49 -4 49 -15 0 -11 -12 -15
-45 -17 -25 -1 -53 -2 -62 -2 -19 -1 -21 9 -37 192 -6 66 -5 72 13 72 17 0 19
-11 26 -115z m455 58 c1 -24 -97 -263 -107 -263 -7 0 -13 3 -13 8 0 4 -13 7
-30 8 -66 2 -76 55 -28 152 26 53 53 64 94 37 25 -16 25 -16 41 24 9 23 22 41
30 41 7 0 13 -3 13 -7z m-232 -19 c17 -12 22 -25 22 -61 l0 -46 -50 5 c-42 4
-50 2 -56 -14 -8 -28 14 -48 52 -48 24 0 34 -5 34 -15 0 -24 -75 -20 -100 5
-23 23 -24 36 -10 111 14 76 56 100 108 63z m-455 -193 c37 -55 67 -109 67
-120 0 -33 -72 -92 -86 -70 -3 6 9 23 27 39 32 26 33 29 20 53 l-14 26 -29
-24 c-47 -40 -60 -34 -119 51 -38 56 -36 92 6 114 17 8 32 18 33 23 10 21 33
-2 95 -92z m975 -39 c17 -21 34 -51 38 -66 6 -24 0 -33 -43 -75 -65 -60 -113
-86 -146 -77 -25 6 -90 82 -84 99 3 10 188 156 199 157 3 0 20 -17 36 -38z
m-1118 -40 c87 -80 73 -102 -16 -26 -63 53 -67 55 -85 38 -10 -9 -19 -21 -19
-26 0 -4 27 -34 60 -65 41 -38 57 -60 51 -66 -7 -7 -33 9 -78 49 -37 33 -68
64 -70 70 -5 15 57 84 76 84 10 0 47 -26 81 -58z m-230 -57 c0 -8 -4 -16 -9
-19 -12 -8 -34 21 -27 33 9 14 36 2 36 -14z m127 -72 c50 -31 70 -49 66 -59
-5 -13 -9 -13 -27 -1 -11 7 -49 31 -83 52 -62 37 -70 45 -57 58 8 7 5 9 101
-50z m1326 -4 c-7 -7 -20 -8 -30 -5 -17 7 -17 8 1 22 23 17 48 2 29 -17z m-58
-19 c7 -11 -169 -102 -179 -93 -14 14 -2 25 72 62 82 42 97 47 107 31z m-1305
-31 c48 -18 80 -36 80 -45 0 -19 -7 -18 -78 11 -76 31 -98 32 -105 3 -8 -30
-5 -33 73 -64 39 -15 70 -33 70 -41 0 -19 -11 -17 -98 19 -91 37 -100 44 -84
60 7 7 12 19 12 28 0 19 28 60 41 60 5 0 46 -14 89 -31z m1340 -61 c21 -33 23
-75 5 -71 -5 2 -13 16 -18 32 -9 35 -19 43 -42 35 -13 -5 -16 -15 -12 -40 6
-37 -7 -59 -43 -72 -47 -16 -71 2 -85 66 -9 44 19 44 31 0 8 -26 15 -33 34
-33 22 0 25 5 26 35 1 53 2 56 27 68 38 18 56 13 77 -20z m-635 -29 c50 -24
100 -76 121 -125 18 -43 18 -145 0 -188 -20 -48 -75 -107 -121 -127 -26 -12
-63 -19 -105 -19 -80 0 -133 23 -179 75 -46 53 -61 94 -61 167 0 99 46 173
135 217 56 28 151 28 210 0z m-727 -65 c34 -4 52 -11 52 -20 0 -16 -29 -17
-105 -5 -61 10 -75 6 -75 -24 0 -30 3 -32 86 -45 72 -12 99 -25 71 -35 -20 -8
-193 17 -189 28 1 4 2 25 2 46 0 53 22 75 69 67 20 -3 60 -8 89 -12z m1400
-65 c8 -90 -2 -102 -96 -107 -81 -5 -102 9 -102 65 l0 35 -45 -6 c-37 -6 -45
-4 -45 8 0 9 1 17 3 17 6 3 263 26 272 24 5 -1 11 -17 13 -36z m-1363 -109 c0
-12 -19 -16 -97 -18 -82 -2 -98 0 -98 12 0 12 17 16 83 19 110 4 112 4 112
-13z m-225 -5 c0 -9 -9 -15 -25 -15 -24 0 -32 10 -18 23 12 13 43 7 43 -8z
m1583 -31 c83 -6 104 -14 93 -32 -2 -4 -62 -2 -133 4 -70 7 -134 13 -140 13
-7 1 -13 8 -13 17 0 14 8 16 53 11 28 -3 91 -9 140 -13z m-1359 -20 c9 -8 16
-29 16 -45 0 -30 0 -30 45 -23 36 5 45 3 45 -8 0 -11 -35 -22 -132 -42 -158
-31 -150 -30 -147 -8 1 9 0 24 -4 32 -15 41 -15 51 1 69 30 36 149 53 176 25z
m1234 -25 c37 -13 43 -26 32 -72 -7 -32 -5 -36 17 -40 19 -3 27 1 34 20 5 13
9 31 9 39 0 8 7 14 15 14 18 0 19 -12 5 -62 -6 -22 -19 -39 -30 -43 -11 -3
-56 4 -100 16 l-80 21 6 37 c8 44 30 81 48 81 7 0 27 -5 44 -11z m-1206 -110
c21 -11 60 -87 52 -101 -11 -17 -32 -7 -39 19 -13 55 -44 68 -84 35 -21 -16
-21 -19 -6 -55 15 -36 15 -38 -9 -62 -26 -26 -67 -41 -91 -31 -19 7 -55 65
-55 89 0 31 25 18 42 -23 18 -44 34 -49 68 -22 21 17 22 21 10 54 -17 47 -9
65 42 88 51 23 45 22 70 9z m1058 -18 c28 -20 61 -32 116 -41 99 -15 115 -22
105 -38 -6 -10 -19 -11 -57 -2 -27 5 -60 12 -74 15 l-25 5 25 -22 c14 -13 41
-36 59 -51 24 -20 31 -31 23 -39 -8 -8 -41 16 -116 82 -58 52 -106 99 -106
107 0 18 5 17 50 -16z"/>
<path d="M9811 6055 c-27 -72 -26 -83 5 -91 32 -8 40 0 64 62 21 56 17 69 -22
79 -24 6 -27 3 -47 -50z"/>
<path d="M9667 6129 c-8 -31 -1 -39 34 -39 27 0 30 3 27 28 -2 21 -9 28 -29
30 -20 2 -28 -2 -32 -19z"/>
<path d="M9168 6019 c-26 -15 -22 -38 17 -91 38 -52 42 -54 70 -35 24 18 15
50 -25 100 -34 40 -37 41 -62 26z"/>
<path d="M10140 5869 c-36 -28 -69 -55 -74 -60 -11 -10 40 -69 59 -69 16 0
132 87 138 104 7 17 -29 76 -45 75 -7 0 -42 -23 -78 -50z"/>
<path d="M10233 5483 c-18 -3 -23 -11 -23 -34 0 -37 15 -43 86 -34 55 7 55 7
52 38 -3 31 -5 32 -48 33 -25 1 -55 0 -67 -3z"/>
<path d="M8903 5298 c-39 -8 -43 -12 -43 -39 0 -38 16 -43 85 -29 60 13 73 26
55 59 -12 23 -30 24 -97 9z"/>
<path d="M10190 5254 c-12 -31 -6 -40 31 -49 23 -6 27 -3 32 22 6 31 2 38 -30
48 -19 5 -25 1 -33 -21z"/>
</g>
</svg>
