%TF.GenerationSoftware,Flux,Pcbnew,7.0.11-7.0.11~ubuntu20.04.1*%
%TF.CreationDate,2024-08-21T12:24:35+00:00*%
%TF.ProjectId,input,696e7075-742e-46b6-9963-61645f706362,rev?*%
%TF.SameCoordinates,Original*%
%TF.FileFunction,Copper,L4,Bot*%
%TF.FilePolarity,Positive*%
%FSLAX46Y46*%
G04 Gerber Fmt 4.6, Leading zero omitted, Abs format (unit mm)*
G04 Filename: practical-fuchsia-massive-robot-spider*
G04 Build it with Flux! Visit our site at: https://www.flux.ai (PCBNEW 7.0.11-7.0.11~ubuntu20.04.1) date 2024-08-21 12:24:35*
%MOMM*%
%LPD*%
G01*
G04 APERTURE LIST*
G04 Aperture macros list*
%AMFreePoly0*
4,1,129,0.022069,0.299187,0.036723,0.297744,0.051289,0.295583,0.065730,0.292711,0.080014,0.289133,0.094105,0.284858,0.107969,0.279898,0.121572,0.274263,0.134883,0.267967,0.147869,0.261026,0.160499,0.253456,0.172742,0.245275,0.184569,0.236504,0.195952,0.227163,0.206862,0.217274,0.217274,0.206862,0.227163,0.195952,0.236504,0.184569,0.245275,0.172742,0.253456,0.160499,
0.261026,0.147869,0.267967,0.134883,0.274263,0.121572,0.279898,0.107969,0.284858,0.094105,0.289133,0.080014,0.292711,0.065730,0.295583,0.051289,0.297744,0.036723,0.299187,0.022069,0.299910,0.007362,0.299910,-0.007362,0.299187,-0.022069,0.297744,-0.036723,0.295583,-0.051289,0.292711,-0.065730,0.289133,-0.080014,0.284858,-0.094105,0.279898,-0.107969,0.274263,-0.121572,
0.267967,-0.134883,0.261026,-0.147869,0.253456,-0.160499,0.245275,-0.172742,0.236504,-0.184569,0.227163,-0.195952,0.217274,-0.206862,0.206862,-0.217274,0.195952,-0.227163,0.184569,-0.236504,0.172742,-0.245275,0.160499,-0.253456,0.147869,-0.261026,0.134883,-0.267967,0.121572,-0.274263,0.107969,-0.279898,0.094105,-0.284858,0.080014,-0.289133,0.065730,-0.292711,0.051289,-0.295583,
0.036723,-0.297744,0.022069,-0.299187,0.007362,-0.299910,-0.007362,-0.299910,-0.022069,-0.299187,-0.036723,-0.297744,-0.051289,-0.295583,-0.065730,-0.292711,-0.080014,-0.289133,-0.094105,-0.284858,-0.107969,-0.279898,-0.121572,-0.274263,-0.134883,-0.267967,-0.147869,-0.261026,-0.160499,-0.253456,-0.172742,-0.245275,-0.184569,-0.236504,-0.195952,-0.227163,-0.206862,-0.217274,-0.217274,-0.206862,
-0.227163,-0.195952,-0.236504,-0.184569,-0.245275,-0.172742,-0.253456,-0.160499,-0.261026,-0.147869,-0.267967,-0.134883,-0.274263,-0.121572,-0.279898,-0.107969,-0.284858,-0.094105,-0.289133,-0.080014,-0.292711,-0.065730,-0.295583,-0.051289,-0.297744,-0.036723,-0.299187,-0.022069,-0.299910,-0.007362,-0.299910,0.007362,-0.299187,0.022069,-0.297744,0.036723,-0.295583,0.051289,-0.292711,0.065730,
-0.289133,0.080014,-0.284858,0.094105,-0.279898,0.107969,-0.274263,0.121572,-0.267967,0.134883,-0.261026,0.147869,-0.253456,0.160499,-0.245275,0.172742,-0.236504,0.184569,-0.227163,0.195952,-0.217274,0.206862,-0.206862,0.217274,-0.195952,0.227163,-0.184569,0.236504,-0.172742,0.245275,-0.160499,0.253456,-0.147869,0.261026,-0.134883,0.267967,-0.121572,0.274263,-0.107969,0.279898,
-0.094105,0.284858,-0.080014,0.289133,-0.065730,0.292711,-0.051289,0.295583,-0.036723,0.297744,-0.022069,0.299187,-0.007362,0.299910,0.007362,0.299910,0.022069,0.299187,0.022069,0.299187,$1*%
G04 Aperture macros list end*
%TA.AperFunction,ComponentPad*%
%ADD10FreePoly0,0.000000*%
%TD*%
%TA.AperFunction,Conductor*%
%ADD11C,0.254000*%
%TD*%
G04 APERTURE END LIST*
D10*
%TO.P,,7b39f962-9c73-45d9-817e-08c82874b7b6*%
%TO.N,Net 1*%
X-19534200Y15752100D03*
%TO.P,,ce3a7ac2-0048-4a48-bd96-89d26ed12f4e*%
X-20190200Y20647600D03*
%TO.P,,ddd8b9b5-f37f-42f4-8d67-1f222c23268d.via6.13*%
%TO.N,GND*%
X15800000Y34815000D03*
%TO.P,,ddd8b9b5-f37f-42f4-8d67-1f222c23268d.via6.12*%
X800000Y34815000D03*
%TO.P,,ddd8b9b5-f37f-42f4-8d67-1f222c23268d.via6.11*%
X-14200000Y34815000D03*
%TO.P,,ddd8b9b5-f37f-42f4-8d67-1f222c23268d.via5.14*%
X30800000Y19815000D03*
%TO.P,,ddd8b9b5-f37f-42f4-8d67-1f222c23268d.via5.13*%
X15800000Y19815000D03*
%TO.P,,ddd8b9b5-f37f-42f4-8d67-1f222c23268d.via5.12*%
X800000Y19815000D03*
%TO.P,,ddd8b9b5-f37f-42f4-8d67-1f222c23268d.via5.10*%
X-29200000Y19815000D03*
%TO.P,,ddd8b9b5-f37f-42f4-8d67-1f222c23268d.via4.15*%
X45800000Y4815000D03*
%TO.P,,ddd8b9b5-f37f-42f4-8d67-1f222c23268d.via4.14*%
X30800000Y4815000D03*
%TO.P,,ddd8b9b5-f37f-42f4-8d67-1f222c23268d.via4.13*%
X15800000Y4815000D03*
%TO.P,,ddd8b9b5-f37f-42f4-8d67-1f222c23268d.via4.12*%
X800000Y4815000D03*
%TO.P,,ddd8b9b5-f37f-42f4-8d67-1f222c23268d.via4.11*%
X-14200000Y4815000D03*
%TO.P,,ddd8b9b5-f37f-42f4-8d67-1f222c23268d.via4.10*%
X-29200000Y4815000D03*
%TO.P,,ddd8b9b5-f37f-42f4-8d67-1f222c23268d.via3.24*%
X180800000Y-10185000D03*
%TO.P,,ddd8b9b5-f37f-42f4-8d67-1f222c23268d.via3.23*%
X165800000Y-10185000D03*
%TO.P,,ddd8b9b5-f37f-42f4-8d67-1f222c23268d.via3.22*%
X150800000Y-10185000D03*
%TO.P,,ddd8b9b5-f37f-42f4-8d67-1f222c23268d.via3.21*%
X135800000Y-10185000D03*
%TO.P,,ddd8b9b5-f37f-42f4-8d67-1f222c23268d.via3.20*%
X120800000Y-10185000D03*
%TO.P,,ddd8b9b5-f37f-42f4-8d67-1f222c23268d.via3.19*%
X105800000Y-10185000D03*
%TO.P,,ddd8b9b5-f37f-42f4-8d67-1f222c23268d.via3.18*%
X90800000Y-10185000D03*
%TO.P,,ddd8b9b5-f37f-42f4-8d67-1f222c23268d.via3.17*%
X75800000Y-10185000D03*
%TO.P,,ddd8b9b5-f37f-42f4-8d67-1f222c23268d.via3.16*%
X60800000Y-10185000D03*
%TO.P,,ddd8b9b5-f37f-42f4-8d67-1f222c23268d.via3.15*%
X45800000Y-10185000D03*
%TO.P,,ddd8b9b5-f37f-42f4-8d67-1f222c23268d.via3.14*%
X30800000Y-10185000D03*
%TO.P,,ddd8b9b5-f37f-42f4-8d67-1f222c23268d.via3.13*%
X15800000Y-10185000D03*
%TO.P,,ddd8b9b5-f37f-42f4-8d67-1f222c23268d.via3.12*%
X800000Y-10185000D03*
%TO.P,,ddd8b9b5-f37f-42f4-8d67-1f222c23268d.via3.11*%
X-14200000Y-10185000D03*
%TO.P,,ddd8b9b5-f37f-42f4-8d67-1f222c23268d.via3.10*%
X-29200000Y-10185000D03*
%TO.P,,ddd8b9b5-f37f-42f4-8d67-1f222c23268d.via3.9*%
X-44200000Y-10185000D03*
%TO.P,,ddd8b9b5-f37f-42f4-8d67-1f222c23268d.via3.8*%
X-59200000Y-10185000D03*
%TO.P,,ddd8b9b5-f37f-42f4-8d67-1f222c23268d.via3.7*%
X-74200000Y-10185000D03*
%TO.P,,ddd8b9b5-f37f-42f4-8d67-1f222c23268d.via3.6*%
X-89200000Y-10185000D03*
%TO.P,,ddd8b9b5-f37f-42f4-8d67-1f222c23268d.via3.5*%
X-104200000Y-10185000D03*
%TO.P,,ddd8b9b5-f37f-42f4-8d67-1f222c23268d.via3.4*%
X-119200000Y-10185000D03*
%TO.P,,ddd8b9b5-f37f-42f4-8d67-1f222c23268d.via3.3*%
X-134200000Y-10185000D03*
%TO.P,,ddd8b9b5-f37f-42f4-8d67-1f222c23268d.via3.2*%
X-149200000Y-10185000D03*
%TO.P,,ddd8b9b5-f37f-42f4-8d67-1f222c23268d.via3.1*%
X-164200000Y-10185000D03*
%TO.P,,ddd8b9b5-f37f-42f4-8d67-1f222c23268d.via2.14*%
X30800000Y-25185000D03*
%TO.P,,ddd8b9b5-f37f-42f4-8d67-1f222c23268d.via2.13*%
X15800000Y-25185000D03*
%TO.P,,ddd8b9b5-f37f-42f4-8d67-1f222c23268d.via2.12*%
X800000Y-25185000D03*
%TO.P,,ddd8b9b5-f37f-42f4-8d67-1f222c23268d.via2.11*%
X-14200000Y-25185000D03*
%TO.P,,ddd8b9b5-f37f-42f4-8d67-1f222c23268d.via2.10*%
X-29200000Y-25185000D03*
%TO.P,,ddd8b9b5-f37f-42f4-8d67-1f222c23268d.via1.14*%
X30800000Y-40185000D03*
%TO.P,,ddd8b9b5-f37f-42f4-8d67-1f222c23268d.via1.13*%
X15800000Y-40185000D03*
%TO.P,,ddd8b9b5-f37f-42f4-8d67-1f222c23268d.via1.12*%
X800000Y-40185000D03*
%TO.P,,ddd8b9b5-f37f-42f4-8d67-1f222c23268d.via1.11*%
X-14200000Y-40185000D03*
%TO.P,,ddd8b9b5-f37f-42f4-8d67-1f222c23268d.via1.10*%
X-29200000Y-40185000D03*
%TO.P,,ddd8b9b5-f37f-42f4-8d67-1f222c23268d.via.island.0*%
X-9984000Y18259000D03*
%TD*%
D11*
%TO.N,Net 1*%
X-19534200Y15752100D02*
X-19534200Y19991700D01*
X-19534200Y19991600D02*
X-20190200Y20647600D01*
%TD*%
%TA.AperFunction,Conductor*%
%TO.N,GND*%
G36*
X2001000Y-54935000D02*
G01*
X1999000Y-54935000D01*
X816000Y-54927000D01*
X815000Y-54927000D01*
X-340000Y-54903000D01*
X-341000Y-54903000D01*
X-1379000Y-54866000D01*
X-1381000Y-54868000D01*
X-2499000Y-54806000D01*
X-2501000Y-54804000D01*
X-3337000Y-54737000D01*
X-3340000Y-54737000D01*
X-4050000Y-54655000D01*
X-4054000Y-54654000D01*
X-7984000Y-53940000D01*
X-7990000Y-53939000D01*
X-11795000Y-52930000D01*
X-11801000Y-52928000D01*
X-15454000Y-51640000D01*
X-15459000Y-51638000D01*
X-18967000Y-50076000D01*
X-18972000Y-50073000D01*
X-22328000Y-48241000D01*
X-22333000Y-48238000D01*
X-25510000Y-46152000D01*
X-25515000Y-46148000D01*
X-28498000Y-43820000D01*
X-28502000Y-43816000D01*
X-31290000Y-41248000D01*
X-31294000Y-41244000D01*
X-33861000Y-38456000D01*
X-33865000Y-38452000D01*
X-36215000Y-35434000D01*
X-36219000Y-35429000D01*
X-38322000Y-32211000D01*
X-38325000Y-32206000D01*
X-40173000Y-28795000D01*
X-40174000Y-28792000D01*
X-40368000Y-28394000D01*
X-40563000Y-27984000D01*
X-40563000Y-27983000D01*
X-40762000Y-27555000D01*
X-40960000Y-27123000D01*
X-40961000Y-27123000D01*
X-41149000Y-26704000D01*
X-41151000Y-26701000D01*
X-41346000Y-26258000D01*
X-41347000Y-26258000D01*
X-41528000Y-25839000D01*
X-41684000Y-25475000D01*
X-41686000Y-25474000D01*
X-41863000Y-25051000D01*
X-42009000Y-24696000D01*
X-42009000Y-24695000D01*
X-42138000Y-24372000D01*
X-42139000Y-24371000D01*
X-42247000Y-24089000D01*
X-42248000Y-24087000D01*
X-42430000Y-23571000D01*
X-42430000Y-23569000D01*
X-42628000Y-22967000D01*
X-42628000Y-22966000D01*
X-42836000Y-22299000D01*
X-42837000Y-22299000D01*
X-43050000Y-21589000D01*
X-43050000Y-21588000D01*
X-43260000Y-20860000D01*
X-43462000Y-20135000D01*
X-43462000Y-20134000D01*
X-43649000Y-19435000D01*
X-43814000Y-18789000D01*
X-43815000Y-18787000D01*
X-43955000Y-18201000D01*
X-43955000Y-18200000D01*
X-44062000Y-17712000D01*
X-44062000Y-17709000D01*
X-44127000Y-17358000D01*
X-44128000Y-17352000D01*
X-44162000Y-17008000D01*
X-44397000Y-16828000D01*
X-44881000Y-16756000D01*
X-45829000Y-16702000D01*
X-47449000Y-16660000D01*
X-49949000Y-16626000D01*
X-53515000Y-16600000D01*
X-58340000Y-16581000D01*
X-64606000Y-16567000D01*
X-72504000Y-16558000D01*
X-82221000Y-16553000D01*
X-93943000Y-16551000D01*
X-107859000Y-16550000D01*
X-123681000Y-16551000D01*
X-136696000Y-16550000D01*
X-147186000Y-16544000D01*
X-155435000Y-16526000D01*
X-161722000Y-16493000D01*
X-166329000Y-16440000D01*
X-166330000Y-16440000D01*
X-169551000Y-16362000D01*
X-169553000Y-16362000D01*
X-171630000Y-16256000D01*
X-171634000Y-16255000D01*
X-172901000Y-16114000D01*
X-172910000Y-16112000D01*
X-173582000Y-15947000D01*
X-173597000Y-15942000D01*
X-174043000Y-15727000D01*
X-174047000Y-15725000D01*
X-174513000Y-15465000D01*
X-174514000Y-15464000D01*
X-175146000Y-15097000D01*
X-175153000Y-15092000D01*
X-175731000Y-14664000D01*
X-175737000Y-14660000D01*
X-176287000Y-14162000D01*
X-176292000Y-14157000D01*
X-176800000Y-13604000D01*
X-176804000Y-13599000D01*
X-177274000Y-12981000D01*
X-177278000Y-12976000D01*
X-177688000Y-12333000D01*
X-177691000Y-12328000D01*
X-178063000Y-11623000D01*
X-178066000Y-11618000D01*
X-178366000Y-10910000D01*
X-178368000Y-10904000D01*
X-178618000Y-10148000D01*
X-178620000Y-10142000D01*
X-178799000Y-9389000D01*
X-178800000Y-9383000D01*
X-178911000Y-8621000D01*
X-178912000Y-8614000D01*
X-178949000Y-7837000D01*
X-178949000Y-7830000D01*
X-178910000Y-7125000D01*
X-178909000Y-7116000D01*
X-178786000Y-6381000D01*
X-178785000Y-6374000D01*
X-178590000Y-5638000D01*
X-178588000Y-5632000D01*
X-178326000Y-4911000D01*
X-178324000Y-4905000D01*
X-177997000Y-4196000D01*
X-177994000Y-4191000D01*
X-177606000Y-3501000D01*
X-177603000Y-3496000D01*
X-177174000Y-2857000D01*
X-177170000Y-2852000D01*
X-176677000Y-2235000D01*
X-176673000Y-2230000D01*
X-176166000Y-1694000D01*
X-176161000Y-1690000D01*
X-175601000Y-1199000D01*
X-175595000Y-1194000D01*
X-175021000Y-783000D01*
X-175013000Y-779000D01*
X-174396000Y-438000D01*
X-174394000Y-437000D01*
X-173932000Y-204000D01*
X-173927000Y-202000D01*
X-173472000Y-11000D01*
X-173458000Y-7000D01*
X-172747000Y147000D01*
X-172739000Y148000D01*
X-171464000Y273000D01*
X-171460000Y274000D01*
X-169319000Y373000D01*
X-169317000Y373000D01*
X-166081000Y445000D01*
X-166080000Y445000D01*
X-161459000Y494000D01*
X-161458000Y494000D01*
X-155174000Y526000D01*
X-146955000Y543000D01*
X-136520000Y549000D01*
X-123594000Y551000D01*
X-107900000Y550000D01*
X-44276000Y550000D01*
X-43977000Y2001000D01*
X-43976000Y2003000D01*
X-43513000Y4015000D01*
X-43512000Y4018000D01*
X-42931000Y6047000D01*
X-42930000Y6051000D01*
X-42240000Y8070000D01*
X-42239000Y8074000D01*
X-41453000Y10060000D01*
X-41451000Y10063000D01*
X-40558000Y12045000D01*
X-40557000Y12048000D01*
X-39558000Y14018000D01*
X-39556000Y14021000D01*
X-38478000Y15932000D01*
X-38476000Y15935000D01*
X-37305000Y17810000D01*
X-37303000Y17813000D01*
X-36056000Y19624000D01*
X-36054000Y19626000D01*
X-35200020Y20753000D01*
X-20988000Y20753000D01*
X-20988000Y20542000D01*
X-20930000Y20334000D01*
X-20828000Y20158000D01*
X-20826000Y20156000D01*
X-20683000Y20014000D01*
X-20682000Y20013000D01*
X-20501000Y19905000D01*
X-20294000Y19850000D01*
X-20260000Y19830000D01*
X-20184000Y19754000D01*
X-20161000Y19699000D01*
X-20161000Y16281000D01*
X-20171000Y16243000D01*
X-20275000Y16062000D01*
X-20332000Y15856000D01*
X-20332000Y15648000D01*
X-20275000Y15441000D01*
X-20172000Y15262000D01*
X-20024000Y15114000D01*
X-19837000Y15007000D01*
X-19640000Y14955000D01*
X-19431000Y14955000D01*
X-19226000Y15009000D01*
X-19225000Y15010000D01*
X-19045000Y15114000D01*
X-18897000Y15261000D01*
X-18896000Y15262000D01*
X-18789000Y15449000D01*
X-18737000Y15646000D01*
X-18737000Y15858000D01*
X-18788000Y16053000D01*
X-18788000Y16055000D01*
X-18897000Y16243000D01*
X-18907000Y16281000D01*
X-18907000Y19900000D01*
X-18906000Y19907000D01*
X-18907000Y19950000D01*
X-18907000Y20037000D01*
X-18908000Y20045000D01*
X-18907000Y20045000D01*
X-18909000Y20054000D01*
X-18910000Y20063000D01*
X-18911000Y20094000D01*
X-18912000Y20102000D01*
X-18929000Y20156000D01*
X-18931000Y20164000D01*
X-18940000Y20211000D01*
X-18952000Y20232000D01*
X-18958000Y20245000D01*
X-18967000Y20274000D01*
X-18968000Y20276000D01*
X-19004000Y20325000D01*
X-19009000Y20334000D01*
X-19040000Y20389000D01*
X-19087000Y20432000D01*
X-19374000Y20719000D01*
X-19394000Y20753000D01*
X-19448000Y20955000D01*
X-19552000Y21137000D01*
X-19699000Y21284000D01*
X-19881000Y21390000D01*
X-19883000Y21391000D01*
X-20087000Y21445000D01*
X-20296000Y21445000D01*
X-20493000Y21393000D01*
X-20680000Y21286000D01*
X-20681000Y21285000D01*
X-20829000Y21136000D01*
X-20931000Y20958000D01*
X-20988000Y20753000D01*
X-35200020Y20753000D01*
X-34709000Y21401000D01*
X-34706000Y21404000D01*
X-33310000Y23081000D01*
X-33308000Y23084000D01*
X-31829000Y24697000D01*
X-31826000Y24700000D01*
X-29948000Y26540000D01*
X-29945000Y26543000D01*
X-27978000Y28253000D01*
X-27974000Y28255000D01*
X-25867000Y29883000D01*
X-25864000Y29885000D01*
X-23692000Y31376000D01*
X-23689000Y31378000D01*
X-21412000Y32760000D01*
X-21409000Y32762000D01*
X-19050000Y34025000D01*
X-19046000Y34027000D01*
X-16650000Y35147000D01*
X-16646000Y35148000D01*
X-14178000Y36139000D01*
X-14174000Y36140000D01*
X-11654000Y36995000D01*
X-11650000Y36996000D01*
X-9127000Y37696000D01*
X-9123000Y37697000D01*
X-6542000Y38255000D01*
X-6538000Y38256000D01*
X-3976000Y38651000D01*
X-3972000Y38651000D01*
X-3211000Y38728000D01*
X-3209000Y38729000D01*
X-2325000Y38794000D01*
X-2324000Y38794000D01*
X-1295000Y38848000D01*
X-1293000Y38846000D01*
X-309000Y38882000D01*
X-308000Y38882000D01*
X780000Y38905000D01*
X781000Y38905000D01*
X1894000Y38915000D01*
X1895000Y38915000D01*
X3004000Y38910000D01*
X3005000Y38910000D01*
X4095000Y38891000D01*
X4096000Y38891000D01*
X5140000Y38858000D01*
X5142000Y38858000D01*
X6124000Y38810000D01*
X6126000Y38810000D01*
X7002000Y38749000D01*
X7004000Y38748000D01*
X7777000Y38671000D01*
X7781000Y38671000D01*
X10385000Y38274000D01*
X10389000Y38273000D01*
X12982000Y37720000D01*
X12987000Y37719000D01*
X15577000Y37008000D01*
X15581000Y37007000D01*
X18123000Y36152000D01*
X18127000Y36150000D01*
X20598000Y35163000D01*
X20601000Y35161000D01*
X23044000Y34025000D01*
X23048000Y34023000D01*
X25415000Y32758000D01*
X25418000Y32756000D01*
X27698000Y31371000D01*
X27701000Y31369000D01*
X29910000Y29850000D01*
X29913000Y29848000D01*
X32003000Y28228000D01*
X32006000Y28225000D01*
X33982000Y26498000D01*
X33986000Y26495000D01*
X35865000Y24641000D01*
X35868000Y24638000D01*
X36713000Y23733000D01*
X36714000Y23731000D01*
X37544000Y22801000D01*
X37545000Y22800000D01*
X38335000Y21867000D01*
X38336000Y21866000D01*
X39087000Y20931000D01*
X39088000Y20930000D01*
X39822000Y19968000D01*
X39823000Y19967000D01*
X40521000Y19000000D01*
X40522000Y18998000D01*
X41186000Y18025000D01*
X41188000Y18023000D01*
X41831000Y17024000D01*
X41832000Y17023000D01*
X42456000Y15996000D01*
X42457000Y15994000D01*
X43052000Y14956000D01*
X43053000Y14954000D01*
X43625000Y13892000D01*
X43626000Y13891000D01*
X44177000Y12806000D01*
X44178000Y12804000D01*
X44538000Y12049000D01*
X44539000Y12047000D01*
X44919000Y11188000D01*
X44920000Y11187000D01*
X45301000Y10276000D01*
X45301000Y10275000D01*
X45687000Y9304000D01*
X45687000Y9303000D01*
X46064000Y8310000D01*
X46065000Y8309000D01*
X46428000Y7305000D01*
X46429000Y7303000D01*
X46772000Y6308000D01*
X46772000Y6307000D01*
X47090000Y5338000D01*
X47090000Y5337000D01*
X47361000Y4461000D01*
X47364000Y4459000D01*
X47620000Y3563000D01*
X47621000Y3562000D01*
X47825000Y2778000D01*
X47826000Y2775000D01*
X47974000Y2117000D01*
X47974000Y2114000D01*
X48273000Y551000D01*
X111899000Y550000D01*
X127712000Y551000D01*
X140719000Y550000D01*
X151203000Y544000D01*
X159446000Y526000D01*
X165730000Y493000D01*
X170335000Y440000D01*
X170336000Y440000D01*
X173554000Y362000D01*
X173556000Y362000D01*
X175632000Y256000D01*
X175636000Y255000D01*
X176902000Y114000D01*
X176911000Y112000D01*
X177582000Y-53000D01*
X177597000Y-58000D01*
X178043000Y-273000D01*
X178047000Y-275000D01*
X178519000Y-538000D01*
X178520000Y-539000D01*
X179241000Y-964000D01*
X179249000Y-969000D01*
X179918000Y-1481000D01*
X179925000Y-1487000D01*
X180538000Y-2074000D01*
X180543000Y-2080000D01*
X181096000Y-2736000D01*
X181101000Y-2742000D01*
X181586000Y-3452000D01*
X181590000Y-3459000D01*
X182008000Y-4223000D01*
X182012000Y-4230000D01*
X182355000Y-5036000D01*
X182358000Y-5043000D01*
X182622000Y-5877000D01*
X182624000Y-5885000D01*
X182801000Y-6730000D01*
X182802000Y-6737000D01*
X182895000Y-7612000D01*
X182895000Y-7620000D01*
X182893000Y-8489000D01*
X182893000Y-8497000D01*
X182795000Y-9351000D01*
X182793000Y-9358000D01*
X182614000Y-10188000D01*
X182612000Y-10195000D01*
X182366000Y-10980000D01*
X182364000Y-10987000D01*
X182053000Y-11729000D01*
X182050000Y-11736000D01*
X181681000Y-12422000D01*
X181678000Y-12428000D01*
X181239000Y-13085000D01*
X181234000Y-13091000D01*
X180744000Y-13689000D01*
X180739000Y-13694000D01*
X180183000Y-14252000D01*
X180177000Y-14256000D01*
X179574000Y-14754000D01*
X179568000Y-14758000D01*
X178897000Y-15210000D01*
X178891000Y-15214000D01*
X178157000Y-15617000D01*
X178151000Y-15620000D01*
X177396000Y-15951000D01*
X177390000Y-15953000D01*
X176557000Y-16237000D01*
X176546000Y-16240000D01*
X176221000Y-16299000D01*
X176214000Y-16300000D01*
X175489000Y-16358000D01*
X175486000Y-16358000D01*
X174224000Y-16407000D01*
X174223000Y-16407000D01*
X172269000Y-16446000D01*
X172268000Y-16446000D01*
X169453000Y-16478000D01*
X165619000Y-16502000D01*
X160597000Y-16521000D01*
X154227000Y-16534000D01*
X146342000Y-16542000D01*
X136778000Y-16547000D01*
X125373000Y-16549000D01*
X111961000Y-16550000D01*
X98022000Y-16551000D01*
X86281000Y-16553000D01*
X76549000Y-16558000D01*
X68637000Y-16567000D01*
X62359000Y-16581000D01*
X57530000Y-16600000D01*
X53956000Y-16626000D01*
X51452000Y-16660000D01*
X49831000Y-16702000D01*
X48882000Y-16756000D01*
X48397000Y-16827000D01*
X48162000Y-17007000D01*
X48128000Y-17352000D01*
X48127000Y-17358000D01*
X48062000Y-17709000D01*
X48062000Y-17712000D01*
X47953000Y-18208000D01*
X47953000Y-18209000D01*
X47815000Y-18787000D01*
X47814000Y-18789000D01*
X47637000Y-19484000D01*
X47635000Y-19486000D01*
X47480000Y-20067000D01*
X47481000Y-20068000D01*
X47259000Y-20864000D01*
X47049000Y-21592000D01*
X47049000Y-21593000D01*
X46836000Y-22303000D01*
X46835000Y-22303000D01*
X46626000Y-22972000D01*
X46626000Y-22973000D01*
X46427000Y-23578000D01*
X46427000Y-23579000D01*
X46248000Y-24086000D01*
X46247000Y-24088000D01*
X45773000Y-25305000D01*
X45772000Y-25307000D01*
X45249000Y-26532000D01*
X45248000Y-26534000D01*
X44676000Y-27774000D01*
X44675000Y-27776000D01*
X44061000Y-29013000D01*
X44060000Y-29015000D01*
X43398000Y-30270000D01*
X43397000Y-30272000D01*
X42704000Y-31505000D01*
X42703000Y-31507000D01*
X41978000Y-32724000D01*
X41977000Y-32725000D01*
X41227000Y-33914000D01*
X41226000Y-33916000D01*
X40453000Y-35069000D01*
X40452000Y-35071000D01*
X39669000Y-36172000D01*
X39667000Y-36174000D01*
X38857000Y-37243000D01*
X38855000Y-37245000D01*
X38044000Y-38244000D01*
X38042000Y-38247000D01*
X36121000Y-40400000D01*
X36118000Y-40403000D01*
X34076000Y-42421000D01*
X34072000Y-42425000D01*
X31889000Y-44329000D01*
X31885000Y-44332000D01*
X29621000Y-46070000D01*
X29617000Y-46073000D01*
X27218000Y-47690000D01*
X27214000Y-47692000D01*
X24721000Y-49157000D01*
X24717000Y-49160000D01*
X22161000Y-50461000D01*
X22157000Y-50463000D01*
X19485000Y-51623000D01*
X19480000Y-51625000D01*
X16723000Y-52630000D01*
X16719000Y-52631000D01*
X13921000Y-53464000D01*
X13916000Y-53466000D01*
X11007000Y-54146000D01*
X11003000Y-54146000D01*
X8063000Y-54653000D01*
X8059000Y-54654000D01*
X7340000Y-54737000D01*
X7337000Y-54737000D01*
X6501000Y-54804000D01*
X6499000Y-54806000D01*
X5381000Y-54868000D01*
X5379000Y-54866000D01*
X4341000Y-54903000D01*
X4340000Y-54903000D01*
X3185000Y-54927000D01*
X3184000Y-54927000D01*
X2001000Y-54935000D01*
G37*
%TD.AperFunction*%
%TD*%
M02*
