%TF.GenerationSoftware,Flux,Pcbnew,7.0.11-7.0.11~ubuntu20.04.1*%
%TF.CreationDate,2024-08-21T12:24:35+00:00*%
%TF.ProjectId,input,696e7075-742e-46b6-9963-61645f706362,rev?*%
%TF.SameCoordinates,Original*%
%TF.FileFunction,Copper,L1,Top*%
%TF.FilePolarity,Positive*%
%FSLAX46Y46*%
G04 Gerber Fmt 4.6, Leading zero omitted, Abs format (unit mm)*
G04 Filename: practical-fuchsia-massive-robot-spider*
G04 Build it with Flux! Visit our site at: https://www.flux.ai (PCBNEW 7.0.11-7.0.11~ubuntu20.04.1) date 2024-08-21 12:24:35*
%MOMM*%
%LPD*%
G01*
G04 APERTURE LIST*
G04 Aperture macros list*
%AMFreePoly0*
4,1,101,0.333457,0.474848,0.338093,0.474391,0.342690,0.473632,0.347228,0.472574,0.351686,0.471221,0.356047,0.469580,0.360291,0.467657,0.364400,0.465461,0.368357,0.463001,0.372144,0.460287,0.375745,0.457331,0.379146,0.454146,0.382331,0.450745,0.385287,0.447144,0.388001,0.443357,0.390461,0.439400,0.392657,0.435291,0.394580,0.431047,0.396221,0.426686,0.397574,0.422228,
0.398632,0.417690,0.399391,0.413093,0.399848,0.408457,0.400000,0.403800,0.400000,-0.403800,0.399848,-0.408457,0.399391,-0.413093,0.398632,-0.417690,0.397574,-0.422228,0.396221,-0.426686,0.394580,-0.431047,0.392657,-0.435291,0.390461,-0.439400,0.388001,-0.443357,0.385287,-0.447144,0.382331,-0.450745,0.379146,-0.454146,0.375745,-0.457331,0.372144,-0.460287,0.368357,-0.463001,
0.364400,-0.465461,0.360291,-0.467657,0.356047,-0.469580,0.351686,-0.471221,0.347228,-0.472574,0.342690,-0.473632,0.338093,-0.474391,0.333457,-0.474848,0.328800,-0.475000,-0.328800,-0.475000,-0.333457,-0.474848,-0.338093,-0.474391,-0.342690,-0.473632,-0.347228,-0.472574,-0.351686,-0.471221,-0.356047,-0.469580,-0.360291,-0.467657,-0.364400,-0.465461,-0.368357,-0.463001,-0.372144,-0.460287,
-0.375745,-0.457331,-0.379146,-0.454146,-0.382331,-0.450745,-0.385287,-0.447144,-0.388001,-0.443357,-0.390461,-0.439400,-0.392657,-0.435291,-0.394580,-0.431047,-0.396221,-0.426686,-0.397574,-0.422228,-0.398632,-0.417690,-0.399391,-0.413093,-0.399848,-0.408457,-0.400000,-0.403800,-0.400000,0.403800,-0.399848,0.408457,-0.399391,0.413093,-0.398632,0.417690,-0.397574,0.422228,-0.396221,0.426686,
-0.394580,0.431047,-0.392657,0.435291,-0.390461,0.439400,-0.388001,0.443357,-0.385287,0.447144,-0.382331,0.450745,-0.379146,0.454146,-0.375745,0.457331,-0.372144,0.460287,-0.368357,0.463001,-0.364400,0.465461,-0.360291,0.467657,-0.356047,0.469580,-0.351686,0.471221,-0.347228,0.472574,-0.342690,0.473632,-0.338093,0.474391,-0.333457,0.474848,-0.328800,0.475000,0.328800,0.475000,
0.333457,0.474848,0.333457,0.474848,$1*%
%AMFreePoly1*
4,1,101,0.383457,0.474848,0.388093,0.474391,0.392690,0.473632,0.397228,0.472574,0.401686,0.471221,0.406047,0.469580,0.410291,0.467657,0.414400,0.465461,0.418357,0.463001,0.422144,0.460287,0.425745,0.457331,0.429146,0.454146,0.432331,0.450745,0.435287,0.447144,0.438001,0.443357,0.440461,0.439400,0.442657,0.435291,0.444580,0.431047,0.446221,0.426686,0.447574,0.422228,
0.448632,0.417690,0.449391,0.413093,0.449848,0.408457,0.450000,0.403800,0.450000,-0.403800,0.449848,-0.408457,0.449391,-0.413093,0.448632,-0.417690,0.447574,-0.422228,0.446221,-0.426686,0.444580,-0.431047,0.442657,-0.435291,0.440461,-0.439400,0.438001,-0.443357,0.435287,-0.447144,0.432331,-0.450745,0.429146,-0.454146,0.425745,-0.457331,0.422144,-0.460287,0.418357,-0.463001,
0.414400,-0.465461,0.410291,-0.467657,0.406047,-0.469580,0.401686,-0.471221,0.397228,-0.472574,0.392690,-0.473632,0.388093,-0.474391,0.383457,-0.474848,0.378800,-0.475000,-0.378800,-0.475000,-0.383457,-0.474848,-0.388093,-0.474391,-0.392690,-0.473632,-0.397228,-0.472574,-0.401686,-0.471221,-0.406047,-0.469580,-0.410291,-0.467657,-0.414400,-0.465461,-0.418357,-0.463001,-0.422144,-0.460287,
-0.425745,-0.457331,-0.429146,-0.454146,-0.432331,-0.450745,-0.435287,-0.447144,-0.438001,-0.443357,-0.440461,-0.439400,-0.442657,-0.435291,-0.444580,-0.431047,-0.446221,-0.426686,-0.447574,-0.422228,-0.448632,-0.417690,-0.449391,-0.413093,-0.449848,-0.408457,-0.450000,-0.403800,-0.450000,0.403800,-0.449848,0.408457,-0.449391,0.413093,-0.448632,0.417690,-0.447574,0.422228,-0.446221,0.426686,
-0.444580,0.431047,-0.442657,0.435291,-0.440461,0.439400,-0.438001,0.443357,-0.435287,0.447144,-0.432331,0.450745,-0.429146,0.454146,-0.425745,0.457331,-0.422144,0.460287,-0.418357,0.463001,-0.414400,0.465461,-0.410291,0.467657,-0.406047,0.469580,-0.401686,0.471221,-0.397228,0.472574,-0.392690,0.473632,-0.388093,0.474391,-0.383457,0.474848,-0.378800,0.475000,0.378800,0.475000,
0.383457,0.474848,0.383457,0.474848,$1*%
%AMFreePoly2*
4,1,5,0.325000,-0.762500,-0.325000,-0.762500,-0.325000,0.762500,0.325000,0.762500,0.325000,-0.762500,0.325000,-0.762500,$1*%
%AMFreePoly3*
4,1,101,0.389367,0.699775,0.396205,0.699102,0.402984,0.697982,0.409676,0.696422,0.416251,0.694428,0.422682,0.692007,0.428940,0.689172,0.435000,0.685933,0.440835,0.682304,0.446420,0.678302,0.451731,0.673943,0.456746,0.669246,0.461443,0.664231,0.465802,0.658920,0.469804,0.653335,0.473433,0.647500,0.476672,0.641440,0.479507,0.635182,0.481928,0.628751,0.483922,0.622176,
0.485482,0.615484,0.486602,0.608705,0.487275,0.601867,0.487500,0.595000,0.487500,-0.595000,0.487275,-0.601867,0.486602,-0.608705,0.485482,-0.615484,0.483922,-0.622176,0.481928,-0.628751,0.479507,-0.635182,0.476672,-0.641440,0.473433,-0.647500,0.469804,-0.653335,0.465802,-0.658920,0.461443,-0.664231,0.456746,-0.669246,0.451731,-0.673943,0.446420,-0.678302,0.440835,-0.682304,
0.435000,-0.685933,0.428940,-0.689172,0.422682,-0.692007,0.416251,-0.694428,0.409676,-0.696422,0.402984,-0.697982,0.396205,-0.699102,0.389367,-0.699775,0.382500,-0.700000,-0.382500,-0.700000,-0.389367,-0.699775,-0.396205,-0.699102,-0.402984,-0.697982,-0.409676,-0.696422,-0.416251,-0.694428,-0.422682,-0.692007,-0.428940,-0.689172,-0.435000,-0.685933,-0.440835,-0.682304,-0.446420,-0.678302,
-0.451731,-0.673943,-0.456746,-0.669246,-0.461443,-0.664231,-0.465802,-0.658920,-0.469804,-0.653335,-0.473433,-0.647500,-0.476672,-0.641440,-0.479507,-0.635182,-0.481928,-0.628751,-0.483922,-0.622176,-0.485482,-0.615484,-0.486602,-0.608705,-0.487275,-0.601867,-0.487500,-0.595000,-0.487500,0.595000,-0.487275,0.601867,-0.486602,0.608705,-0.485482,0.615484,-0.483922,0.622176,-0.481928,0.628751,
-0.479507,0.635182,-0.476672,0.641440,-0.473433,0.647500,-0.469804,0.653335,-0.465802,0.658920,-0.461443,0.664231,-0.456746,0.669246,-0.451731,0.673943,-0.446420,0.678302,-0.440835,0.682304,-0.435000,0.685933,-0.428940,0.689172,-0.422682,0.692007,-0.416251,0.694428,-0.409676,0.696422,-0.402984,0.697982,-0.396205,0.699102,-0.389367,0.699775,-0.382500,0.700000,0.382500,0.700000,
0.389367,0.699775,0.389367,0.699775,$1*%
%AMFreePoly4*
4,1,5,1.000000,-0.750000,-1.000000,-0.750000,-1.000000,0.750000,1.000000,0.750000,1.000000,-0.750000,1.000000,-0.750000,$1*%
%AMFreePoly5*
4,1,5,1.000000,-1.900000,-1.000000,-1.900000,-1.000000,1.900000,1.000000,1.900000,1.000000,-1.900000,1.000000,-1.900000,$1*%
%AMFreePoly6*
4,1,5,1.250000,-0.500000,-1.250000,-0.500000,-1.250000,0.500000,1.250000,0.500000,1.250000,-0.500000,1.250000,-0.500000,$1*%
%AMFreePoly7*
4,1,5,0.500000,-0.900000,-0.500000,-0.900000,-0.500000,0.900000,0.500000,0.900000,0.500000,-0.900000,0.500000,-0.900000,$1*%
%AMFreePoly8*
4,1,129,0.022069,0.299187,0.036723,0.297744,0.051289,0.295583,0.065730,0.292711,0.080014,0.289133,0.094105,0.284858,0.107969,0.279898,0.121572,0.274263,0.134883,0.267967,0.147869,0.261026,0.160499,0.253456,0.172742,0.245275,0.184569,0.236504,0.195952,0.227163,0.206862,0.217274,0.217274,0.206862,0.227163,0.195952,0.236504,0.184569,0.245275,0.172742,0.253456,0.160499,
0.261026,0.147869,0.267967,0.134883,0.274263,0.121572,0.279898,0.107969,0.284858,0.094105,0.289133,0.080014,0.292711,0.065730,0.295583,0.051289,0.297744,0.036723,0.299187,0.022069,0.299910,0.007362,0.299910,-0.007362,0.299187,-0.022069,0.297744,-0.036723,0.295583,-0.051289,0.292711,-0.065730,0.289133,-0.080014,0.284858,-0.094105,0.279898,-0.107969,0.274263,-0.121572,
0.267967,-0.134883,0.261026,-0.147869,0.253456,-0.160499,0.245275,-0.172742,0.236504,-0.184569,0.227163,-0.195952,0.217274,-0.206862,0.206862,-0.217274,0.195952,-0.227163,0.184569,-0.236504,0.172742,-0.245275,0.160499,-0.253456,0.147869,-0.261026,0.134883,-0.267967,0.121572,-0.274263,0.107969,-0.279898,0.094105,-0.284858,0.080014,-0.289133,0.065730,-0.292711,0.051289,-0.295583,
0.036723,-0.297744,0.022069,-0.299187,0.007362,-0.299910,-0.007362,-0.299910,-0.022069,-0.299187,-0.036723,-0.297744,-0.051289,-0.295583,-0.065730,-0.292711,-0.080014,-0.289133,-0.094105,-0.284858,-0.107969,-0.279898,-0.121572,-0.274263,-0.134883,-0.267967,-0.147869,-0.261026,-0.160499,-0.253456,-0.172742,-0.245275,-0.184569,-0.236504,-0.195952,-0.227163,-0.206862,-0.217274,-0.217274,-0.206862,
-0.227163,-0.195952,-0.236504,-0.184569,-0.245275,-0.172742,-0.253456,-0.160499,-0.261026,-0.147869,-0.267967,-0.134883,-0.274263,-0.121572,-0.279898,-0.107969,-0.284858,-0.094105,-0.289133,-0.080014,-0.292711,-0.065730,-0.295583,-0.051289,-0.297744,-0.036723,-0.299187,-0.022069,-0.299910,-0.007362,-0.299910,0.007362,-0.299187,0.022069,-0.297744,0.036723,-0.295583,0.051289,-0.292711,0.065730,
-0.289133,0.080014,-0.284858,0.094105,-0.279898,0.107969,-0.274263,0.121572,-0.267967,0.134883,-0.261026,0.147869,-0.253456,0.160499,-0.245275,0.172742,-0.236504,0.184569,-0.227163,0.195952,-0.217274,0.206862,-0.206862,0.217274,-0.195952,0.227163,-0.184569,0.236504,-0.172742,0.245275,-0.160499,0.253456,-0.147869,0.261026,-0.134883,0.267967,-0.121572,0.274263,-0.107969,0.279898,
-0.094105,0.284858,-0.080014,0.289133,-0.065730,0.292711,-0.051289,0.295583,-0.036723,0.297744,-0.022069,0.299187,-0.007362,0.299910,0.007362,0.299910,0.022069,0.299187,0.022069,0.299187,$1*%
G04 Aperture macros list end*
%TA.AperFunction,SMDPad,CuDef*%
%ADD10FreePoly0,0.000000*%
%TD*%
%TA.AperFunction,SMDPad,CuDef*%
%ADD11FreePoly1,0.000000*%
%TD*%
%TA.AperFunction,SMDPad,CuDef*%
%ADD12FreePoly2,90.000000*%
%TD*%
%TA.AperFunction,SMDPad,CuDef*%
%ADD13FreePoly3,0.000000*%
%TD*%
%TA.AperFunction,SMDPad,CuDef*%
%ADD14FreePoly1,270.000000*%
%TD*%
%TA.AperFunction,SMDPad,CuDef*%
%ADD15FreePoly0,90.000000*%
%TD*%
%TA.AperFunction,SMDPad,CuDef*%
%ADD16FreePoly4,90.000000*%
%TD*%
%TA.AperFunction,SMDPad,CuDef*%
%ADD17FreePoly5,90.000000*%
%TD*%
%TA.AperFunction,SMDPad,CuDef*%
%ADD18FreePoly1,180.000000*%
%TD*%
%TA.AperFunction,SMDPad,CuDef*%
%ADD19FreePoly4,0.000000*%
%TD*%
%TA.AperFunction,SMDPad,CuDef*%
%ADD20FreePoly5,0.000000*%
%TD*%
%TA.AperFunction,SMDPad,CuDef*%
%ADD21FreePoly6,0.000000*%
%TD*%
%TA.AperFunction,SMDPad,CuDef*%
%ADD22FreePoly7,0.000000*%
%TD*%
%TA.AperFunction,ComponentPad*%
%ADD23FreePoly8,0.000000*%
%TD*%
%TA.AperFunction,Conductor*%
%ADD24C,0.254000*%
%TD*%
G04 APERTURE END LIST*
D10*
%TO.P,,0c4d2669-4be5-4a06-8105-d74d3285705e__880f28ef-cf41-0acc-4a98-ce0afa37b0c2*%
%TO.N,N/C*%
X8016400Y-88828300D03*
%TO.P,,0c4d2669-4be5-4a06-8105-d74d3285705e__dff57d78-487b-f832-db06-4405c23ce37c*%
X6366400Y-88828300D03*
%TO.P,,0f5f83be-7247-449b-95ff-479666469cf8__880f28ef-cf41-0acc-4a98-ce0afa37b0c2*%
X79629300Y-108982700D03*
%TO.P,,0f5f83be-7247-449b-95ff-479666469cf8__dff57d78-487b-f832-db06-4405c23ce37c*%
X77979300Y-108982700D03*
D11*
%TO.P,,12c64a6a-4415-4c64-8adf-e4a582309ebf__5237503d-4662-b83a-7859-31969858b9c0*%
X111995500Y-110171900D03*
%TO.P,,12c64a6a-4415-4c64-8adf-e4a582309ebf__e5e04a27-c5c4-f2e6-5799-708eb3f01464*%
X113545500Y-110171900D03*
D12*
%TO.P,,146e33c8-8c19-4ed6-809c-0a7091aa26d8__2dde63e4-198b-4cf9-8b66-38fea60c58e8*%
X145308900Y-155087800D03*
%TO.P,,146e33c8-8c19-4ed6-809c-0a7091aa26d8__3e3d844e-a582-4dc2-9287-b9e9333a370a*%
X139884900Y-153817800D03*
%TO.P,,146e33c8-8c19-4ed6-809c-0a7091aa26d8__41c02d70-ac01-46d5-a418-3ca257f4166b*%
X145308900Y-158897800D03*
%TO.P,,146e33c8-8c19-4ed6-809c-0a7091aa26d8__49744d53-f947-442e-a5de-885242951984*%
X139884900Y-160167800D03*
%TO.P,,146e33c8-8c19-4ed6-809c-0a7091aa26d8__4e5d935c-68fe-4a6c-af52-ad0cda1e4ad7*%
X145308900Y-161437800D03*
%TO.P,,146e33c8-8c19-4ed6-809c-0a7091aa26d8__51215b18-a76e-4d60-a5ae-02e252c56538*%
X145308900Y-156357800D03*
%TO.P,,146e33c8-8c19-4ed6-809c-0a7091aa26d8__5fbdd453-191c-41ec-af05-ebe009909d4d*%
X139884900Y-158897800D03*
%TO.P,,146e33c8-8c19-4ed6-809c-0a7091aa26d8__651f2f7f-9cc5-4374-92ba-8996fccaf64c*%
X139884900Y-157627800D03*
%TO.P,,146e33c8-8c19-4ed6-809c-0a7091aa26d8__74cb0c46-e9f6-4417-a28d-272facc3296e*%
X139884900Y-161437800D03*
%TO.P,,146e33c8-8c19-4ed6-809c-0a7091aa26d8__7e6c1b2a-8b24-42ce-be6f-29dc781f47c7*%
X145308900Y-152547800D03*
%TO.P,,146e33c8-8c19-4ed6-809c-0a7091aa26d8__acae1ad6-4456-4818-9303-c760e18c8cc3*%
X145308900Y-157627800D03*
%TO.P,,146e33c8-8c19-4ed6-809c-0a7091aa26d8__b0fdc299-5392-4672-b022-ab9307c28da7*%
X139884900Y-155087800D03*
%TO.P,,146e33c8-8c19-4ed6-809c-0a7091aa26d8__cd39293d-29a6-4df3-8769-85f5008e0edd*%
X139884900Y-152547800D03*
%TO.P,,146e33c8-8c19-4ed6-809c-0a7091aa26d8__da06ddd4-6f10-41bb-ab22-27b09a031fe8*%
X145308900Y-160167800D03*
%TO.P,,146e33c8-8c19-4ed6-809c-0a7091aa26d8__f842c5c9-69c7-4412-9501-3a0f8ba5e66b*%
X145308900Y-153817800D03*
%TO.P,,146e33c8-8c19-4ed6-809c-0a7091aa26d8__fb8c490b-3d9d-46f4-a1d4-1b219b5a70cf*%
X139884900Y-156357800D03*
D13*
%TO.P,,227b4b48-065f-4c38-838e-b221b1dd05d8__33280eed-a126-76ed-3000-797ef47fb1a1*%
X28879900Y-114125900D03*
%TO.P,,227b4b48-065f-4c38-838e-b221b1dd05d8__99b4e4f8-b222-3ea3-e380-d601f2044245*%
X27004900Y-114125900D03*
D10*
%TO.P,,261afa9a-1538-431b-9b57-4e2877ee6ad9__880f28ef-cf41-0acc-4a98-ce0afa37b0c2*%
X3413100Y-207200300D03*
%TO.P,,261afa9a-1538-431b-9b57-4e2877ee6ad9__dff57d78-487b-f832-db06-4405c23ce37c*%
X1763100Y-207200300D03*
D13*
%TO.P,,2aca5a6d-6a11-48b2-9809-f4218481ed15__33280eed-a126-76ed-3000-797ef47fb1a1*%
X47226800Y-119874200D03*
%TO.P,,2aca5a6d-6a11-48b2-9809-f4218481ed15__99b4e4f8-b222-3ea3-e380-d601f2044245*%
X45351800Y-119874200D03*
%TO.P,,2b12c028-5aa0-47eb-95da-e3ca90cc384e__33280eed-a126-76ed-3000-797ef47fb1a1*%
X37003700Y-172200600D03*
%TO.P,,2b12c028-5aa0-47eb-95da-e3ca90cc384e__99b4e4f8-b222-3ea3-e380-d601f2044245*%
X35128700Y-172200600D03*
D10*
%TO.P,,2d48304c-7590-42ae-b1df-b4ec59c8ec86__880f28ef-cf41-0acc-4a98-ce0afa37b0c2*%
X-23541900Y-140682300D03*
%TO.P,,2d48304c-7590-42ae-b1df-b4ec59c8ec86__dff57d78-487b-f832-db06-4405c23ce37c*%
X-25191900Y-140682300D03*
%TO.P,,3517dc46-83b4-446f-b117-a81bbb7b36ab__880f28ef-cf41-0acc-4a98-ce0afa37b0c2*%
X126051800Y-142335700D03*
%TO.P,,3517dc46-83b4-446f-b117-a81bbb7b36ab__dff57d78-487b-f832-db06-4405c23ce37c*%
X124401800Y-142335700D03*
D14*
%TO.P,,3863764d-57b7-457d-b49f-f7a41d938284__5237503d-4662-b83a-7859-31969858b9c0*%
X-16459201Y18922000D03*
%TO.P,,3863764d-57b7-457d-b49f-f7a41d938284__e5e04a27-c5c4-f2e6-5799-708eb3f01464*%
X-16459199Y17372000D03*
D13*
%TO.P,,38d9a648-8bd0-4bea-af84-4b10365e3430__33280eed-a126-76ed-3000-797ef47fb1a1*%
X35280800Y-62340900D03*
%TO.P,,38d9a648-8bd0-4bea-af84-4b10365e3430__99b4e4f8-b222-3ea3-e380-d601f2044245*%
X33405800Y-62340900D03*
D11*
%TO.P,,39bab140-ea15-4acb-8738-f2b28739b47e__5237503d-4662-b83a-7859-31969858b9c0*%
X13862100Y10453500D03*
%TO.P,,39bab140-ea15-4acb-8738-f2b28739b47e__e5e04a27-c5c4-f2e6-5799-708eb3f01464*%
X15412100Y10453500D03*
%TO.P,,41255a28-136e-4357-8f6a-0750f6f0e679__5237503d-4662-b83a-7859-31969858b9c0*%
X17407900Y-93173300D03*
%TO.P,,41255a28-136e-4357-8f6a-0750f6f0e679__e5e04a27-c5c4-f2e6-5799-708eb3f01464*%
X18957900Y-93173300D03*
D10*
%TO.P,,438704e3-ba3f-4cbc-a69a-6d1f109afc33__880f28ef-cf41-0acc-4a98-ce0afa37b0c2*%
X50484700Y-94713800D03*
%TO.P,,438704e3-ba3f-4cbc-a69a-6d1f109afc33__dff57d78-487b-f832-db06-4405c23ce37c*%
X48834700Y-94713800D03*
%TO.P,,49bb48dd-83ab-4405-b00b-aa1cfb7535e7__880f28ef-cf41-0acc-4a98-ce0afa37b0c2*%
X290700Y-181614100D03*
%TO.P,,49bb48dd-83ab-4405-b00b-aa1cfb7535e7__dff57d78-487b-f832-db06-4405c23ce37c*%
X-1359300Y-181614100D03*
D15*
%TO.P,,4e0a4896-ac8b-4974-bf0c-873929768c06__880f28ef-cf41-0acc-4a98-ce0afa37b0c2*%
X-21059203Y18975500D03*
%TO.P,,4e0a4896-ac8b-4974-bf0c-873929768c06__dff57d78-487b-f832-db06-4405c23ce37c*%
X-21059197Y17325500D03*
D10*
%TO.P,,4eb00d45-3db0-4f8d-b3bc-46dac399c5e9__880f28ef-cf41-0acc-4a98-ce0afa37b0c2*%
X107204100Y-156667800D03*
%TO.P,,4eb00d45-3db0-4f8d-b3bc-46dac399c5e9__dff57d78-487b-f832-db06-4405c23ce37c*%
X105554100Y-156667800D03*
D13*
%TO.P,,55f17c7c-43e0-495a-94a1-6434dd0c5fd8__33280eed-a126-76ed-3000-797ef47fb1a1*%
X69274500Y-106359700D03*
%TO.P,,55f17c7c-43e0-495a-94a1-6434dd0c5fd8__99b4e4f8-b222-3ea3-e380-d601f2044245*%
X67399500Y-106359700D03*
D10*
%TO.P,,57ceef9a-02e6-4e1e-b085-89aa42206784__880f28ef-cf41-0acc-4a98-ce0afa37b0c2*%
X-33761100Y-159332200D03*
%TO.P,,57ceef9a-02e6-4e1e-b085-89aa42206784__dff57d78-487b-f832-db06-4405c23ce37c*%
X-35411100Y-159332200D03*
%TO.P,,58f5dfa1-5466-41bb-bfc8-f68a1f3d222e__880f28ef-cf41-0acc-4a98-ce0afa37b0c2*%
X91644400Y-119630800D03*
%TO.P,,58f5dfa1-5466-41bb-bfc8-f68a1f3d222e__dff57d78-487b-f832-db06-4405c23ce37c*%
X89994400Y-119630800D03*
D13*
%TO.P,,602447ce-4908-4dfd-bd06-e5db8389ff32__33280eed-a126-76ed-3000-797ef47fb1a1*%
X40410700Y-228270600D03*
%TO.P,,602447ce-4908-4dfd-bd06-e5db8389ff32__99b4e4f8-b222-3ea3-e380-d601f2044245*%
X38535700Y-228270600D03*
D10*
%TO.P,,6081dfe3-fbfa-4a45-a804-bfc7e0f437ac__880f28ef-cf41-0acc-4a98-ce0afa37b0c2*%
X-10994600Y-210260000D03*
%TO.P,,6081dfe3-fbfa-4a45-a804-bfc7e0f437ac__dff57d78-487b-f832-db06-4405c23ce37c*%
X-12644600Y-210260000D03*
D16*
%TO.P,,6195d45f-b8f2-46ed-8b85-8ad540281605__067494cb-4e9e-cb48-1e72-15ce4bf90d3d*%
X-18759188Y22343700D03*
%TO.P,,6195d45f-b8f2-46ed-8b85-8ad540281605__17993ab7-03eb-a0a4-3663-439043d69847*%
X-16459188Y22343708D03*
%TO.P,,6195d45f-b8f2-46ed-8b85-8ad540281605__53b3baf8-bd94-9ef8-7025-c74057d2be07*%
X-21059188Y22343692D03*
D17*
%TO.P,,6195d45f-b8f2-46ed-8b85-8ad540281605__905d5495-5182-0853-8747-c1876cea3d98*%
X-18759212Y28643700D03*
D13*
%TO.P,,6b9a9238-7ffd-4b9d-af99-c7da432a4f15__33280eed-a126-76ed-3000-797ef47fb1a1*%
X26265700Y-88828300D03*
%TO.P,,6b9a9238-7ffd-4b9d-af99-c7da432a4f15__99b4e4f8-b222-3ea3-e380-d601f2044245*%
X24390700Y-88828300D03*
D10*
%TO.P,,6bde3ed0-2e8a-43e2-a14e-d2113d0dfc60__880f28ef-cf41-0acc-4a98-ce0afa37b0c2*%
X37358900Y-111950700D03*
%TO.P,,6bde3ed0-2e8a-43e2-a14e-d2113d0dfc60__dff57d78-487b-f832-db06-4405c23ce37c*%
X35708900Y-111950700D03*
D13*
%TO.P,,6c9266c4-76bb-4a50-a288-ddeb12b7c42b__33280eed-a126-76ed-3000-797ef47fb1a1*%
X81212600Y-87603600D03*
%TO.P,,6c9266c4-76bb-4a50-a288-ddeb12b7c42b__99b4e4f8-b222-3ea3-e380-d601f2044245*%
X79337600Y-87603600D03*
D11*
%TO.P,,721636b6-0578-4c7b-9cb4-9a0af089fe4f__5237503d-4662-b83a-7859-31969858b9c0*%
X-19534200Y18922000D03*
%TO.P,,721636b6-0578-4c7b-9cb4-9a0af089fe4f__e5e04a27-c5c4-f2e6-5799-708eb3f01464*%
X-17984200Y18922000D03*
D10*
%TO.P,,783335ee-22f7-4674-8a0e-70fc5843ec8d__880f28ef-cf41-0acc-4a98-ce0afa37b0c2*%
X-35733300Y-163519400D03*
%TO.P,,783335ee-22f7-4674-8a0e-70fc5843ec8d__dff57d78-487b-f832-db06-4405c23ce37c*%
X-37383300Y-163519400D03*
%TO.P,,7f751312-5207-4be4-bb12-629ca8fc0394__880f28ef-cf41-0acc-4a98-ce0afa37b0c2*%
X15412100Y13259200D03*
%TO.P,,7f751312-5207-4be4-bb12-629ca8fc0394__dff57d78-487b-f832-db06-4405c23ce37c*%
X13762100Y13259200D03*
%TO.P,,87245037-a1a9-4392-93a3-a2080bc46032__880f28ef-cf41-0acc-4a98-ce0afa37b0c2*%
X10178200Y-127121700D03*
%TO.P,,87245037-a1a9-4392-93a3-a2080bc46032__dff57d78-487b-f832-db06-4405c23ce37c*%
X8528200Y-127121700D03*
%TO.P,,8ffd557a-9d8a-4c39-b760-ab16439898f0__880f28ef-cf41-0acc-4a98-ce0afa37b0c2*%
X128970400Y-146563500D03*
%TO.P,,8ffd557a-9d8a-4c39-b760-ab16439898f0__dff57d78-487b-f832-db06-4405c23ce37c*%
X127320400Y-146563500D03*
D13*
%TO.P,,900ba3d8-8a29-40be-bf2e-7b14f64d3593__33280eed-a126-76ed-3000-797ef47fb1a1*%
X62646800Y-100447700D03*
%TO.P,,900ba3d8-8a29-40be-bf2e-7b14f64d3593__99b4e4f8-b222-3ea3-e380-d601f2044245*%
X60771800Y-100447700D03*
D18*
%TO.P,,96bf0711-8197-49d8-8ee7-47ef309ac979__5237503d-4662-b83a-7859-31969858b9c0*%
X-10418700Y10453498D03*
%TO.P,,96bf0711-8197-49d8-8ee7-47ef309ac979__e5e04a27-c5c4-f2e6-5799-708eb3f01464*%
X-11968700Y10453502D03*
D19*
%TO.P,,9884390a-9447-4df7-881e-9d32abe0b5d4__067494cb-4e9e-cb48-1e72-15ce4bf90d3d*%
X104685000Y-121432300D03*
%TO.P,,9884390a-9447-4df7-881e-9d32abe0b5d4__17993ab7-03eb-a0a4-3663-439043d69847*%
X104685000Y-123732300D03*
%TO.P,,9884390a-9447-4df7-881e-9d32abe0b5d4__53b3baf8-bd94-9ef8-7025-c74057d2be07*%
X104685000Y-119132300D03*
D20*
%TO.P,,9884390a-9447-4df7-881e-9d32abe0b5d4__905d5495-5182-0853-8747-c1876cea3d98*%
X110985000Y-121432300D03*
D11*
%TO.P,,9adc186a-1941-4f3d-b5db-9c445a3c51db__5237503d-4662-b83a-7859-31969858b9c0*%
X70045800Y-83920500D03*
%TO.P,,9adc186a-1941-4f3d-b5db-9c445a3c51db__e5e04a27-c5c4-f2e6-5799-708eb3f01464*%
X71595800Y-83920500D03*
D13*
%TO.P,,9e8db765-8308-4940-af0d-491288bc4f07__33280eed-a126-76ed-3000-797ef47fb1a1*%
X58198600Y-100447700D03*
%TO.P,,9e8db765-8308-4940-af0d-491288bc4f07__99b4e4f8-b222-3ea3-e380-d601f2044245*%
X56323600Y-100447700D03*
D12*
%TO.P,,a9011ddb-1796-442a-b14b-22fea234050f__2dde63e4-198b-4cf9-8b66-38fea60c58e8*%
X70069200Y-90407100D03*
%TO.P,,a9011ddb-1796-442a-b14b-22fea234050f__3e3d844e-a582-4dc2-9287-b9e9333a370a*%
X64645200Y-89137100D03*
%TO.P,,a9011ddb-1796-442a-b14b-22fea234050f__41c02d70-ac01-46d5-a418-3ca257f4166b*%
X70069200Y-94217100D03*
%TO.P,,a9011ddb-1796-442a-b14b-22fea234050f__49744d53-f947-442e-a5de-885242951984*%
X64645200Y-95487100D03*
%TO.P,,a9011ddb-1796-442a-b14b-22fea234050f__4e5d935c-68fe-4a6c-af52-ad0cda1e4ad7*%
X70069200Y-96757100D03*
%TO.P,,a9011ddb-1796-442a-b14b-22fea234050f__51215b18-a76e-4d60-a5ae-02e252c56538*%
X70069200Y-91677100D03*
%TO.P,,a9011ddb-1796-442a-b14b-22fea234050f__5fbdd453-191c-41ec-af05-ebe009909d4d*%
X64645200Y-94217100D03*
%TO.P,,a9011ddb-1796-442a-b14b-22fea234050f__651f2f7f-9cc5-4374-92ba-8996fccaf64c*%
X64645200Y-92947100D03*
%TO.P,,a9011ddb-1796-442a-b14b-22fea234050f__74cb0c46-e9f6-4417-a28d-272facc3296e*%
X64645200Y-96757100D03*
%TO.P,,a9011ddb-1796-442a-b14b-22fea234050f__7e6c1b2a-8b24-42ce-be6f-29dc781f47c7*%
X70069200Y-87867100D03*
%TO.P,,a9011ddb-1796-442a-b14b-22fea234050f__acae1ad6-4456-4818-9303-c760e18c8cc3*%
X70069200Y-92947100D03*
%TO.P,,a9011ddb-1796-442a-b14b-22fea234050f__b0fdc299-5392-4672-b022-ab9307c28da7*%
X64645200Y-90407100D03*
%TO.P,,a9011ddb-1796-442a-b14b-22fea234050f__cd39293d-29a6-4df3-8769-85f5008e0edd*%
X64645200Y-87867100D03*
%TO.P,,a9011ddb-1796-442a-b14b-22fea234050f__da06ddd4-6f10-41bb-ab22-27b09a031fe8*%
X70069200Y-95487100D03*
%TO.P,,a9011ddb-1796-442a-b14b-22fea234050f__f842c5c9-69c7-4412-9501-3a0f8ba5e66b*%
X70069200Y-89137100D03*
%TO.P,,a9011ddb-1796-442a-b14b-22fea234050f__fb8c490b-3d9d-46f4-a1d4-1b219b5a70cf*%
X64645200Y-91677100D03*
D10*
%TO.P,,ac49e64a-7b77-4f98-85b2-2e8dcde79753__880f28ef-cf41-0acc-4a98-ce0afa37b0c2*%
X86295100Y-112622000D03*
%TO.P,,ac49e64a-7b77-4f98-85b2-2e8dcde79753__dff57d78-487b-f832-db06-4405c23ce37c*%
X84645100Y-112622000D03*
D21*
%TO.P,,b4ff7f42-639b-44fd-b05c-20ca3b4d4099__04bb599e-33f0-d807-436a-7e3aa32e16c6*%
X-5546500Y23259200D03*
%TO.P,,b4ff7f42-639b-44fd-b05c-20ca3b4d4099__0b6d8a61-cc41-a6ce-155f-4a3088b1e96f*%
X-5546500Y21259200D03*
%TO.P,,b4ff7f42-639b-44fd-b05c-20ca3b4d4099__0b705b0c-a438-3039-463f-50b79dc5c003*%
X9653500Y21259200D03*
D22*
%TO.P,,b4ff7f42-639b-44fd-b05c-20ca3b4d4099__0c0f4c08-3dc9-617b-6954-eeeb6f5dcaba*%
X1053500Y11759200D03*
D21*
%TO.P,,b4ff7f42-639b-44fd-b05c-20ca3b4d4099__1075bb2a-14af-7a1f-ce59-8bec163d731c*%
X9653500Y17259200D03*
D22*
%TO.P,,b4ff7f42-639b-44fd-b05c-20ca3b4d4099__2c738eb3-9081-8540-20b5-a1caf2e2f84c*%
X-2946500Y11759200D03*
D21*
%TO.P,,b4ff7f42-639b-44fd-b05c-20ca3b4d4099__3566abbf-69ea-c14f-9296-83ab56f66966*%
X9653500Y23259200D03*
%TO.P,,b4ff7f42-639b-44fd-b05c-20ca3b4d4099__38235135-60a3-391b-071f-e1f024c50754*%
X9653500Y15259200D03*
D22*
%TO.P,,b4ff7f42-639b-44fd-b05c-20ca3b4d4099__466843c5-1b22-08e2-04ad-3bee11aa4ae3*%
X7053500Y11759200D03*
D21*
%TO.P,,b4ff7f42-639b-44fd-b05c-20ca3b4d4099__4ce796e8-a852-e05c-6b23-448cec7a59c1*%
X9653500Y13259200D03*
%TO.P,,b4ff7f42-639b-44fd-b05c-20ca3b4d4099__53711078-75e7-699f-da5c-c30505a423a5*%
X9653500Y19259200D03*
%TO.P,,b4ff7f42-639b-44fd-b05c-20ca3b4d4099__77fae214-802a-3d6d-6603-ac6edd770eab*%
X9653500Y27259200D03*
%TO.P,,b4ff7f42-639b-44fd-b05c-20ca3b4d4099__8134cac7-5e26-72c0-4540-993334db8df4*%
X-5546500Y25259200D03*
D22*
%TO.P,,b4ff7f42-639b-44fd-b05c-20ca3b4d4099__8253b7a0-cf28-3ca4-91a1-f5e40c9f78dd*%
X-946500Y11759200D03*
D21*
%TO.P,,b4ff7f42-639b-44fd-b05c-20ca3b4d4099__8c9e52bd-cd4d-0724-6004-49a3c227803b*%
X-5546500Y17259200D03*
%TO.P,,b4ff7f42-639b-44fd-b05c-20ca3b4d4099__a0f66999-5c78-1655-958c-f46ffdbca305*%
X-5546500Y27259200D03*
%TO.P,,b4ff7f42-639b-44fd-b05c-20ca3b4d4099__afbec598-1033-df02-3899-cd14c3f8da5b*%
X-5546500Y13259200D03*
%TO.P,,b4ff7f42-639b-44fd-b05c-20ca3b4d4099__b45e728c-4440-f0ac-8699-fd918ba49ae4*%
X-5546500Y15259200D03*
%TO.P,,b4ff7f42-639b-44fd-b05c-20ca3b4d4099__c7562d54-a562-3400-aad4-0e33d0cdf1d7*%
X9653500Y25259200D03*
D22*
%TO.P,,b4ff7f42-639b-44fd-b05c-20ca3b4d4099__d183297e-efe8-9d98-8e1e-a210f93c1aee*%
X3053500Y11759200D03*
%TO.P,,b4ff7f42-639b-44fd-b05c-20ca3b4d4099__f3c87adc-7c92-b7c0-af52-667dd4306c06*%
X5053500Y11759200D03*
D21*
%TO.P,,b4ff7f42-639b-44fd-b05c-20ca3b4d4099__f6d00191-52a2-6adb-97f9-8d4603212f8c*%
X-5546500Y19259200D03*
D11*
%TO.P,,b52e691d-e586-4825-a2bc-214e5a1275cc__5237503d-4662-b83a-7859-31969858b9c0*%
X113249900Y-100881300D03*
%TO.P,,b52e691d-e586-4825-a2bc-214e5a1275cc__e5e04a27-c5c4-f2e6-5799-708eb3f01464*%
X114799900Y-100881300D03*
D13*
%TO.P,,b879c2bf-d157-49a0-a974-cdd380ccbad7__33280eed-a126-76ed-3000-797ef47fb1a1*%
X42914600Y-47778100D03*
%TO.P,,b879c2bf-d157-49a0-a974-cdd380ccbad7__99b4e4f8-b222-3ea3-e380-d601f2044245*%
X41039600Y-47778100D03*
%TO.P,,d0b73450-27f3-441d-ac1a-fd5da12c9325__33280eed-a126-76ed-3000-797ef47fb1a1*%
X41996700Y-82007300D03*
%TO.P,,d0b73450-27f3-441d-ac1a-fd5da12c9325__99b4e4f8-b222-3ea3-e380-d601f2044245*%
X40121700Y-82007300D03*
D10*
%TO.P,,d4f8c477-b5ba-47e1-af33-32b7f85f92fd__880f28ef-cf41-0acc-4a98-ce0afa37b0c2*%
X-10318600Y23259200D03*
%TO.P,,d4f8c477-b5ba-47e1-af33-32b7f85f92fd__dff57d78-487b-f832-db06-4405c23ce37c*%
X-11968600Y23259200D03*
%TO.P,,d6b5cf11-9d76-4e7b-96e9-6e1159408aba__880f28ef-cf41-0acc-4a98-ce0afa37b0c2*%
X2257600Y-155824100D03*
%TO.P,,d6b5cf11-9d76-4e7b-96e9-6e1159408aba__dff57d78-487b-f832-db06-4405c23ce37c*%
X607600Y-155824100D03*
D13*
%TO.P,,d7b9da72-cbce-4fe5-a7e3-efd061cf3f19__33280eed-a126-76ed-3000-797ef47fb1a1*%
X60237100Y-141861000D03*
%TO.P,,d7b9da72-cbce-4fe5-a7e3-efd061cf3f19__99b4e4f8-b222-3ea3-e380-d601f2044245*%
X58362100Y-141861000D03*
D10*
%TO.P,,d7ced564-a1fc-464c-a821-4630aa49feac__880f28ef-cf41-0acc-4a98-ce0afa37b0c2*%
X105951100Y-112428400D03*
%TO.P,,d7ced564-a1fc-464c-a821-4630aa49feac__dff57d78-487b-f832-db06-4405c23ce37c*%
X104301100Y-112428400D03*
D13*
%TO.P,,de129833-5743-4445-b7fe-7628f622e180__33280eed-a126-76ed-3000-797ef47fb1a1*%
X22637500Y-154372500D03*
%TO.P,,de129833-5743-4445-b7fe-7628f622e180__99b4e4f8-b222-3ea3-e380-d601f2044245*%
X20762500Y-154372500D03*
%TO.P,,e2c7d3b1-4fec-4057-9b4c-3530633bbd03__33280eed-a126-76ed-3000-797ef47fb1a1*%
X40153300Y-173909700D03*
%TO.P,,e2c7d3b1-4fec-4057-9b4c-3530633bbd03__99b4e4f8-b222-3ea3-e380-d601f2044245*%
X38278300Y-173909700D03*
D11*
%TO.P,,e2fc4595-8810-4eba-989d-ef71090139b3__5237503d-4662-b83a-7859-31969858b9c0*%
X-44343800Y-168313400D03*
%TO.P,,e2fc4595-8810-4eba-989d-ef71090139b3__e5e04a27-c5c4-f2e6-5799-708eb3f01464*%
X-42793800Y-168313400D03*
D10*
%TO.P,,e63f18d9-899b-43cd-9c0e-69f29463beac__880f28ef-cf41-0acc-4a98-ce0afa37b0c2*%
X34562400Y-72522300D03*
%TO.P,,e63f18d9-899b-43cd-9c0e-69f29463beac__dff57d78-487b-f832-db06-4405c23ce37c*%
X32912400Y-72522300D03*
D11*
%TO.P,,f07b3eec-ce04-4b7f-9a77-c18968ae793d__5237503d-4662-b83a-7859-31969858b9c0*%
X82010500Y-147797400D03*
%TO.P,,f07b3eec-ce04-4b7f-9a77-c18968ae793d__e5e04a27-c5c4-f2e6-5799-708eb3f01464*%
X83560500Y-147797400D03*
D10*
%TO.P,,f1a287ad-45c7-4212-a4bc-0f04803ad66f__880f28ef-cf41-0acc-4a98-ce0afa37b0c2*%
X44149500Y-159332200D03*
%TO.P,,f1a287ad-45c7-4212-a4bc-0f04803ad66f__dff57d78-487b-f832-db06-4405c23ce37c*%
X42499500Y-159332200D03*
D13*
%TO.P,,fa98e8dc-b413-4944-bcca-1ca7491bd609__33280eed-a126-76ed-3000-797ef47fb1a1*%
X42028300Y-79205300D03*
%TO.P,,fa98e8dc-b413-4944-bcca-1ca7491bd609__99b4e4f8-b222-3ea3-e380-d601f2044245*%
X40153300Y-79205300D03*
D21*
%TO.P,,fdc459b8-c439-4e1a-8693-418de9b0f60c__04bb599e-33f0-d807-436a-7e3aa32e16c6*%
X133284900Y-119874200D03*
%TO.P,,fdc459b8-c439-4e1a-8693-418de9b0f60c__0b6d8a61-cc41-a6ce-155f-4a3088b1e96f*%
X133284900Y-121874200D03*
%TO.P,,fdc459b8-c439-4e1a-8693-418de9b0f60c__0b705b0c-a438-3039-463f-50b79dc5c003*%
X148484900Y-121874200D03*
D22*
%TO.P,,fdc459b8-c439-4e1a-8693-418de9b0f60c__0c0f4c08-3dc9-617b-6954-eeeb6f5dcaba*%
X139884900Y-131374200D03*
D21*
%TO.P,,fdc459b8-c439-4e1a-8693-418de9b0f60c__1075bb2a-14af-7a1f-ce59-8bec163d731c*%
X148484900Y-125874200D03*
D22*
%TO.P,,fdc459b8-c439-4e1a-8693-418de9b0f60c__2c738eb3-9081-8540-20b5-a1caf2e2f84c*%
X135884900Y-131374200D03*
D21*
%TO.P,,fdc459b8-c439-4e1a-8693-418de9b0f60c__3566abbf-69ea-c14f-9296-83ab56f66966*%
X148484900Y-119874200D03*
%TO.P,,fdc459b8-c439-4e1a-8693-418de9b0f60c__38235135-60a3-391b-071f-e1f024c50754*%
X148484900Y-127874200D03*
D22*
%TO.P,,fdc459b8-c439-4e1a-8693-418de9b0f60c__466843c5-1b22-08e2-04ad-3bee11aa4ae3*%
X145884900Y-131374200D03*
D21*
%TO.P,,fdc459b8-c439-4e1a-8693-418de9b0f60c__4ce796e8-a852-e05c-6b23-448cec7a59c1*%
X148484900Y-129874200D03*
%TO.P,,fdc459b8-c439-4e1a-8693-418de9b0f60c__53711078-75e7-699f-da5c-c30505a423a5*%
X148484900Y-123874200D03*
%TO.P,,fdc459b8-c439-4e1a-8693-418de9b0f60c__77fae214-802a-3d6d-6603-ac6edd770eab*%
X148484900Y-115874200D03*
%TO.P,,fdc459b8-c439-4e1a-8693-418de9b0f60c__8134cac7-5e26-72c0-4540-993334db8df4*%
X133284900Y-117874200D03*
D22*
%TO.P,,fdc459b8-c439-4e1a-8693-418de9b0f60c__8253b7a0-cf28-3ca4-91a1-f5e40c9f78dd*%
X137884900Y-131374200D03*
D21*
%TO.P,,fdc459b8-c439-4e1a-8693-418de9b0f60c__8c9e52bd-cd4d-0724-6004-49a3c227803b*%
X133284900Y-125874200D03*
%TO.P,,fdc459b8-c439-4e1a-8693-418de9b0f60c__a0f66999-5c78-1655-958c-f46ffdbca305*%
X133284900Y-115874200D03*
%TO.P,,fdc459b8-c439-4e1a-8693-418de9b0f60c__afbec598-1033-df02-3899-cd14c3f8da5b*%
X133284900Y-129874200D03*
%TO.P,,fdc459b8-c439-4e1a-8693-418de9b0f60c__b45e728c-4440-f0ac-8699-fd918ba49ae4*%
X133284900Y-127874200D03*
%TO.P,,fdc459b8-c439-4e1a-8693-418de9b0f60c__c7562d54-a562-3400-aad4-0e33d0cdf1d7*%
X148484900Y-117874200D03*
D22*
%TO.P,,fdc459b8-c439-4e1a-8693-418de9b0f60c__d183297e-efe8-9d98-8e1e-a210f93c1aee*%
X141884900Y-131374200D03*
%TO.P,,fdc459b8-c439-4e1a-8693-418de9b0f60c__f3c87adc-7c92-b7c0-af52-667dd4306c06*%
X143884900Y-131374200D03*
D21*
%TO.P,,fdc459b8-c439-4e1a-8693-418de9b0f60c__f6d00191-52a2-6adb-97f9-8d4603212f8c*%
X133284900Y-123874200D03*
D10*
%TO.P,,ffcf390e-91c1-4ade-b8a9-bc7c6f70e7f9__880f28ef-cf41-0acc-4a98-ce0afa37b0c2*%
X-10318700Y13259200D03*
%TO.P,,ffcf390e-91c1-4ade-b8a9-bc7c6f70e7f9__dff57d78-487b-f832-db06-4405c23ce37c*%
X-11968700Y13259200D03*
D23*
%TO.P,,7b39f962-9c73-45d9-817e-08c82874b7b6*%
%TO.N,Net 1*%
X-19534200Y15752100D03*
%TO.P,,ce3a7ac2-0048-4a48-bd96-89d26ed12f4e*%
X-20190200Y20647600D03*
%TO.P,,ddd8b9b5-f37f-42f4-8d67-1f222c23268d.via6.13*%
%TO.N,GND*%
X15800000Y34815000D03*
%TO.P,,ddd8b9b5-f37f-42f4-8d67-1f222c23268d.via6.12*%
X800000Y34815000D03*
%TO.P,,ddd8b9b5-f37f-42f4-8d67-1f222c23268d.via6.11*%
X-14200000Y34815000D03*
%TO.P,,ddd8b9b5-f37f-42f4-8d67-1f222c23268d.via5.14*%
X30800000Y19815000D03*
%TO.P,,ddd8b9b5-f37f-42f4-8d67-1f222c23268d.via5.13*%
X15800000Y19815000D03*
%TO.P,,ddd8b9b5-f37f-42f4-8d67-1f222c23268d.via5.12*%
X800000Y19815000D03*
%TO.P,,ddd8b9b5-f37f-42f4-8d67-1f222c23268d.via5.10*%
X-29200000Y19815000D03*
%TO.P,,ddd8b9b5-f37f-42f4-8d67-1f222c23268d.via4.15*%
X45800000Y4815000D03*
%TO.P,,ddd8b9b5-f37f-42f4-8d67-1f222c23268d.via4.14*%
X30800000Y4815000D03*
%TO.P,,ddd8b9b5-f37f-42f4-8d67-1f222c23268d.via4.13*%
X15800000Y4815000D03*
%TO.P,,ddd8b9b5-f37f-42f4-8d67-1f222c23268d.via4.12*%
X800000Y4815000D03*
%TO.P,,ddd8b9b5-f37f-42f4-8d67-1f222c23268d.via4.11*%
X-14200000Y4815000D03*
%TO.P,,ddd8b9b5-f37f-42f4-8d67-1f222c23268d.via4.10*%
X-29200000Y4815000D03*
%TO.P,,ddd8b9b5-f37f-42f4-8d67-1f222c23268d.via3.24*%
X180800000Y-10185000D03*
%TO.P,,ddd8b9b5-f37f-42f4-8d67-1f222c23268d.via3.23*%
X165800000Y-10185000D03*
%TO.P,,ddd8b9b5-f37f-42f4-8d67-1f222c23268d.via3.22*%
X150800000Y-10185000D03*
%TO.P,,ddd8b9b5-f37f-42f4-8d67-1f222c23268d.via3.21*%
X135800000Y-10185000D03*
%TO.P,,ddd8b9b5-f37f-42f4-8d67-1f222c23268d.via3.20*%
X120800000Y-10185000D03*
%TO.P,,ddd8b9b5-f37f-42f4-8d67-1f222c23268d.via3.19*%
X105800000Y-10185000D03*
%TO.P,,ddd8b9b5-f37f-42f4-8d67-1f222c23268d.via3.18*%
X90800000Y-10185000D03*
%TO.P,,ddd8b9b5-f37f-42f4-8d67-1f222c23268d.via3.17*%
X75800000Y-10185000D03*
%TO.P,,ddd8b9b5-f37f-42f4-8d67-1f222c23268d.via3.16*%
X60800000Y-10185000D03*
%TO.P,,ddd8b9b5-f37f-42f4-8d67-1f222c23268d.via3.15*%
X45800000Y-10185000D03*
%TO.P,,ddd8b9b5-f37f-42f4-8d67-1f222c23268d.via3.14*%
X30800000Y-10185000D03*
%TO.P,,ddd8b9b5-f37f-42f4-8d67-1f222c23268d.via3.13*%
X15800000Y-10185000D03*
%TO.P,,ddd8b9b5-f37f-42f4-8d67-1f222c23268d.via3.12*%
X800000Y-10185000D03*
%TO.P,,ddd8b9b5-f37f-42f4-8d67-1f222c23268d.via3.11*%
X-14200000Y-10185000D03*
%TO.P,,ddd8b9b5-f37f-42f4-8d67-1f222c23268d.via3.10*%
X-29200000Y-10185000D03*
%TO.P,,ddd8b9b5-f37f-42f4-8d67-1f222c23268d.via3.9*%
X-44200000Y-10185000D03*
%TO.P,,ddd8b9b5-f37f-42f4-8d67-1f222c23268d.via3.8*%
X-59200000Y-10185000D03*
%TO.P,,ddd8b9b5-f37f-42f4-8d67-1f222c23268d.via3.7*%
X-74200000Y-10185000D03*
%TO.P,,ddd8b9b5-f37f-42f4-8d67-1f222c23268d.via3.6*%
X-89200000Y-10185000D03*
%TO.P,,ddd8b9b5-f37f-42f4-8d67-1f222c23268d.via3.5*%
X-104200000Y-10185000D03*
%TO.P,,ddd8b9b5-f37f-42f4-8d67-1f222c23268d.via3.4*%
X-119200000Y-10185000D03*
%TO.P,,ddd8b9b5-f37f-42f4-8d67-1f222c23268d.via3.3*%
X-134200000Y-10185000D03*
%TO.P,,ddd8b9b5-f37f-42f4-8d67-1f222c23268d.via3.2*%
X-149200000Y-10185000D03*
%TO.P,,ddd8b9b5-f37f-42f4-8d67-1f222c23268d.via3.1*%
X-164200000Y-10185000D03*
%TO.P,,ddd8b9b5-f37f-42f4-8d67-1f222c23268d.via2.14*%
X30800000Y-25185000D03*
%TO.P,,ddd8b9b5-f37f-42f4-8d67-1f222c23268d.via2.13*%
X15800000Y-25185000D03*
%TO.P,,ddd8b9b5-f37f-42f4-8d67-1f222c23268d.via2.12*%
X800000Y-25185000D03*
%TO.P,,ddd8b9b5-f37f-42f4-8d67-1f222c23268d.via2.11*%
X-14200000Y-25185000D03*
%TO.P,,ddd8b9b5-f37f-42f4-8d67-1f222c23268d.via2.10*%
X-29200000Y-25185000D03*
%TO.P,,ddd8b9b5-f37f-42f4-8d67-1f222c23268d.via1.14*%
X30800000Y-40185000D03*
%TO.P,,ddd8b9b5-f37f-42f4-8d67-1f222c23268d.via1.13*%
X15800000Y-40185000D03*
%TO.P,,ddd8b9b5-f37f-42f4-8d67-1f222c23268d.via1.12*%
X800000Y-40185000D03*
%TO.P,,ddd8b9b5-f37f-42f4-8d67-1f222c23268d.via1.11*%
X-14200000Y-40185000D03*
%TO.P,,ddd8b9b5-f37f-42f4-8d67-1f222c23268d.via1.10*%
X-29200000Y-40185000D03*
%TO.P,,ddd8b9b5-f37f-42f4-8d67-1f222c23268d.via.island.0*%
X-9984000Y18259000D03*
%TD*%
D24*
%TO.N,Net 5*%
X-5546500Y23259200D02*
X-10318700Y23259200D01*
%TO.N,Net 3*%
X-16459200Y18922000D02*
X-16459200Y22343600D01*
X-16459200Y22343700D02*
X-16459000Y22343900D01*
%TO.N,Net 4*%
X-10318700Y13259200D02*
X-5546500Y13259200D01*
X-5546500Y13259200D02*
X-5546300Y13259400D01*
%TO.N,Net 1*%
X-13299000Y22343700D02*
X-13299000Y14589500D01*
X-20190200Y20647600D02*
X-18759200Y20647600D01*
X-13298900Y14589400D02*
X-11968700Y13259200D01*
X-11968700Y12003500D02*
X-10418700Y10453500D01*
X-18759200Y28643700D02*
X-18759200Y22343700D01*
X-11968600Y23259200D02*
X-12383400Y23259200D01*
X-18759200Y22343700D02*
X-18759200Y20647700D01*
X-19534200Y19872600D02*
X-19534200Y18922000D01*
X-17041400Y13259200D02*
X-19534200Y15752000D01*
X-11968700Y13259200D02*
X-11968700Y12003400D01*
X-18759200Y20647600D02*
X-19534200Y19872600D01*
X-18759200Y22343700D02*
X-18759000Y22343900D01*
X-11968700Y13259200D02*
X-17041300Y13259200D01*
X-12383400Y23259200D02*
X-13299000Y22343600D01*
%TO.N,Net 2*%
X-21059200Y22343700D02*
X-21059200Y18975500D01*
X-21059200Y18975500D02*
X-21059000Y18975700D01*
%TO.N,GND*%
X-21059100Y17325500D02*
X-16505700Y17325500D01*
X-16505600Y17325600D02*
X-16459200Y17372000D01*
X17838200Y13259100D02*
X19093900Y12003500D01*
X15412100Y13259200D02*
X17838100Y13259200D01*
%TO.N,Net 41*%
X9653500Y13259200D02*
X13762100Y13259200D01*
X13051500Y15259200D02*
X13762100Y14548600D01*
X13762100Y13259200D02*
X13762300Y13259400D01*
X9653500Y15259200D02*
X13051500Y15259200D01*
X13762100Y14548600D02*
X13762100Y13259200D01*
%TD*%
%TA.AperFunction,Conductor*%
%TO.N,GND*%
G36*
X-11486000Y14215000D02*
G01*
X-11578000Y14233000D01*
X-11585000Y14234000D01*
X-12024000Y14234000D01*
X-12079000Y14257000D01*
X-12649000Y14826000D01*
X-12672000Y14881000D01*
X-12672000Y22050000D01*
X-12649000Y22105000D01*
X-12485000Y22271000D01*
X-12421000Y22294000D01*
X-12327000Y22284000D01*
X-11607000Y22284000D01*
X-11556000Y22289000D01*
X-11554000Y22290000D01*
X-11552000Y22290000D01*
X-11486000Y22304000D01*
X-11430000Y22325000D01*
X-11428000Y22326000D01*
X-11366000Y22353000D01*
X-11298000Y22396000D01*
X-11197000Y22480000D01*
X-11087000Y22480000D01*
X-10990000Y22396000D01*
X-10929000Y22358000D01*
X-10862000Y22325000D01*
X-10861000Y22324000D01*
X-10812000Y22308000D01*
X-10806000Y22307000D01*
X-10732000Y22289000D01*
X-10678000Y22284000D01*
X-9957000Y22284000D01*
X-9906000Y22289000D01*
X-9904000Y22290000D01*
X-9902000Y22290000D01*
X-9836000Y22304000D01*
X-9780000Y22325000D01*
X-9778000Y22326000D01*
X-9716000Y22353000D01*
X-9645000Y22398000D01*
X-9588000Y22446000D01*
X-9580000Y22454000D01*
X-9531000Y22512000D01*
X-9478000Y22595000D01*
X-9411000Y22632000D01*
X-7384000Y22632000D01*
X-7296000Y22544000D01*
X-7296000Y13974000D01*
X-7384000Y13886000D01*
X-9406000Y13886000D01*
X-9471000Y13919000D01*
X-9548000Y14028000D01*
X-9550000Y14031000D01*
X-9599000Y14079000D01*
X-9622000Y14099000D01*
X-9685000Y14153000D01*
X-9777000Y14193000D01*
X-9778000Y14194000D01*
X-9833000Y14214000D01*
X-9836000Y14215000D01*
X-9928000Y14233000D01*
X-9935000Y14234000D01*
X-10713000Y14234000D01*
X-10806000Y14212000D01*
X-10810000Y14211000D01*
X-10812000Y14211000D01*
X-10863000Y14194000D01*
X-10943000Y14153000D01*
X-10953000Y14148000D01*
X-11006000Y14108000D01*
X-11094000Y14034000D01*
X-11210000Y14040000D01*
X-11249000Y14079000D01*
X-11272000Y14099000D01*
X-11335000Y14153000D01*
X-11427000Y14193000D01*
X-11428000Y14194000D01*
X-11483000Y14214000D01*
X-11486000Y14215000D01*
G37*
%TD.AperFunction*%
%TA.AperFunction,Conductor*%
G36*
X2001000Y-54935000D02*
G01*
X1999000Y-54935000D01*
X816000Y-54927000D01*
X815000Y-54927000D01*
X-340000Y-54903000D01*
X-341000Y-54903000D01*
X-1379000Y-54866000D01*
X-1381000Y-54868000D01*
X-2499000Y-54806000D01*
X-2501000Y-54804000D01*
X-3337000Y-54737000D01*
X-3340000Y-54737000D01*
X-4050000Y-54655000D01*
X-4054000Y-54654000D01*
X-7984000Y-53940000D01*
X-7990000Y-53939000D01*
X-11795000Y-52930000D01*
X-11801000Y-52928000D01*
X-15454000Y-51640000D01*
X-15459000Y-51638000D01*
X-18967000Y-50076000D01*
X-18972000Y-50073000D01*
X-22328000Y-48241000D01*
X-22333000Y-48238000D01*
X-25510000Y-46152000D01*
X-25515000Y-46148000D01*
X-28498000Y-43820000D01*
X-28502000Y-43816000D01*
X-31290000Y-41248000D01*
X-31294000Y-41244000D01*
X-33861000Y-38456000D01*
X-33865000Y-38452000D01*
X-36215000Y-35434000D01*
X-36219000Y-35429000D01*
X-38322000Y-32211000D01*
X-38325000Y-32206000D01*
X-40173000Y-28795000D01*
X-40174000Y-28792000D01*
X-40368000Y-28394000D01*
X-40563000Y-27984000D01*
X-40563000Y-27983000D01*
X-40762000Y-27555000D01*
X-40960000Y-27123000D01*
X-40961000Y-27123000D01*
X-41149000Y-26704000D01*
X-41151000Y-26701000D01*
X-41346000Y-26258000D01*
X-41347000Y-26258000D01*
X-41528000Y-25839000D01*
X-41684000Y-25475000D01*
X-41686000Y-25474000D01*
X-41863000Y-25051000D01*
X-42009000Y-24696000D01*
X-42009000Y-24695000D01*
X-42138000Y-24372000D01*
X-42139000Y-24371000D01*
X-42247000Y-24089000D01*
X-42248000Y-24087000D01*
X-42430000Y-23571000D01*
X-42430000Y-23569000D01*
X-42628000Y-22967000D01*
X-42628000Y-22966000D01*
X-42836000Y-22299000D01*
X-42837000Y-22299000D01*
X-43050000Y-21589000D01*
X-43050000Y-21588000D01*
X-43260000Y-20860000D01*
X-43462000Y-20135000D01*
X-43462000Y-20134000D01*
X-43649000Y-19435000D01*
X-43814000Y-18789000D01*
X-43815000Y-18787000D01*
X-43955000Y-18201000D01*
X-43955000Y-18200000D01*
X-44062000Y-17712000D01*
X-44062000Y-17709000D01*
X-44127000Y-17358000D01*
X-44128000Y-17352000D01*
X-44162000Y-17008000D01*
X-44397000Y-16828000D01*
X-44881000Y-16756000D01*
X-45829000Y-16702000D01*
X-47449000Y-16660000D01*
X-49949000Y-16626000D01*
X-53515000Y-16600000D01*
X-58340000Y-16581000D01*
X-64606000Y-16567000D01*
X-72504000Y-16558000D01*
X-82221000Y-16553000D01*
X-93943000Y-16551000D01*
X-107859000Y-16550000D01*
X-123681000Y-16551000D01*
X-136696000Y-16550000D01*
X-147186000Y-16544000D01*
X-155435000Y-16526000D01*
X-161722000Y-16493000D01*
X-166329000Y-16440000D01*
X-166330000Y-16440000D01*
X-169551000Y-16362000D01*
X-169553000Y-16362000D01*
X-171630000Y-16256000D01*
X-171634000Y-16255000D01*
X-172901000Y-16114000D01*
X-172910000Y-16112000D01*
X-173582000Y-15947000D01*
X-173597000Y-15942000D01*
X-174043000Y-15727000D01*
X-174047000Y-15725000D01*
X-174513000Y-15465000D01*
X-174514000Y-15464000D01*
X-175146000Y-15097000D01*
X-175153000Y-15092000D01*
X-175731000Y-14664000D01*
X-175737000Y-14660000D01*
X-176287000Y-14162000D01*
X-176292000Y-14157000D01*
X-176800000Y-13604000D01*
X-176804000Y-13599000D01*
X-177274000Y-12981000D01*
X-177278000Y-12976000D01*
X-177688000Y-12333000D01*
X-177691000Y-12328000D01*
X-178063000Y-11623000D01*
X-178066000Y-11618000D01*
X-178366000Y-10910000D01*
X-178368000Y-10904000D01*
X-178618000Y-10148000D01*
X-178620000Y-10142000D01*
X-178799000Y-9389000D01*
X-178800000Y-9383000D01*
X-178911000Y-8621000D01*
X-178912000Y-8614000D01*
X-178949000Y-7837000D01*
X-178949000Y-7830000D01*
X-178910000Y-7125000D01*
X-178909000Y-7116000D01*
X-178786000Y-6381000D01*
X-178785000Y-6374000D01*
X-178590000Y-5638000D01*
X-178588000Y-5632000D01*
X-178326000Y-4911000D01*
X-178324000Y-4905000D01*
X-177997000Y-4196000D01*
X-177994000Y-4191000D01*
X-177606000Y-3501000D01*
X-177603000Y-3496000D01*
X-177174000Y-2857000D01*
X-177170000Y-2852000D01*
X-176677000Y-2235000D01*
X-176673000Y-2230000D01*
X-176166000Y-1694000D01*
X-176161000Y-1690000D01*
X-175601000Y-1199000D01*
X-175595000Y-1194000D01*
X-175021000Y-783000D01*
X-175013000Y-779000D01*
X-174396000Y-438000D01*
X-174394000Y-437000D01*
X-173932000Y-204000D01*
X-173927000Y-202000D01*
X-173472000Y-11000D01*
X-173458000Y-7000D01*
X-172747000Y147000D01*
X-172739000Y148000D01*
X-171464000Y273000D01*
X-171460000Y274000D01*
X-169319000Y373000D01*
X-169317000Y373000D01*
X-166081000Y445000D01*
X-166080000Y445000D01*
X-161459000Y494000D01*
X-161458000Y494000D01*
X-155174000Y526000D01*
X-146955000Y543000D01*
X-136520000Y549000D01*
X-123594000Y551000D01*
X-107900000Y550000D01*
X-44276000Y550000D01*
X-43977000Y2001000D01*
X-43976000Y2003000D01*
X-43513000Y4015000D01*
X-43512000Y4018000D01*
X-42931000Y6047000D01*
X-42930000Y6051000D01*
X-42240000Y8070000D01*
X-42239000Y8074000D01*
X-41453000Y10060000D01*
X-41451000Y10063000D01*
X-40558000Y12045000D01*
X-40557000Y12048000D01*
X-39558000Y14018000D01*
X-39556000Y14021000D01*
X-38521436Y15855000D01*
X-20332000Y15855000D01*
X-20332000Y15648000D01*
X-20275000Y15442000D01*
X-20172000Y15262000D01*
X-20024000Y15114000D01*
X-19837000Y15007000D01*
X-19640000Y14955000D01*
X-19605000Y14935000D01*
X-17483000Y12815000D01*
X-17480000Y12811000D01*
X-17438000Y12764000D01*
X-17382000Y12733000D01*
X-17330000Y12696000D01*
X-17304000Y12688000D01*
X-17289000Y12682000D01*
X-17259000Y12665000D01*
X-17208000Y12655000D01*
X-17200000Y12653000D01*
X-17148000Y12637000D01*
X-17116000Y12636000D01*
X-17103000Y12634000D01*
X-17096000Y12633000D01*
X-17086000Y12632000D01*
X-12876000Y12632000D01*
X-12809000Y12595000D01*
X-12756000Y12512000D01*
X-12707000Y12454000D01*
X-12699000Y12446000D01*
X-12624000Y12383000D01*
X-12596000Y12323000D01*
X-12596000Y11976000D01*
X-12598000Y11937000D01*
X-12584000Y11886000D01*
X-12583000Y11879000D01*
X-12572000Y11813000D01*
X-12560000Y11790000D01*
X-12555000Y11776000D01*
X-12548000Y11749000D01*
X-12546000Y11743000D01*
X-12519000Y11704000D01*
X-12514000Y11694000D01*
X-12490000Y11643000D01*
X-12487000Y11638000D01*
X-12460000Y11610000D01*
X-12458000Y11607000D01*
X-12445000Y11593000D01*
X-12377000Y11525000D01*
X-12351000Y11498000D01*
X-12345000Y11493000D01*
X-11392000Y10539000D01*
X-11369000Y10484000D01*
X-11369000Y10014000D01*
X-11364000Y9966000D01*
X-11346000Y9891000D01*
X-11345000Y9885000D01*
X-11330000Y9839000D01*
X-11328000Y9835000D01*
X-11294000Y9765000D01*
X-11256000Y9706000D01*
X-11207000Y9648000D01*
X-11199000Y9640000D01*
X-11140000Y9590000D01*
X-11079000Y9552000D01*
X-11012000Y9519000D01*
X-11011000Y9518000D01*
X-10961000Y9502000D01*
X-10956000Y9501000D01*
X-10883000Y9484000D01*
X-10880000Y9484000D01*
X-10830000Y9478000D01*
X-10007000Y9478000D01*
X-9956000Y9483000D01*
X-9954000Y9484000D01*
X-9952000Y9484000D01*
X-9886000Y9498000D01*
X-9887000Y9498000D01*
X-9831000Y9518000D01*
X-9828000Y9519000D01*
X-9761000Y9549000D01*
X-9751000Y9555000D01*
X-9691000Y9597000D01*
X-9648000Y9634000D01*
X-9590000Y9692000D01*
X-9543000Y9765000D01*
X-9511000Y9830000D01*
X-9507000Y9839000D01*
X-9493000Y9883000D01*
X-9491000Y9891000D01*
X-9469000Y9984000D01*
X-9469000Y10923000D01*
X-9491000Y11016000D01*
X-9492000Y11020000D01*
X-9507000Y11068000D01*
X-9509000Y11072000D01*
X-9543000Y11141000D01*
X-9589000Y11214000D01*
X-9648000Y11273000D01*
X-9691000Y11310000D01*
X-9751000Y11352000D01*
X-9761000Y11358000D01*
X-9821000Y11385000D01*
X-9883000Y11408000D01*
X-9886000Y11409000D01*
X-9978000Y11427000D01*
X-9985000Y11428000D01*
X-10475000Y11428000D01*
X-10530000Y11451000D01*
X-11326000Y12248000D01*
X-11320000Y12380000D01*
X-11246000Y12442000D01*
X-11210000Y12478000D01*
X-11093000Y12483000D01*
X-10984000Y12392000D01*
X-10929000Y12358000D01*
X-10862000Y12325000D01*
X-10861000Y12324000D01*
X-10812000Y12308000D01*
X-10806000Y12307000D01*
X-10732000Y12289000D01*
X-10678000Y12284000D01*
X-9957000Y12284000D01*
X-9906000Y12289000D01*
X-9904000Y12290000D01*
X-9902000Y12290000D01*
X-9836000Y12304000D01*
X-9837000Y12304000D01*
X-9781000Y12324000D01*
X-9778000Y12325000D01*
X-9711000Y12355000D01*
X-9701000Y12361000D01*
X-9641000Y12403000D01*
X-9598000Y12440000D01*
X-9539000Y12499000D01*
X-9477000Y12595000D01*
X-9410000Y12632000D01*
X-7384000Y12632000D01*
X-7296000Y12544000D01*
X-7296000Y12259000D01*
X-4035000Y12259000D01*
X-3947000Y12171000D01*
X-3947000Y10359000D01*
X8054000Y10359000D01*
X8054000Y10893000D01*
X12912000Y10893000D01*
X12912000Y10014000D01*
X12917000Y9966000D01*
X12935000Y9891000D01*
X12936000Y9885000D01*
X12951000Y9839000D01*
X12953000Y9835000D01*
X12987000Y9765000D01*
X13025000Y9706000D01*
X13074000Y9648000D01*
X13082000Y9640000D01*
X13141000Y9590000D01*
X13202000Y9552000D01*
X13269000Y9519000D01*
X13271000Y9518000D01*
X13319000Y9502000D01*
X13321000Y9502000D01*
X13325000Y9501000D01*
X13418000Y9479000D01*
X14303000Y9479000D01*
X14309000Y9480000D01*
X14392000Y9498000D01*
X14446000Y9516000D01*
X14520000Y9549000D01*
X14530000Y9555000D01*
X14596000Y9601000D01*
X14642000Y9640000D01*
X14647000Y9645000D01*
X14690000Y9697000D01*
X14726000Y9744000D01*
X14731000Y9753000D01*
X14773000Y9836000D01*
X14800000Y9919000D01*
X14808000Y9989000D01*
X14808000Y9990000D01*
X14812000Y10023000D01*
X14812000Y10884000D01*
X14808000Y10917000D01*
X14808000Y10918000D01*
X14800000Y10988000D01*
X14773000Y11071000D01*
X14731000Y11154000D01*
X14726000Y11163000D01*
X14692000Y11208000D01*
X14690000Y11210000D01*
X14647000Y11262000D01*
X14644000Y11265000D01*
X14596000Y11306000D01*
X14530000Y11352000D01*
X14520000Y11358000D01*
X14446000Y11391000D01*
X14405000Y11405000D01*
X14403000Y11405000D01*
X14398000Y11406000D01*
X14326000Y11423000D01*
X14323000Y11423000D01*
X14273000Y11429000D01*
X13451000Y11429000D01*
X13401000Y11423000D01*
X13398000Y11423000D01*
X13325000Y11406000D01*
X13320000Y11405000D01*
X13269000Y11388000D01*
X13202000Y11355000D01*
X13140000Y11316000D01*
X13080000Y11265000D01*
X13074000Y11259000D01*
X13024000Y11200000D01*
X12985000Y11138000D01*
X12953000Y11072000D01*
X12951000Y11068000D01*
X12936000Y11022000D01*
X12935000Y11016000D01*
X12917000Y10941000D01*
X12912000Y10893000D01*
X8054000Y10893000D01*
X8054000Y12171000D01*
X8142000Y12259000D01*
X11403000Y12259000D01*
X11403000Y12544000D01*
X11491000Y12632000D01*
X12855000Y12632000D01*
X12922000Y12595000D01*
X12975000Y12512000D01*
X13024000Y12454000D01*
X13032000Y12446000D01*
X13091000Y12396000D01*
X13152000Y12358000D01*
X13219000Y12325000D01*
X13220000Y12324000D01*
X13270000Y12308000D01*
X13275000Y12307000D01*
X13348000Y12290000D01*
X13351000Y12290000D01*
X13401000Y12284000D01*
X14123000Y12284000D01*
X14173000Y12290000D01*
X14176000Y12290000D01*
X14248000Y12307000D01*
X14253000Y12308000D01*
X14255000Y12308000D01*
X14296000Y12322000D01*
X14370000Y12355000D01*
X14380000Y12361000D01*
X14446000Y12407000D01*
X14492000Y12446000D01*
X14497000Y12451000D01*
X14540000Y12503000D01*
X14576000Y12550000D01*
X14581000Y12559000D01*
X14623000Y12642000D01*
X14651000Y12726000D01*
X14658000Y12791000D01*
X14658000Y12792000D01*
X14662000Y12825000D01*
X14662000Y13694000D01*
X14650000Y13793000D01*
X14627000Y13863000D01*
X14625000Y13867000D01*
X14579000Y13970000D01*
X14527000Y14031000D01*
X14526000Y14032000D01*
X14497000Y14067000D01*
X14496000Y14068000D01*
X14458000Y14099000D01*
X14457000Y14101000D01*
X14416000Y14136000D01*
X14389000Y14196000D01*
X14389000Y14577000D01*
X14391000Y14615000D01*
X14377000Y14664000D01*
X14376000Y14672000D01*
X14365000Y14739000D01*
X14353000Y14762000D01*
X14348000Y14777000D01*
X14341000Y14803000D01*
X14338000Y14810000D01*
X14310000Y14854000D01*
X14305000Y14862000D01*
X14280000Y14913000D01*
X14280000Y14914000D01*
X14255000Y14938000D01*
X14242000Y14955000D01*
X14240000Y14959000D01*
X13496000Y15702000D01*
X13493000Y15705000D01*
X13449000Y15753000D01*
X13394000Y15784000D01*
X13385000Y15789000D01*
X13336000Y15825000D01*
X13337000Y15825000D01*
X13305000Y15835000D01*
X13292000Y15841000D01*
X13271000Y15852000D01*
X13220000Y15863000D01*
X13213000Y15865000D01*
X13157000Y15882000D01*
X13123000Y15883000D01*
X13114000Y15884000D01*
X13105000Y15886000D01*
X13105000Y15885000D01*
X13097000Y15886000D01*
X13010000Y15886000D01*
X12969000Y15887000D01*
X12960000Y15886000D01*
X11491000Y15886000D01*
X11403000Y15974000D01*
X11403000Y28259000D01*
X7903000Y28259000D01*
X7903000Y13247000D01*
X7815000Y13159000D01*
X-3708000Y13159000D01*
X-3796000Y13247000D01*
X-3796000Y28259000D01*
X-7296000Y28259000D01*
X-7296000Y23974000D01*
X-7384000Y23886000D01*
X-9408000Y23886000D01*
X-9473000Y23920000D01*
X-9535000Y24010000D01*
X-9539000Y24015000D01*
X-9580000Y24064000D01*
X-9585000Y24069000D01*
X-9629000Y24106000D01*
X-9631000Y24107000D01*
X-9698000Y24158000D01*
X-9778000Y24193000D01*
X-9781000Y24195000D01*
X-9828000Y24213000D01*
X-9836000Y24215000D01*
X-9928000Y24233000D01*
X-9935000Y24234000D01*
X-10713000Y24234000D01*
X-10806000Y24212000D01*
X-10810000Y24211000D01*
X-10812000Y24211000D01*
X-10863000Y24194000D01*
X-10943000Y24153000D01*
X-10953000Y24148000D01*
X-10998000Y24114000D01*
X-11000000Y24112000D01*
X-11088000Y24038000D01*
X-11196000Y24038000D01*
X-11279000Y24106000D01*
X-11281000Y24107000D01*
X-11348000Y24158000D01*
X-11428000Y24193000D01*
X-11431000Y24195000D01*
X-11478000Y24213000D01*
X-11486000Y24215000D01*
X-11578000Y24233000D01*
X-11585000Y24234000D01*
X-12363000Y24234000D01*
X-12456000Y24212000D01*
X-12460000Y24211000D01*
X-12462000Y24211000D01*
X-12513000Y24194000D01*
X-12593000Y24153000D01*
X-12603000Y24148000D01*
X-12648000Y24114000D01*
X-12650000Y24112000D01*
X-12702000Y24069000D01*
X-12707000Y24064000D01*
X-12747000Y24017000D01*
X-12792000Y23952000D01*
X-12799000Y23940000D01*
X-12831000Y23868000D01*
X-12845000Y23825000D01*
X-12846000Y23820000D01*
X-12863000Y23748000D01*
X-12863000Y23745000D01*
X-12871000Y23682000D01*
X-12893000Y23637000D01*
X-13734000Y22794000D01*
X-13738000Y22791000D01*
X-13794000Y22741000D01*
X-13796000Y22739000D01*
X-13832000Y22674000D01*
X-13837000Y22667000D01*
X-13865000Y22627000D01*
X-13866000Y22625000D01*
X-13872000Y22604000D01*
X-13878000Y22590000D01*
X-13890000Y22568000D01*
X-13891000Y22567000D01*
X-13899000Y22523000D01*
X-13902000Y22513000D01*
X-13922000Y22448000D01*
X-13923000Y22413000D01*
X-13924000Y22403000D01*
X-13926000Y22391000D01*
X-13926000Y22280000D01*
X-13927000Y22262000D01*
X-13926000Y22258000D01*
X-13926000Y14561000D01*
X-13928000Y14523000D01*
X-13913000Y14467000D01*
X-13911000Y14459000D01*
X-13904000Y14406000D01*
X-13900000Y14396000D01*
X-13892000Y14377000D01*
X-13888000Y14367000D01*
X-13878000Y14332000D01*
X-13846000Y14282000D01*
X-13841000Y14273000D01*
X-13819000Y14228000D01*
X-13818000Y14227000D01*
X-13796000Y14204000D01*
X-13788000Y14194000D01*
X-13781000Y14183000D01*
X-13669000Y14071000D01*
X-13746000Y13886000D01*
X-16748000Y13886000D01*
X-16803000Y13909000D01*
X-18716000Y15821000D01*
X-18736000Y15855000D01*
X-18788000Y16053000D01*
X-18788000Y16055000D01*
X-18896000Y16242000D01*
X-18897000Y16243000D01*
X-19046000Y16391000D01*
X-19047000Y16392000D01*
X-19220000Y16493000D01*
X-19430000Y16550000D01*
X-19638000Y16550000D01*
X-19844000Y16493000D01*
X-20024000Y16390000D01*
X-20172000Y16242000D01*
X-20275000Y16062000D01*
X-20332000Y15855000D01*
X-38521436Y15855000D01*
X-38478000Y15932000D01*
X-38476000Y15935000D01*
X-37305000Y17810000D01*
X-37303000Y17813000D01*
X-36056000Y19624000D01*
X-36054000Y19626000D01*
X-34709000Y21401000D01*
X-34706000Y21404000D01*
X-33310000Y23081000D01*
X-33308000Y23084000D01*
X-32611137Y23844000D01*
X-22309000Y23844000D01*
X-22309000Y20844000D01*
X-21774000Y20844000D01*
X-21686000Y20756000D01*
X-21686000Y19886000D01*
X-21720000Y19821000D01*
X-21810000Y19759000D01*
X-21815000Y19755000D01*
X-21816000Y19755000D01*
X-21868000Y19710000D01*
X-21869000Y19709000D01*
X-21912000Y19657000D01*
X-21916000Y19653000D01*
X-21948000Y19610000D01*
X-21953000Y19601000D01*
X-21995000Y19518000D01*
X-22011000Y19467000D01*
X-22012000Y19463000D01*
X-22034000Y19370000D01*
X-22034000Y18581000D01*
X-22012000Y18488000D01*
X-22011000Y18484000D01*
X-22011000Y18482000D01*
X-21995000Y18433000D01*
X-21953000Y18350000D01*
X-21948000Y18341000D01*
X-21912000Y18294000D01*
X-21866000Y18239000D01*
X-21864000Y18237000D01*
X-21818000Y18198000D01*
X-21752000Y18152000D01*
X-21742000Y18146000D01*
X-21668000Y18113000D01*
X-21627000Y18099000D01*
X-21625000Y18099000D01*
X-21620000Y18098000D01*
X-21548000Y18081000D01*
X-21547000Y18081000D01*
X-21545000Y18080000D01*
X-21495000Y18075000D01*
X-21494000Y18075000D01*
X-20654000Y18076000D01*
X-20590000Y18076000D01*
X-20497000Y18098000D01*
X-20493000Y18099000D01*
X-20492000Y18099000D01*
X-20398000Y18131000D01*
X-20320000Y18116000D01*
X-20262000Y18066000D01*
X-20214000Y18032000D01*
X-20140000Y17991000D01*
X-20138000Y17990000D01*
X-20042000Y17958000D01*
X-19977000Y17951000D01*
X-19976000Y17951000D01*
X-19943000Y17947000D01*
X-19124000Y17947000D01*
X-19091000Y17951000D01*
X-19027000Y17958000D01*
X-19031000Y17958000D01*
X-18913000Y17996000D01*
X-18909000Y17997000D01*
X-18858000Y18032000D01*
X-18856000Y18033000D01*
X-18813000Y18059000D01*
X-18814000Y18059000D01*
X-18811000Y18061000D01*
X-18754000Y18109000D01*
X-18746000Y18117000D01*
X-18697000Y18175000D01*
X-18659000Y18234000D01*
X-18627000Y18299000D01*
X-18623000Y18308000D01*
X-18608000Y18353000D01*
X-18607000Y18360000D01*
X-18590000Y18431000D01*
X-18584000Y18484000D01*
X-18584000Y19355000D01*
X-18590000Y19408000D01*
X-18590000Y19411000D01*
X-18607000Y19484000D01*
X-18608000Y19489000D01*
X-18623000Y19536000D01*
X-18625000Y19540000D01*
X-18657000Y19606000D01*
X-18721000Y19705000D01*
X-18710000Y19811000D01*
X-18315000Y20205000D01*
X-18312000Y20208000D01*
X-18262000Y20254000D01*
X-18260000Y20257000D01*
X-18255000Y20265000D01*
X-18236000Y20300000D01*
X-18232000Y20308000D01*
X-18226000Y20318000D01*
X-18195000Y20360000D01*
X-18193000Y20363000D01*
X-18183000Y20396000D01*
X-18177000Y20410000D01*
X-18163000Y20433000D01*
X-18163000Y20434000D01*
X-18153000Y20486000D01*
X-18151000Y20495000D01*
X-18136000Y20542000D01*
X-18135000Y20578000D01*
X-18133000Y20591000D01*
X-18126000Y20627000D01*
X-18126000Y20629000D01*
X-18131000Y20673000D01*
X-18132000Y20682000D01*
X-18132000Y20756000D01*
X-18044000Y20844000D01*
X-17174000Y20844000D01*
X-17086000Y20756000D01*
X-17086000Y19875000D01*
X-17131000Y19803000D01*
X-17166000Y19785000D01*
X-17218000Y19749000D01*
X-17269000Y19705000D01*
X-17312000Y19653000D01*
X-17314000Y19651000D01*
X-17348000Y19606000D01*
X-17353000Y19597000D01*
X-17395000Y19514000D01*
X-17411000Y19463000D01*
X-17412000Y19459000D01*
X-17434000Y19366000D01*
X-17434000Y18478000D01*
X-17433000Y18476000D01*
X-17412000Y18385000D01*
X-17411000Y18381000D01*
X-17411000Y18379000D01*
X-17395000Y18330000D01*
X-17353000Y18247000D01*
X-17347000Y18237000D01*
X-17312000Y18191000D01*
X-17269000Y18139000D01*
X-17264000Y18134000D01*
X-17218000Y18095000D01*
X-17164000Y18057000D01*
X-17090000Y18016000D01*
X-17088000Y18015000D01*
X-16992000Y17983000D01*
X-16927000Y17976000D01*
X-16926000Y17976000D01*
X-16893000Y17972000D01*
X-16024000Y17972000D01*
X-15991000Y17976000D01*
X-15927000Y17983000D01*
X-15931000Y17983000D01*
X-15813000Y18021000D01*
X-15809000Y18022000D01*
X-15758000Y18057000D01*
X-15756000Y18058000D01*
X-15713000Y18084000D01*
X-15714000Y18084000D01*
X-15711000Y18086000D01*
X-15654000Y18134000D01*
X-15646000Y18142000D01*
X-15597000Y18200000D01*
X-15559000Y18259000D01*
X-15527000Y18324000D01*
X-15523000Y18333000D01*
X-15508000Y18378000D01*
X-15507000Y18385000D01*
X-15490000Y18458000D01*
X-15484000Y18511000D01*
X-15484000Y19333000D01*
X-15490000Y19383000D01*
X-15490000Y19386000D01*
X-15507000Y19459000D01*
X-15508000Y19464000D01*
X-15523000Y19511000D01*
X-15525000Y19515000D01*
X-15557000Y19581000D01*
X-15596000Y19643000D01*
X-15646000Y19702000D01*
X-15649000Y19705000D01*
X-15710000Y19757000D01*
X-15714000Y19760000D01*
X-15756000Y19786000D01*
X-15758000Y19788000D01*
X-15797000Y19813000D01*
X-15832000Y19879000D01*
X-15832000Y20756000D01*
X-15744000Y20844000D01*
X-15209000Y20844000D01*
X-15209000Y23844000D01*
X-18044000Y23844000D01*
X-18132000Y23932000D01*
X-18132000Y27056000D01*
X-18044000Y27144000D01*
X-16359000Y27144000D01*
X-16359000Y30144000D01*
X-21159000Y30144000D01*
X-21159000Y27144000D01*
X-19474000Y27144000D01*
X-19386000Y27056000D01*
X-19386000Y23932000D01*
X-19474000Y23844000D01*
X-22309000Y23844000D01*
X-32611137Y23844000D01*
X-31829000Y24697000D01*
X-31826000Y24700000D01*
X-29948000Y26540000D01*
X-29945000Y26543000D01*
X-27978000Y28253000D01*
X-27974000Y28255000D01*
X-25867000Y29883000D01*
X-25864000Y29885000D01*
X-23692000Y31376000D01*
X-23689000Y31378000D01*
X-21412000Y32760000D01*
X-21409000Y32762000D01*
X-19050000Y34025000D01*
X-19046000Y34027000D01*
X-16650000Y35147000D01*
X-16646000Y35148000D01*
X-14178000Y36139000D01*
X-14174000Y36140000D01*
X-11654000Y36995000D01*
X-11650000Y36996000D01*
X-9127000Y37696000D01*
X-9123000Y37697000D01*
X-6542000Y38255000D01*
X-6538000Y38256000D01*
X-3976000Y38651000D01*
X-3972000Y38651000D01*
X-3211000Y38728000D01*
X-3209000Y38729000D01*
X-2325000Y38794000D01*
X-2324000Y38794000D01*
X-1295000Y38848000D01*
X-1293000Y38846000D01*
X-309000Y38882000D01*
X-308000Y38882000D01*
X780000Y38905000D01*
X781000Y38905000D01*
X1894000Y38915000D01*
X1895000Y38915000D01*
X3004000Y38910000D01*
X3005000Y38910000D01*
X4095000Y38891000D01*
X4096000Y38891000D01*
X5140000Y38858000D01*
X5142000Y38858000D01*
X6124000Y38810000D01*
X6126000Y38810000D01*
X7002000Y38749000D01*
X7004000Y38748000D01*
X7777000Y38671000D01*
X7781000Y38671000D01*
X10385000Y38274000D01*
X10389000Y38273000D01*
X12982000Y37720000D01*
X12987000Y37719000D01*
X15577000Y37008000D01*
X15581000Y37007000D01*
X18123000Y36152000D01*
X18127000Y36150000D01*
X20598000Y35163000D01*
X20601000Y35161000D01*
X23044000Y34025000D01*
X23048000Y34023000D01*
X25415000Y32758000D01*
X25418000Y32756000D01*
X27698000Y31371000D01*
X27701000Y31369000D01*
X29910000Y29850000D01*
X29913000Y29848000D01*
X32003000Y28228000D01*
X32006000Y28225000D01*
X33982000Y26498000D01*
X33986000Y26495000D01*
X35865000Y24641000D01*
X35868000Y24638000D01*
X36713000Y23733000D01*
X36714000Y23731000D01*
X37544000Y22801000D01*
X37545000Y22800000D01*
X38335000Y21867000D01*
X38336000Y21866000D01*
X39087000Y20931000D01*
X39088000Y20930000D01*
X39822000Y19968000D01*
X39823000Y19967000D01*
X40521000Y19000000D01*
X40522000Y18998000D01*
X41186000Y18025000D01*
X41188000Y18023000D01*
X41831000Y17024000D01*
X41832000Y17023000D01*
X42456000Y15996000D01*
X42457000Y15994000D01*
X43052000Y14956000D01*
X43053000Y14954000D01*
X43625000Y13892000D01*
X43626000Y13891000D01*
X44177000Y12806000D01*
X44178000Y12804000D01*
X44538000Y12049000D01*
X44539000Y12047000D01*
X44919000Y11188000D01*
X44920000Y11187000D01*
X45301000Y10276000D01*
X45301000Y10275000D01*
X45687000Y9304000D01*
X45687000Y9303000D01*
X46064000Y8310000D01*
X46065000Y8309000D01*
X46428000Y7305000D01*
X46429000Y7303000D01*
X46772000Y6308000D01*
X46772000Y6307000D01*
X47090000Y5338000D01*
X47090000Y5337000D01*
X47361000Y4461000D01*
X47364000Y4459000D01*
X47620000Y3563000D01*
X47621000Y3562000D01*
X47825000Y2778000D01*
X47826000Y2775000D01*
X47974000Y2117000D01*
X47974000Y2114000D01*
X48273000Y551000D01*
X111899000Y550000D01*
X127712000Y551000D01*
X140719000Y550000D01*
X151203000Y544000D01*
X159446000Y526000D01*
X165730000Y493000D01*
X170335000Y440000D01*
X170336000Y440000D01*
X173554000Y362000D01*
X173556000Y362000D01*
X175632000Y256000D01*
X175636000Y255000D01*
X176902000Y114000D01*
X176911000Y112000D01*
X177582000Y-53000D01*
X177597000Y-58000D01*
X178043000Y-273000D01*
X178047000Y-275000D01*
X178519000Y-538000D01*
X178520000Y-539000D01*
X179241000Y-964000D01*
X179249000Y-969000D01*
X179918000Y-1481000D01*
X179925000Y-1487000D01*
X180538000Y-2074000D01*
X180543000Y-2080000D01*
X181096000Y-2736000D01*
X181101000Y-2742000D01*
X181586000Y-3452000D01*
X181590000Y-3459000D01*
X182008000Y-4223000D01*
X182012000Y-4230000D01*
X182355000Y-5036000D01*
X182358000Y-5043000D01*
X182622000Y-5877000D01*
X182624000Y-5885000D01*
X182801000Y-6730000D01*
X182802000Y-6737000D01*
X182895000Y-7612000D01*
X182895000Y-7620000D01*
X182893000Y-8489000D01*
X182893000Y-8497000D01*
X182795000Y-9351000D01*
X182793000Y-9358000D01*
X182614000Y-10188000D01*
X182612000Y-10195000D01*
X182366000Y-10980000D01*
X182364000Y-10987000D01*
X182053000Y-11729000D01*
X182050000Y-11736000D01*
X181681000Y-12422000D01*
X181678000Y-12428000D01*
X181239000Y-13085000D01*
X181234000Y-13091000D01*
X180744000Y-13689000D01*
X180739000Y-13694000D01*
X180183000Y-14252000D01*
X180177000Y-14256000D01*
X179574000Y-14754000D01*
X179568000Y-14758000D01*
X178897000Y-15210000D01*
X178891000Y-15214000D01*
X178157000Y-15617000D01*
X178151000Y-15620000D01*
X177396000Y-15951000D01*
X177390000Y-15953000D01*
X176557000Y-16237000D01*
X176546000Y-16240000D01*
X176221000Y-16299000D01*
X176214000Y-16300000D01*
X175489000Y-16358000D01*
X175486000Y-16358000D01*
X174224000Y-16407000D01*
X174223000Y-16407000D01*
X172269000Y-16446000D01*
X172268000Y-16446000D01*
X169453000Y-16478000D01*
X165619000Y-16502000D01*
X160597000Y-16521000D01*
X154227000Y-16534000D01*
X146342000Y-16542000D01*
X136778000Y-16547000D01*
X125373000Y-16549000D01*
X111961000Y-16550000D01*
X98022000Y-16551000D01*
X86281000Y-16553000D01*
X76549000Y-16558000D01*
X68637000Y-16567000D01*
X62359000Y-16581000D01*
X57530000Y-16600000D01*
X53956000Y-16626000D01*
X51452000Y-16660000D01*
X49831000Y-16702000D01*
X48882000Y-16756000D01*
X48397000Y-16827000D01*
X48162000Y-17007000D01*
X48128000Y-17352000D01*
X48127000Y-17358000D01*
X48062000Y-17709000D01*
X48062000Y-17712000D01*
X47953000Y-18208000D01*
X47953000Y-18209000D01*
X47815000Y-18787000D01*
X47814000Y-18789000D01*
X47637000Y-19484000D01*
X47635000Y-19486000D01*
X47480000Y-20067000D01*
X47481000Y-20068000D01*
X47259000Y-20864000D01*
X47049000Y-21592000D01*
X47049000Y-21593000D01*
X46836000Y-22303000D01*
X46835000Y-22303000D01*
X46626000Y-22972000D01*
X46626000Y-22973000D01*
X46427000Y-23578000D01*
X46427000Y-23579000D01*
X46248000Y-24086000D01*
X46247000Y-24088000D01*
X45773000Y-25305000D01*
X45772000Y-25307000D01*
X45249000Y-26532000D01*
X45248000Y-26534000D01*
X44676000Y-27774000D01*
X44675000Y-27776000D01*
X44061000Y-29013000D01*
X44060000Y-29015000D01*
X43398000Y-30270000D01*
X43397000Y-30272000D01*
X42704000Y-31505000D01*
X42703000Y-31507000D01*
X41978000Y-32724000D01*
X41977000Y-32725000D01*
X41227000Y-33914000D01*
X41226000Y-33916000D01*
X40453000Y-35069000D01*
X40452000Y-35071000D01*
X39669000Y-36172000D01*
X39667000Y-36174000D01*
X38857000Y-37243000D01*
X38855000Y-37245000D01*
X38044000Y-38244000D01*
X38042000Y-38247000D01*
X36121000Y-40400000D01*
X36118000Y-40403000D01*
X34076000Y-42421000D01*
X34072000Y-42425000D01*
X31889000Y-44329000D01*
X31885000Y-44332000D01*
X29621000Y-46070000D01*
X29617000Y-46073000D01*
X27218000Y-47690000D01*
X27214000Y-47692000D01*
X24721000Y-49157000D01*
X24717000Y-49160000D01*
X22161000Y-50461000D01*
X22157000Y-50463000D01*
X19485000Y-51623000D01*
X19480000Y-51625000D01*
X16723000Y-52630000D01*
X16719000Y-52631000D01*
X13921000Y-53464000D01*
X13916000Y-53466000D01*
X11007000Y-54146000D01*
X11003000Y-54146000D01*
X8063000Y-54653000D01*
X8059000Y-54654000D01*
X7340000Y-54737000D01*
X7337000Y-54737000D01*
X6501000Y-54804000D01*
X6499000Y-54806000D01*
X5381000Y-54868000D01*
X5379000Y-54866000D01*
X4341000Y-54903000D01*
X4340000Y-54903000D01*
X3185000Y-54927000D01*
X3184000Y-54927000D01*
X2001000Y-54935000D01*
G37*
%TD.AperFunction*%
%TD*%
M02*
