M48
; DRILL file {KiCad 7.0.11-7.0.11~ubuntu20.04.1} date Wed Aug 21 12:24:35 2024
; FORMAT={-:-/ absolute / metric / decimal}
; #@! TF.CreationDate,2024-08-21T12:24:35+00:00
; #@! TF.GenerationSoftware,Kicad,Pcbnew,7.0.11-7.0.11~ubuntu20.04.1
; #@! TF.FileFunction,MixedPlating,1,4
FMAT,2
METRIC
; #@! TA.AperFunction,Plated,PTH,ComponentDrill
T1C0.300
%
G90
G05
T1
X-164.2Y-10.185
X-149.2Y-10.185
X-134.2Y-10.185
X-119.2Y-10.185
X-104.2Y-10.185
X-89.2Y-10.185
X-74.2Y-10.185
X-59.2Y-10.185
X-44.2Y-10.185
X-29.2Y19.815
X-29.2Y4.815
X-29.2Y-10.185
X-29.2Y-25.185
X-29.2Y-40.185
X-20.19Y20.648
X-19.534Y15.752
X-14.2Y34.815
X-14.2Y4.815
X-14.2Y-10.185
X-14.2Y-25.185
X-14.2Y-40.185
X-9.984Y18.259
X0.8Y34.815
X0.8Y19.815
X0.8Y4.815
X0.8Y-10.185
X0.8Y-25.185
X0.8Y-40.185
X15.8Y34.815
X15.8Y19.815
X15.8Y4.815
X15.8Y-10.185
X15.8Y-25.185
X15.8Y-40.185
X30.8Y19.815
X30.8Y4.815
X30.8Y-10.185
X30.8Y-25.185
X30.8Y-40.185
X45.8Y4.815
X45.8Y-10.185
X60.8Y-10.185
X75.8Y-10.185
X90.8Y-10.185
X105.8Y-10.185
X120.8Y-10.185
X135.8Y-10.185
X150.8Y-10.185
X165.8Y-10.185
X180.8Y-10.185
M30
