%TF.GenerationSoftware,Flux,Pcbnew,7.0.11-7.0.11~ubuntu20.04.1*%
%TF.CreationDate,2024-08-21T12:24:35+00:00*%
%TF.ProjectId,input,696e7075-742e-46b6-9963-61645f706362,rev?*%
%TF.SameCoordinates,Original*%
%TF.FileFunction,Profile,NP*%
%FSLAX46Y46*%
G04 Gerber Fmt 4.6, Leading zero omitted, Abs format (unit mm)*
G04 Filename: practical-fuchsia-massive-robot-spider*
G04 Build it with Flux! Visit our site at: https://www.flux.ai (PCBNEW 7.0.11-7.0.11~ubuntu20.04.1) date 2024-08-21 12:24:35*
%MOMM*%
%LPD*%
G01*
G04 APERTURE LIST*
%TA.AperFunction,Profile*%
%ADD10C,0.050000*%
%TD*%
G04 APERTURE END LIST*
D10*
X-4000000Y38900000D02*
X-6592801Y38499630D01*
X-6592801Y38499630D02*
X-9174074Y37942037D01*
X-9174074Y37942037D02*
X-11733125Y37232500D01*
X-11733125Y37232500D02*
X-14259259Y36376296D01*
X-14259259Y36376296D02*
X-16741782Y35378704D01*
X-16741782Y35378704D02*
X-19170000Y34245000D01*
X-19170000Y34245000D02*
X-21533218Y32980463D01*
X-21533218Y32980463D02*
X-23820741Y31590370D01*
X-23820741Y31590370D02*
X-26021875Y30080000D01*
X-26021875Y30080000D02*
X-28125926Y28454630D01*
X-28125926Y28454630D02*
X-30122199Y26719537D01*
X-30122199Y26719537D02*
X-32000000Y24880000D01*
X-32000000Y24880000D02*
X-33490544Y23253843D01*
X-33490544Y23253843D02*
X-34909352Y21550741D01*
X-34909352Y21550741D02*
X-36252187Y19778750D01*
X-36252187Y19778750D02*
X-37514815Y17945926D01*
X-37514815Y17945926D02*
X-38692998Y16060324D01*
X-38692998Y16060324D02*
X-39782500Y14130000D01*
X-39782500Y14130000D02*
X-40779086Y12163009D01*
X-40779086Y12163009D02*
X-41678519Y10167407D01*
X-41678519Y10167407D02*
X-42476562Y8151250D01*
X-42476562Y8151250D02*
X-43168981Y6122593D01*
X-43168981Y6122593D02*
X-43751539Y4089491D01*
X-43751539Y4089491D02*
X-44220000Y2060000D01*
X-44220000Y2060000D02*
X-44480000Y800000D01*
X-44480000Y800000D02*
X-107900000Y800000D01*
X-107900000Y800000D02*
X-123593692Y800556D01*
X-123593692Y800556D02*
X-136519537Y799444D01*
X-136519537Y799444D02*
X-146954688Y792500D01*
X-146954688Y792500D02*
X-155176296Y775556D01*
X-155176296Y775556D02*
X-161461516Y744444D01*
X-161461516Y744444D02*
X-166087500Y695000D01*
X-166087500Y695000D02*
X-169331400Y623056D01*
X-169331400Y623056D02*
X-171470370Y524444D01*
X-171470370Y524444D02*
X-172781563Y395000D01*
X-172781563Y395000D02*
X-173542130Y230556D01*
X-173542130Y230556D02*
X-174029225Y26944D01*
X-174029225Y26944D02*
X-174520000Y-220000D01*
X-174520000Y-220000D02*
X-175149861Y-569306D01*
X-175149861Y-569306D02*
X-175755556Y-1001111D01*
X-175755556Y-1001111D02*
X-176331250Y-1506250D01*
X-176331250Y-1506250D02*
X-176871111Y-2075556D01*
X-176871111Y-2075556D02*
X-177369306Y-2699861D01*
X-177369306Y-2699861D02*
X-177820000Y-3370000D01*
X-177820000Y-3370000D02*
X-178217361Y-4076806D01*
X-178217361Y-4076806D02*
X-178555556Y-4811111D01*
X-178555556Y-4811111D02*
X-178828750Y-5563750D01*
X-178828750Y-5563750D02*
X-179031111Y-6325556D01*
X-179031111Y-6325556D02*
X-179156806Y-7087361D01*
X-179156806Y-7087361D02*
X-179200000Y-7840000D01*
X-179200000Y-7840000D02*
X-179160694Y-8636690D01*
X-179160694Y-8636690D02*
X-179045556Y-9431852D01*
X-179045556Y-9431852D02*
X-178858750Y-10218125D01*
X-178858750Y-10218125D02*
X-178604444Y-10988148D01*
X-178604444Y-10988148D02*
X-178286806Y-11734560D01*
X-178286806Y-11734560D02*
X-177910000Y-12450000D01*
X-177910000Y-12450000D02*
X-177478194Y-13127106D01*
X-177478194Y-13127106D02*
X-176995556Y-13758519D01*
X-176995556Y-13758519D02*
X-176466250Y-14336875D01*
X-176466250Y-14336875D02*
X-175894444Y-14854815D01*
X-175894444Y-14854815D02*
X-175284306Y-15304977D01*
X-175284306Y-15304977D02*
X-174640000Y-15680000D01*
X-174640000Y-15680000D02*
X-174149132Y-15954120D01*
X-174149132Y-15954120D02*
X-173678056Y-16179630D01*
X-173678056Y-16179630D02*
X-172944063Y-16361250D01*
X-172944063Y-16361250D02*
X-171664444Y-16503704D01*
X-171664444Y-16503704D02*
X-169556493Y-16611713D01*
X-169556493Y-16611713D02*
X-166337500Y-16690000D01*
X-166337500Y-16690000D02*
X-161724757Y-16743287D01*
X-161724757Y-16743287D02*
X-155435556Y-16776296D01*
X-155435556Y-16776296D02*
X-147187188Y-16793750D01*
X-147187188Y-16793750D02*
X-136696944Y-16800370D01*
X-136696944Y-16800370D02*
X-123682118Y-16800880D01*
X-123682118Y-16800880D02*
X-107860000Y-16800000D01*
X-107860000Y-16800000D02*
X-93944178Y-16800579D01*
X-93944178Y-16800579D02*
X-82221759Y-16802963D01*
X-82221759Y-16802963D02*
X-72505312Y-16808125D01*
X-72505312Y-16808125D02*
X-64607407Y-16817037D01*
X-64607407Y-16817037D02*
X-58340613Y-16830671D01*
X-58340613Y-16830671D02*
X-53517500Y-16850000D01*
X-53517500Y-16850000D02*
X-49950637Y-16875995D01*
X-49950637Y-16875995D02*
X-47452593Y-16909630D01*
X-47452593Y-16909630D02*
X-45835938Y-16951875D01*
X-45835938Y-16951875D02*
X-44913241Y-17003704D01*
X-44913241Y-17003704D02*
X-44497072Y-17066088D01*
X-44497072Y-17066088D02*
X-44400000Y-17140000D01*
X-44400000Y-17140000D02*
X-44375590Y-17385081D01*
X-44375590Y-17385081D02*
X-44306389Y-17765648D01*
X-44306389Y-17765648D02*
X-44198437Y-18259688D01*
X-44198437Y-18259688D02*
X-44057778Y-18845185D01*
X-44057778Y-18845185D02*
X-43890451Y-19500127D01*
X-43890451Y-19500127D02*
X-43702500Y-20202500D01*
X-43702500Y-20202500D02*
X-43499965Y-20930289D01*
X-43499965Y-20930289D02*
X-43288889Y-21661481D01*
X-43288889Y-21661481D02*
X-43075312Y-22374062D01*
X-43075312Y-22374062D02*
X-42865278Y-23046019D01*
X-42865278Y-23046019D02*
X-42664826Y-23655336D01*
X-42664826Y-23655336D02*
X-42480000Y-24180000D01*
X-42480000Y-24180000D02*
X-42369560Y-24466134D01*
X-42369560Y-24466134D02*
X-42239815Y-24790741D01*
X-42239815Y-24790741D02*
X-42093125Y-25148125D01*
X-42093125Y-25148125D02*
X-41931852Y-25532593D01*
X-41931852Y-25532593D02*
X-41758356Y-25938449D01*
X-41758356Y-25938449D02*
X-41575000Y-26360000D01*
X-41575000Y-26360000D02*
X-41384144Y-26791551D01*
X-41384144Y-26791551D02*
X-41188148Y-27227407D01*
X-41188148Y-27227407D02*
X-40989375Y-27661875D01*
X-40989375Y-27661875D02*
X-40790185Y-28089259D01*
X-40790185Y-28089259D02*
X-40592940Y-28503866D01*
X-40592940Y-28503866D02*
X-40400000Y-28900000D01*
X-40400000Y-28900000D02*
X-38537639Y-32338796D01*
X-38537639Y-32338796D02*
X-36419444Y-35578704D01*
X-36419444Y-35578704D02*
X-34058750Y-38610000D01*
X-34058750Y-38610000D02*
X-31468889Y-41422963D01*
X-31468889Y-41422963D02*
X-28663194Y-44007870D01*
X-28663194Y-44007870D02*
X-25655000Y-46355000D01*
X-25655000Y-46355000D02*
X-22457639Y-48454630D01*
X-22457639Y-48454630D02*
X-19084444Y-50297037D01*
X-19084444Y-50297037D02*
X-15548750Y-51872500D01*
X-15548750Y-51872500D02*
X-11863889Y-53171296D01*
X-11863889Y-53171296D02*
X-8043194Y-54183704D01*
X-8043194Y-54183704D02*
X-4100000Y-54900000D01*
X-4100000Y-54900000D02*
X-3355787Y-54987083D01*
X-3355787Y-54987083D02*
X-2462963Y-55058333D01*
X-2462963Y-55058333D02*
X-1451250Y-55113750D01*
X-1451250Y-55113750D02*
X-350370Y-55153333D01*
X-350370Y-55153333D02*
X809954Y-55177083D01*
X809954Y-55177083D02*
X2000000Y-55185000D01*
X2000000Y-55185000D02*
X3190046Y-55177083D01*
X3190046Y-55177083D02*
X4350370Y-55153333D01*
X4350370Y-55153333D02*
X5451250Y-55113750D01*
X5451250Y-55113750D02*
X6462963Y-55058333D01*
X6462963Y-55058333D02*
X7355787Y-54987083D01*
X7355787Y-54987083D02*
X8100000Y-54900000D01*
X8100000Y-54900000D02*
X11066435Y-54389340D01*
X11066435Y-54389340D02*
X13971481Y-53709722D01*
X13971481Y-53709722D02*
X16808750Y-52864687D01*
X16808750Y-52864687D02*
X19571852Y-51857778D01*
X19571852Y-51857778D02*
X22254398Y-50692535D01*
X22254398Y-50692535D02*
X24850000Y-49372500D01*
X24850000Y-49372500D02*
X27352269Y-47901215D01*
X27352269Y-47901215D02*
X29754815Y-46282222D01*
X29754815Y-46282222D02*
X32051250Y-44519062D01*
X32051250Y-44519062D02*
X34235185Y-42615278D01*
X34235185Y-42615278D02*
X36300231Y-40574410D01*
X36300231Y-40574410D02*
X38240000Y-38400000D01*
X38240000Y-38400000D02*
X39057164Y-37392604D01*
X39057164Y-37392604D02*
X39865648Y-36325833D01*
X39865648Y-36325833D02*
X40660938Y-35207812D01*
X40660938Y-35207812D02*
X41438519Y-34046667D01*
X41438519Y-34046667D02*
X42193877Y-32850521D01*
X42193877Y-32850521D02*
X42922500Y-31627500D01*
X42922500Y-31627500D02*
X43619873Y-30385729D01*
X43619873Y-30385729D02*
X44281481Y-29133333D01*
X44281481Y-29133333D02*
X44902813Y-27878438D01*
X44902813Y-27878438D02*
X45479352Y-26629167D01*
X45479352Y-26629167D02*
X46006586Y-25393646D01*
X46006586Y-25393646D02*
X46480000Y-24180000D01*
X46480000Y-24180000D02*
X46664826Y-23655336D01*
X46664826Y-23655336D02*
X46865278Y-23046019D01*
X46865278Y-23046019D02*
X47075313Y-22374062D01*
X47075313Y-22374062D02*
X47288889Y-21661481D01*
X47288889Y-21661481D02*
X47499965Y-20930289D01*
X47499965Y-20930289D02*
X47702500Y-20202500D01*
X47702500Y-20202500D02*
X47890451Y-19500127D01*
X47890451Y-19500127D02*
X48057778Y-18845185D01*
X48057778Y-18845185D02*
X48198438Y-18259688D01*
X48198438Y-18259688D02*
X48306389Y-17765648D01*
X48306389Y-17765648D02*
X48375590Y-17385081D01*
X48375590Y-17385081D02*
X48400000Y-17140000D01*
X48400000Y-17140000D02*
X48497130Y-17066088D01*
X48497130Y-17066088D02*
X48913704Y-17003704D01*
X48913704Y-17003704D02*
X49837500Y-16951875D01*
X49837500Y-16951875D02*
X51456296Y-16909630D01*
X51456296Y-16909630D02*
X53957870Y-16875995D01*
X53957870Y-16875995D02*
X57530000Y-16850000D01*
X57530000Y-16850000D02*
X62360463Y-16830671D01*
X62360463Y-16830671D02*
X68637037Y-16817037D01*
X68637037Y-16817037D02*
X76547500Y-16808125D01*
X76547500Y-16808125D02*
X86279630Y-16802963D01*
X86279630Y-16802963D02*
X98021204Y-16800579D01*
X98021204Y-16800579D02*
X111960000Y-16800000D01*
X111960000Y-16800000D02*
X125371968Y-16799433D01*
X125371968Y-16799433D02*
X136777407Y-16797130D01*
X136777407Y-16797130D02*
X146340625Y-16792188D01*
X146340625Y-16792188D02*
X154225926Y-16783704D01*
X154225926Y-16783704D02*
X160597616Y-16770775D01*
X160597616Y-16770775D02*
X165620000Y-16752500D01*
X165620000Y-16752500D02*
X169457384Y-16727975D01*
X169457384Y-16727975D02*
X172274074Y-16696296D01*
X172274074Y-16696296D02*
X174234375Y-16656563D01*
X174234375Y-16656563D02*
X175502593Y-16607870D01*
X175502593Y-16607870D02*
X176243032Y-16549317D01*
X176243032Y-16549317D02*
X176620000Y-16480000D01*
X176620000Y-16480000D02*
X177474306Y-16189063D01*
X177474306Y-16189063D02*
X178276111Y-15837500D01*
X178276111Y-15837500D02*
X179023750Y-15427188D01*
X179023750Y-15427188D02*
X179715556Y-14960000D01*
X179715556Y-14960000D02*
X180349861Y-14437812D01*
X180349861Y-14437812D02*
X180925000Y-13862500D01*
X180925000Y-13862500D02*
X181439306Y-13235938D01*
X181439306Y-13235938D02*
X181891111Y-12560000D01*
X181891111Y-12560000D02*
X182278750Y-11836563D01*
X182278750Y-11836563D02*
X182600556Y-11067500D01*
X182600556Y-11067500D02*
X182854861Y-10254688D01*
X182854861Y-10254688D02*
X183040000Y-9400000D01*
X183040000Y-9400000D02*
X183142870Y-8503669D01*
X183142870Y-8503669D02*
X183144630Y-7601019D01*
X183144630Y-7601019D02*
X183050000Y-6701562D01*
X183050000Y-6701562D02*
X182863704Y-5814815D01*
X182863704Y-5814815D02*
X182590463Y-4950289D01*
X182590463Y-4950289D02*
X182235000Y-4117500D01*
X182235000Y-4117500D02*
X181802037Y-3325961D01*
X181802037Y-3325961D02*
X181296296Y-2585185D01*
X181296296Y-2585185D02*
X180722500Y-1904688D01*
X180722500Y-1904688D02*
X180085370Y-1293981D01*
X180085370Y-1293981D02*
X179389630Y-762581D01*
X179389630Y-762581D02*
X178640000Y-320000D01*
X178640000Y-320000D02*
X178149155Y-45880D01*
X178149155Y-45880D02*
X177678241Y179630D01*
X177678241Y179630D02*
X176944688Y361250D01*
X176944688Y361250D02*
X175665926Y503704D01*
X175665926Y503704D02*
X173559387Y611713D01*
X173559387Y611713D02*
X170342500Y690000D01*
X170342500Y690000D02*
X165732697Y743287D01*
X165732697Y743287D02*
X159447407Y776296D01*
X159447407Y776296D02*
X151204063Y793750D01*
X151204063Y793750D02*
X140720093Y800370D01*
X140720093Y800370D02*
X127712928Y800880D01*
X127712928Y800880D02*
X111900000Y800000D01*
X111900000Y800000D02*
X48480000Y800000D01*
X48480000Y800000D02*
X48220000Y2160000D01*
X48220000Y2160000D02*
X48067303Y2841505D01*
X48067303Y2841505D02*
X47863426Y3623704D01*
X47863426Y3623704D02*
X47614688Y4488125D01*
X47614688Y4488125D02*
X47327407Y5416296D01*
X47327407Y5416296D02*
X47007905Y6389745D01*
X47007905Y6389745D02*
X46662500Y7390000D01*
X46662500Y7390000D02*
X46297512Y8398588D01*
X46297512Y8398588D02*
X45919259Y9397037D01*
X45919259Y9397037D02*
X45534063Y10366875D01*
X45534063Y10366875D02*
X45148241Y11289630D01*
X45148241Y11289630D02*
X44768113Y12146829D01*
X44768113Y12146829D02*
X44400000Y12920000D01*
X44400000Y12920000D02*
X43844780Y14012373D01*
X43844780Y14012373D02*
X43268241Y15080648D01*
X43268241Y15080648D02*
X42669063Y16126562D01*
X42669063Y16126562D02*
X42045926Y17151852D01*
X42045926Y17151852D02*
X41397512Y18158252D01*
X41397512Y18158252D02*
X40722500Y19147500D01*
X40722500Y19147500D02*
X40019572Y20121331D01*
X40019572Y20121331D02*
X39287407Y21081481D01*
X39287407Y21081481D02*
X38524688Y22029688D01*
X38524688Y22029688D02*
X37730093Y22967685D01*
X37730093Y22967685D02*
X36902303Y23897211D01*
X36902303Y23897211D02*
X36040000Y24820000D01*
X36040000Y24820000D02*
X34160914Y26673715D01*
X34160914Y26673715D02*
X32160648Y28421389D01*
X32160648Y28421389D02*
X30049688Y30057812D01*
X30049688Y30057812D02*
X27838519Y31577778D01*
X27838519Y31577778D02*
X25537627Y32976076D01*
X25537627Y32976076D02*
X23157500Y34247500D01*
X23157500Y34247500D02*
X20708623Y35386840D01*
X20708623Y35386840D02*
X18201481Y36388889D01*
X18201481Y36388889D02*
X15646562Y37248438D01*
X15646562Y37248438D02*
X13054352Y37960278D01*
X13054352Y37960278D02*
X10435336Y38519201D01*
X10435336Y38519201D02*
X7800000Y38920000D01*
X7800000Y38920000D02*
X7025081Y38997523D01*
X7025081Y38997523D02*
X6135648Y39060185D01*
X6135648Y39060185D02*
X5154688Y39108125D01*
X5154688Y39108125D02*
X4105185Y39141481D01*
X4105185Y39141481D02*
X3010127Y39160394D01*
X3010127Y39160394D02*
X1892500Y39165000D01*
X1892500Y39165000D02*
X775289Y39155440D01*
X775289Y39155440D02*
X-318519Y39131852D01*
X-318519Y39131852D02*
X-1365938Y39094375D01*
X-1365938Y39094375D02*
X-2343981Y39043148D01*
X-2343981Y39043148D02*
X-3229664Y38978310D01*
X-3229664Y38978310D02*
X-4000000Y38900000D01*
M02*
