%TF.GenerationSoftware,Flux,Pcbnew,7.0.11-7.0.11~ubuntu20.04.1*%
%TF.CreationDate,2024-08-21T12:24:35+00:00*%
%TF.ProjectId,input,696e7075-742e-46b6-9963-61645f706362,rev?*%
%TF.SameCoordinates,Original*%
%TF.FileFunction,Paste,Top*%
%TF.FilePolarity,Positive*%
%FSLAX46Y46*%
G04 Gerber Fmt 4.6, Leading zero omitted, Abs format (unit mm)*
G04 Filename: practical-fuchsia-massive-robot-spider*
G04 Build it with Flux! Visit our site at: https://www.flux.ai (PCBNEW 7.0.11-7.0.11~ubuntu20.04.1) date 2024-08-21 12:24:35*
%MOMM*%
%LPD*%
G01*
G04 APERTURE LIST*
G04 Aperture macros list*
%AMFreePoly0*
4,1,101,0.333457,0.474848,0.338093,0.474391,0.342690,0.473632,0.347228,0.472574,0.351686,0.471221,0.356047,0.469580,0.360291,0.467657,0.364400,0.465461,0.368357,0.463001,0.372144,0.460287,0.375745,0.457331,0.379146,0.454146,0.382331,0.450745,0.385287,0.447144,0.388001,0.443357,0.390461,0.439400,0.392657,0.435291,0.394580,0.431047,0.396221,0.426686,0.397574,0.422228,
0.398632,0.417690,0.399391,0.413093,0.399848,0.408457,0.400000,0.403800,0.400000,-0.403800,0.399848,-0.408457,0.399391,-0.413093,0.398632,-0.417690,0.397574,-0.422228,0.396221,-0.426686,0.394580,-0.431047,0.392657,-0.435291,0.390461,-0.439400,0.388001,-0.443357,0.385287,-0.447144,0.382331,-0.450745,0.379146,-0.454146,0.375745,-0.457331,0.372144,-0.460287,0.368357,-0.463001,
0.364400,-0.465461,0.360291,-0.467657,0.356047,-0.469580,0.351686,-0.471221,0.347228,-0.472574,0.342690,-0.473632,0.338093,-0.474391,0.333457,-0.474848,0.328800,-0.475000,-0.328800,-0.475000,-0.333457,-0.474848,-0.338093,-0.474391,-0.342690,-0.473632,-0.347228,-0.472574,-0.351686,-0.471221,-0.356047,-0.469580,-0.360291,-0.467657,-0.364400,-0.465461,-0.368357,-0.463001,-0.372144,-0.460287,
-0.375745,-0.457331,-0.379146,-0.454146,-0.382331,-0.450745,-0.385287,-0.447144,-0.388001,-0.443357,-0.390461,-0.439400,-0.392657,-0.435291,-0.394580,-0.431047,-0.396221,-0.426686,-0.397574,-0.422228,-0.398632,-0.417690,-0.399391,-0.413093,-0.399848,-0.408457,-0.400000,-0.403800,-0.400000,0.403800,-0.399848,0.408457,-0.399391,0.413093,-0.398632,0.417690,-0.397574,0.422228,-0.396221,0.426686,
-0.394580,0.431047,-0.392657,0.435291,-0.390461,0.439400,-0.388001,0.443357,-0.385287,0.447144,-0.382331,0.450745,-0.379146,0.454146,-0.375745,0.457331,-0.372144,0.460287,-0.368357,0.463001,-0.364400,0.465461,-0.360291,0.467657,-0.356047,0.469580,-0.351686,0.471221,-0.347228,0.472574,-0.342690,0.473632,-0.338093,0.474391,-0.333457,0.474848,-0.328800,0.475000,0.328800,0.475000,
0.333457,0.474848,0.333457,0.474848,$1*%
%AMFreePoly1*
4,1,101,0.383457,0.474848,0.388093,0.474391,0.392690,0.473632,0.397228,0.472574,0.401686,0.471221,0.406047,0.469580,0.410291,0.467657,0.414400,0.465461,0.418357,0.463001,0.422144,0.460287,0.425745,0.457331,0.429146,0.454146,0.432331,0.450745,0.435287,0.447144,0.438001,0.443357,0.440461,0.439400,0.442657,0.435291,0.444580,0.431047,0.446221,0.426686,0.447574,0.422228,
0.448632,0.417690,0.449391,0.413093,0.449848,0.408457,0.450000,0.403800,0.450000,-0.403800,0.449848,-0.408457,0.449391,-0.413093,0.448632,-0.417690,0.447574,-0.422228,0.446221,-0.426686,0.444580,-0.431047,0.442657,-0.435291,0.440461,-0.439400,0.438001,-0.443357,0.435287,-0.447144,0.432331,-0.450745,0.429146,-0.454146,0.425745,-0.457331,0.422144,-0.460287,0.418357,-0.463001,
0.414400,-0.465461,0.410291,-0.467657,0.406047,-0.469580,0.401686,-0.471221,0.397228,-0.472574,0.392690,-0.473632,0.388093,-0.474391,0.383457,-0.474848,0.378800,-0.475000,-0.378800,-0.475000,-0.383457,-0.474848,-0.388093,-0.474391,-0.392690,-0.473632,-0.397228,-0.472574,-0.401686,-0.471221,-0.406047,-0.469580,-0.410291,-0.467657,-0.414400,-0.465461,-0.418357,-0.463001,-0.422144,-0.460287,
-0.425745,-0.457331,-0.429146,-0.454146,-0.432331,-0.450745,-0.435287,-0.447144,-0.438001,-0.443357,-0.440461,-0.439400,-0.442657,-0.435291,-0.444580,-0.431047,-0.446221,-0.426686,-0.447574,-0.422228,-0.448632,-0.417690,-0.449391,-0.413093,-0.449848,-0.408457,-0.450000,-0.403800,-0.450000,0.403800,-0.449848,0.408457,-0.449391,0.413093,-0.448632,0.417690,-0.447574,0.422228,-0.446221,0.426686,
-0.444580,0.431047,-0.442657,0.435291,-0.440461,0.439400,-0.438001,0.443357,-0.435287,0.447144,-0.432331,0.450745,-0.429146,0.454146,-0.425745,0.457331,-0.422144,0.460287,-0.418357,0.463001,-0.414400,0.465461,-0.410291,0.467657,-0.406047,0.469580,-0.401686,0.471221,-0.397228,0.472574,-0.392690,0.473632,-0.388093,0.474391,-0.383457,0.474848,-0.378800,0.475000,0.378800,0.475000,
0.383457,0.474848,0.383457,0.474848,$1*%
%AMFreePoly2*
4,1,5,0.325000,-0.762500,-0.325000,-0.762500,-0.325000,0.762500,0.325000,0.762500,0.325000,-0.762500,0.325000,-0.762500,$1*%
%AMFreePoly3*
4,1,101,0.389367,0.699775,0.396205,0.699102,0.402984,0.697982,0.409676,0.696422,0.416251,0.694428,0.422682,0.692007,0.428940,0.689172,0.435000,0.685933,0.440835,0.682304,0.446420,0.678302,0.451731,0.673943,0.456746,0.669246,0.461443,0.664231,0.465802,0.658920,0.469804,0.653335,0.473433,0.647500,0.476672,0.641440,0.479507,0.635182,0.481928,0.628751,0.483922,0.622176,
0.485482,0.615484,0.486602,0.608705,0.487275,0.601867,0.487500,0.595000,0.487500,-0.595000,0.487275,-0.601867,0.486602,-0.608705,0.485482,-0.615484,0.483922,-0.622176,0.481928,-0.628751,0.479507,-0.635182,0.476672,-0.641440,0.473433,-0.647500,0.469804,-0.653335,0.465802,-0.658920,0.461443,-0.664231,0.456746,-0.669246,0.451731,-0.673943,0.446420,-0.678302,0.440835,-0.682304,
0.435000,-0.685933,0.428940,-0.689172,0.422682,-0.692007,0.416251,-0.694428,0.409676,-0.696422,0.402984,-0.697982,0.396205,-0.699102,0.389367,-0.699775,0.382500,-0.700000,-0.382500,-0.700000,-0.389367,-0.699775,-0.396205,-0.699102,-0.402984,-0.697982,-0.409676,-0.696422,-0.416251,-0.694428,-0.422682,-0.692007,-0.428940,-0.689172,-0.435000,-0.685933,-0.440835,-0.682304,-0.446420,-0.678302,
-0.451731,-0.673943,-0.456746,-0.669246,-0.461443,-0.664231,-0.465802,-0.658920,-0.469804,-0.653335,-0.473433,-0.647500,-0.476672,-0.641440,-0.479507,-0.635182,-0.481928,-0.628751,-0.483922,-0.622176,-0.485482,-0.615484,-0.486602,-0.608705,-0.487275,-0.601867,-0.487500,-0.595000,-0.487500,0.595000,-0.487275,0.601867,-0.486602,0.608705,-0.485482,0.615484,-0.483922,0.622176,-0.481928,0.628751,
-0.479507,0.635182,-0.476672,0.641440,-0.473433,0.647500,-0.469804,0.653335,-0.465802,0.658920,-0.461443,0.664231,-0.456746,0.669246,-0.451731,0.673943,-0.446420,0.678302,-0.440835,0.682304,-0.435000,0.685933,-0.428940,0.689172,-0.422682,0.692007,-0.416251,0.694428,-0.409676,0.696422,-0.402984,0.697982,-0.396205,0.699102,-0.389367,0.699775,-0.382500,0.700000,0.382500,0.700000,
0.389367,0.699775,0.389367,0.699775,$1*%
%AMFreePoly4*
4,1,5,1.000000,-0.750000,-1.000000,-0.750000,-1.000000,0.750000,1.000000,0.750000,1.000000,-0.750000,1.000000,-0.750000,$1*%
%AMFreePoly5*
4,1,5,1.000000,-1.900000,-1.000000,-1.900000,-1.000000,1.900000,1.000000,1.900000,1.000000,-1.900000,1.000000,-1.900000,$1*%
%AMFreePoly6*
4,1,5,1.250000,-0.500000,-1.250000,-0.500000,-1.250000,0.500000,1.250000,0.500000,1.250000,-0.500000,1.250000,-0.500000,$1*%
%AMFreePoly7*
4,1,5,0.500000,-0.900000,-0.500000,-0.900000,-0.500000,0.900000,0.500000,0.900000,0.500000,-0.900000,0.500000,-0.900000,$1*%
G04 Aperture macros list end*
%ADD10FreePoly0,0.000000*%
%ADD11FreePoly1,0.000000*%
%ADD12FreePoly2,90.000000*%
%ADD13FreePoly3,0.000000*%
%ADD14FreePoly1,270.000000*%
%ADD15FreePoly0,90.000000*%
%ADD16FreePoly4,90.000000*%
%ADD17FreePoly5,90.000000*%
%ADD18FreePoly1,180.000000*%
%ADD19FreePoly4,0.000000*%
%ADD20FreePoly5,0.000000*%
%ADD21FreePoly6,0.000000*%
%ADD22FreePoly7,0.000000*%
G04 APERTURE END LIST*
D10*
%TO.C,*%
X8016400Y-88828300D03*
X6366400Y-88828300D03*
X79629300Y-108982700D03*
X77979300Y-108982700D03*
D11*
X111995500Y-110171900D03*
X113545500Y-110171900D03*
D12*
X145308900Y-155087800D03*
X139884900Y-153817800D03*
X145308900Y-158897800D03*
X139884900Y-160167800D03*
X145308900Y-161437800D03*
X145308900Y-156357800D03*
X139884900Y-158897800D03*
X139884900Y-157627800D03*
X139884900Y-161437800D03*
X145308900Y-152547800D03*
X145308900Y-157627800D03*
X139884900Y-155087800D03*
X139884900Y-152547800D03*
X145308900Y-160167800D03*
X145308900Y-153817800D03*
X139884900Y-156357800D03*
D13*
X28879900Y-114125900D03*
X27004900Y-114125900D03*
D10*
X3413100Y-207200300D03*
X1763100Y-207200300D03*
D13*
X47226800Y-119874200D03*
X45351800Y-119874200D03*
X37003700Y-172200600D03*
X35128700Y-172200600D03*
D10*
X-23541900Y-140682300D03*
X-25191900Y-140682300D03*
X126051800Y-142335700D03*
X124401800Y-142335700D03*
D14*
X-16459201Y18922000D03*
X-16459199Y17372000D03*
D13*
X35280800Y-62340900D03*
X33405800Y-62340900D03*
D11*
X13862100Y10453500D03*
X15412100Y10453500D03*
X17407900Y-93173300D03*
X18957900Y-93173300D03*
D10*
X50484700Y-94713800D03*
X48834700Y-94713800D03*
X290700Y-181614100D03*
X-1359300Y-181614100D03*
D15*
X-21059203Y18975500D03*
X-21059197Y17325500D03*
D10*
X107204100Y-156667800D03*
X105554100Y-156667800D03*
D13*
X69274500Y-106359700D03*
X67399500Y-106359700D03*
D10*
X-33761100Y-159332200D03*
X-35411100Y-159332200D03*
X91644400Y-119630800D03*
X89994400Y-119630800D03*
D13*
X40410700Y-228270600D03*
X38535700Y-228270600D03*
D10*
X-10994600Y-210260000D03*
X-12644600Y-210260000D03*
D16*
X-18759188Y22343700D03*
X-16459188Y22343708D03*
X-21059188Y22343692D03*
D17*
X-18759212Y28643700D03*
D13*
X26265700Y-88828300D03*
X24390700Y-88828300D03*
D10*
X37358900Y-111950700D03*
X35708900Y-111950700D03*
D13*
X81212600Y-87603600D03*
X79337600Y-87603600D03*
D11*
X-19534200Y18922000D03*
X-17984200Y18922000D03*
D10*
X-35733300Y-163519400D03*
X-37383300Y-163519400D03*
X15412100Y13259200D03*
X13762100Y13259200D03*
X10178200Y-127121700D03*
X8528200Y-127121700D03*
X128970400Y-146563500D03*
X127320400Y-146563500D03*
D13*
X62646800Y-100447700D03*
X60771800Y-100447700D03*
D18*
X-10418700Y10453498D03*
X-11968700Y10453502D03*
D19*
X104685000Y-121432300D03*
X104685000Y-123732300D03*
X104685000Y-119132300D03*
D20*
X110985000Y-121432300D03*
D11*
X70045800Y-83920500D03*
X71595800Y-83920500D03*
D13*
X58198600Y-100447700D03*
X56323600Y-100447700D03*
D12*
X70069200Y-90407100D03*
X64645200Y-89137100D03*
X70069200Y-94217100D03*
X64645200Y-95487100D03*
X70069200Y-96757100D03*
X70069200Y-91677100D03*
X64645200Y-94217100D03*
X64645200Y-92947100D03*
X64645200Y-96757100D03*
X70069200Y-87867100D03*
X70069200Y-92947100D03*
X64645200Y-90407100D03*
X64645200Y-87867100D03*
X70069200Y-95487100D03*
X70069200Y-89137100D03*
X64645200Y-91677100D03*
D10*
X86295100Y-112622000D03*
X84645100Y-112622000D03*
D21*
X-5546500Y23259200D03*
X-5546500Y21259200D03*
X9653500Y21259200D03*
D22*
X1053500Y11759200D03*
D21*
X9653500Y17259200D03*
D22*
X-2946500Y11759200D03*
D21*
X9653500Y23259200D03*
X9653500Y15259200D03*
D22*
X7053500Y11759200D03*
D21*
X9653500Y13259200D03*
X9653500Y19259200D03*
X9653500Y27259200D03*
X-5546500Y25259200D03*
D22*
X-946500Y11759200D03*
D21*
X-5546500Y17259200D03*
X-5546500Y27259200D03*
X-5546500Y13259200D03*
X-5546500Y15259200D03*
X9653500Y25259200D03*
D22*
X3053500Y11759200D03*
X5053500Y11759200D03*
D21*
X-5546500Y19259200D03*
D11*
X113249900Y-100881300D03*
X114799900Y-100881300D03*
D13*
X42914600Y-47778100D03*
X41039600Y-47778100D03*
X41996700Y-82007300D03*
X40121700Y-82007300D03*
D10*
X-10318600Y23259200D03*
X-11968600Y23259200D03*
X2257600Y-155824100D03*
X607600Y-155824100D03*
D13*
X60237100Y-141861000D03*
X58362100Y-141861000D03*
D10*
X105951100Y-112428400D03*
X104301100Y-112428400D03*
D13*
X22637500Y-154372500D03*
X20762500Y-154372500D03*
X40153300Y-173909700D03*
X38278300Y-173909700D03*
D11*
X-44343800Y-168313400D03*
X-42793800Y-168313400D03*
D10*
X34562400Y-72522300D03*
X32912400Y-72522300D03*
D11*
X82010500Y-147797400D03*
X83560500Y-147797400D03*
D10*
X44149500Y-159332200D03*
X42499500Y-159332200D03*
D13*
X42028300Y-79205300D03*
X40153300Y-79205300D03*
D21*
X133284900Y-119874200D03*
X133284900Y-121874200D03*
X148484900Y-121874200D03*
D22*
X139884900Y-131374200D03*
D21*
X148484900Y-125874200D03*
D22*
X135884900Y-131374200D03*
D21*
X148484900Y-119874200D03*
X148484900Y-127874200D03*
D22*
X145884900Y-131374200D03*
D21*
X148484900Y-129874200D03*
X148484900Y-123874200D03*
X148484900Y-115874200D03*
X133284900Y-117874200D03*
D22*
X137884900Y-131374200D03*
D21*
X133284900Y-125874200D03*
X133284900Y-115874200D03*
X133284900Y-129874200D03*
X133284900Y-127874200D03*
X148484900Y-117874200D03*
D22*
X141884900Y-131374200D03*
X143884900Y-131374200D03*
D21*
X133284900Y-123874200D03*
D10*
X-10318700Y13259200D03*
X-11968700Y13259200D03*
%TD*%
M02*
