%TF.GenerationSoftware,Flux,Pcbnew,7.0.11-7.0.11~ubuntu20.04.1*%
%TF.CreationDate,2024-08-21T17:33:55+00:00*%
%TF.ProjectId,input,696e7075-742e-46b6-9963-61645f706362,rev?*%
%TF.SameCoordinates,Original*%
%TF.FileFunction,Soldermask,Bot*%
%TF.FilePolarity,Negative*%
%FSLAX46Y46*%
G04 Gerber Fmt 4.6, Leading zero omitted, Abs format (unit mm)*
G04 Filename: practical-fuchsia-massive-robot-spider*
G04 Build it with Flux! Visit our site at: https://www.flux.ai (PCBNEW 7.0.11-7.0.11~ubuntu20.04.1) date 2024-08-21 17:33:55*
%MOMM*%
%LPD*%
G01*
G04 APERTURE LIST*
G04 APERTURE END LIST*
%TO.C,*%
G36*
X37369941Y20348377D02*
G01*
X37394364Y20345972D01*
X37418640Y20342371D01*
X37442709Y20337583D01*
X37466515Y20331620D01*
X37490000Y20324496D01*
X37513106Y20316228D01*
X37535779Y20306837D01*
X37557964Y20296344D01*
X37579608Y20284776D01*
X37600658Y20272159D01*
X37621063Y20258524D01*
X37640775Y20243905D01*
X37659745Y20228337D01*
X37677929Y20211856D01*
X37695282Y20194502D01*
X37711763Y20176319D01*
X37727332Y20157348D01*
X37741951Y20137636D01*
X37755586Y20117231D01*
X37768202Y20096181D01*
X37779771Y20074538D01*
X37790264Y20052353D01*
X37799655Y20029680D01*
X37807923Y20006573D01*
X37815047Y19983088D01*
X37821010Y19959283D01*
X37825798Y19935213D01*
X37829399Y19910937D01*
X37831804Y19886514D01*
X37833008Y19862003D01*
X37833008Y19837461D01*
X37831804Y19812950D01*
X37829399Y19788527D01*
X37825798Y19764251D01*
X37821010Y19740181D01*
X37815047Y19716376D01*
X37807923Y19692891D01*
X37799655Y19669785D01*
X37790264Y19647111D01*
X37779771Y19624926D01*
X37768202Y19603283D01*
X37755586Y19582233D01*
X37741951Y19561828D01*
X37727332Y19542116D01*
X37711763Y19523146D01*
X37695282Y19504962D01*
X37677929Y19487609D01*
X36970822Y18780502D01*
X36952638Y18764021D01*
X36933668Y18748452D01*
X36913956Y18733833D01*
X36893551Y18720199D01*
X36872501Y18707582D01*
X36850858Y18696013D01*
X36828673Y18685520D01*
X36806000Y18676129D01*
X36782893Y18667861D01*
X36759408Y18660737D01*
X36735603Y18654774D01*
X36711533Y18649986D01*
X36687257Y18646386D01*
X36662834Y18643980D01*
X36638323Y18642776D01*
X36613781Y18642776D01*
X36589270Y18643980D01*
X36564847Y18646386D01*
X36540571Y18649986D01*
X36516501Y18654774D01*
X36492696Y18660737D01*
X36469211Y18667861D01*
X36446105Y18676129D01*
X36423431Y18685520D01*
X36401246Y18696013D01*
X36379603Y18707582D01*
X36358553Y18720199D01*
X36338148Y18733833D01*
X36318436Y18748452D01*
X36299466Y18764021D01*
X36281282Y18780502D01*
X36263928Y18797855D01*
X36247448Y18816039D01*
X36231879Y18835010D01*
X36217260Y18854721D01*
X36203625Y18875126D01*
X36191009Y18896176D01*
X36179440Y18917820D01*
X36168947Y18940005D01*
X36159556Y18962678D01*
X36151288Y18985784D01*
X36144164Y19009269D01*
X36138201Y19033075D01*
X36133413Y19057144D01*
X36129812Y19081420D01*
X36127407Y19105843D01*
X36126203Y19130355D01*
X36126203Y19154896D01*
X36127407Y19179408D01*
X36129812Y19203831D01*
X36133413Y19228106D01*
X36136287Y19242556D01*
X36482193Y19242556D01*
X36482795Y19230300D01*
X36483998Y19218089D01*
X36485799Y19205951D01*
X36488193Y19193916D01*
X36491174Y19182013D01*
X36494736Y19170271D01*
X36498870Y19158718D01*
X36503566Y19147381D01*
X36508812Y19136288D01*
X36514596Y19125467D01*
X36520905Y19114942D01*
X36527722Y19104739D01*
X36535031Y19094883D01*
X36542816Y19085398D01*
X36551056Y19076306D01*
X36559733Y19067630D01*
X36568825Y19059389D01*
X36578310Y19051605D01*
X36588166Y19044295D01*
X36598369Y19037478D01*
X36608893Y19031170D01*
X36619715Y19025385D01*
X36630808Y19020139D01*
X36642144Y19015443D01*
X36653698Y19011309D01*
X36665440Y19007747D01*
X36677343Y19004766D01*
X36689378Y19002372D01*
X36701515Y19000571D01*
X36713727Y18999369D01*
X36725983Y18998767D01*
X36738253Y18998767D01*
X36750509Y18999369D01*
X36762721Y19000571D01*
X36774859Y19002372D01*
X36786893Y19004766D01*
X36798796Y19007747D01*
X36810538Y19011309D01*
X36822092Y19015443D01*
X36833428Y19020139D01*
X36844521Y19025385D01*
X36855343Y19031170D01*
X36865867Y19037478D01*
X36876070Y19044295D01*
X36885926Y19051605D01*
X36895411Y19059389D01*
X36904503Y19067630D01*
X37399478Y19562604D01*
X37408155Y19571281D01*
X37416395Y19580373D01*
X37424179Y19589858D01*
X37431489Y19599714D01*
X37438306Y19609917D01*
X37444615Y19620442D01*
X37450399Y19631263D01*
X37455645Y19642356D01*
X37460341Y19653692D01*
X37464475Y19665246D01*
X37468037Y19676988D01*
X37471018Y19688891D01*
X37473412Y19700926D01*
X37475213Y19713063D01*
X37476415Y19725275D01*
X37477017Y19737531D01*
X37477017Y19749801D01*
X37476415Y19762057D01*
X37475213Y19774269D01*
X37473412Y19786407D01*
X37471018Y19798441D01*
X37468037Y19810344D01*
X37464475Y19822087D01*
X37460341Y19833640D01*
X37455645Y19844976D01*
X37450399Y19856069D01*
X37444615Y19866891D01*
X37438306Y19877415D01*
X37431489Y19887618D01*
X37424179Y19897474D01*
X37416395Y19906959D01*
X37408155Y19916051D01*
X37399478Y19924728D01*
X37390386Y19932968D01*
X37380901Y19940753D01*
X37371045Y19948062D01*
X37360842Y19954879D01*
X37350317Y19961188D01*
X37339496Y19966972D01*
X37328403Y19972219D01*
X37317067Y19976914D01*
X37305513Y19981048D01*
X37293771Y19984610D01*
X37281868Y19987592D01*
X37269833Y19989985D01*
X37257695Y19991786D01*
X37245484Y19992989D01*
X37233228Y19993591D01*
X37220957Y19993591D01*
X37208702Y19992989D01*
X37196490Y19991786D01*
X37184352Y19989985D01*
X37172317Y19987592D01*
X37160415Y19984610D01*
X37148672Y19981048D01*
X37137119Y19976914D01*
X37125782Y19972219D01*
X37114690Y19966972D01*
X37103868Y19961188D01*
X37093343Y19954879D01*
X37083141Y19948062D01*
X37073285Y19940753D01*
X37063800Y19932968D01*
X37054708Y19924728D01*
X36551056Y19421076D01*
X36542816Y19411985D01*
X36535031Y19402499D01*
X36527722Y19392643D01*
X36520905Y19382441D01*
X36514596Y19371916D01*
X36508812Y19361094D01*
X36503566Y19350002D01*
X36498870Y19338665D01*
X36494736Y19327112D01*
X36491174Y19315370D01*
X36488193Y19303467D01*
X36485799Y19291432D01*
X36483998Y19279294D01*
X36482795Y19267082D01*
X36482193Y19254827D01*
X36482193Y19242556D01*
X36136287Y19242556D01*
X36138201Y19252176D01*
X36144164Y19275982D01*
X36151288Y19299466D01*
X36159556Y19322573D01*
X36168947Y19345246D01*
X36179440Y19367431D01*
X36191009Y19389074D01*
X36203625Y19410124D01*
X36217260Y19430529D01*
X36231879Y19450241D01*
X36247448Y19469212D01*
X36263928Y19487396D01*
X36988389Y20211856D01*
X37006572Y20228337D01*
X37025543Y20243905D01*
X37045255Y20258524D01*
X37065660Y20272159D01*
X37086710Y20284776D01*
X37108353Y20296344D01*
X37130538Y20306837D01*
X37153211Y20316228D01*
X37176318Y20324496D01*
X37199802Y20331620D01*
X37223608Y20337583D01*
X37247678Y20342371D01*
X37271953Y20345972D01*
X37296377Y20348377D01*
X37320888Y20349581D01*
X37345429Y20349581D01*
X37369941Y20348377D01*
G37*
G36*
X31260566Y26457807D02*
G01*
X31284989Y26455402D01*
X31309265Y26451801D01*
X31333334Y26447013D01*
X31357140Y26441050D01*
X31380625Y26433926D01*
X31403731Y26425659D01*
X31426404Y26416267D01*
X31448589Y26405774D01*
X31470233Y26394206D01*
X31491282Y26381589D01*
X31511688Y26367955D01*
X31531399Y26353335D01*
X31550370Y26337767D01*
X31568554Y26321286D01*
X31585907Y26303932D01*
X31602388Y26285749D01*
X31617957Y26266778D01*
X31632576Y26247066D01*
X31646210Y26226661D01*
X31658827Y26205611D01*
X31670396Y26183968D01*
X31680889Y26161783D01*
X31690280Y26139110D01*
X31698548Y26116003D01*
X31705672Y26092518D01*
X31711635Y26068713D01*
X31716422Y26044643D01*
X31720023Y26020367D01*
X31722429Y25995944D01*
X31723633Y25971433D01*
X31723633Y25946891D01*
X31722429Y25922380D01*
X31720023Y25897957D01*
X31716422Y25873681D01*
X31711635Y25849611D01*
X31705672Y25825806D01*
X31698548Y25802321D01*
X31690280Y25779215D01*
X31680889Y25756541D01*
X31670396Y25734356D01*
X31658827Y25712713D01*
X31646210Y25691663D01*
X31632576Y25671258D01*
X31617957Y25651546D01*
X31602388Y25632576D01*
X31585907Y25614392D01*
X31568554Y25597039D01*
X30861447Y24889932D01*
X30843263Y24873451D01*
X30824293Y24857882D01*
X30804581Y24843263D01*
X30784176Y24829629D01*
X30763126Y24817012D01*
X30741483Y24805443D01*
X30719298Y24794950D01*
X30696624Y24785559D01*
X30673518Y24777291D01*
X30650033Y24770167D01*
X30626227Y24764204D01*
X30602158Y24759417D01*
X30577882Y24755816D01*
X30553459Y24753410D01*
X30528947Y24752206D01*
X30504406Y24752206D01*
X30479895Y24753410D01*
X30455472Y24755816D01*
X30431196Y24759417D01*
X30407126Y24764204D01*
X30383320Y24770167D01*
X30359836Y24777291D01*
X30336729Y24785559D01*
X30314056Y24794950D01*
X30291871Y24805443D01*
X30270228Y24817012D01*
X30249178Y24829629D01*
X30228773Y24843263D01*
X30209061Y24857882D01*
X30190090Y24873451D01*
X30171907Y24889932D01*
X30154553Y24907285D01*
X30138072Y24925469D01*
X30122504Y24944440D01*
X30107884Y24964151D01*
X30094250Y24984557D01*
X30081633Y25005606D01*
X30070065Y25027250D01*
X30059572Y25049435D01*
X30050180Y25072108D01*
X30041913Y25095214D01*
X30034789Y25118699D01*
X30028826Y25142505D01*
X30024038Y25166574D01*
X30020437Y25190850D01*
X30018032Y25215273D01*
X30016827Y25239785D01*
X30016827Y25264326D01*
X30018032Y25288838D01*
X30020437Y25313261D01*
X30024038Y25337536D01*
X30026912Y25351986D01*
X30372818Y25351986D01*
X30373420Y25339730D01*
X30374623Y25327519D01*
X30376423Y25315381D01*
X30378817Y25303346D01*
X30381799Y25291443D01*
X30385361Y25279701D01*
X30389495Y25268148D01*
X30394190Y25256811D01*
X30399437Y25245719D01*
X30405221Y25234897D01*
X30411529Y25224372D01*
X30418347Y25214169D01*
X30425656Y25204313D01*
X30433441Y25194828D01*
X30441681Y25185736D01*
X30450358Y25177060D01*
X30459450Y25168819D01*
X30468935Y25161035D01*
X30478791Y25153725D01*
X30488993Y25146908D01*
X30499518Y25140600D01*
X30510340Y25134815D01*
X30521433Y25129569D01*
X30532769Y25124873D01*
X30544322Y25120739D01*
X30556065Y25117177D01*
X30567968Y25114196D01*
X30580002Y25111802D01*
X30592140Y25110001D01*
X30604352Y25108799D01*
X30616608Y25108197D01*
X30628878Y25108197D01*
X30641134Y25108799D01*
X30653346Y25110001D01*
X30665483Y25111802D01*
X30677518Y25114196D01*
X30689421Y25117177D01*
X30701163Y25120739D01*
X30712717Y25124873D01*
X30724053Y25129569D01*
X30735146Y25134815D01*
X30745967Y25140600D01*
X30756492Y25146908D01*
X30766695Y25153725D01*
X30776551Y25161035D01*
X30786036Y25168819D01*
X30795128Y25177060D01*
X31290103Y25672034D01*
X31298779Y25680711D01*
X31307020Y25689803D01*
X31314804Y25699288D01*
X31322114Y25709144D01*
X31328931Y25719347D01*
X31335239Y25729872D01*
X31341024Y25740693D01*
X31346270Y25751786D01*
X31350966Y25763122D01*
X31355100Y25774676D01*
X31358662Y25786418D01*
X31361643Y25798321D01*
X31364037Y25810356D01*
X31365838Y25822493D01*
X31367040Y25834705D01*
X31367642Y25846961D01*
X31367642Y25859231D01*
X31367040Y25871487D01*
X31365838Y25883699D01*
X31364037Y25895837D01*
X31361643Y25907871D01*
X31358662Y25919774D01*
X31355100Y25931517D01*
X31350966Y25943070D01*
X31346270Y25954406D01*
X31341024Y25965499D01*
X31335239Y25976321D01*
X31328931Y25986845D01*
X31322114Y25997048D01*
X31314804Y26006904D01*
X31307020Y26016389D01*
X31298779Y26025481D01*
X31290103Y26034158D01*
X31281011Y26042398D01*
X31271526Y26050183D01*
X31261670Y26057492D01*
X31251467Y26064309D01*
X31240942Y26070618D01*
X31230120Y26076402D01*
X31219028Y26081649D01*
X31207691Y26086344D01*
X31196138Y26090478D01*
X31184396Y26094040D01*
X31172493Y26097022D01*
X31160458Y26099415D01*
X31148320Y26101216D01*
X31136109Y26102419D01*
X31123853Y26103021D01*
X31111582Y26103021D01*
X31099326Y26102419D01*
X31087115Y26101216D01*
X31074977Y26099415D01*
X31062942Y26097022D01*
X31051039Y26094040D01*
X31039297Y26090478D01*
X31027744Y26086344D01*
X31016407Y26081649D01*
X31005315Y26076402D01*
X30994493Y26070618D01*
X30983968Y26064309D01*
X30973766Y26057492D01*
X30963910Y26050183D01*
X30954424Y26042398D01*
X30945332Y26034158D01*
X30441681Y25530506D01*
X30433441Y25521415D01*
X30425656Y25511929D01*
X30418347Y25502073D01*
X30411529Y25491871D01*
X30405221Y25481346D01*
X30399437Y25470524D01*
X30394190Y25459432D01*
X30389495Y25448095D01*
X30385361Y25436542D01*
X30381799Y25424800D01*
X30378817Y25412897D01*
X30376423Y25400862D01*
X30374623Y25388724D01*
X30373420Y25376512D01*
X30372818Y25364257D01*
X30372818Y25351986D01*
X30026912Y25351986D01*
X30028826Y25361606D01*
X30034789Y25385412D01*
X30041913Y25408896D01*
X30050180Y25432003D01*
X30059572Y25454676D01*
X30070065Y25476861D01*
X30081633Y25498504D01*
X30094250Y25519554D01*
X30107884Y25539959D01*
X30122504Y25559671D01*
X30138072Y25578642D01*
X30154553Y25596826D01*
X30879013Y26321286D01*
X30897197Y26337767D01*
X30916168Y26353335D01*
X30935880Y26367955D01*
X30956285Y26381589D01*
X30977335Y26394206D01*
X30998978Y26405774D01*
X31021163Y26416267D01*
X31043836Y26425659D01*
X31066943Y26433926D01*
X31090427Y26441050D01*
X31114233Y26447013D01*
X31138303Y26451801D01*
X31162578Y26455402D01*
X31187001Y26457807D01*
X31211513Y26459012D01*
X31236054Y26459012D01*
X31260566Y26457807D01*
G37*
G36*
X34682923Y17661384D02*
G01*
X34707346Y17658978D01*
X34731622Y17655377D01*
X34755692Y17650589D01*
X34779497Y17644626D01*
X34802982Y17637502D01*
X34826088Y17629235D01*
X34848762Y17619843D01*
X34870947Y17609351D01*
X34892590Y17597782D01*
X34913640Y17585165D01*
X34934045Y17571531D01*
X34953757Y17556912D01*
X34972727Y17541343D01*
X34990911Y17524862D01*
X35008265Y17507509D01*
X35024745Y17489325D01*
X35040314Y17470354D01*
X35054933Y17450642D01*
X35068568Y17430237D01*
X35081184Y17409187D01*
X35092753Y17387544D01*
X35103246Y17365359D01*
X35112637Y17342686D01*
X35120905Y17319579D01*
X35128029Y17296095D01*
X35133992Y17272289D01*
X35138780Y17248219D01*
X35142381Y17223944D01*
X35144786Y17199521D01*
X35145990Y17175009D01*
X35145990Y17150468D01*
X35144786Y17125956D01*
X35142381Y17101533D01*
X35138780Y17077257D01*
X35133992Y17053188D01*
X35128029Y17029382D01*
X35120905Y17005898D01*
X35112637Y16982791D01*
X35103246Y16960118D01*
X35092753Y16937933D01*
X35081184Y16916289D01*
X35068568Y16895240D01*
X35054933Y16874834D01*
X35040314Y16855123D01*
X35024745Y16836152D01*
X35008265Y16817968D01*
X34990911Y16800615D01*
X34283804Y16093508D01*
X34265621Y16077027D01*
X34246650Y16061458D01*
X34226938Y16046839D01*
X34206533Y16033205D01*
X34185483Y16020588D01*
X34163840Y16009019D01*
X34141655Y15998527D01*
X34118982Y15989135D01*
X34095875Y15980868D01*
X34072391Y15973744D01*
X34048585Y15967781D01*
X34024515Y15962993D01*
X34000240Y15959392D01*
X33975816Y15956986D01*
X33951305Y15955782D01*
X33926764Y15955782D01*
X33902252Y15956986D01*
X33877829Y15959392D01*
X33853553Y15962993D01*
X33829484Y15967781D01*
X33805678Y15973744D01*
X33782193Y15980868D01*
X33759087Y15989135D01*
X33736414Y15998527D01*
X33714229Y16009019D01*
X33692585Y16020588D01*
X33671535Y16033205D01*
X33651130Y16046839D01*
X33631418Y16061458D01*
X33612448Y16077027D01*
X33594264Y16093508D01*
X33576911Y16110861D01*
X33560430Y16129045D01*
X33544861Y16148016D01*
X33530242Y16167728D01*
X33516607Y16188133D01*
X33503991Y16209183D01*
X33492422Y16230826D01*
X33481929Y16253011D01*
X33472538Y16275684D01*
X33464270Y16298791D01*
X33457146Y16322275D01*
X33451183Y16346081D01*
X33446395Y16370151D01*
X33442794Y16394426D01*
X33440389Y16418849D01*
X33439185Y16443361D01*
X33439185Y16467902D01*
X33440389Y16492414D01*
X33442794Y16516837D01*
X33446395Y16541113D01*
X33449269Y16555562D01*
X33795176Y16555562D01*
X33795778Y16543306D01*
X33796980Y16531095D01*
X33798781Y16518957D01*
X33801175Y16506922D01*
X33804156Y16495019D01*
X33807718Y16483277D01*
X33811852Y16471724D01*
X33816548Y16460387D01*
X33821794Y16449295D01*
X33827578Y16438473D01*
X33833887Y16427948D01*
X33840704Y16417746D01*
X33848014Y16407890D01*
X33855798Y16398404D01*
X33864038Y16389312D01*
X33872715Y16380636D01*
X33881807Y16372395D01*
X33891292Y16364611D01*
X33901148Y16357301D01*
X33911351Y16350484D01*
X33921876Y16344176D01*
X33932697Y16338392D01*
X33943790Y16333145D01*
X33955126Y16328449D01*
X33966680Y16324316D01*
X33978422Y16320754D01*
X33990325Y16317772D01*
X34002360Y16315378D01*
X34014498Y16313578D01*
X34026709Y16312375D01*
X34038965Y16311773D01*
X34051236Y16311773D01*
X34063491Y16312375D01*
X34075703Y16313578D01*
X34087841Y16315378D01*
X34099876Y16317772D01*
X34111778Y16320754D01*
X34123521Y16324316D01*
X34135074Y16328449D01*
X34146411Y16333145D01*
X34157503Y16338392D01*
X34168325Y16344176D01*
X34178850Y16350484D01*
X34189052Y16357301D01*
X34198908Y16364611D01*
X34208393Y16372395D01*
X34217485Y16380636D01*
X34712460Y16875611D01*
X34721137Y16884287D01*
X34729377Y16893379D01*
X34737162Y16902864D01*
X34744471Y16912720D01*
X34751288Y16922923D01*
X34757597Y16933448D01*
X34763381Y16944270D01*
X34768627Y16955362D01*
X34773323Y16966699D01*
X34777457Y16978252D01*
X34781019Y16989994D01*
X34784000Y17001897D01*
X34786394Y17013932D01*
X34788195Y17026070D01*
X34789398Y17038281D01*
X34790000Y17050537D01*
X34790000Y17062808D01*
X34789398Y17075064D01*
X34788195Y17087275D01*
X34786394Y17099413D01*
X34784000Y17111448D01*
X34781019Y17123351D01*
X34777457Y17135093D01*
X34773323Y17146646D01*
X34768627Y17157983D01*
X34763381Y17169075D01*
X34757597Y17179897D01*
X34751288Y17190422D01*
X34744471Y17200624D01*
X34737162Y17210480D01*
X34729377Y17219966D01*
X34721137Y17229057D01*
X34712460Y17237734D01*
X34703368Y17245975D01*
X34693883Y17253759D01*
X34684027Y17261069D01*
X34673824Y17267886D01*
X34663299Y17274194D01*
X34652478Y17279978D01*
X34641385Y17285225D01*
X34630049Y17289921D01*
X34618495Y17294054D01*
X34606753Y17297616D01*
X34594850Y17300598D01*
X34582815Y17302992D01*
X34570678Y17304792D01*
X34558466Y17305995D01*
X34546210Y17306597D01*
X34533940Y17306597D01*
X34521684Y17305995D01*
X34509472Y17304792D01*
X34497334Y17302992D01*
X34485300Y17300598D01*
X34473397Y17297616D01*
X34461655Y17294054D01*
X34450101Y17289921D01*
X34438765Y17285225D01*
X34427672Y17279978D01*
X34416850Y17274194D01*
X34406326Y17267886D01*
X34396123Y17261069D01*
X34386267Y17253759D01*
X34376782Y17245975D01*
X34367690Y17237734D01*
X33864038Y16734083D01*
X33855798Y16724991D01*
X33848014Y16715506D01*
X33840704Y16705650D01*
X33833887Y16695447D01*
X33827578Y16684922D01*
X33821794Y16674100D01*
X33816548Y16663008D01*
X33811852Y16651671D01*
X33807718Y16640118D01*
X33804156Y16628376D01*
X33801175Y16616473D01*
X33798781Y16604438D01*
X33796980Y16592300D01*
X33795778Y16580089D01*
X33795176Y16567833D01*
X33795176Y16555562D01*
X33449269Y16555562D01*
X33451183Y16565182D01*
X33457146Y16588988D01*
X33464270Y16612472D01*
X33472538Y16635579D01*
X33481929Y16658252D01*
X33492422Y16680437D01*
X33503991Y16702081D01*
X33516607Y16723130D01*
X33530242Y16743536D01*
X33544861Y16763247D01*
X33560430Y16782218D01*
X33576911Y16800402D01*
X34301371Y17524862D01*
X34319555Y17541343D01*
X34338525Y17556912D01*
X34358237Y17571531D01*
X34378642Y17585165D01*
X34399692Y17597782D01*
X34421335Y17609351D01*
X34443520Y17619843D01*
X34466193Y17629235D01*
X34489300Y17637502D01*
X34512785Y17644626D01*
X34536590Y17650589D01*
X34560660Y17655377D01*
X34584936Y17658978D01*
X34609359Y17661384D01*
X34633870Y17662588D01*
X34658412Y17662588D01*
X34682923Y17661384D01*
G37*
G36*
X28573548Y23770814D02*
G01*
X28597971Y23768408D01*
X28622247Y23764807D01*
X28646316Y23760019D01*
X28670122Y23754056D01*
X28693607Y23746932D01*
X28716713Y23738665D01*
X28739386Y23729273D01*
X28761571Y23718781D01*
X28783215Y23707212D01*
X28804265Y23694595D01*
X28824670Y23680961D01*
X28844382Y23666342D01*
X28863352Y23650773D01*
X28881536Y23634292D01*
X28898889Y23616939D01*
X28915370Y23598755D01*
X28930939Y23579784D01*
X28945558Y23560072D01*
X28959193Y23539667D01*
X28971809Y23518617D01*
X28983378Y23496974D01*
X28993871Y23474789D01*
X29003262Y23452116D01*
X29011530Y23429009D01*
X29018654Y23405525D01*
X29024617Y23381719D01*
X29029405Y23357649D01*
X29033006Y23333374D01*
X29035411Y23308951D01*
X29036615Y23284439D01*
X29036615Y23259898D01*
X29035411Y23235386D01*
X29033006Y23210963D01*
X29029405Y23186687D01*
X29024617Y23162618D01*
X29018654Y23138812D01*
X29011530Y23115328D01*
X29003262Y23092221D01*
X28993871Y23069548D01*
X28983378Y23047363D01*
X28971809Y23025719D01*
X28959193Y23004670D01*
X28945558Y22984264D01*
X28930939Y22964553D01*
X28915370Y22945582D01*
X28898889Y22927398D01*
X28881536Y22910045D01*
X28174429Y22202938D01*
X28156245Y22186457D01*
X28137275Y22170888D01*
X28117563Y22156269D01*
X28097158Y22142635D01*
X28076108Y22130018D01*
X28054465Y22118449D01*
X28032280Y22107957D01*
X28009607Y22098565D01*
X27986500Y22090298D01*
X27963015Y22083174D01*
X27939210Y22077211D01*
X27915140Y22072423D01*
X27890864Y22068822D01*
X27866441Y22066416D01*
X27841930Y22065212D01*
X27817388Y22065212D01*
X27792877Y22066416D01*
X27768454Y22068822D01*
X27744178Y22072423D01*
X27720108Y22077211D01*
X27696303Y22083174D01*
X27672818Y22090298D01*
X27649712Y22098565D01*
X27627038Y22107957D01*
X27604853Y22118449D01*
X27583210Y22130018D01*
X27562160Y22142635D01*
X27541755Y22156269D01*
X27522043Y22170888D01*
X27503073Y22186457D01*
X27484889Y22202938D01*
X27467535Y22220291D01*
X27451055Y22238475D01*
X27435486Y22257446D01*
X27420867Y22277158D01*
X27407232Y22297563D01*
X27394616Y22318613D01*
X27383047Y22340256D01*
X27372554Y22362441D01*
X27363163Y22385114D01*
X27354895Y22408221D01*
X27347771Y22431705D01*
X27341808Y22455511D01*
X27337020Y22479581D01*
X27333419Y22503856D01*
X27331014Y22528279D01*
X27329810Y22552791D01*
X27329810Y22577332D01*
X27331014Y22601844D01*
X27333419Y22626267D01*
X27337020Y22650543D01*
X27339894Y22664992D01*
X27685800Y22664992D01*
X27686402Y22652736D01*
X27687605Y22640525D01*
X27689406Y22628387D01*
X27691800Y22616352D01*
X27694781Y22604449D01*
X27698343Y22592707D01*
X27702477Y22581154D01*
X27707173Y22569817D01*
X27712419Y22558725D01*
X27718203Y22547903D01*
X27724512Y22537378D01*
X27731329Y22527176D01*
X27738638Y22517320D01*
X27746423Y22507834D01*
X27754663Y22498743D01*
X27763340Y22490066D01*
X27772432Y22481825D01*
X27781917Y22474041D01*
X27791773Y22466731D01*
X27801976Y22459914D01*
X27812501Y22453606D01*
X27823322Y22447822D01*
X27834415Y22442575D01*
X27845751Y22437879D01*
X27857305Y22433746D01*
X27869047Y22430184D01*
X27880950Y22427202D01*
X27892985Y22424808D01*
X27905122Y22423008D01*
X27917334Y22421805D01*
X27929590Y22421203D01*
X27941860Y22421203D01*
X27954116Y22421805D01*
X27966328Y22423008D01*
X27978466Y22424808D01*
X27990500Y22427202D01*
X28002403Y22430184D01*
X28014145Y22433746D01*
X28025699Y22437879D01*
X28037035Y22442575D01*
X28048128Y22447822D01*
X28058950Y22453606D01*
X28069474Y22459914D01*
X28079677Y22466731D01*
X28089533Y22474041D01*
X28099018Y22481825D01*
X28108110Y22490066D01*
X28603085Y22985041D01*
X28611762Y22993717D01*
X28620002Y23002809D01*
X28627786Y23012294D01*
X28635096Y23022150D01*
X28641913Y23032353D01*
X28648222Y23042878D01*
X28654006Y23053700D01*
X28659252Y23064792D01*
X28663948Y23076129D01*
X28668082Y23087682D01*
X28671644Y23099424D01*
X28674625Y23111327D01*
X28677019Y23123362D01*
X28678820Y23135500D01*
X28680022Y23147711D01*
X28680624Y23159967D01*
X28680624Y23172238D01*
X28680022Y23184494D01*
X28678820Y23196705D01*
X28677019Y23208843D01*
X28674625Y23220878D01*
X28671644Y23232781D01*
X28668082Y23244523D01*
X28663948Y23256076D01*
X28659252Y23267413D01*
X28654006Y23278505D01*
X28648222Y23289327D01*
X28641913Y23299852D01*
X28635096Y23310054D01*
X28627786Y23319910D01*
X28620002Y23329396D01*
X28611762Y23338488D01*
X28603085Y23347164D01*
X28593993Y23355405D01*
X28584508Y23363189D01*
X28574652Y23370499D01*
X28564449Y23377316D01*
X28553924Y23383624D01*
X28543103Y23389408D01*
X28532010Y23394655D01*
X28520674Y23399351D01*
X28509120Y23403484D01*
X28497378Y23407046D01*
X28485475Y23410028D01*
X28473440Y23412422D01*
X28461302Y23414222D01*
X28449091Y23415425D01*
X28436835Y23416027D01*
X28424564Y23416027D01*
X28412309Y23415425D01*
X28400097Y23414222D01*
X28387959Y23412422D01*
X28375924Y23410028D01*
X28364022Y23407046D01*
X28352279Y23403484D01*
X28340726Y23399351D01*
X28329389Y23394655D01*
X28318297Y23389408D01*
X28307475Y23383624D01*
X28296950Y23377316D01*
X28286748Y23370499D01*
X28276892Y23363189D01*
X28267407Y23355405D01*
X28258315Y23347164D01*
X27754663Y22843513D01*
X27746423Y22834421D01*
X27738638Y22824936D01*
X27731329Y22815080D01*
X27724512Y22804877D01*
X27718203Y22794352D01*
X27712419Y22783530D01*
X27707173Y22772438D01*
X27702477Y22761101D01*
X27698343Y22749548D01*
X27694781Y22737806D01*
X27691800Y22725903D01*
X27689406Y22713868D01*
X27687605Y22701730D01*
X27686402Y22689519D01*
X27685800Y22677263D01*
X27685800Y22664992D01*
X27339894Y22664992D01*
X27341808Y22674612D01*
X27347771Y22698418D01*
X27354895Y22721902D01*
X27363163Y22745009D01*
X27372554Y22767682D01*
X27383047Y22789867D01*
X27394616Y22811511D01*
X27407232Y22832560D01*
X27420867Y22852966D01*
X27435486Y22872677D01*
X27451055Y22891648D01*
X27467535Y22909832D01*
X28191996Y23634292D01*
X28210179Y23650773D01*
X28229150Y23666342D01*
X28248862Y23680961D01*
X28269267Y23694595D01*
X28290317Y23707212D01*
X28311960Y23718781D01*
X28334145Y23729273D01*
X28356818Y23738665D01*
X28379925Y23746932D01*
X28403409Y23754056D01*
X28427215Y23760019D01*
X28451285Y23764807D01*
X28475560Y23768408D01*
X28499984Y23770814D01*
X28524495Y23772018D01*
X28549036Y23772018D01*
X28573548Y23770814D01*
G37*
%TD*%
M02*
