M48
; DRILL file {KiCad 7.0.11-7.0.11~ubuntu20.04.1} date Wed Aug 21 17:33:55 2024
; FORMAT={-:-/ absolute / metric / decimal}
; #@! TF.CreationDate,2024-08-21T17:33:55+00:00
; #@! TF.GenerationSoftware,Kicad,Pcbnew,7.0.11-7.0.11~ubuntu20.04.1
; #@! TF.FileFunction,MixedPlating,1,4
FMAT,2
METRIC
; #@! TA.AperFunction,Plated,PTH,ComponentDrill
T1C0.300
; #@! TA.AperFunction,Plated,PTH,ComponentDrill
T2C0.500
%
G90
G05
T1
X-167.158Y-7.792
X-166.73Y-5.52
X-163.385Y-5.52
X-163.385Y-7.792
X-162.704Y-8.891
X-159.624Y-5.52
X-159.624Y-7.284
X-156.378Y-7.641
X-156.103Y-5.473
X-152.594Y-7.792
X-152.232Y-5.473
X-151.134Y-15.437
X-150.649Y-8.196
X-148.809Y-11.782
X-148.133Y-13.332
X-148.133Y-15.437
X-147.552Y-8.537
X-137.916Y-7.963
X-137.487Y-5.411
X-136.351Y-15.747
X-134.063Y-5.411
X-133.819Y-7.409
X-133.304Y-8.752
X-130.582Y-7.409
X-130.376Y-5.411
X-129.841Y-13.332
X-126.29Y-8.147
X-123.292Y-15.437
X-122.987Y-13.332
X-120.461Y-11.782
X-120.151Y-13.332
X-120.151Y-15.127
X-118.318Y-8.658
X-118.097Y-15.748
X-108.75Y-7.68
X-108.22Y-5.566
X-104.667Y-5.287
X-104.667Y-7.327
X-103.896Y-8.651
X-101.565Y-6.705
X-100.969Y-5.287
X-100.969Y-13.332
X-97.638Y-7.76
X-97.296Y-5.429
X-93.182Y-13.332
X-93.13Y-15.385
X-90.358Y-11.813
X-89.876Y-13.363
X-89.876Y-15.385
X-88.586Y-8.497
X-79.454Y-5.477
X-79.454Y-7.71
X-76.129Y-7.71
X-75.639Y-5.525
X-75.118Y-8.725
X-73.462Y-15.752
X-73.03Y-7.71
X-72.296Y-5.525
X-72.296Y-13.751
X-69.164Y-12.129
X-67.735Y-12.721
X-66.1Y-13.121
X-62.183Y-13.363
X-61.34Y-8.237
X-59.2Y-10.185
X-47.788Y-15.322
X-44.2Y-10.185
X-29.2Y19.815
X-29.2Y4.815
X-29.2Y-10.185
X-29.2Y-25.185
X-29.2Y-40.185
X-20.19Y20.648
X-19.534Y15.752
X-19.534Y7.845
X-18.385Y-27.515
X-17.424Y16.021
X-17.041Y12.003
X-14.897Y16.349
X-14.58Y14.601
X-14.2Y34.815
X-14.2Y-10.185
X-14.2Y-25.185
X-14.2Y-40.185
X-11.602Y21.214
X-11.272Y15.87
X-9.827Y-34.111
X-9.827Y-41.463
X-9.213Y-36.111
X-8.97Y17.095
X-8.733Y-39.787
X-7.64Y-38.111
X-2.946Y-45.026
X-1.826Y-44.111
X-0.386Y-35.423
X-0.386Y-43.244
X0.778Y-17.797
X0.8Y34.815
X0.8Y19.815
X0.8Y4.815
X4.792Y-35.423
X6.782Y-22.718
X12.068Y-31.402
X12.156Y-40.759
X13.627Y-31.667
X15.412Y20.108
X15.412Y26.702
X15.8Y34.815
X15.8Y4.815
X15.8Y-10.185
X16.754Y24.439
X18.081Y-34.027
X20.294Y14.549
X22.816Y-35.77
X23.966Y1.709
X24.141Y4.932
X25.344Y10.454
X25.813Y17.02
X26.526Y20.214
X27.194Y-36.111
X28.183Y20.935
X28.403Y19.446
X28.682Y3.267
X28.824Y15.652
X30.16Y15.259
X30.8Y-10.185
X30.8Y-25.185
X30.8Y-40.185
X34.293Y21.805
X45.8Y4.815
X45.8Y-10.185
X95.524Y-7.92
X104.271Y-8.237
X107.608Y-8.392
X111.085Y-7.6
X120.8Y-10.185
X135.8Y-10.185
X137.045Y-7.912
X140.876Y-8.079
X165.159Y-7.845
X180.8Y-10.185
T2
G00X27.936Y22.671
M15
G01X28.431Y23.166
M16
G05
G00X30.623Y25.358
M15
G01X31.118Y25.853
M16
G05
G00X34.045Y16.562
M15
G01X34.54Y17.057
M16
G05
G00X36.732Y19.249
M15
G01X37.227Y19.744
M16
G05
M30
