%TF.GenerationSoftware,Flux,Pcbnew,7.0.11-7.0.11~ubuntu20.04.1*%
%TF.CreationDate,2024-08-27T08:57:38+00:00*%
%TF.ProjectId,input,696e7075-742e-46b6-9963-61645f706362,rev?*%
%TF.SameCoordinates,Original*%
%TF.FileFunction,Copper,L3,Inr*%
%TF.FilePolarity,Positive*%
%FSLAX46Y46*%
G04 Gerber Fmt 4.6, Leading zero omitted, Abs format (unit mm)*
G04 Filename: spinningleddisplay*
G04 Build it with Flux! Visit our site at: https://www.flux.ai (PCBNEW 7.0.11-7.0.11~ubuntu20.04.1) date 2024-08-27 08:57:38*
%MOMM*%
%LPD*%
G01*
G04 APERTURE LIST*
G04 Aperture macros list*
%AMHorizOval*
0 Thick line with rounded ends*
0 $1 width*
0 $2 $3 position (X,Y) of the first rounded end (center of the circle)*
0 $4 $5 position (X,Y) of the second rounded end (center of the circle)*
0 Add line between two ends*
20,1,$1,$2,$3,$4,$5,0*
0 Add two circle primitives to create the rounded ends*
1,1,$1,$2,$3*
1,1,$1,$4,$5*%
%AMFreePoly0*
4,1,129,0.022069,0.299187,0.036723,0.297744,0.051289,0.295583,0.065730,0.292711,0.080014,0.289133,0.094105,0.284858,0.107969,0.279898,0.121572,0.274263,0.134883,0.267967,0.147869,0.261026,0.160499,0.253456,0.172742,0.245275,0.184569,0.236504,0.195952,0.227163,0.206862,0.217274,0.217274,0.206862,0.227163,0.195952,0.236504,0.184569,0.245275,0.172742,0.253456,0.160499,
0.261026,0.147869,0.267967,0.134883,0.274263,0.121572,0.279898,0.107969,0.284858,0.094105,0.289133,0.080014,0.292711,0.065730,0.295583,0.051289,0.297744,0.036723,0.299187,0.022069,0.299910,0.007362,0.299910,-0.007362,0.299187,-0.022069,0.297744,-0.036723,0.295583,-0.051289,0.292711,-0.065730,0.289133,-0.080014,0.284858,-0.094105,0.279898,-0.107969,0.274263,-0.121572,
0.267967,-0.134883,0.261026,-0.147869,0.253456,-0.160499,0.245275,-0.172742,0.236504,-0.184569,0.227163,-0.195952,0.217274,-0.206862,0.206862,-0.217274,0.195952,-0.227163,0.184569,-0.236504,0.172742,-0.245275,0.160499,-0.253456,0.147869,-0.261026,0.134883,-0.267967,0.121572,-0.274263,0.107969,-0.279898,0.094105,-0.284858,0.080014,-0.289133,0.065730,-0.292711,0.051289,-0.295583,
0.036723,-0.297744,0.022069,-0.299187,0.007362,-0.299910,-0.007362,-0.299910,-0.022069,-0.299187,-0.036723,-0.297744,-0.051289,-0.295583,-0.065730,-0.292711,-0.080014,-0.289133,-0.094105,-0.284858,-0.107969,-0.279898,-0.121572,-0.274263,-0.134883,-0.267967,-0.147869,-0.261026,-0.160499,-0.253456,-0.172742,-0.245275,-0.184569,-0.236504,-0.195952,-0.227163,-0.206862,-0.217274,-0.217274,-0.206862,
-0.227163,-0.195952,-0.236504,-0.184569,-0.245275,-0.172742,-0.253456,-0.160499,-0.261026,-0.147869,-0.267967,-0.134883,-0.274263,-0.121572,-0.279898,-0.107969,-0.284858,-0.094105,-0.289133,-0.080014,-0.292711,-0.065730,-0.295583,-0.051289,-0.297744,-0.036723,-0.299187,-0.022069,-0.299910,-0.007362,-0.299910,0.007362,-0.299187,0.022069,-0.297744,0.036723,-0.295583,0.051289,-0.292711,0.065730,
-0.289133,0.080014,-0.284858,0.094105,-0.279898,0.107969,-0.274263,0.121572,-0.267967,0.134883,-0.261026,0.147869,-0.253456,0.160499,-0.245275,0.172742,-0.236504,0.184569,-0.227163,0.195952,-0.217274,0.206862,-0.206862,0.217274,-0.195952,0.227163,-0.184569,0.236504,-0.172742,0.245275,-0.160499,0.253456,-0.147869,0.261026,-0.134883,0.267967,-0.121572,0.274263,-0.107969,0.279898,
-0.094105,0.284858,-0.080014,0.289133,-0.065730,0.292711,-0.051289,0.295583,-0.036723,0.297744,-0.022069,0.299187,-0.007362,0.299910,0.007362,0.299910,0.022069,0.299187,0.022069,0.299187,$1*%
G04 Aperture macros list end*
%TA.AperFunction,ComponentPad*%
%ADD10HorizOval,1.000000X0.353553X0.353553X-0.353553X-0.353553X0*%
%TD*%
%TA.AperFunction,ComponentPad*%
%ADD11FreePoly0,0.000000*%
%TD*%
%TA.AperFunction,Conductor*%
%ADD12C,0.254000*%
%TD*%
G04 APERTURE END LIST*
D10*
%TO.N,N/C*%
%TO.C,*%
X36979605Y19496179D03*
X30870230Y25605609D03*
X34292588Y16809185D03*
X28183212Y22918615D03*
D11*
%TO.N,Net 86*%
X119137400Y-11315700D03*
X119137300Y-8783700D03*
%TO.N,Net 78*%
X23965700Y1709400D03*
X16754200Y24438800D03*
X-2946500Y-45026400D03*
X15412300Y26702400D03*
%TO.N,Net 94*%
X122801500Y-11898900D03*
X123033300Y-8990100D03*
%TO.N,Net 154*%
X11793500Y19259200D03*
X76129600Y-1582700D03*
%TO.N,Net 3*%
X-14896600Y16349400D03*
X20681900Y-40758600D03*
X13627400Y-50424800D03*
X18080800Y-34027300D03*
%TO.N,Net 65*%
X-159624200Y-5519800D03*
X-159624200Y-7284200D03*
%TO.N,Net 6*%
X28183200Y20935200D03*
X27194000Y-36110900D03*
%TO.N,Net 64*%
X-156102900Y-5473200D03*
X-156377800Y-7640800D03*
%TO.N,Net 99*%
X69490300Y-8990100D03*
X70021900Y-10812400D03*
%TO.N,Net 61*%
X-163385400Y-5519800D03*
X-163385400Y-7791600D03*
%TO.N,Net 152*%
X-9213400Y-36110900D03*
X-67735000Y-12721000D03*
%TO.N,Net 36*%
X-108749600Y-7680400D03*
X-108220000Y-5566200D03*
%TO.N,Net 72*%
X-152232500Y-5473200D03*
X-152593600Y-7791600D03*
%TO.N,Net 111*%
X108123500Y-1582700D03*
X79744400Y298100D03*
%TO.N,Net 1*%
X-148132800Y-15437200D03*
X-148132800Y-13331900D03*
X22764900Y-36110700D03*
X-89875700Y-15385100D03*
X-120150800Y-13331900D03*
X15412100Y20108100D03*
X-122987500Y-13331800D03*
X25433900Y-22656800D03*
X-62183400Y-13363000D03*
X-93181900Y-13332000D03*
X-11272400Y15870000D03*
X-19534200Y15752100D03*
X-129840900Y-13331900D03*
X-19534200Y7844700D03*
X13627400Y-31667500D03*
X-72295900Y-13751100D03*
X-89875700Y-13362900D03*
X12156100Y-40758600D03*
X-20190200Y20647600D03*
X-100969200Y-13331600D03*
X-17041300Y12003500D03*
X-9826600Y-41462600D03*
X-120150800Y-15127000D03*
%TO.N,Net 37*%
X-104667300Y-7326800D03*
X-104667300Y-5287000D03*
%TO.N,Net 57*%
X-130376300Y-5411200D03*
X-130581600Y-7408500D03*
%TO.N,Net 143*%
X125922200Y-11898900D03*
X126697200Y-9149300D03*
%TO.N,Net 151*%
X162351800Y-1904300D03*
X-7640000Y-38110800D03*
X16754200Y21259200D03*
X-66099800Y-13121400D03*
%TO.N,Net 22*%
X-72295900Y-5525000D03*
X-73029600Y-7710300D03*
%TO.N,Net 109*%
X112358100Y327000D03*
X139700800Y-529300D03*
%TO.N,Net 103*%
X62732500Y-8672900D03*
X63083700Y-10459400D03*
%TO.N,Net 153*%
X134456700Y-2679300D03*
X105647800Y-3038500D03*
X77269400Y-2065900D03*
X60512200Y-5553700D03*
X78791100Y-2065800D03*
X136850700Y-2065800D03*
X11793500Y17259200D03*
X148837200Y-2336500D03*
X165115800Y-2937200D03*
X77269300Y-3600200D03*
%TO.N,Net 53*%
X-137916300Y-7963300D03*
X-137487000Y-5411200D03*
%TO.N,Net 71*%
X-166729500Y-5519800D03*
X-167157700Y-7791600D03*
%TO.N,Net 147*%
X97152900Y-9234700D03*
X96703300Y-11392700D03*
%TO.N,Net 97*%
X131770700Y-7879300D03*
X131939700Y-11083900D03*
%TO.N,Net 20*%
X-79454200Y-7710400D03*
X-79454200Y-5477100D03*
%TO.N,Net 38*%
X-100969200Y-5287000D03*
X-101565200Y-6705100D03*
%TO.N,Net 81*%
X-1826300Y-44110700D03*
X25344200Y10453500D03*
X34292600Y21804900D03*
X30159600Y15259200D03*
%TO.N,Net 149*%
X-69163900Y-12128700D03*
X-9826700Y-34110900D03*
%TO.N,Net 21*%
X-75639200Y-5525000D03*
X-76128900Y-7710300D03*
%TO.N,Net 116*%
X66592100Y-10812500D03*
X66220700Y-9234700D03*
%TO.N,Net 112*%
X92985100Y-11898900D03*
X92985100Y-11898900D03*
X94814800Y-9411900D03*
%TO.N,Net 44*%
X-134062700Y-5411200D03*
X-133819000Y-7408500D03*
%TO.N,GND*%
X130500700Y-3454300D03*
X-120461100Y-11781900D03*
X131939700Y-2065800D03*
X160375100Y-2065800D03*
X-148809500Y-11781900D03*
X20293700Y14548600D03*
X99730500Y-2065900D03*
X160091700Y-4229300D03*
X-151133900Y-15437200D03*
X-93129600Y-15385100D03*
X26525600Y20214000D03*
X97397500Y-4229300D03*
X-123291900Y-15437200D03*
X-90357500Y-11812900D03*
X15800000Y34815000D03*
X800000Y34815000D03*
X-14200000Y34815000D03*
X800000Y19815000D03*
X-29200000Y19815000D03*
X45800000Y4815000D03*
X15800000Y4815000D03*
X800000Y4815000D03*
X-29200000Y4815000D03*
X180800000Y-10185000D03*
X45800000Y-10185000D03*
X30800000Y-10185000D03*
X15800000Y-10185000D03*
X-14200000Y-10185000D03*
X-29200000Y-10185000D03*
X-44200000Y-10185000D03*
X-59200000Y-10185000D03*
X30800000Y-25185000D03*
X-14200000Y-25185000D03*
X-29200000Y-25185000D03*
X30800000Y-40185000D03*
X-14200000Y-40185000D03*
X-29200000Y-40185000D03*
%TO.N,Net 39*%
X-97637600Y-7760300D03*
X-97296100Y-5429000D03*
%TO.N,GND*%
X115246800Y-6590800D03*
X88702200Y-6621500D03*
X-118097000Y-15748000D03*
X-73462500Y-15751500D03*
X-136351500Y-15747500D03*
X150721700Y-1275400D03*
X88884000Y-203000D03*
X111086500Y-1355500D03*
X-8970300Y17095300D03*
X-11601700Y21213700D03*
X-88586300Y-8497100D03*
X20427300Y22404400D03*
X1152500Y-46301500D03*
X82252500Y-7592000D03*
X95853400Y-7589800D03*
X110731700Y-7247100D03*
X140875900Y-8078500D03*
X-103896200Y-8651000D03*
X-118318200Y-8657700D03*
X-133304100Y-8751900D03*
X-147552100Y-8536600D03*
X137045400Y-7912100D03*
X124860600Y-7687500D03*
X165158800Y-7845400D03*
X28403500Y19446100D03*
X-126289900Y-8147200D03*
X79990500Y-1547300D03*
X-61340400Y-8236800D03*
X-75118300Y-8724600D03*
X121442000Y-10853600D03*
X-162703700Y-8890600D03*
X104271100Y-8237500D03*
X125142000Y-10834200D03*
X78604100Y-8392900D03*
X107608500Y-8392000D03*
X-150648700Y-8195900D03*
X6782700Y-22717000D03*
X24140700Y4931800D03*
X4791600Y-33125800D03*
X778000Y-17797100D03*
X-47788000Y-15322200D03*
X23977800Y-30838200D03*
X-18384600Y-27515500D03*
X-386000Y-35423500D03*
X14926000Y23259000D03*
X28681500Y6972000D03*
X-17424000Y16020600D03*
X72340200Y-2104000D03*
X22248300Y-41820800D03*
X19346500Y19769600D03*
X-8733500Y-39787000D03*
X33943500Y9149000D03*
X7115800Y-40048700D03*
X12067800Y-31402000D03*
X31826500Y12036500D03*
X-14579900Y14601300D03*
X31286600Y15988700D03*
X28471500Y15224900D03*
%TD*%
D12*
%TO.N,Net 154*%
X24125600Y17915800D02*
X31588000Y10453400D01*
X17750500Y19259200D02*
X19093900Y17915800D01*
X72158600Y-5553700D02*
X76129600Y-1582700D01*
X63437700Y-5553800D02*
X72158500Y-5553800D01*
X36938900Y10453400D02*
X48393700Y-1001400D01*
X31588000Y10453400D02*
X36939000Y10453400D01*
X11793500Y19259200D02*
X17750500Y19259200D01*
X19093900Y17915800D02*
X24125500Y17915800D01*
X58885300Y-1001400D02*
X63437700Y-5553800D01*
X48393700Y-1001400D02*
X58885300Y-1001400D01*
%TO.N,Net 152*%
X-10797900Y-37064500D02*
X-10167100Y-37064500D01*
X-46974100Y-12128800D02*
X-46974100Y-12235400D01*
X-10167000Y-37064500D02*
X-9213400Y-36110900D01*
X-66568300Y-12477100D02*
X-62919700Y-12477100D01*
X-46974000Y-12235400D02*
X-43772000Y-15437400D01*
X-67735000Y-12721000D02*
X-66812200Y-12721000D01*
X-32425100Y-15437400D02*
X-10797900Y-37064600D01*
X-62919700Y-12477000D02*
X-62571500Y-12128800D01*
X-66812300Y-12721000D02*
X-66568300Y-12477000D01*
X-43772000Y-15437400D02*
X-32425000Y-15437400D01*
X-62571500Y-12128800D02*
X-46974100Y-12128800D01*
%TO.N,Net 151*%
X-43772100Y-16563800D02*
X-32897100Y-16563800D01*
X-62573000Y-12721000D02*
X-47614800Y-12721000D01*
X-66099800Y-13121400D02*
X-62973400Y-13121400D01*
X-32897100Y-16563800D02*
X-11350100Y-38110800D01*
X-11350000Y-38110800D02*
X-7640000Y-38110800D01*
X-62973400Y-13121400D02*
X-62573000Y-12721000D01*
X-47614800Y-12721000D02*
X-43772000Y-16563800D01*
%TO.N,Net 153*%
X58558800Y-3600200D02*
X60512200Y-5553600D01*
X77269300Y-3587600D02*
X78791100Y-2065800D01*
X11793400Y17259200D02*
X22585200Y17259200D01*
X22585200Y17259200D02*
X23965700Y15878700D01*
X36948800Y7844700D02*
X48393700Y-3600300D01*
X23965700Y15878700D02*
X24437900Y15878700D01*
X48393700Y-3600200D02*
X58558700Y-3600200D01*
X24437800Y15878700D02*
X32471800Y7844700D01*
X32471800Y7844700D02*
X36948800Y7844700D01*
X77269300Y-3600200D02*
X77269300Y-3587600D01*
%TO.N,Net 149*%
X-46457100Y-11468600D02*
X-43251100Y-14674600D01*
X-69163900Y-12128700D02*
X-63233100Y-12128700D01*
X-63233000Y-12128700D02*
X-62573000Y-11468700D01*
X-26340900Y-19764800D02*
X-24172700Y-19764800D01*
X-43251100Y-14674600D02*
X-31431100Y-14674600D01*
X-31431200Y-14674600D02*
X-26341000Y-19764800D01*
X-62573000Y-11468700D02*
X-46457000Y-11468700D01*
X-24172700Y-19764900D02*
X-9826700Y-34110900D01*
%TO.N,GND*%
X160091700Y-2349200D02*
X160375100Y-2065800D01*
X160091700Y-4229200D02*
X160091700Y-2349200D01*
%TD*%
%TA.AperFunction,Conductor*%
%TO.N,GND*%
G36*
X-68373000Y-13211000D02*
G01*
X-68225000Y-13359000D01*
X-68038000Y-13466000D01*
X-67841000Y-13518000D01*
X-67629000Y-13518000D01*
X-67432000Y-13466000D01*
X-67244000Y-13358000D01*
X-67206000Y-13348000D01*
X-66936000Y-13348000D01*
X-66866000Y-13388000D01*
X-66738000Y-13611000D01*
X-66735000Y-13614000D01*
X-66592000Y-13756000D01*
X-66588000Y-13759000D01*
X-66411000Y-13865000D01*
X-66206000Y-13919000D01*
X-65995000Y-13919000D01*
X-65790000Y-13864000D01*
X-65788000Y-13864000D01*
X-65611000Y-13759000D01*
X-65572000Y-13748000D01*
X-62928000Y-13748000D01*
X-62860000Y-13787000D01*
X-62818000Y-13856000D01*
X-62673000Y-14001000D01*
X-62491000Y-14105000D01*
X-62286000Y-14160000D01*
X-62081000Y-14160000D01*
X-61875000Y-14105000D01*
X-61873000Y-14104000D01*
X-61698000Y-14004000D01*
X-61695000Y-14002000D01*
X-61546000Y-13854000D01*
X-61545000Y-13853000D01*
X-61438000Y-13666000D01*
X-61371000Y-13411000D01*
X-61290000Y-13348000D01*
X-47907000Y-13348000D01*
X-47852000Y-13371000D01*
X-44637000Y-16585000D01*
X-44735000Y-16779000D01*
X-44883000Y-16756000D01*
X-45829000Y-16702000D01*
X-47449000Y-16660000D01*
X-49949000Y-16626000D01*
X-53515000Y-16600000D01*
X-58340000Y-16581000D01*
X-64606000Y-16567000D01*
X-72504000Y-16558000D01*
X-82221000Y-16553000D01*
X-93943000Y-16551000D01*
X-107859000Y-16550000D01*
X-123681000Y-16551000D01*
X-136696000Y-16550000D01*
X-147186000Y-16544000D01*
X-155435000Y-16526000D01*
X-161722000Y-16493000D01*
X-166329000Y-16440000D01*
X-166330000Y-16440000D01*
X-169551000Y-16362000D01*
X-169553000Y-16362000D01*
X-171630000Y-16256000D01*
X-171634000Y-16255000D01*
X-172901000Y-16114000D01*
X-172910000Y-16112000D01*
X-173582000Y-15947000D01*
X-173597000Y-15942000D01*
X-174043000Y-15727000D01*
X-174047000Y-15725000D01*
X-174513000Y-15465000D01*
X-174514000Y-15464000D01*
X-174737869Y-15334000D01*
X-148930000Y-15334000D01*
X-148930000Y-15543000D01*
X-148878000Y-15741000D01*
X-148877000Y-15743000D01*
X-148771000Y-15927000D01*
X-148770000Y-15928000D01*
X-148621000Y-16076000D01*
X-148620000Y-16077000D01*
X-148447000Y-16178000D01*
X-148237000Y-16235000D01*
X-148029000Y-16235000D01*
X-147822000Y-16178000D01*
X-147823000Y-16178000D01*
X-147643000Y-16075000D01*
X-147495000Y-15927000D01*
X-147392000Y-15748000D01*
X-147335000Y-15541000D01*
X-147335000Y-15333000D01*
X-147392000Y-15123000D01*
X-147451549Y-15021000D01*
X-120948000Y-15021000D01*
X-120948000Y-15233000D01*
X-120896000Y-15430000D01*
X-120789000Y-15617000D01*
X-120786000Y-15620000D01*
X-120640000Y-15765000D01*
X-120460000Y-15869000D01*
X-120459000Y-15870000D01*
X-120254000Y-15924000D01*
X-120045000Y-15924000D01*
X-119848000Y-15872000D01*
X-119661000Y-15765000D01*
X-119513000Y-15617000D01*
X-119410000Y-15438000D01*
X-119366217Y-15279000D01*
X-90673000Y-15279000D01*
X-90673000Y-15491000D01*
X-90621000Y-15688000D01*
X-90513000Y-15876000D01*
X-90364000Y-16025000D01*
X-90190000Y-16126000D01*
X-89980000Y-16183000D01*
X-89772000Y-16183000D01*
X-89565000Y-16126000D01*
X-89566000Y-16126000D01*
X-89389000Y-16025000D01*
X-89386000Y-16023000D01*
X-89239000Y-15876000D01*
X-89135000Y-15696000D01*
X-89078000Y-15489000D01*
X-89078000Y-15281000D01*
X-89134000Y-15077000D01*
X-89238000Y-14895000D01*
X-89386000Y-14747000D01*
X-89572000Y-14640000D01*
X-89770000Y-14588000D01*
X-89979000Y-14588000D01*
X-90184000Y-14642000D01*
X-90365000Y-14747000D01*
X-90513000Y-14894000D01*
X-90514000Y-14895000D01*
X-90622000Y-15082000D01*
X-90622000Y-15084000D01*
X-90673000Y-15279000D01*
X-119366217Y-15279000D01*
X-119353000Y-15231000D01*
X-119353000Y-15023000D01*
X-119410000Y-14817000D01*
X-119512000Y-14638000D01*
X-119661000Y-14489000D01*
X-119846000Y-14383000D01*
X-119986000Y-14347000D01*
X-119988000Y-14116000D01*
X-119846000Y-14077000D01*
X-119661000Y-13970000D01*
X-119513000Y-13822000D01*
X-119410000Y-13643000D01*
X-119353000Y-13436000D01*
X-119353000Y-13228000D01*
X-119353547Y-13226000D01*
X-101767000Y-13226000D01*
X-101767000Y-13437000D01*
X-101710000Y-13643000D01*
X-101608000Y-13820000D01*
X-101460000Y-13969000D01*
X-101457000Y-13971000D01*
X-101272000Y-14077000D01*
X-101075000Y-14129000D01*
X-100866000Y-14129000D01*
X-100662000Y-14075000D01*
X-100660000Y-14074000D01*
X-100478000Y-13968000D01*
X-100331000Y-13821000D01*
X-100227000Y-13639000D01*
X-100172000Y-13435000D01*
X-100172000Y-13230000D01*
X-100173064Y-13226000D01*
X-93979000Y-13226000D01*
X-93979000Y-13440000D01*
X-93927000Y-13636000D01*
X-93820000Y-13822000D01*
X-93672000Y-13970000D01*
X-93485000Y-14077000D01*
X-93288000Y-14129000D01*
X-93076000Y-14129000D01*
X-92879000Y-14077000D01*
X-92692000Y-13970000D01*
X-92544000Y-13822000D01*
X-92441000Y-13643000D01*
X-92384000Y-13436000D01*
X-92384000Y-13257000D01*
X-90673000Y-13257000D01*
X-90673000Y-13471000D01*
X-90621000Y-13666000D01*
X-90514000Y-13853000D01*
X-90513000Y-13854000D01*
X-90365000Y-14001000D01*
X-90185000Y-14105000D01*
X-90184000Y-14106000D01*
X-89979000Y-14160000D01*
X-89770000Y-14160000D01*
X-89573000Y-14108000D01*
X-89386000Y-14001000D01*
X-89238000Y-13853000D01*
X-89135000Y-13674000D01*
X-89126937Y-13645000D01*
X-73093000Y-13645000D01*
X-73093000Y-13859000D01*
X-73041000Y-14055000D01*
X-72933000Y-14242000D01*
X-72786000Y-14389000D01*
X-72606000Y-14492000D01*
X-72400000Y-14549000D01*
X-72192000Y-14549000D01*
X-71985000Y-14492000D01*
X-71986000Y-14492000D01*
X-71806000Y-14389000D01*
X-71659000Y-14242000D01*
X-71555000Y-14062000D01*
X-71498000Y-13855000D01*
X-71498000Y-13648000D01*
X-71555000Y-13441000D01*
X-71658000Y-13261000D01*
X-71806000Y-13113000D01*
X-71993000Y-13006000D01*
X-72190000Y-12954000D01*
X-72402000Y-12954000D01*
X-72599000Y-13006000D01*
X-72786000Y-13113000D01*
X-72934000Y-13261000D01*
X-73041000Y-13448000D01*
X-73093000Y-13645000D01*
X-89126937Y-13645000D01*
X-89078000Y-13469000D01*
X-89078000Y-13259000D01*
X-89135000Y-13053000D01*
X-89238000Y-12873000D01*
X-89386000Y-12725000D01*
X-89566000Y-12622000D01*
X-89565000Y-12622000D01*
X-89772000Y-12565000D01*
X-89980000Y-12565000D01*
X-90190000Y-12622000D01*
X-90363000Y-12723000D01*
X-90364000Y-12724000D01*
X-90513000Y-12872000D01*
X-90514000Y-12873000D01*
X-90622000Y-13060000D01*
X-90622000Y-13062000D01*
X-90673000Y-13257000D01*
X-92384000Y-13257000D01*
X-92384000Y-13228000D01*
X-92439000Y-13027000D01*
X-92441000Y-13022000D01*
X-92543000Y-12843000D01*
X-92692000Y-12694000D01*
X-92878000Y-12587000D01*
X-93076000Y-12535000D01*
X-93288000Y-12535000D01*
X-93486000Y-12587000D01*
X-93672000Y-12694000D01*
X-93821000Y-12843000D01*
X-93928000Y-13030000D01*
X-93928000Y-13031000D01*
X-93979000Y-13226000D01*
X-100173064Y-13226000D01*
X-100226000Y-13027000D01*
X-100227000Y-13024000D01*
X-100332000Y-12841000D01*
X-100476000Y-12698000D01*
X-100478000Y-12696000D01*
X-100658000Y-12588000D01*
X-100863000Y-12534000D01*
X-101074000Y-12534000D01*
X-101280000Y-12589000D01*
X-101461000Y-12697000D01*
X-101463000Y-12698000D01*
X-101608000Y-12843000D01*
X-101710000Y-13019000D01*
X-101767000Y-13226000D01*
X-119353547Y-13226000D01*
X-119408000Y-13027000D01*
X-119410000Y-13022000D01*
X-119512000Y-12843000D01*
X-119661000Y-12694000D01*
X-119841000Y-12591000D01*
X-120047000Y-12534000D01*
X-120255000Y-12534000D01*
X-120465000Y-12591000D01*
X-120638000Y-12692000D01*
X-120788000Y-12842000D01*
X-120897000Y-13030000D01*
X-120897000Y-13031000D01*
X-120948000Y-13226000D01*
X-120948000Y-13440000D01*
X-120896000Y-13636000D01*
X-120789000Y-13822000D01*
X-120788000Y-13823000D01*
X-120640000Y-13970000D01*
X-120461000Y-14074000D01*
X-120309000Y-14116000D01*
X-120311000Y-14347000D01*
X-120458000Y-14384000D01*
X-120460000Y-14385000D01*
X-120640000Y-14489000D01*
X-120788000Y-14637000D01*
X-120897000Y-14824000D01*
X-120897000Y-14826000D01*
X-120948000Y-15021000D01*
X-147451549Y-15021000D01*
X-147493000Y-14950000D01*
X-147494000Y-14949000D01*
X-147642000Y-14800000D01*
X-147643000Y-14799000D01*
X-147830000Y-14692000D01*
X-148027000Y-14640000D01*
X-148236000Y-14640000D01*
X-148440000Y-14694000D01*
X-148442000Y-14695000D01*
X-148624000Y-14801000D01*
X-148769000Y-14946000D01*
X-148875000Y-15128000D01*
X-148877000Y-15133000D01*
X-148930000Y-15334000D01*
X-174737869Y-15334000D01*
X-175146000Y-15097000D01*
X-175153000Y-15092000D01*
X-175731000Y-14664000D01*
X-175737000Y-14660000D01*
X-176287000Y-14162000D01*
X-176292000Y-14157000D01*
X-176800000Y-13604000D01*
X-176804000Y-13599000D01*
X-177087673Y-13226000D01*
X-148930000Y-13226000D01*
X-148930000Y-13440000D01*
X-148878000Y-13636000D01*
X-148771000Y-13822000D01*
X-148770000Y-13823000D01*
X-148622000Y-13970000D01*
X-148442000Y-14074000D01*
X-148441000Y-14075000D01*
X-148236000Y-14129000D01*
X-148027000Y-14129000D01*
X-147830000Y-14077000D01*
X-147643000Y-13970000D01*
X-147495000Y-13822000D01*
X-147392000Y-13643000D01*
X-147335000Y-13436000D01*
X-147335000Y-13228000D01*
X-147335547Y-13226000D01*
X-130638000Y-13226000D01*
X-130638000Y-13440000D01*
X-130586000Y-13636000D01*
X-130479000Y-13822000D01*
X-130331000Y-13970000D01*
X-130144000Y-14077000D01*
X-129947000Y-14129000D01*
X-129735000Y-14129000D01*
X-129538000Y-14077000D01*
X-129351000Y-13970000D01*
X-129203000Y-13822000D01*
X-129100000Y-13643000D01*
X-129043000Y-13436000D01*
X-129043000Y-13228000D01*
X-129043547Y-13226000D01*
X-123785000Y-13226000D01*
X-123785000Y-13436000D01*
X-123784000Y-13440000D01*
X-123732000Y-13636000D01*
X-123731000Y-13637000D01*
X-123731000Y-13639000D01*
X-123729000Y-13643000D01*
X-123624000Y-13823000D01*
X-123477000Y-13970000D01*
X-123295000Y-14074000D01*
X-123090000Y-14129000D01*
X-122885000Y-14129000D01*
X-122679000Y-14074000D01*
X-122680000Y-14074000D01*
X-122498000Y-13970000D01*
X-122351000Y-13823000D01*
X-122246000Y-13643000D01*
X-122243000Y-13637000D01*
X-122243000Y-13636000D01*
X-122191000Y-13440000D01*
X-122190000Y-13436000D01*
X-122190000Y-13226000D01*
X-122241000Y-13031000D01*
X-122241000Y-13030000D01*
X-122350000Y-12842000D01*
X-122499000Y-12693000D01*
X-122677000Y-12591000D01*
X-122882000Y-12534000D01*
X-123093000Y-12534000D01*
X-123298000Y-12591000D01*
X-123476000Y-12693000D01*
X-123625000Y-12842000D01*
X-123734000Y-13030000D01*
X-123734000Y-13031000D01*
X-123785000Y-13226000D01*
X-129043547Y-13226000D01*
X-129098000Y-13027000D01*
X-129100000Y-13022000D01*
X-129202000Y-12843000D01*
X-129351000Y-12694000D01*
X-129531000Y-12591000D01*
X-129737000Y-12534000D01*
X-129945000Y-12534000D01*
X-130151000Y-12591000D01*
X-130331000Y-12694000D01*
X-130480000Y-12843000D01*
X-130587000Y-13030000D01*
X-130587000Y-13031000D01*
X-130638000Y-13226000D01*
X-147335547Y-13226000D01*
X-147390000Y-13027000D01*
X-147392000Y-13022000D01*
X-147494000Y-12843000D01*
X-147643000Y-12694000D01*
X-147823000Y-12591000D01*
X-148029000Y-12534000D01*
X-148237000Y-12534000D01*
X-148447000Y-12591000D01*
X-148620000Y-12692000D01*
X-148770000Y-12842000D01*
X-148879000Y-13030000D01*
X-148879000Y-13031000D01*
X-148930000Y-13226000D01*
X-177087673Y-13226000D01*
X-177274000Y-12981000D01*
X-177278000Y-12976000D01*
X-177688000Y-12333000D01*
X-177691000Y-12328000D01*
X-178063000Y-11623000D01*
X-178066000Y-11618000D01*
X-178366000Y-10910000D01*
X-178368000Y-10904000D01*
X-178618000Y-10148000D01*
X-178620000Y-10142000D01*
X-178799000Y-9389000D01*
X-178800000Y-9383000D01*
X-178911000Y-8621000D01*
X-178912000Y-8614000D01*
X-178949000Y-7837000D01*
X-178949000Y-7830000D01*
X-178941200Y-7689000D01*
X-167955000Y-7689000D01*
X-167955000Y-7894000D01*
X-167900000Y-8100000D01*
X-167795000Y-8282000D01*
X-167649000Y-8428000D01*
X-167467000Y-8534000D01*
X-167465000Y-8535000D01*
X-167261000Y-8589000D01*
X-167052000Y-8589000D01*
X-166855000Y-8537000D01*
X-166670000Y-8431000D01*
X-166668000Y-8430000D01*
X-166521000Y-8282000D01*
X-166520000Y-8281000D01*
X-166418000Y-8105000D01*
X-166360000Y-7899000D01*
X-166360000Y-7687000D01*
X-164183000Y-7687000D01*
X-164183000Y-7896000D01*
X-164129000Y-8101000D01*
X-164021000Y-8282000D01*
X-164019000Y-8284000D01*
X-163878000Y-8428000D01*
X-163693000Y-8534000D01*
X-163488000Y-8589000D01*
X-163283000Y-8589000D01*
X-163077000Y-8534000D01*
X-163078000Y-8534000D01*
X-162896000Y-8430000D01*
X-162748000Y-8282000D01*
X-162643000Y-8100000D01*
X-162588000Y-7894000D01*
X-162588000Y-7689000D01*
X-162643000Y-7484000D01*
X-162749000Y-7299000D01*
X-162894000Y-7157000D01*
X-162896000Y-7156000D01*
X-163076000Y-7048000D01*
X-163281000Y-6994000D01*
X-163490000Y-6994000D01*
X-163695000Y-7048000D01*
X-163873000Y-7154000D01*
X-163878000Y-7157000D01*
X-164019000Y-7298000D01*
X-164025000Y-7306000D01*
X-164129000Y-7483000D01*
X-164183000Y-7687000D01*
X-166360000Y-7687000D01*
X-166417000Y-7480000D01*
X-166518000Y-7305000D01*
X-166519000Y-7303000D01*
X-166665000Y-7157000D01*
X-166847000Y-7049000D01*
X-166848000Y-7049000D01*
X-167053000Y-6994000D01*
X-167264000Y-6994000D01*
X-167469000Y-7048000D01*
X-167648000Y-7155000D01*
X-167650000Y-7157000D01*
X-167795000Y-7301000D01*
X-167900000Y-7484000D01*
X-167955000Y-7689000D01*
X-178941200Y-7689000D01*
X-178910000Y-7125000D01*
X-178909000Y-7116000D01*
X-178786000Y-6381000D01*
X-178785000Y-6374000D01*
X-178590000Y-5638000D01*
X-178588000Y-5632000D01*
X-178508782Y-5414000D01*
X-167527000Y-5414000D01*
X-167527000Y-5624000D01*
X-167474000Y-5824000D01*
X-167473000Y-5825000D01*
X-167473000Y-5827000D01*
X-167471000Y-5831000D01*
X-167366000Y-6011000D01*
X-167219000Y-6158000D01*
X-167037000Y-6262000D01*
X-166832000Y-6317000D01*
X-166627000Y-6317000D01*
X-166421000Y-6262000D01*
X-166422000Y-6262000D01*
X-166240000Y-6158000D01*
X-166093000Y-6011000D01*
X-165988000Y-5831000D01*
X-165985000Y-5825000D01*
X-165985000Y-5824000D01*
X-165932000Y-5624000D01*
X-165932000Y-5416000D01*
X-164183000Y-5416000D01*
X-164183000Y-5626000D01*
X-164129000Y-5831000D01*
X-164022000Y-6010000D01*
X-164019000Y-6013000D01*
X-163875000Y-6158000D01*
X-163873000Y-6159000D01*
X-163693000Y-6262000D01*
X-163488000Y-6317000D01*
X-163283000Y-6317000D01*
X-163077000Y-6262000D01*
X-163078000Y-6262000D01*
X-162896000Y-6158000D01*
X-162749000Y-6011000D01*
X-162644000Y-5831000D01*
X-162641000Y-5825000D01*
X-162641000Y-5824000D01*
X-162588000Y-5624000D01*
X-162588000Y-5417000D01*
X-160422000Y-5417000D01*
X-160422000Y-5624000D01*
X-160364000Y-5835000D01*
X-160264000Y-6007000D01*
X-160262000Y-6009000D01*
X-160114000Y-6158000D01*
X-160112000Y-6159000D01*
X-159929000Y-6265000D01*
X-159839000Y-6303000D01*
X-159839000Y-6501000D01*
X-159929000Y-6539000D01*
X-160114000Y-6646000D01*
X-160115000Y-6647000D01*
X-160263000Y-6796000D01*
X-160266000Y-6800000D01*
X-160365000Y-6970000D01*
X-160422000Y-7180000D01*
X-160422000Y-7390000D01*
X-160365000Y-7595000D01*
X-160364000Y-7596000D01*
X-160262000Y-7774000D01*
X-160114000Y-7922000D01*
X-159934000Y-8025000D01*
X-159728000Y-8082000D01*
X-159520000Y-8082000D01*
X-159310000Y-8025000D01*
X-159137000Y-7924000D01*
X-159136000Y-7923000D01*
X-158989000Y-7777000D01*
X-158986000Y-7774000D01*
X-158879000Y-7588000D01*
X-158864939Y-7535000D01*
X-157175000Y-7535000D01*
X-157175000Y-7744000D01*
X-157122000Y-7945000D01*
X-157120000Y-7950000D01*
X-157014000Y-8132000D01*
X-156869000Y-8277000D01*
X-156687000Y-8383000D01*
X-156685000Y-8384000D01*
X-156481000Y-8438000D01*
X-156272000Y-8438000D01*
X-156075000Y-8386000D01*
X-155888000Y-8279000D01*
X-155738000Y-8129000D01*
X-155637000Y-7955000D01*
X-155580000Y-7746000D01*
X-155580000Y-7689000D01*
X-153391000Y-7689000D01*
X-153391000Y-7894000D01*
X-153336000Y-8100000D01*
X-153231000Y-8282000D01*
X-153083000Y-8430000D01*
X-152901000Y-8534000D01*
X-152696000Y-8589000D01*
X-152491000Y-8589000D01*
X-152285000Y-8534000D01*
X-152286000Y-8534000D01*
X-152101000Y-8428000D01*
X-151960000Y-8284000D01*
X-151958000Y-8282000D01*
X-151850000Y-8101000D01*
X-151796000Y-7896000D01*
X-151796000Y-7859000D01*
X-138714000Y-7859000D01*
X-138714000Y-8069000D01*
X-138657000Y-8274000D01*
X-138656000Y-8275000D01*
X-138553000Y-8454000D01*
X-138406000Y-8601000D01*
X-138403000Y-8603000D01*
X-138226000Y-8704000D01*
X-138020000Y-8761000D01*
X-137812000Y-8761000D01*
X-137602000Y-8704000D01*
X-137429000Y-8603000D01*
X-137392757Y-8567000D01*
X61935000Y-8567000D01*
X61935000Y-8780000D01*
X61987000Y-8976000D01*
X62094000Y-9163000D01*
X62095000Y-9164000D01*
X62244000Y-9312000D01*
X62248000Y-9315000D01*
X62422000Y-9414000D01*
X62424000Y-9415000D01*
X62630000Y-9470000D01*
X62758000Y-9470000D01*
X62818000Y-9693000D01*
X62593000Y-9822000D01*
X62445000Y-9971000D01*
X62343000Y-10149000D01*
X62286000Y-10354000D01*
X62286000Y-10565000D01*
X62344000Y-10773000D01*
X62446000Y-10949000D01*
X62591000Y-11094000D01*
X62594000Y-11096000D01*
X62773000Y-11202000D01*
X62774000Y-11202000D01*
X62979000Y-11257000D01*
X63190000Y-11257000D01*
X63395000Y-11203000D01*
X63574000Y-11096000D01*
X63720000Y-10951000D01*
X63722000Y-10949000D01*
X63826000Y-10768000D01*
X63881000Y-10564000D01*
X63881000Y-10357000D01*
X63827000Y-10154000D01*
X63722000Y-9970000D01*
X63575000Y-9823000D01*
X63393000Y-9717000D01*
X63391000Y-9716000D01*
X63187000Y-9662000D01*
X63058000Y-9662000D01*
X62998000Y-9439000D01*
X63217000Y-9315000D01*
X63221000Y-9312000D01*
X63370000Y-9164000D01*
X63371000Y-9163000D01*
X63389310Y-9131000D01*
X65423000Y-9131000D01*
X65423000Y-9339000D01*
X65480000Y-9549000D01*
X65582000Y-9723000D01*
X65583000Y-9724000D01*
X65731000Y-9873000D01*
X65733000Y-9874000D01*
X65917000Y-9980000D01*
X66049000Y-10015000D01*
X66094000Y-10183000D01*
X65952000Y-10325000D01*
X65951000Y-10327000D01*
X65851000Y-10502000D01*
X65850000Y-10504000D01*
X65795000Y-10710000D01*
X65795000Y-10918000D01*
X65796000Y-10921000D01*
X65850000Y-11121000D01*
X65851000Y-11123000D01*
X65951000Y-11298000D01*
X65953000Y-11301000D01*
X66101000Y-11450000D01*
X66104000Y-11452000D01*
X66289000Y-11558000D01*
X66486000Y-11610000D01*
X66698000Y-11610000D01*
X66895000Y-11558000D01*
X67080000Y-11452000D01*
X67083000Y-11450000D01*
X67231000Y-11301000D01*
X67333000Y-11123000D01*
X67390000Y-10918000D01*
X67390000Y-10707000D01*
X69224000Y-10707000D01*
X69224000Y-10918000D01*
X69281000Y-11125000D01*
X69384000Y-11302000D01*
X69529000Y-11447000D01*
X69532000Y-11449000D01*
X69711000Y-11555000D01*
X69712000Y-11555000D01*
X69917000Y-11610000D01*
X70127000Y-11610000D01*
X70332000Y-11555000D01*
X70333000Y-11555000D01*
X70512000Y-11449000D01*
X70515000Y-11447000D01*
X70660000Y-11302000D01*
X70764000Y-11120000D01*
X70818000Y-10921000D01*
X70819000Y-10918000D01*
X70819000Y-10710000D01*
X70764000Y-10504000D01*
X70763000Y-10502000D01*
X70663000Y-10327000D01*
X70662000Y-10325000D01*
X70514000Y-10176000D01*
X70512000Y-10174000D01*
X70325000Y-10067000D01*
X70128000Y-10015000D01*
X69916000Y-10015000D01*
X69719000Y-10067000D01*
X69532000Y-10174000D01*
X69530000Y-10176000D01*
X69382000Y-10325000D01*
X69281000Y-10502000D01*
X69224000Y-10707000D01*
X67390000Y-10707000D01*
X67333000Y-10502000D01*
X67232000Y-10325000D01*
X67084000Y-10176000D01*
X67082000Y-10174000D01*
X66896000Y-10067000D01*
X66764000Y-10032000D01*
X66719000Y-9864000D01*
X66856000Y-9727000D01*
X66962000Y-9546000D01*
X66965000Y-9539000D01*
X67018000Y-9338000D01*
X67018000Y-9129000D01*
X66967000Y-8934000D01*
X66967000Y-8932000D01*
X66939278Y-8884000D01*
X68693000Y-8884000D01*
X68693000Y-9098000D01*
X68745000Y-9293000D01*
X68852000Y-9480000D01*
X68853000Y-9481000D01*
X69003000Y-9630000D01*
X69005000Y-9631000D01*
X69176000Y-9731000D01*
X69386000Y-9788000D01*
X69594000Y-9788000D01*
X69801000Y-9731000D01*
X69800000Y-9731000D01*
X69977000Y-9630000D01*
X69980000Y-9628000D01*
X70128000Y-9480000D01*
X70226972Y-9308000D01*
X94017000Y-9308000D01*
X94017000Y-9516000D01*
X94074000Y-9723000D01*
X94075000Y-9724000D01*
X94177000Y-9902000D01*
X94325000Y-10050000D01*
X94512000Y-10157000D01*
X94709000Y-10209000D01*
X94918000Y-10209000D01*
X95123000Y-10155000D01*
X95124000Y-10154000D01*
X95304000Y-10050000D01*
X95452000Y-9903000D01*
X95453000Y-9902000D01*
X95559000Y-9718000D01*
X95560000Y-9716000D01*
X95612000Y-9518000D01*
X95612000Y-9306000D01*
X95566231Y-9131000D01*
X96355000Y-9131000D01*
X96355000Y-9339000D01*
X96412000Y-9549000D01*
X96514000Y-9723000D01*
X96515000Y-9724000D01*
X96663000Y-9873000D01*
X96665000Y-9874000D01*
X96850000Y-9980000D01*
X97047000Y-10032000D01*
X97259000Y-10032000D01*
X97456000Y-9980000D01*
X97641000Y-9874000D01*
X97643000Y-9873000D01*
X97791000Y-9724000D01*
X97894000Y-9546000D01*
X97895000Y-9545000D01*
X97950000Y-9338000D01*
X97950000Y-9129000D01*
X97899000Y-8934000D01*
X97899000Y-8932000D01*
X97791000Y-8745000D01*
X97725000Y-8679000D01*
X118340000Y-8679000D01*
X118340000Y-8888000D01*
X118341000Y-8892000D01*
X118393000Y-9088000D01*
X118395000Y-9094000D01*
X118501000Y-9275000D01*
X118646000Y-9420000D01*
X118828000Y-9526000D01*
X118830000Y-9527000D01*
X119034000Y-9581000D01*
X119243000Y-9581000D01*
X119440000Y-9529000D01*
X119627000Y-9422000D01*
X119777000Y-9272000D01*
X119878000Y-9098000D01*
X119935000Y-8888000D01*
X119935000Y-8884000D01*
X122236000Y-8884000D01*
X122236000Y-9098000D01*
X122288000Y-9293000D01*
X122395000Y-9480000D01*
X122396000Y-9481000D01*
X122546000Y-9630000D01*
X122548000Y-9631000D01*
X122719000Y-9731000D01*
X122929000Y-9788000D01*
X123137000Y-9788000D01*
X123344000Y-9731000D01*
X123343000Y-9731000D01*
X123520000Y-9630000D01*
X123523000Y-9628000D01*
X123671000Y-9480000D01*
X123774000Y-9301000D01*
X123831000Y-9096000D01*
X123831000Y-9046000D01*
X125900000Y-9046000D01*
X125900000Y-9255000D01*
X125952000Y-9452000D01*
X126059000Y-9639000D01*
X126060000Y-9640000D01*
X126209000Y-9788000D01*
X126212000Y-9790000D01*
X126383000Y-9890000D01*
X126593000Y-9947000D01*
X126801000Y-9947000D01*
X127008000Y-9890000D01*
X127007000Y-9890000D01*
X127187000Y-9787000D01*
X127335000Y-9639000D01*
X127438000Y-9460000D01*
X127495000Y-9253000D01*
X127495000Y-9045000D01*
X127438000Y-8835000D01*
X127337000Y-8661000D01*
X127188000Y-8512000D01*
X127001000Y-8404000D01*
X126803000Y-8352000D01*
X126594000Y-8352000D01*
X126390000Y-8406000D01*
X126388000Y-8407000D01*
X126206000Y-8513000D01*
X126061000Y-8658000D01*
X125955000Y-8840000D01*
X125953000Y-8845000D01*
X125900000Y-9046000D01*
X123831000Y-9046000D01*
X123831000Y-8886000D01*
X123774000Y-8680000D01*
X123671000Y-8500000D01*
X123523000Y-8352000D01*
X123337000Y-8245000D01*
X123139000Y-8193000D01*
X122930000Y-8193000D01*
X122725000Y-8247000D01*
X122544000Y-8352000D01*
X122543000Y-8353000D01*
X122396000Y-8499000D01*
X122395000Y-8500000D01*
X122288000Y-8687000D01*
X122236000Y-8884000D01*
X119935000Y-8884000D01*
X119935000Y-8680000D01*
X119878000Y-8474000D01*
X119775000Y-8294000D01*
X119627000Y-8146000D01*
X119447000Y-8043000D01*
X119241000Y-7986000D01*
X119033000Y-7986000D01*
X118823000Y-8043000D01*
X118650000Y-8144000D01*
X118648000Y-8146000D01*
X118499000Y-8294000D01*
X118498000Y-8296000D01*
X118391000Y-8481000D01*
X118391000Y-8483000D01*
X118340000Y-8679000D01*
X97725000Y-8679000D01*
X97643000Y-8597000D01*
X97463000Y-8494000D01*
X97257000Y-8437000D01*
X97049000Y-8437000D01*
X96843000Y-8494000D01*
X96663000Y-8597000D01*
X96515000Y-8745000D01*
X96412000Y-8925000D01*
X96355000Y-9131000D01*
X95566231Y-9131000D01*
X95561000Y-9111000D01*
X95561000Y-9109000D01*
X95454000Y-8924000D01*
X95452000Y-8921000D01*
X95304000Y-8774000D01*
X95302000Y-8772000D01*
X95129000Y-8671000D01*
X94919000Y-8614000D01*
X94711000Y-8614000D01*
X94505000Y-8671000D01*
X94325000Y-8774000D01*
X94177000Y-8922000D01*
X94073000Y-9104000D01*
X94017000Y-9308000D01*
X70226972Y-9308000D01*
X70231000Y-9301000D01*
X70288000Y-9096000D01*
X70288000Y-8886000D01*
X70231000Y-8680000D01*
X70128000Y-8500000D01*
X69980000Y-8352000D01*
X69794000Y-8245000D01*
X69596000Y-8193000D01*
X69387000Y-8193000D01*
X69182000Y-8247000D01*
X69001000Y-8352000D01*
X69000000Y-8353000D01*
X68853000Y-8499000D01*
X68852000Y-8500000D01*
X68745000Y-8687000D01*
X68693000Y-8884000D01*
X66939278Y-8884000D01*
X66859000Y-8745000D01*
X66858000Y-8744000D01*
X66710000Y-8597000D01*
X66709000Y-8596000D01*
X66535000Y-8494000D01*
X66325000Y-8437000D01*
X66117000Y-8437000D01*
X65911000Y-8494000D01*
X65731000Y-8597000D01*
X65583000Y-8745000D01*
X65480000Y-8925000D01*
X65423000Y-9131000D01*
X63389310Y-9131000D01*
X63478000Y-8976000D01*
X63530000Y-8780000D01*
X63530000Y-8567000D01*
X63478000Y-8370000D01*
X63371000Y-8183000D01*
X63370000Y-8182000D01*
X63222000Y-8035000D01*
X63221000Y-8034000D01*
X63043000Y-7932000D01*
X63044000Y-7932000D01*
X62838000Y-7875000D01*
X62627000Y-7875000D01*
X62422000Y-7932000D01*
X62244000Y-8034000D01*
X62243000Y-8035000D01*
X62095000Y-8182000D01*
X62094000Y-8183000D01*
X61987000Y-8370000D01*
X61935000Y-8567000D01*
X-137392757Y-8567000D01*
X-137280000Y-8455000D01*
X-137279000Y-8454000D01*
X-137171000Y-8266000D01*
X-137119000Y-8071000D01*
X-137119000Y-7860000D01*
X-137172000Y-7659000D01*
X-137173000Y-7656000D01*
X-137279000Y-7473000D01*
X-137425000Y-7327000D01*
X-137459340Y-7307000D01*
X-134616000Y-7307000D01*
X-134616000Y-7511000D01*
X-134561000Y-7717000D01*
X-134560000Y-7719000D01*
X-134460000Y-7894000D01*
X-134456000Y-7899000D01*
X-134309000Y-8047000D01*
X-134307000Y-8048000D01*
X-134122000Y-8154000D01*
X-133925000Y-8206000D01*
X-133713000Y-8206000D01*
X-133516000Y-8154000D01*
X-133331000Y-8048000D01*
X-133329000Y-8047000D01*
X-133182000Y-7899000D01*
X-133178000Y-7894000D01*
X-133078000Y-7719000D01*
X-133077000Y-7717000D01*
X-133022000Y-7511000D01*
X-133022000Y-7307000D01*
X-131379000Y-7307000D01*
X-131379000Y-7511000D01*
X-131324000Y-7716000D01*
X-131219000Y-7899000D01*
X-131071000Y-8047000D01*
X-130889000Y-8151000D01*
X-130684000Y-8206000D01*
X-130479000Y-8206000D01*
X-130273000Y-8151000D01*
X-130274000Y-8151000D01*
X-130089000Y-8045000D01*
X-129948000Y-7901000D01*
X-129947000Y-7900000D01*
X-129838000Y-7718000D01*
X-129801122Y-7578000D01*
X-109547000Y-7578000D01*
X-109547000Y-7784000D01*
X-109492000Y-7988000D01*
X-109386000Y-8173000D01*
X-109241000Y-8315000D01*
X-109238000Y-8317000D01*
X-109059000Y-8424000D01*
X-108854000Y-8478000D01*
X-108645000Y-8478000D01*
X-108441000Y-8424000D01*
X-108263000Y-8319000D01*
X-108257000Y-8315000D01*
X-108115000Y-8173000D01*
X-108112000Y-8169000D01*
X-108112000Y-8168000D01*
X-108110000Y-8166000D01*
X-108006000Y-7990000D01*
X-107952000Y-7786000D01*
X-107952000Y-7577000D01*
X-108006000Y-7371000D01*
X-108094135Y-7223000D01*
X-105465000Y-7223000D01*
X-105465000Y-7433000D01*
X-105407000Y-7642000D01*
X-105307000Y-7815000D01*
X-105157000Y-7965000D01*
X-104970000Y-8072000D01*
X-104773000Y-8124000D01*
X-104564000Y-8124000D01*
X-104360000Y-8070000D01*
X-104358000Y-8069000D01*
X-104176000Y-7963000D01*
X-104031000Y-7818000D01*
X-103938250Y-7659000D01*
X-98435000Y-7659000D01*
X-98435000Y-7868000D01*
X-98383000Y-8064000D01*
X-98275000Y-8251000D01*
X-98274000Y-8252000D01*
X-98126000Y-8399000D01*
X-97948000Y-8501000D01*
X-97743000Y-8558000D01*
X-97532000Y-8558000D01*
X-97325000Y-8501000D01*
X-97148000Y-8398000D01*
X-97004000Y-8254000D01*
X-96897000Y-8075000D01*
X-96895000Y-8071000D01*
X-96840000Y-7866000D01*
X-96840000Y-7654000D01*
X-96852971Y-7605000D01*
X-80252000Y-7605000D01*
X-80252000Y-7816000D01*
X-80195000Y-8023000D01*
X-80092000Y-8200000D01*
X-79947000Y-8345000D01*
X-79945000Y-8346000D01*
X-79765000Y-8453000D01*
X-79559000Y-8508000D01*
X-79348000Y-8508000D01*
X-79144000Y-8454000D01*
X-78964000Y-8347000D01*
X-78963000Y-8346000D01*
X-78818000Y-8202000D01*
X-78816000Y-8200000D01*
X-78713000Y-8021000D01*
X-78712000Y-8019000D01*
X-78657000Y-7815000D01*
X-78657000Y-7608000D01*
X-78657268Y-7607000D01*
X-76926000Y-7607000D01*
X-76926000Y-7816000D01*
X-76874000Y-8013000D01*
X-76767000Y-8200000D01*
X-76619000Y-8348000D01*
X-76439000Y-8451000D01*
X-76233000Y-8508000D01*
X-76025000Y-8508000D01*
X-75818000Y-8451000D01*
X-75819000Y-8451000D01*
X-75639000Y-8348000D01*
X-75491000Y-8200000D01*
X-75389000Y-8023000D01*
X-75388000Y-8021000D01*
X-75331000Y-7815000D01*
X-75331000Y-7607000D01*
X-73827000Y-7607000D01*
X-73827000Y-7816000D01*
X-73775000Y-8013000D01*
X-73668000Y-8200000D01*
X-73666000Y-8202000D01*
X-73518000Y-8349000D01*
X-73340000Y-8451000D01*
X-73135000Y-8508000D01*
X-72924000Y-8508000D01*
X-72717000Y-8451000D01*
X-72540000Y-8348000D01*
X-72396000Y-8204000D01*
X-72288000Y-8023000D01*
X-72287000Y-8021000D01*
X-72232000Y-7815000D01*
X-72232000Y-7776000D01*
X130973000Y-7776000D01*
X130973000Y-7984000D01*
X131030000Y-8190000D01*
X131031000Y-8192000D01*
X131133000Y-8369000D01*
X131281000Y-8517000D01*
X131284000Y-8519000D01*
X131461000Y-8620000D01*
X131667000Y-8677000D01*
X131875000Y-8677000D01*
X132085000Y-8620000D01*
X132256000Y-8520000D01*
X132258000Y-8519000D01*
X132408000Y-8370000D01*
X132409000Y-8369000D01*
X132513000Y-8189000D01*
X132516000Y-8183000D01*
X132568000Y-7987000D01*
X132568000Y-7778000D01*
X132515000Y-7575000D01*
X132514000Y-7572000D01*
X132408000Y-7389000D01*
X132262000Y-7243000D01*
X132080000Y-7137000D01*
X132078000Y-7136000D01*
X131874000Y-7082000D01*
X131665000Y-7082000D01*
X131468000Y-7134000D01*
X131281000Y-7241000D01*
X131280000Y-7242000D01*
X131131000Y-7392000D01*
X131129000Y-7395000D01*
X131030000Y-7567000D01*
X131029000Y-7569000D01*
X130973000Y-7776000D01*
X-72232000Y-7776000D01*
X-72232000Y-7604000D01*
X-72286000Y-7399000D01*
X-72393000Y-7220000D01*
X-72539000Y-7073000D01*
X-72540000Y-7072000D01*
X-72722000Y-6968000D01*
X-72927000Y-6913000D01*
X-73132000Y-6913000D01*
X-73337000Y-6968000D01*
X-73519000Y-7072000D01*
X-73667000Y-7220000D01*
X-73772000Y-7401000D01*
X-73774000Y-7406000D01*
X-73827000Y-7607000D01*
X-75331000Y-7607000D01*
X-75388000Y-7396000D01*
X-75487000Y-7226000D01*
X-75489000Y-7223000D01*
X-75638000Y-7073000D01*
X-75639000Y-7072000D01*
X-75825000Y-6965000D01*
X-76023000Y-6913000D01*
X-76235000Y-6913000D01*
X-76433000Y-6965000D01*
X-76619000Y-7072000D01*
X-76620000Y-7073000D01*
X-76767000Y-7221000D01*
X-76871000Y-7401000D01*
X-76873000Y-7406000D01*
X-76926000Y-7607000D01*
X-78657268Y-7607000D01*
X-78712000Y-7403000D01*
X-78816000Y-7221000D01*
X-78963000Y-7074000D01*
X-79145000Y-6968000D01*
X-79147000Y-6967000D01*
X-79351000Y-6913000D01*
X-79560000Y-6913000D01*
X-79758000Y-6965000D01*
X-79944000Y-7072000D01*
X-79945000Y-7073000D01*
X-80094000Y-7223000D01*
X-80195000Y-7400000D01*
X-80252000Y-7605000D01*
X-96852971Y-7605000D01*
X-96894000Y-7450000D01*
X-97001000Y-7270000D01*
X-97002000Y-7269000D01*
X-97146000Y-7124000D01*
X-97147000Y-7123000D01*
X-97330000Y-7018000D01*
X-97535000Y-6963000D01*
X-97740000Y-6963000D01*
X-97945000Y-7018000D01*
X-98127000Y-7122000D01*
X-98274000Y-7269000D01*
X-98381000Y-7452000D01*
X-98382000Y-7456000D01*
X-98435000Y-7659000D01*
X-103938250Y-7659000D01*
X-103926000Y-7638000D01*
X-103923000Y-7631000D01*
X-103870000Y-7430000D01*
X-103870000Y-7221000D01*
X-103921000Y-7026000D01*
X-103921000Y-7024000D01*
X-104030000Y-6837000D01*
X-104180000Y-6687000D01*
X-104327307Y-6601000D01*
X-102363000Y-6601000D01*
X-102363000Y-6809000D01*
X-102305000Y-7018000D01*
X-102203000Y-7195000D01*
X-102055000Y-7343000D01*
X-101875000Y-7446000D01*
X-101669000Y-7503000D01*
X-101461000Y-7503000D01*
X-101251000Y-7446000D01*
X-101078000Y-7345000D01*
X-101077000Y-7344000D01*
X-100930000Y-7198000D01*
X-100927000Y-7195000D01*
X-100820000Y-7009000D01*
X-100768000Y-6813000D01*
X-100768000Y-6599000D01*
X-100819000Y-6404000D01*
X-100819000Y-6403000D01*
X-100924000Y-6221000D01*
X-100867000Y-6084000D01*
X-100661000Y-6030000D01*
X-100660000Y-6029000D01*
X-100480000Y-5925000D01*
X-100332000Y-5778000D01*
X-100224000Y-5591000D01*
X-100172000Y-5393000D01*
X-100172000Y-5325000D01*
X-98094000Y-5325000D01*
X-98094000Y-5533000D01*
X-98037000Y-5740000D01*
X-97933000Y-5920000D01*
X-97786000Y-6067000D01*
X-97599000Y-6174000D01*
X-97402000Y-6226000D01*
X-97190000Y-6226000D01*
X-96993000Y-6174000D01*
X-96806000Y-6067000D01*
X-96659000Y-5920000D01*
X-96551000Y-5732000D01*
X-96499000Y-5535000D01*
X-96499000Y-5373000D01*
X-80252000Y-5373000D01*
X-80252000Y-5581000D01*
X-80195000Y-5788000D01*
X-80194000Y-5789000D01*
X-80092000Y-5967000D01*
X-79944000Y-6115000D01*
X-79941000Y-6117000D01*
X-79764000Y-6218000D01*
X-79558000Y-6275000D01*
X-79350000Y-6275000D01*
X-79140000Y-6218000D01*
X-78969000Y-6118000D01*
X-78967000Y-6117000D01*
X-78819000Y-5970000D01*
X-78816000Y-5967000D01*
X-78710000Y-5783000D01*
X-78709000Y-5781000D01*
X-78657000Y-5584000D01*
X-78657000Y-5422000D01*
X-76437000Y-5422000D01*
X-76437000Y-5630000D01*
X-76379000Y-5838000D01*
X-76276000Y-6016000D01*
X-76129000Y-6163000D01*
X-75942000Y-6270000D01*
X-75745000Y-6322000D01*
X-75536000Y-6322000D01*
X-75331000Y-6268000D01*
X-75330000Y-6267000D01*
X-75150000Y-6163000D01*
X-75004000Y-6018000D01*
X-75002000Y-6016000D01*
X-74897000Y-5835000D01*
X-74894000Y-5829000D01*
X-74842000Y-5632000D01*
X-74842000Y-5420000D01*
X-73093000Y-5420000D01*
X-73093000Y-5632000D01*
X-73041000Y-5829000D01*
X-73038000Y-5835000D01*
X-72933000Y-6016000D01*
X-72786000Y-6163000D01*
X-72599000Y-6270000D01*
X-72402000Y-6322000D01*
X-72190000Y-6322000D01*
X-71993000Y-6270000D01*
X-71806000Y-6163000D01*
X-71659000Y-6016000D01*
X-71556000Y-5838000D01*
X-71498000Y-5630000D01*
X-71498000Y-5422000D01*
X-71555000Y-5215000D01*
X-71657000Y-5036000D01*
X-71806000Y-4887000D01*
X-71992000Y-4780000D01*
X-72190000Y-4728000D01*
X-72402000Y-4728000D01*
X-72600000Y-4780000D01*
X-72786000Y-4887000D01*
X-72935000Y-5036000D01*
X-73042000Y-5223000D01*
X-73042000Y-5224000D01*
X-73093000Y-5420000D01*
X-74842000Y-5420000D01*
X-74893000Y-5224000D01*
X-74893000Y-5223000D01*
X-75002000Y-5035000D01*
X-75150000Y-4887000D01*
X-75331000Y-4782000D01*
X-75536000Y-4728000D01*
X-75745000Y-4728000D01*
X-75943000Y-4780000D01*
X-76129000Y-4887000D01*
X-76278000Y-5036000D01*
X-76380000Y-5215000D01*
X-76437000Y-5422000D01*
X-78657000Y-5422000D01*
X-78657000Y-5371000D01*
X-78709000Y-5174000D01*
X-78816000Y-4987000D01*
X-78964000Y-4840000D01*
X-78965000Y-4839000D01*
X-79146000Y-4734000D01*
X-79351000Y-4680000D01*
X-79560000Y-4680000D01*
X-79758000Y-4732000D01*
X-79944000Y-4839000D01*
X-80092000Y-4987000D01*
X-80094000Y-4990000D01*
X-80196000Y-5169000D01*
X-80252000Y-5373000D01*
X-96499000Y-5373000D01*
X-96499000Y-5323000D01*
X-96550000Y-5128000D01*
X-96550000Y-5126000D01*
X-96658000Y-4939000D01*
X-96806000Y-4791000D01*
X-96993000Y-4684000D01*
X-97190000Y-4632000D01*
X-97402000Y-4632000D01*
X-97599000Y-4684000D01*
X-97786000Y-4791000D01*
X-97934000Y-4939000D01*
X-98037000Y-5119000D01*
X-98094000Y-5325000D01*
X-100172000Y-5325000D01*
X-100172000Y-5181000D01*
X-100223000Y-4986000D01*
X-100223000Y-4984000D01*
X-100331000Y-4797000D01*
X-100480000Y-4649000D01*
X-100661000Y-4544000D01*
X-100866000Y-4490000D01*
X-101075000Y-4490000D01*
X-101273000Y-4542000D01*
X-101459000Y-4649000D01*
X-101607000Y-4797000D01*
X-101710000Y-4977000D01*
X-101767000Y-5184000D01*
X-101767000Y-5392000D01*
X-101710000Y-5598000D01*
X-101709000Y-5600000D01*
X-101611000Y-5771000D01*
X-101668000Y-5907000D01*
X-101868000Y-5960000D01*
X-102055000Y-6067000D01*
X-102204000Y-6216000D01*
X-102205000Y-6218000D01*
X-102306000Y-6395000D01*
X-102363000Y-6601000D01*
X-104327307Y-6601000D01*
X-104353000Y-6586000D01*
X-104563000Y-6529000D01*
X-104771000Y-6529000D01*
X-104977000Y-6586000D01*
X-105157000Y-6689000D01*
X-105306000Y-6838000D01*
X-105408000Y-7017000D01*
X-105465000Y-7223000D01*
X-108094135Y-7223000D01*
X-108112000Y-7193000D01*
X-108114000Y-7190000D01*
X-108256000Y-7045000D01*
X-108257000Y-7044000D01*
X-108442000Y-6938000D01*
X-108441000Y-6938000D01*
X-108647000Y-6883000D01*
X-108852000Y-6883000D01*
X-109057000Y-6938000D01*
X-109239000Y-7042000D01*
X-109388000Y-7191000D01*
X-109492000Y-7373000D01*
X-109547000Y-7578000D01*
X-129801122Y-7578000D01*
X-129784000Y-7513000D01*
X-129784000Y-7306000D01*
X-129838000Y-7099000D01*
X-129942000Y-6924000D01*
X-129946000Y-6918000D01*
X-130090000Y-6772000D01*
X-130089000Y-6772000D01*
X-130274000Y-6666000D01*
X-130479000Y-6611000D01*
X-130684000Y-6611000D01*
X-130889000Y-6666000D01*
X-131071000Y-6770000D01*
X-131220000Y-6919000D01*
X-131324000Y-7101000D01*
X-131379000Y-7307000D01*
X-133022000Y-7307000D01*
X-133077000Y-7100000D01*
X-133078000Y-7098000D01*
X-133177000Y-6924000D01*
X-133180000Y-6920000D01*
X-133328000Y-6771000D01*
X-133329000Y-6770000D01*
X-133515000Y-6663000D01*
X-133713000Y-6611000D01*
X-133925000Y-6611000D01*
X-134123000Y-6663000D01*
X-134309000Y-6770000D01*
X-134310000Y-6771000D01*
X-134458000Y-6920000D01*
X-134461000Y-6924000D01*
X-134560000Y-7098000D01*
X-134561000Y-7100000D01*
X-134616000Y-7307000D01*
X-137459340Y-7307000D01*
X-137607000Y-7221000D01*
X-137609000Y-7220000D01*
X-137813000Y-7166000D01*
X-138022000Y-7166000D01*
X-138219000Y-7218000D01*
X-138406000Y-7326000D01*
X-138556000Y-7476000D01*
X-138657000Y-7650000D01*
X-138714000Y-7859000D01*
X-151796000Y-7859000D01*
X-151796000Y-7687000D01*
X-151850000Y-7483000D01*
X-151954000Y-7306000D01*
X-151960000Y-7298000D01*
X-152101000Y-7157000D01*
X-152106000Y-7154000D01*
X-152284000Y-7048000D01*
X-152489000Y-6994000D01*
X-152698000Y-6994000D01*
X-152903000Y-7048000D01*
X-153083000Y-7156000D01*
X-153085000Y-7157000D01*
X-153230000Y-7299000D01*
X-153336000Y-7484000D01*
X-153391000Y-7689000D01*
X-155580000Y-7689000D01*
X-155580000Y-7537000D01*
X-155637000Y-7331000D01*
X-155739000Y-7152000D01*
X-155888000Y-7003000D01*
X-156068000Y-6900000D01*
X-156067000Y-6900000D01*
X-156274000Y-6843000D01*
X-156482000Y-6843000D01*
X-156692000Y-6900000D01*
X-156866000Y-7002000D01*
X-157015000Y-7151000D01*
X-157123000Y-7338000D01*
X-157175000Y-7535000D01*
X-158864939Y-7535000D01*
X-158827000Y-7392000D01*
X-158827000Y-7183000D01*
X-158880000Y-6980000D01*
X-158882000Y-6975000D01*
X-158988000Y-6793000D01*
X-159133000Y-6648000D01*
X-159316000Y-6541000D01*
X-159410000Y-6507000D01*
X-159410000Y-6297000D01*
X-159316000Y-6263000D01*
X-159133000Y-6156000D01*
X-158988000Y-6011000D01*
X-158883000Y-5831000D01*
X-158880000Y-5825000D01*
X-158880000Y-5824000D01*
X-158827000Y-5624000D01*
X-158827000Y-5414000D01*
X-158838508Y-5370000D01*
X-156900000Y-5370000D01*
X-156900000Y-5580000D01*
X-156848000Y-5777000D01*
X-156741000Y-5963000D01*
X-156593000Y-6111000D01*
X-156413000Y-6214000D01*
X-156207000Y-6271000D01*
X-155999000Y-6271000D01*
X-155792000Y-6214000D01*
X-155793000Y-6214000D01*
X-155613000Y-6111000D01*
X-155465000Y-5963000D01*
X-155363000Y-5786000D01*
X-155362000Y-5784000D01*
X-155305000Y-5577000D01*
X-155305000Y-5370000D01*
X-153030000Y-5370000D01*
X-153030000Y-5580000D01*
X-152978000Y-5777000D01*
X-152871000Y-5963000D01*
X-152870000Y-5964000D01*
X-152721000Y-6112000D01*
X-152543000Y-6214000D01*
X-152338000Y-6271000D01*
X-152127000Y-6271000D01*
X-151921000Y-6214000D01*
X-151922000Y-6214000D01*
X-151744000Y-6112000D01*
X-151595000Y-5964000D01*
X-151594000Y-5963000D01*
X-151487000Y-5777000D01*
X-151435000Y-5580000D01*
X-151435000Y-5370000D01*
X-151451348Y-5308000D01*
X-138284000Y-5308000D01*
X-138284000Y-5517000D01*
X-138232000Y-5714000D01*
X-138125000Y-5901000D01*
X-137977000Y-6049000D01*
X-137974000Y-6051000D01*
X-137797000Y-6152000D01*
X-137591000Y-6209000D01*
X-137383000Y-6209000D01*
X-137176000Y-6152000D01*
X-137177000Y-6152000D01*
X-137000000Y-6051000D01*
X-136997000Y-6049000D01*
X-136849000Y-5901000D01*
X-136742000Y-5714000D01*
X-136690000Y-5517000D01*
X-136690000Y-5308000D01*
X-134860000Y-5308000D01*
X-134860000Y-5517000D01*
X-134808000Y-5714000D01*
X-134701000Y-5901000D01*
X-134700000Y-5902000D01*
X-134550000Y-6051000D01*
X-134548000Y-6052000D01*
X-134377000Y-6152000D01*
X-134167000Y-6209000D01*
X-133959000Y-6209000D01*
X-133752000Y-6152000D01*
X-133753000Y-6152000D01*
X-133576000Y-6051000D01*
X-133573000Y-6049000D01*
X-133425000Y-5901000D01*
X-133322000Y-5722000D01*
X-133265000Y-5515000D01*
X-133265000Y-5307000D01*
X-131174000Y-5307000D01*
X-131174000Y-5515000D01*
X-131117000Y-5722000D01*
X-131014000Y-5901000D01*
X-130866000Y-6049000D01*
X-130863000Y-6051000D01*
X-130686000Y-6152000D01*
X-130480000Y-6209000D01*
X-130272000Y-6209000D01*
X-130062000Y-6152000D01*
X-129891000Y-6052000D01*
X-129889000Y-6051000D01*
X-129739000Y-5902000D01*
X-129738000Y-5901000D01*
X-129631000Y-5714000D01*
X-129579000Y-5517000D01*
X-129579000Y-5463000D01*
X-109017000Y-5463000D01*
X-109017000Y-5672000D01*
X-108965000Y-5870000D01*
X-108963000Y-5874000D01*
X-108857000Y-6057000D01*
X-108710000Y-6204000D01*
X-108530000Y-6307000D01*
X-108324000Y-6364000D01*
X-108116000Y-6364000D01*
X-107909000Y-6307000D01*
X-107910000Y-6307000D01*
X-107730000Y-6204000D01*
X-107583000Y-6057000D01*
X-107477000Y-5874000D01*
X-107475000Y-5870000D01*
X-107423000Y-5672000D01*
X-107423000Y-5463000D01*
X-107477000Y-5258000D01*
X-107478000Y-5257000D01*
X-107520178Y-5184000D01*
X-105465000Y-5184000D01*
X-105465000Y-5392000D01*
X-105408000Y-5598000D01*
X-105304000Y-5778000D01*
X-105157000Y-5925000D01*
X-104970000Y-6032000D01*
X-104773000Y-6084000D01*
X-104564000Y-6084000D01*
X-104359000Y-6030000D01*
X-104358000Y-6029000D01*
X-104178000Y-5925000D01*
X-104030000Y-5778000D01*
X-103922000Y-5591000D01*
X-103870000Y-5393000D01*
X-103870000Y-5181000D01*
X-103921000Y-4986000D01*
X-103921000Y-4984000D01*
X-104029000Y-4797000D01*
X-104178000Y-4649000D01*
X-104359000Y-4544000D01*
X-104564000Y-4490000D01*
X-104773000Y-4490000D01*
X-104971000Y-4542000D01*
X-105157000Y-4649000D01*
X-105305000Y-4797000D01*
X-105408000Y-4977000D01*
X-105465000Y-5184000D01*
X-107520178Y-5184000D01*
X-107582000Y-5077000D01*
X-107728000Y-4930000D01*
X-107729000Y-4929000D01*
X-107917000Y-4821000D01*
X-108114000Y-4769000D01*
X-108326000Y-4769000D01*
X-108523000Y-4821000D01*
X-108711000Y-4929000D01*
X-108712000Y-4930000D01*
X-108858000Y-5077000D01*
X-108962000Y-5257000D01*
X-108963000Y-5258000D01*
X-109017000Y-5463000D01*
X-129579000Y-5463000D01*
X-129579000Y-5308000D01*
X-129632000Y-5107000D01*
X-129634000Y-5102000D01*
X-129739000Y-4921000D01*
X-129885000Y-4775000D01*
X-130067000Y-4669000D01*
X-130069000Y-4668000D01*
X-130273000Y-4614000D01*
X-130482000Y-4614000D01*
X-130679000Y-4666000D01*
X-130866000Y-4773000D01*
X-130868000Y-4775000D01*
X-131015000Y-4923000D01*
X-131018000Y-4927000D01*
X-131117000Y-5098000D01*
X-131174000Y-5307000D01*
X-133265000Y-5307000D01*
X-133322000Y-5098000D01*
X-133421000Y-4927000D01*
X-133424000Y-4923000D01*
X-133571000Y-4775000D01*
X-133573000Y-4773000D01*
X-133760000Y-4666000D01*
X-133957000Y-4614000D01*
X-134166000Y-4614000D01*
X-134370000Y-4668000D01*
X-134372000Y-4669000D01*
X-134554000Y-4775000D01*
X-134700000Y-4921000D01*
X-134805000Y-5102000D01*
X-134807000Y-5107000D01*
X-134860000Y-5308000D01*
X-136690000Y-5308000D01*
X-136743000Y-5107000D01*
X-136745000Y-5102000D01*
X-136849000Y-4922000D01*
X-136995000Y-4775000D01*
X-136997000Y-4773000D01*
X-137184000Y-4666000D01*
X-137381000Y-4614000D01*
X-137593000Y-4614000D01*
X-137790000Y-4666000D01*
X-137977000Y-4773000D01*
X-137979000Y-4775000D01*
X-138125000Y-4922000D01*
X-138229000Y-5102000D01*
X-138231000Y-5107000D01*
X-138284000Y-5308000D01*
X-151451348Y-5308000D01*
X-151488000Y-5169000D01*
X-151489000Y-5166000D01*
X-151596000Y-4982000D01*
X-151743000Y-4835000D01*
X-151925000Y-4731000D01*
X-152130000Y-4676000D01*
X-152335000Y-4676000D01*
X-152540000Y-4731000D01*
X-152722000Y-4835000D01*
X-152869000Y-4982000D01*
X-152976000Y-5166000D01*
X-152977000Y-5169000D01*
X-153030000Y-5370000D01*
X-155305000Y-5370000D01*
X-155305000Y-5369000D01*
X-155362000Y-5159000D01*
X-155463000Y-4986000D01*
X-155611000Y-4837000D01*
X-155613000Y-4835000D01*
X-155799000Y-4728000D01*
X-155997000Y-4676000D01*
X-156209000Y-4676000D01*
X-156407000Y-4728000D01*
X-156593000Y-4835000D01*
X-156595000Y-4837000D01*
X-156741000Y-4984000D01*
X-156846000Y-5166000D01*
X-156847000Y-5169000D01*
X-156900000Y-5370000D01*
X-158838508Y-5370000D01*
X-158878000Y-5219000D01*
X-158878000Y-5217000D01*
X-158986000Y-5030000D01*
X-158987000Y-5029000D01*
X-159136000Y-4881000D01*
X-159310000Y-4779000D01*
X-159520000Y-4722000D01*
X-159728000Y-4722000D01*
X-159934000Y-4779000D01*
X-160114000Y-4882000D01*
X-160262000Y-5030000D01*
X-160264000Y-5033000D01*
X-160365000Y-5210000D01*
X-160422000Y-5417000D01*
X-162588000Y-5417000D01*
X-162588000Y-5414000D01*
X-162639000Y-5219000D01*
X-162639000Y-5217000D01*
X-162747000Y-5030000D01*
X-162748000Y-5029000D01*
X-162897000Y-4881000D01*
X-163075000Y-4779000D01*
X-163280000Y-4722000D01*
X-163491000Y-4722000D01*
X-163698000Y-4779000D01*
X-163875000Y-4882000D01*
X-164021000Y-5028000D01*
X-164024000Y-5033000D01*
X-164128000Y-5210000D01*
X-164183000Y-5416000D01*
X-165932000Y-5416000D01*
X-165932000Y-5414000D01*
X-165983000Y-5219000D01*
X-165983000Y-5217000D01*
X-166091000Y-5030000D01*
X-166092000Y-5029000D01*
X-166241000Y-4881000D01*
X-166419000Y-4779000D01*
X-166624000Y-4722000D01*
X-166835000Y-4722000D01*
X-167040000Y-4779000D01*
X-167218000Y-4881000D01*
X-167367000Y-5029000D01*
X-167368000Y-5030000D01*
X-167476000Y-5217000D01*
X-167476000Y-5219000D01*
X-167527000Y-5414000D01*
X-178508782Y-5414000D01*
X-178326000Y-4911000D01*
X-178324000Y-4905000D01*
X-177997000Y-4196000D01*
X-177994000Y-4191000D01*
X-177606000Y-3501000D01*
X-177603000Y-3496000D01*
X-177174000Y-2857000D01*
X-177170000Y-2852000D01*
X-176677000Y-2235000D01*
X-176673000Y-2230000D01*
X-176166000Y-1694000D01*
X-176161000Y-1690000D01*
X-175601000Y-1199000D01*
X-175595000Y-1194000D01*
X-175021000Y-783000D01*
X-175013000Y-779000D01*
X-174396000Y-438000D01*
X-174394000Y-437000D01*
X-173932000Y-204000D01*
X-173927000Y-202000D01*
X-173472000Y-11000D01*
X-173458000Y-7000D01*
X-172747000Y147000D01*
X-172739000Y148000D01*
X-171464000Y273000D01*
X-171460000Y274000D01*
X-169319000Y373000D01*
X-169317000Y373000D01*
X-166081000Y445000D01*
X-166080000Y445000D01*
X-161459000Y494000D01*
X-161458000Y494000D01*
X-155174000Y526000D01*
X-146955000Y543000D01*
X-136520000Y549000D01*
X-123594000Y551000D01*
X-107900000Y550000D01*
X-44276000Y550000D01*
X-44015328Y1815000D01*
X23168000Y1815000D01*
X23168000Y1604000D01*
X23225000Y1399000D01*
X23327000Y1221000D01*
X23475000Y1072000D01*
X23476000Y1071000D01*
X23663000Y964000D01*
X23860000Y912000D01*
X24069000Y912000D01*
X24273000Y966000D01*
X24275000Y967000D01*
X24457000Y1073000D01*
X24604000Y1220000D01*
X24708000Y1402000D01*
X24763000Y1607000D01*
X24763000Y1812000D01*
X24709000Y2014000D01*
X24708000Y2017000D01*
X24604000Y2199000D01*
X24603000Y2200000D01*
X24458000Y2344000D01*
X24456000Y2346000D01*
X24277000Y2453000D01*
X24072000Y2507000D01*
X23861000Y2507000D01*
X23655000Y2452000D01*
X23473000Y2344000D01*
X23328000Y2199000D01*
X23225000Y2022000D01*
X23168000Y1815000D01*
X-44015328Y1815000D01*
X-43977000Y2001000D01*
X-43976000Y2003000D01*
X-43513000Y4015000D01*
X-43512000Y4018000D01*
X-42931000Y6047000D01*
X-42930000Y6051000D01*
X-42281352Y7949000D01*
X-20332000Y7949000D01*
X-20332000Y7741000D01*
X-20275000Y7534000D01*
X-20172000Y7355000D01*
X-20024000Y7207000D01*
X-19844000Y7104000D01*
X-19638000Y7047000D01*
X-19430000Y7047000D01*
X-19220000Y7104000D01*
X-19047000Y7205000D01*
X-19046000Y7206000D01*
X-18897000Y7354000D01*
X-18896000Y7355000D01*
X-18789000Y7542000D01*
X-18737000Y7739000D01*
X-18737000Y7948000D01*
X-18790000Y8149000D01*
X-18792000Y8154000D01*
X-18898000Y8336000D01*
X-19043000Y8481000D01*
X-19225000Y8587000D01*
X-19227000Y8588000D01*
X-19431000Y8642000D01*
X-19640000Y8642000D01*
X-19837000Y8590000D01*
X-20024000Y8483000D01*
X-20025000Y8482000D01*
X-20174000Y8332000D01*
X-20275000Y8159000D01*
X-20332000Y7949000D01*
X-42281352Y7949000D01*
X-42240000Y8070000D01*
X-42239000Y8074000D01*
X-41453000Y10060000D01*
X-41451000Y10063000D01*
X-41228876Y10556000D01*
X24547000Y10556000D01*
X24547000Y10351000D01*
X24602000Y10146000D01*
X24706000Y9964000D01*
X24853000Y9817000D01*
X25035000Y9711000D01*
X25037000Y9710000D01*
X25241000Y9656000D01*
X25450000Y9656000D01*
X25647000Y9708000D01*
X25834000Y9815000D01*
X25835000Y9816000D01*
X25983000Y9965000D01*
X26085000Y10143000D01*
X26142000Y10348000D01*
X26142000Y10559000D01*
X26085000Y10764000D01*
X25983000Y10942000D01*
X25835000Y11091000D01*
X25834000Y11092000D01*
X25647000Y11199000D01*
X25450000Y11251000D01*
X25241000Y11251000D01*
X25037000Y11197000D01*
X25035000Y11196000D01*
X24853000Y11090000D01*
X24706000Y10943000D01*
X24704000Y10940000D01*
X24602000Y10761000D01*
X24547000Y10556000D01*
X-41228876Y10556000D01*
X-40558000Y12045000D01*
X-40557000Y12048000D01*
X-40526066Y12109000D01*
X-17839000Y12109000D01*
X-17839000Y11898000D01*
X-17782000Y11693000D01*
X-17680000Y11515000D01*
X-17532000Y11366000D01*
X-17531000Y11365000D01*
X-17344000Y11258000D01*
X-17147000Y11206000D01*
X-16938000Y11206000D01*
X-16734000Y11260000D01*
X-16732000Y11261000D01*
X-16550000Y11367000D01*
X-16403000Y11514000D01*
X-16299000Y11696000D01*
X-16244000Y11901000D01*
X-16244000Y12106000D01*
X-16299000Y12311000D01*
X-16403000Y12493000D01*
X-16550000Y12640000D01*
X-16732000Y12746000D01*
X-16734000Y12747000D01*
X-16938000Y12801000D01*
X-17147000Y12801000D01*
X-17344000Y12749000D01*
X-17531000Y12642000D01*
X-17532000Y12641000D01*
X-17680000Y12492000D01*
X-17782000Y12314000D01*
X-17839000Y12109000D01*
X-40526066Y12109000D01*
X-39558000Y14018000D01*
X-39556000Y14021000D01*
X-38520872Y15856000D01*
X-20332000Y15856000D01*
X-20332000Y15648000D01*
X-20275000Y15441000D01*
X-20172000Y15262000D01*
X-20024000Y15114000D01*
X-19837000Y15007000D01*
X-19640000Y14955000D01*
X-19431000Y14955000D01*
X-19226000Y15009000D01*
X-19225000Y15010000D01*
X-19045000Y15114000D01*
X-18899000Y15259000D01*
X-18896000Y15262000D01*
X-18789000Y15449000D01*
X-18737000Y15646000D01*
X-18737000Y15858000D01*
X-18788000Y16053000D01*
X-18788000Y16055000D01*
X-18896000Y16242000D01*
X-19046000Y16391000D01*
X-19047000Y16392000D01*
X-19149772Y16452000D01*
X-15694000Y16452000D01*
X-15694000Y16246000D01*
X-15639000Y16042000D01*
X-15535000Y15860000D01*
X-15386000Y15711000D01*
X-15204000Y15607000D01*
X-14999000Y15552000D01*
X-14794000Y15552000D01*
X-14588000Y15607000D01*
X-14589000Y15607000D01*
X-14404000Y15713000D01*
X-14405000Y15713000D01*
X-14262000Y15858000D01*
X-14261000Y15860000D01*
X-14192000Y15975000D01*
X-12070000Y15975000D01*
X-12070000Y15765000D01*
X-12015000Y15559000D01*
X-12014000Y15558000D01*
X-11906000Y15376000D01*
X-11762000Y15232000D01*
X-11580000Y15128000D01*
X-11375000Y15073000D01*
X-11170000Y15073000D01*
X-10964000Y15128000D01*
X-10962000Y15129000D01*
X-10787000Y15229000D01*
X-10784000Y15231000D01*
X-10637000Y15377000D01*
X-10634000Y15380000D01*
X-10527000Y15567000D01*
X-10475000Y15762000D01*
X-10475000Y15976000D01*
X-10527000Y16173000D01*
X-10634000Y16360000D01*
X-10635000Y16361000D01*
X-10784000Y16509000D01*
X-10787000Y16511000D01*
X-10962000Y16611000D01*
X-10964000Y16612000D01*
X-11170000Y16667000D01*
X-11375000Y16667000D01*
X-11580000Y16612000D01*
X-11762000Y16508000D01*
X-11907000Y16363000D01*
X-11907000Y16362000D01*
X-12015000Y16181000D01*
X-12015000Y16180000D01*
X-12070000Y15975000D01*
X-14192000Y15975000D01*
X-14153000Y16040000D01*
X-14099000Y16245000D01*
X-14099000Y16452000D01*
X-14153000Y16659000D01*
X-14257000Y16835000D01*
X-14262000Y16842000D01*
X-14403000Y16983000D01*
X-14409000Y16987000D01*
X-14587000Y17093000D01*
X-14792000Y17147000D01*
X-15001000Y17147000D01*
X-15206000Y17093000D01*
X-15386000Y16985000D01*
X-15388000Y16984000D01*
X-15533000Y16842000D01*
X-15639000Y16657000D01*
X-15694000Y16452000D01*
X-19149772Y16452000D01*
X-19220000Y16493000D01*
X-19430000Y16550000D01*
X-19638000Y16550000D01*
X-19844000Y16493000D01*
X-20024000Y16390000D01*
X-20172000Y16242000D01*
X-20275000Y16062000D01*
X-20332000Y15856000D01*
X-38520872Y15856000D01*
X-38478000Y15932000D01*
X-38476000Y15935000D01*
X-37305000Y17810000D01*
X-37303000Y17813000D01*
X-36234340Y19365000D01*
X10996000Y19365000D01*
X10996000Y19156000D01*
X11049000Y18955000D01*
X11051000Y18950000D01*
X11158000Y18767000D01*
X11304000Y18621000D01*
X11486000Y18517000D01*
X11691000Y18462000D01*
X11896000Y18462000D01*
X12102000Y18517000D01*
X12101000Y18517000D01*
X12284000Y18622000D01*
X12322000Y18632000D01*
X17458000Y18632000D01*
X17513000Y18609000D01*
X18052000Y18071000D01*
X17975000Y17886000D01*
X12323000Y17886000D01*
X12285000Y17896000D01*
X12104000Y18000000D01*
X11899000Y18057000D01*
X11688000Y18057000D01*
X11483000Y18000000D01*
X11305000Y17898000D01*
X11156000Y17750000D01*
X11155000Y17749000D01*
X11048000Y17562000D01*
X10996000Y17365000D01*
X10996000Y17155000D01*
X10997000Y17151000D01*
X11049000Y16955000D01*
X11051000Y16950000D01*
X11157000Y16768000D01*
X11304000Y16621000D01*
X11486000Y16517000D01*
X11691000Y16462000D01*
X11896000Y16462000D01*
X12102000Y16517000D01*
X12101000Y16517000D01*
X12284000Y16622000D01*
X12322000Y16632000D01*
X22292000Y16632000D01*
X22347000Y16609000D01*
X23541000Y15416000D01*
X23545000Y15412000D01*
X23569000Y15384000D01*
X23570000Y15383000D01*
X23617000Y15357000D01*
X23625000Y15353000D01*
X23677000Y15316000D01*
X23684000Y15312000D01*
X23710000Y15303000D01*
X23722000Y15298000D01*
X23744000Y15286000D01*
X23790000Y15277000D01*
X23798000Y15275000D01*
X23855000Y15257000D01*
X23863000Y15256000D01*
X23895000Y15255000D01*
X23904000Y15254000D01*
X23913000Y15252000D01*
X23913000Y15253000D01*
X23921000Y15252000D01*
X24007000Y15252000D01*
X24045000Y15251000D01*
X24055000Y15252000D01*
X24145000Y15252000D01*
X24200000Y15229000D01*
X32029000Y7401000D01*
X32032000Y7398000D01*
X32075000Y7351000D01*
X32130000Y7320000D01*
X32139000Y7315000D01*
X32188000Y7279000D01*
X32219000Y7269000D01*
X32232000Y7263000D01*
X32253000Y7252000D01*
X32304000Y7241000D01*
X32311000Y7239000D01*
X32367000Y7222000D01*
X32401000Y7221000D01*
X32410000Y7220000D01*
X32419000Y7218000D01*
X32419000Y7219000D01*
X32427000Y7218000D01*
X32514000Y7218000D01*
X32552000Y7217000D01*
X32562000Y7218000D01*
X36656000Y7218000D01*
X36711000Y7195000D01*
X47952000Y-4044000D01*
X47955000Y-4048000D01*
X47997000Y-4095000D01*
X48051000Y-4125000D01*
X48107000Y-4165000D01*
X48141000Y-4176000D01*
X48154000Y-4182000D01*
X48175000Y-4193000D01*
X48226000Y-4204000D01*
X48233000Y-4206000D01*
X48289000Y-4223000D01*
X48323000Y-4224000D01*
X48332000Y-4225000D01*
X48341000Y-4227000D01*
X48341000Y-4226000D01*
X48349000Y-4227000D01*
X48436000Y-4227000D01*
X48474000Y-4228000D01*
X48484000Y-4227000D01*
X58265000Y-4227000D01*
X58320000Y-4250000D01*
X59696000Y-5624000D01*
X59716000Y-5659000D01*
X59768000Y-5858000D01*
X59769000Y-5859000D01*
X59770000Y-5863000D01*
X59877000Y-6046000D01*
X60021000Y-6190000D01*
X60203000Y-6296000D01*
X60205000Y-6297000D01*
X60409000Y-6351000D01*
X60618000Y-6351000D01*
X60815000Y-6299000D01*
X61000000Y-6193000D01*
X61003000Y-6191000D01*
X61150000Y-6043000D01*
X61152000Y-6041000D01*
X61253000Y-5868000D01*
X61310000Y-5659000D01*
X61310000Y-5450000D01*
X61254000Y-5246000D01*
X61150000Y-5064000D01*
X61002000Y-4916000D01*
X60822000Y-4813000D01*
X60615000Y-4755000D01*
X60582000Y-4736000D01*
X59001000Y-3156000D01*
X58998000Y-3152000D01*
X58956000Y-3105000D01*
X58900000Y-3074000D01*
X58892000Y-3069000D01*
X58849000Y-3037000D01*
X58839000Y-3032000D01*
X58813000Y-3024000D01*
X58800000Y-3018000D01*
X58784000Y-3009000D01*
X58777000Y-3007000D01*
X58729000Y-2998000D01*
X58720000Y-2995000D01*
X58662000Y-2977000D01*
X58629000Y-2976000D01*
X58616000Y-2974000D01*
X58614000Y-2974000D01*
X58604000Y-2973000D01*
X58517000Y-2973000D01*
X58476000Y-2972000D01*
X58467000Y-2973000D01*
X48687000Y-2973000D01*
X48632000Y-2950000D01*
X37392000Y8289000D01*
X37389000Y8292000D01*
X37346000Y8339000D01*
X37291000Y8370000D01*
X37282000Y8375000D01*
X37233000Y8411000D01*
X37234000Y8411000D01*
X37202000Y8421000D01*
X37189000Y8427000D01*
X37168000Y8438000D01*
X37117000Y8449000D01*
X37110000Y8451000D01*
X37054000Y8468000D01*
X37020000Y8469000D01*
X37011000Y8470000D01*
X37002000Y8472000D01*
X37002000Y8471000D01*
X36994000Y8472000D01*
X36907000Y8472000D01*
X36866000Y8473000D01*
X36857000Y8472000D01*
X32765000Y8472000D01*
X32710000Y8495000D01*
X31563000Y9641000D01*
X31640000Y9826000D01*
X36646000Y9826000D01*
X36701000Y9803000D01*
X47969000Y-1464000D01*
X47973000Y-1468000D01*
X47996000Y-1495000D01*
X47998000Y-1497000D01*
X48045000Y-1523000D01*
X48053000Y-1527000D01*
X48105000Y-1564000D01*
X48112000Y-1568000D01*
X48138000Y-1577000D01*
X48150000Y-1582000D01*
X48172000Y-1594000D01*
X48218000Y-1603000D01*
X48226000Y-1605000D01*
X48283000Y-1623000D01*
X48291000Y-1624000D01*
X48323000Y-1625000D01*
X48332000Y-1626000D01*
X48341000Y-1628000D01*
X48341000Y-1627000D01*
X48349000Y-1628000D01*
X48435000Y-1628000D01*
X48473000Y-1629000D01*
X48483000Y-1628000D01*
X58591000Y-1628000D01*
X58646000Y-1651000D01*
X63000000Y-6003000D01*
X63003000Y-6006000D01*
X63039000Y-6047000D01*
X63041000Y-6049000D01*
X63088000Y-6075000D01*
X63096000Y-6081000D01*
X63146000Y-6118000D01*
X63185000Y-6130000D01*
X63219000Y-6147000D01*
X63263000Y-6155000D01*
X63272000Y-6158000D01*
X63334000Y-6177000D01*
X63367000Y-6178000D01*
X63376000Y-6179000D01*
X63385000Y-6181000D01*
X63385000Y-6180000D01*
X63393000Y-6181000D01*
X63478000Y-6181000D01*
X63516000Y-6182000D01*
X63522000Y-6181000D01*
X72195000Y-6181000D01*
X72224000Y-6182000D01*
X72268000Y-6170000D01*
X72275000Y-6169000D01*
X72348000Y-6157000D01*
X72373000Y-6144000D01*
X72387000Y-6139000D01*
X72414000Y-6132000D01*
X72419000Y-6130000D01*
X72461000Y-6103000D01*
X72468000Y-6100000D01*
X72518000Y-6075000D01*
X72522000Y-6072000D01*
X72547000Y-6046000D01*
X72562000Y-6035000D01*
X72570000Y-6030000D01*
X76199000Y-2400000D01*
X76233000Y-2380000D01*
X76428000Y-2328000D01*
X76523000Y-2367000D01*
X76632000Y-2557000D01*
X76634000Y-2559000D01*
X76780000Y-2704000D01*
X76849000Y-2738000D01*
X76857000Y-2914000D01*
X76785000Y-2958000D01*
X76779000Y-2963000D01*
X76633000Y-3109000D01*
X76527000Y-3291000D01*
X76526000Y-3293000D01*
X76472000Y-3497000D01*
X76472000Y-3706000D01*
X76524000Y-3903000D01*
X76631000Y-4090000D01*
X76632000Y-4091000D01*
X76781000Y-4239000D01*
X76782000Y-4240000D01*
X76955000Y-4341000D01*
X77165000Y-4398000D01*
X77373000Y-4398000D01*
X77580000Y-4341000D01*
X77579000Y-4341000D01*
X77759000Y-4238000D01*
X77907000Y-4090000D01*
X78010000Y-3911000D01*
X78073000Y-3686000D01*
X78092000Y-3653000D01*
X78812000Y-2933000D01*
X104850000Y-2933000D01*
X104850000Y-3144000D01*
X104907000Y-3349000D01*
X105009000Y-3527000D01*
X105157000Y-3676000D01*
X105158000Y-3677000D01*
X105345000Y-3784000D01*
X105542000Y-3836000D01*
X105751000Y-3836000D01*
X105955000Y-3782000D01*
X105957000Y-3781000D01*
X106139000Y-3675000D01*
X106286000Y-3528000D01*
X106390000Y-3346000D01*
X106445000Y-3141000D01*
X106445000Y-2936000D01*
X106390000Y-2731000D01*
X106301227Y-2575000D01*
X133659000Y-2575000D01*
X133659000Y-2783000D01*
X133716000Y-2990000D01*
X133819000Y-3169000D01*
X133967000Y-3317000D01*
X134147000Y-3420000D01*
X134353000Y-3477000D01*
X134561000Y-3477000D01*
X134771000Y-3420000D01*
X134944000Y-3319000D01*
X135094000Y-3169000D01*
X135202000Y-2982000D01*
X135254000Y-2785000D01*
X135254000Y-2577000D01*
X135201000Y-2375000D01*
X135200000Y-2372000D01*
X135094000Y-2189000D01*
X134948000Y-2043000D01*
X134808925Y-1962000D01*
X136053000Y-1962000D01*
X136053000Y-2172000D01*
X136110000Y-2380000D01*
X136211000Y-2554000D01*
X136361000Y-2704000D01*
X136548000Y-2811000D01*
X136745000Y-2863000D01*
X136954000Y-2863000D01*
X137158000Y-2809000D01*
X137160000Y-2808000D01*
X137342000Y-2702000D01*
X137486000Y-2558000D01*
X137593000Y-2376000D01*
X137595000Y-2370000D01*
X137630597Y-2235000D01*
X148040000Y-2235000D01*
X148040000Y-2441000D01*
X148095000Y-2644000D01*
X148200000Y-2827000D01*
X148346000Y-2973000D01*
X148528000Y-3079000D01*
X148530000Y-3080000D01*
X148734000Y-3134000D01*
X148943000Y-3134000D01*
X149140000Y-3082000D01*
X149325000Y-2976000D01*
X149328000Y-2974000D01*
X149467048Y-2834000D01*
X164318000Y-2834000D01*
X164318000Y-3042000D01*
X164375000Y-3248000D01*
X164478000Y-3427000D01*
X164626000Y-3575000D01*
X164806000Y-3678000D01*
X165012000Y-3735000D01*
X165220000Y-3735000D01*
X165430000Y-3678000D01*
X165603000Y-3577000D01*
X165753000Y-3427000D01*
X165861000Y-3240000D01*
X165913000Y-3043000D01*
X165913000Y-2834000D01*
X165860000Y-2633000D01*
X165858000Y-2628000D01*
X165752000Y-2446000D01*
X165607000Y-2301000D01*
X165608000Y-2301000D01*
X165425000Y-2195000D01*
X165423000Y-2194000D01*
X165219000Y-2140000D01*
X165010000Y-2140000D01*
X164813000Y-2192000D01*
X164626000Y-2299000D01*
X164476000Y-2449000D01*
X164375000Y-2623000D01*
X164318000Y-2834000D01*
X149467048Y-2834000D01*
X149474000Y-2827000D01*
X149476000Y-2825000D01*
X149577000Y-2649000D01*
X149578000Y-2648000D01*
X149635000Y-2444000D01*
X149635000Y-2231000D01*
X149578000Y-2026000D01*
X149476000Y-1848000D01*
X149429315Y-1801000D01*
X161554000Y-1801000D01*
X161554000Y-2008000D01*
X161612000Y-2217000D01*
X161714000Y-2394000D01*
X161862000Y-2542000D01*
X162042000Y-2645000D01*
X162248000Y-2702000D01*
X162456000Y-2702000D01*
X162666000Y-2645000D01*
X162839000Y-2544000D01*
X162989000Y-2395000D01*
X162990000Y-2394000D01*
X163097000Y-2207000D01*
X163149000Y-2010000D01*
X163149000Y-1801000D01*
X163095000Y-1598000D01*
X163095000Y-1597000D01*
X162988000Y-1413000D01*
X162843000Y-1268000D01*
X162661000Y-1162000D01*
X162659000Y-1161000D01*
X162455000Y-1107000D01*
X162246000Y-1107000D01*
X162049000Y-1159000D01*
X161861000Y-1267000D01*
X161860000Y-1268000D01*
X161713000Y-1416000D01*
X161710000Y-1420000D01*
X161611000Y-1590000D01*
X161554000Y-1801000D01*
X149429315Y-1801000D01*
X149328000Y-1699000D01*
X149327000Y-1698000D01*
X149140000Y-1591000D01*
X148943000Y-1539000D01*
X148734000Y-1539000D01*
X148530000Y-1593000D01*
X148528000Y-1594000D01*
X148346000Y-1700000D01*
X148199000Y-1847000D01*
X148095000Y-2029000D01*
X148040000Y-2235000D01*
X137630597Y-2235000D01*
X137648000Y-2169000D01*
X137648000Y-1961000D01*
X137597000Y-1765000D01*
X137597000Y-1763000D01*
X137488000Y-1576000D01*
X137338000Y-1426000D01*
X137165000Y-1325000D01*
X136955000Y-1268000D01*
X136747000Y-1268000D01*
X136541000Y-1325000D01*
X136361000Y-1428000D01*
X136212000Y-1577000D01*
X136110000Y-1756000D01*
X136053000Y-1962000D01*
X134808925Y-1962000D01*
X134766000Y-1937000D01*
X134764000Y-1936000D01*
X134560000Y-1882000D01*
X134351000Y-1882000D01*
X134154000Y-1934000D01*
X133967000Y-2041000D01*
X133817000Y-2191000D01*
X133716000Y-2365000D01*
X133659000Y-2575000D01*
X106301227Y-2575000D01*
X106287000Y-2550000D01*
X106139000Y-2402000D01*
X106140000Y-2402000D01*
X105957000Y-2296000D01*
X105955000Y-2295000D01*
X105751000Y-2241000D01*
X105542000Y-2241000D01*
X105344000Y-2293000D01*
X105157000Y-2401000D01*
X105156000Y-2402000D01*
X105008000Y-2551000D01*
X104907000Y-2728000D01*
X104850000Y-2933000D01*
X78812000Y-2933000D01*
X78861000Y-2884000D01*
X78895000Y-2864000D01*
X79095000Y-2811000D01*
X79281000Y-2704000D01*
X79431000Y-2554000D01*
X79532000Y-2380000D01*
X79589000Y-2172000D01*
X79589000Y-1962000D01*
X79532000Y-1756000D01*
X79430000Y-1577000D01*
X79331000Y-1478000D01*
X107326000Y-1478000D01*
X107326000Y-1687000D01*
X107327000Y-1691000D01*
X107379000Y-1887000D01*
X107381000Y-1892000D01*
X107487000Y-2074000D01*
X107634000Y-2221000D01*
X107816000Y-2325000D01*
X108021000Y-2380000D01*
X108226000Y-2380000D01*
X108432000Y-2325000D01*
X108431000Y-2325000D01*
X108613000Y-2221000D01*
X108760000Y-2074000D01*
X108866000Y-1892000D01*
X108868000Y-1887000D01*
X108920000Y-1691000D01*
X108921000Y-1687000D01*
X108921000Y-1478000D01*
X108870000Y-1282000D01*
X108870000Y-1281000D01*
X108762000Y-1093000D01*
X108761000Y-1092000D01*
X108612000Y-944000D01*
X108434000Y-842000D01*
X108435000Y-842000D01*
X108229000Y-785000D01*
X108018000Y-785000D01*
X107813000Y-842000D01*
X107635000Y-944000D01*
X107486000Y-1092000D01*
X107485000Y-1093000D01*
X107377000Y-1281000D01*
X107377000Y-1282000D01*
X107326000Y-1478000D01*
X79331000Y-1478000D01*
X79281000Y-1428000D01*
X79101000Y-1325000D01*
X79102000Y-1325000D01*
X78895000Y-1268000D01*
X78687000Y-1268000D01*
X78481000Y-1325000D01*
X78301000Y-1428000D01*
X78152000Y-1577000D01*
X78106000Y-1639000D01*
X77958000Y-1641000D01*
X77905000Y-1574000D01*
X77759000Y-1428000D01*
X77582000Y-1325000D01*
X77375000Y-1268000D01*
X77161000Y-1268000D01*
X76972000Y-1321000D01*
X76877000Y-1282000D01*
X76768000Y-1093000D01*
X76767000Y-1092000D01*
X76618000Y-944000D01*
X76440000Y-842000D01*
X76441000Y-842000D01*
X76235000Y-785000D01*
X76024000Y-785000D01*
X75817000Y-842000D01*
X75640000Y-945000D01*
X75496000Y-1090000D01*
X75495000Y-1091000D01*
X75387000Y-1273000D01*
X75332000Y-1478000D01*
X75312000Y-1512000D01*
X71921000Y-4904000D01*
X71866000Y-4927000D01*
X63729000Y-4927000D01*
X63674000Y-4904000D01*
X59337000Y-567000D01*
X59334000Y-563000D01*
X59283000Y-506000D01*
X59282000Y-506000D01*
X59215000Y-468000D01*
X59209000Y-464000D01*
X59168000Y-436000D01*
X59147000Y-429000D01*
X59132000Y-423000D01*
X59107000Y-409000D01*
X59048000Y-397000D01*
X59037000Y-395000D01*
X58992000Y-379000D01*
X58989000Y-379000D01*
X58960000Y-378000D01*
X58948000Y-376000D01*
X58941000Y-375000D01*
X58931000Y-374000D01*
X48686000Y-374000D01*
X48631000Y-351000D01*
X37390000Y10888000D01*
X37387000Y10892000D01*
X37337000Y10948000D01*
X37336000Y10949000D01*
X37270000Y10986000D01*
X37263000Y10991000D01*
X37226000Y11017000D01*
X37221000Y11020000D01*
X37200000Y11026000D01*
X37186000Y11032000D01*
X37164000Y11044000D01*
X37159000Y11046000D01*
X37115000Y11054000D01*
X37106000Y11057000D01*
X37045000Y11076000D01*
X37011000Y11077000D01*
X37002000Y11078000D01*
X36993000Y11080000D01*
X36993000Y11079000D01*
X36985000Y11080000D01*
X36897000Y11080000D01*
X36856000Y11081000D01*
X36847000Y11080000D01*
X31882000Y11080000D01*
X31827000Y11103000D01*
X27565413Y15364000D01*
X29362000Y15364000D01*
X29362000Y15153000D01*
X29416000Y14948000D01*
X29523000Y14769000D01*
X29525000Y14767000D01*
X29669000Y14622000D01*
X29670000Y14621000D01*
X29852000Y14517000D01*
X30057000Y14462000D01*
X30262000Y14462000D01*
X30468000Y14517000D01*
X30467000Y14517000D01*
X30649000Y14621000D01*
X30796000Y14768000D01*
X30902000Y14950000D01*
X30904000Y14954000D01*
X30904000Y14955000D01*
X30957000Y15156000D01*
X30957000Y15365000D01*
X30905000Y15562000D01*
X30798000Y15749000D01*
X30797000Y15750000D01*
X30648000Y15898000D01*
X30470000Y16000000D01*
X30471000Y16000000D01*
X30265000Y16057000D01*
X30054000Y16057000D01*
X29847000Y16000000D01*
X29670000Y15897000D01*
X29526000Y15753000D01*
X29525000Y15751000D01*
X29417000Y15570000D01*
X29417000Y15569000D01*
X29362000Y15364000D01*
X27565413Y15364000D01*
X26345245Y16584000D01*
X32943000Y16584000D01*
X32943000Y16327000D01*
X33012000Y16069000D01*
X33013000Y16068000D01*
X33140000Y15847000D01*
X33147000Y15837000D01*
X33328000Y15659000D01*
X33331000Y15657000D01*
X33554000Y15529000D01*
X33811000Y15460000D01*
X34067000Y15460000D01*
X34325000Y15529000D01*
X34324000Y15529000D01*
X34551000Y15660000D01*
X35304000Y16412000D01*
X35444000Y16552000D01*
X35573000Y16776000D01*
X35642000Y17034000D01*
X35642000Y17291000D01*
X35573000Y17548000D01*
X35442000Y17775000D01*
X35257000Y17960000D01*
X35028000Y18093000D01*
X34776000Y18158000D01*
X34516000Y18158000D01*
X34261000Y18090000D01*
X34033000Y17957000D01*
X33142000Y17067000D01*
X33141000Y17066000D01*
X33012000Y16841000D01*
X32943000Y16584000D01*
X26345245Y16584000D01*
X24569000Y18360000D01*
X24566000Y18363000D01*
X24523000Y18410000D01*
X24468000Y18441000D01*
X24459000Y18446000D01*
X24410000Y18482000D01*
X24411000Y18482000D01*
X24379000Y18492000D01*
X24366000Y18498000D01*
X24345000Y18509000D01*
X24294000Y18520000D01*
X24287000Y18522000D01*
X24231000Y18539000D01*
X24197000Y18540000D01*
X24188000Y18541000D01*
X24179000Y18543000D01*
X24179000Y18542000D01*
X24171000Y18543000D01*
X24084000Y18543000D01*
X24043000Y18544000D01*
X24034000Y18543000D01*
X19387000Y18543000D01*
X19332000Y18566000D01*
X18625760Y19271000D01*
X35630000Y19271000D01*
X35630000Y19014000D01*
X35699000Y18757000D01*
X35827000Y18534000D01*
X35834000Y18524000D01*
X36015000Y18346000D01*
X36241000Y18216000D01*
X36498000Y18147000D01*
X36754000Y18147000D01*
X37012000Y18216000D01*
X37011000Y18216000D01*
X37238000Y18347000D01*
X37991000Y19099000D01*
X38131000Y19239000D01*
X38260000Y19464000D01*
X38329000Y19721000D01*
X38329000Y19978000D01*
X38260000Y20235000D01*
X38130000Y20461000D01*
X37949000Y20642000D01*
X37943000Y20646000D01*
X37717000Y20780000D01*
X37718000Y20780000D01*
X37465000Y20845000D01*
X37203000Y20845000D01*
X36948000Y20777000D01*
X36720000Y20644000D01*
X35829000Y19754000D01*
X35828000Y19753000D01*
X35699000Y19528000D01*
X35630000Y19271000D01*
X18625760Y19271000D01*
X18193000Y19703000D01*
X18190000Y19707000D01*
X18148000Y19754000D01*
X18101000Y19779000D01*
X18092000Y19784000D01*
X18035000Y19825000D01*
X18005000Y19835000D01*
X17993000Y19840000D01*
X17969000Y19853000D01*
X17970000Y19853000D01*
X17924000Y19862000D01*
X17917000Y19864000D01*
X17855000Y19883000D01*
X17822000Y19884000D01*
X17820000Y19884000D01*
X17811000Y19885000D01*
X17800000Y19886000D01*
X17745000Y19886000D01*
X17670000Y19888000D01*
X17652000Y19886000D01*
X16298000Y19886000D01*
X16210000Y19974000D01*
X16210000Y20212000D01*
X16137000Y20479000D01*
X16296000Y20602000D01*
X16442000Y20518000D01*
X16447000Y20516000D01*
X16651000Y20462000D01*
X16860000Y20462000D01*
X17057000Y20514000D01*
X17244000Y20621000D01*
X17245000Y20622000D01*
X17391000Y20769000D01*
X17394000Y20772000D01*
X17495000Y20945000D01*
X17552000Y21155000D01*
X17552000Y21363000D01*
X17496000Y21567000D01*
X17392000Y21749000D01*
X17244000Y21897000D01*
X17064000Y22000000D01*
X17065000Y22000000D01*
X16858000Y22057000D01*
X16650000Y22057000D01*
X16440000Y22000000D01*
X16267000Y21899000D01*
X16266000Y21898000D01*
X16117000Y21750000D01*
X16116000Y21749000D01*
X16008000Y21562000D01*
X16008000Y21560000D01*
X15957000Y21365000D01*
X15957000Y21156000D01*
X16029000Y20886000D01*
X15870000Y20764000D01*
X15722000Y20849000D01*
X15723000Y20849000D01*
X15516000Y20906000D01*
X15308000Y20906000D01*
X15102000Y20849000D01*
X14922000Y20746000D01*
X14774000Y20598000D01*
X14667000Y20411000D01*
X14615000Y20214000D01*
X14615000Y19974000D01*
X14527000Y19886000D01*
X12323000Y19886000D01*
X12285000Y19896000D01*
X12104000Y20000000D01*
X12105000Y20000000D01*
X11899000Y20057000D01*
X11688000Y20057000D01*
X11483000Y20000000D01*
X11305000Y19898000D01*
X11156000Y19750000D01*
X11154000Y19747000D01*
X11048000Y19562000D01*
X10996000Y19365000D01*
X-36234340Y19365000D01*
X-36056000Y19624000D01*
X-36054000Y19626000D01*
X-35200777Y20752000D01*
X-20988000Y20752000D01*
X-20988000Y20542000D01*
X-20931000Y20335000D01*
X-20828000Y20158000D01*
X-20683000Y20014000D01*
X-20681000Y20012000D01*
X-20501000Y19905000D01*
X-20295000Y19850000D01*
X-20084000Y19850000D01*
X-19880000Y19904000D01*
X-19702000Y20010000D01*
X-19699000Y20012000D01*
X-19553000Y20157000D01*
X-19552000Y20158000D01*
X-19448000Y20340000D01*
X-19393000Y20544000D01*
X-19393000Y20750000D01*
X-19447000Y20953000D01*
X-19552000Y21137000D01*
X-19699000Y21284000D01*
X-19881000Y21390000D01*
X-19883000Y21391000D01*
X-20087000Y21445000D01*
X-20296000Y21445000D01*
X-20493000Y21393000D01*
X-20680000Y21286000D01*
X-20681000Y21285000D01*
X-20829000Y21136000D01*
X-20932000Y20956000D01*
X-20933000Y20953000D01*
X-20988000Y20752000D01*
X-35200777Y20752000D01*
X-34709000Y21401000D01*
X-34706000Y21404000D01*
X-33632986Y22693000D01*
X26834000Y22693000D01*
X26834000Y22437000D01*
X26904000Y22177000D01*
X27033000Y21954000D01*
X27211000Y21773000D01*
X27221000Y21766000D01*
X27444000Y21638000D01*
X27451000Y21635000D01*
X27523000Y21613000D01*
X27576000Y21479000D01*
X27437000Y21238000D01*
X27437000Y21236000D01*
X27386000Y21040000D01*
X27386000Y20832000D01*
X27439000Y20631000D01*
X27441000Y20626000D01*
X27547000Y20444000D01*
X27692000Y20299000D01*
X27874000Y20193000D01*
X27876000Y20192000D01*
X28080000Y20138000D01*
X28289000Y20138000D01*
X28486000Y20190000D01*
X28673000Y20297000D01*
X28674000Y20298000D01*
X28822000Y20447000D01*
X28823000Y20448000D01*
X28924000Y20621000D01*
X28981000Y20831000D01*
X28981000Y21039000D01*
X28924000Y21245000D01*
X28821000Y21425000D01*
X28673000Y21573000D01*
X28670000Y21575000D01*
X28507000Y21667000D01*
X28487000Y21815000D01*
X28582261Y21910000D01*
X33495000Y21910000D01*
X33495000Y21699000D01*
X33550000Y21494000D01*
X33658000Y21313000D01*
X33660000Y21310000D01*
X33803000Y21167000D01*
X33980000Y21064000D01*
X34187000Y21007000D01*
X34398000Y21007000D01*
X34604000Y21064000D01*
X34603000Y21064000D01*
X34778000Y21164000D01*
X34781000Y21166000D01*
X34930000Y21314000D01*
X34931000Y21315000D01*
X35038000Y21502000D01*
X35090000Y21699000D01*
X35090000Y21911000D01*
X35038000Y22108000D01*
X34931000Y22295000D01*
X34930000Y22296000D01*
X34781000Y22444000D01*
X34778000Y22446000D01*
X34603000Y22546000D01*
X34601000Y22547000D01*
X34395000Y22602000D01*
X34190000Y22602000D01*
X33985000Y22547000D01*
X33803000Y22443000D01*
X33658000Y22298000D01*
X33658000Y22297000D01*
X33550000Y22115000D01*
X33495000Y21910000D01*
X28582261Y21910000D01*
X29217000Y22543000D01*
X29218000Y22543000D01*
X29332000Y22660000D01*
X29334000Y22662000D01*
X29466000Y22889000D01*
X29532000Y23141000D01*
X29532000Y23404000D01*
X29467000Y23657000D01*
X29335000Y23880000D01*
X29330000Y23887000D01*
X29149000Y24068000D01*
X28922000Y24199000D01*
X28923000Y24199000D01*
X28665000Y24268000D01*
X28409000Y24268000D01*
X28151000Y24199000D01*
X27926000Y24070000D01*
X27925000Y24069000D01*
X27034000Y23177000D01*
X26903000Y22950000D01*
X26834000Y22693000D01*
X-33632986Y22693000D01*
X-33310000Y23081000D01*
X-33308000Y23084000D01*
X-31971123Y24542000D01*
X15957000Y24542000D01*
X15957000Y24333000D01*
X16009000Y24136000D01*
X16116000Y23949000D01*
X16117000Y23948000D01*
X16266000Y23800000D01*
X16267000Y23799000D01*
X16440000Y23698000D01*
X16650000Y23641000D01*
X16858000Y23641000D01*
X17065000Y23698000D01*
X17064000Y23698000D01*
X17244000Y23801000D01*
X17392000Y23949000D01*
X17495000Y24128000D01*
X17552000Y24335000D01*
X17552000Y24543000D01*
X17495000Y24753000D01*
X17394000Y24926000D01*
X17393000Y24927000D01*
X17245000Y25076000D01*
X17244000Y25077000D01*
X17057000Y25184000D01*
X16860000Y25236000D01*
X16651000Y25236000D01*
X16447000Y25182000D01*
X16445000Y25181000D01*
X16263000Y25075000D01*
X16118000Y24930000D01*
X16012000Y24748000D01*
X16010000Y24743000D01*
X15957000Y24542000D01*
X-31971123Y24542000D01*
X-31829000Y24697000D01*
X-31826000Y24700000D01*
X-31131957Y25380000D01*
X29521000Y25380000D01*
X29521000Y25124000D01*
X29590000Y24867000D01*
X29720000Y24641000D01*
X29898000Y24460000D01*
X29908000Y24453000D01*
X30131000Y24325000D01*
X30388000Y24256000D01*
X30645000Y24256000D01*
X30903000Y24325000D01*
X30902000Y24325000D01*
X31129000Y24456000D01*
X31904000Y25230000D01*
X31905000Y25230000D01*
X32019000Y25347000D01*
X32151000Y25573000D01*
X32220000Y25830000D01*
X32220000Y26088000D01*
X32152000Y26344000D01*
X32149000Y26351000D01*
X32022000Y26568000D01*
X32019000Y26572000D01*
X31836000Y26755000D01*
X31609000Y26886000D01*
X31610000Y26886000D01*
X31352000Y26955000D01*
X31096000Y26955000D01*
X30838000Y26886000D01*
X30613000Y26757000D01*
X30612000Y26756000D01*
X29721000Y25864000D01*
X29590000Y25637000D01*
X29521000Y25380000D01*
X-31131957Y25380000D01*
X-29948000Y26540000D01*
X-29945000Y26543000D01*
X-29643623Y26805000D01*
X14615000Y26805000D01*
X14615000Y26600000D01*
X14670000Y26394000D01*
X14671000Y26393000D01*
X14774000Y26213000D01*
X14921000Y26066000D01*
X15103000Y25960000D01*
X15105000Y25959000D01*
X15309000Y25905000D01*
X15518000Y25905000D01*
X15715000Y25957000D01*
X15902000Y26064000D01*
X15903000Y26065000D01*
X16051000Y26214000D01*
X16153000Y26392000D01*
X16210000Y26597000D01*
X16210000Y26808000D01*
X16153000Y27015000D01*
X16050000Y27192000D01*
X15906000Y27337000D01*
X15904000Y27337000D01*
X15723000Y27445000D01*
X15722000Y27445000D01*
X15517000Y27500000D01*
X15306000Y27500000D01*
X15101000Y27446000D01*
X14922000Y27339000D01*
X14920000Y27337000D01*
X14775000Y27193000D01*
X14774000Y27192000D01*
X14670000Y27010000D01*
X14669000Y27007000D01*
X14615000Y26805000D01*
X-29643623Y26805000D01*
X-27978000Y28253000D01*
X-27974000Y28255000D01*
X-25867000Y29883000D01*
X-25864000Y29885000D01*
X-23692000Y31376000D01*
X-23689000Y31378000D01*
X-21412000Y32760000D01*
X-21409000Y32762000D01*
X-19050000Y34025000D01*
X-19046000Y34027000D01*
X-16650000Y35147000D01*
X-16646000Y35148000D01*
X-14178000Y36139000D01*
X-14174000Y36140000D01*
X-11654000Y36995000D01*
X-11650000Y36996000D01*
X-9127000Y37696000D01*
X-9123000Y37697000D01*
X-6542000Y38255000D01*
X-6538000Y38256000D01*
X-3976000Y38651000D01*
X-3972000Y38651000D01*
X-3211000Y38728000D01*
X-3209000Y38729000D01*
X-2325000Y38794000D01*
X-2324000Y38794000D01*
X-1295000Y38848000D01*
X-1293000Y38846000D01*
X-309000Y38882000D01*
X-308000Y38882000D01*
X780000Y38905000D01*
X781000Y38905000D01*
X1894000Y38915000D01*
X1895000Y38915000D01*
X3004000Y38910000D01*
X3005000Y38910000D01*
X4095000Y38891000D01*
X4096000Y38891000D01*
X5140000Y38858000D01*
X5142000Y38858000D01*
X6124000Y38810000D01*
X6126000Y38810000D01*
X7002000Y38749000D01*
X7004000Y38748000D01*
X7777000Y38671000D01*
X7781000Y38671000D01*
X10385000Y38274000D01*
X10389000Y38273000D01*
X12982000Y37720000D01*
X12987000Y37719000D01*
X15577000Y37008000D01*
X15581000Y37007000D01*
X18123000Y36152000D01*
X18127000Y36150000D01*
X20598000Y35163000D01*
X20601000Y35161000D01*
X23044000Y34025000D01*
X23048000Y34023000D01*
X25415000Y32758000D01*
X25418000Y32756000D01*
X27698000Y31371000D01*
X27701000Y31369000D01*
X29910000Y29850000D01*
X29913000Y29848000D01*
X32003000Y28228000D01*
X32006000Y28225000D01*
X33982000Y26498000D01*
X33986000Y26495000D01*
X35865000Y24641000D01*
X35868000Y24638000D01*
X36713000Y23733000D01*
X36714000Y23731000D01*
X37544000Y22801000D01*
X37545000Y22800000D01*
X38335000Y21867000D01*
X38336000Y21866000D01*
X39087000Y20931000D01*
X39088000Y20930000D01*
X39822000Y19968000D01*
X39823000Y19967000D01*
X40521000Y19000000D01*
X40522000Y18998000D01*
X41186000Y18025000D01*
X41188000Y18023000D01*
X41831000Y17024000D01*
X41832000Y17023000D01*
X42456000Y15996000D01*
X42457000Y15994000D01*
X43052000Y14956000D01*
X43053000Y14954000D01*
X43625000Y13892000D01*
X43626000Y13891000D01*
X44177000Y12806000D01*
X44178000Y12804000D01*
X44538000Y12049000D01*
X44539000Y12047000D01*
X44919000Y11188000D01*
X44920000Y11187000D01*
X45301000Y10276000D01*
X45301000Y10275000D01*
X45687000Y9304000D01*
X45687000Y9303000D01*
X46064000Y8310000D01*
X46065000Y8309000D01*
X46428000Y7305000D01*
X46429000Y7303000D01*
X46772000Y6308000D01*
X46772000Y6307000D01*
X47090000Y5338000D01*
X47090000Y5337000D01*
X47361000Y4461000D01*
X47364000Y4459000D01*
X47620000Y3563000D01*
X47621000Y3562000D01*
X47825000Y2778000D01*
X47826000Y2775000D01*
X47974000Y2117000D01*
X47974000Y2114000D01*
X48273000Y551000D01*
X78859000Y551000D01*
X78947000Y463000D01*
X78947000Y190000D01*
X78999000Y-5000D01*
X79106000Y-192000D01*
X79107000Y-193000D01*
X79256000Y-341000D01*
X79259000Y-343000D01*
X79434000Y-443000D01*
X79436000Y-444000D01*
X79642000Y-499000D01*
X79847000Y-499000D01*
X80053000Y-444000D01*
X80052000Y-444000D01*
X80234000Y-340000D01*
X80379000Y-195000D01*
X80487000Y-13000D01*
X80542000Y193000D01*
X80542000Y462000D01*
X80630000Y550000D01*
X111473000Y550000D01*
X111561000Y462000D01*
X111561000Y219000D01*
X111613000Y24000D01*
X111720000Y-163000D01*
X111868000Y-311000D01*
X112055000Y-418000D01*
X112252000Y-470000D01*
X112464000Y-470000D01*
X112661000Y-418000D01*
X112848000Y-311000D01*
X112996000Y-163000D01*
X113099000Y16000D01*
X113156000Y221000D01*
X113156000Y462000D01*
X113244000Y550000D01*
X127712000Y551000D01*
X139639000Y550000D01*
X139673000Y288000D01*
X139398000Y216000D01*
X139211000Y109000D01*
X139210000Y108000D01*
X139062000Y-41000D01*
X139059000Y-45000D01*
X138960000Y-215000D01*
X138903000Y-425000D01*
X138903000Y-635000D01*
X138960000Y-840000D01*
X139063000Y-1019000D01*
X139211000Y-1167000D01*
X139391000Y-1270000D01*
X139597000Y-1327000D01*
X139805000Y-1327000D01*
X140015000Y-1270000D01*
X140188000Y-1169000D01*
X140189000Y-1168000D01*
X140338000Y-1020000D01*
X140339000Y-1019000D01*
X140446000Y-832000D01*
X140498000Y-635000D01*
X140498000Y-426000D01*
X140444000Y-223000D01*
X140443000Y-220000D01*
X140337000Y-38000D01*
X140192000Y107000D01*
X140010000Y213000D01*
X140008000Y214000D01*
X139724000Y289000D01*
X139758000Y550000D01*
X140719000Y550000D01*
X151203000Y544000D01*
X159446000Y526000D01*
X165730000Y493000D01*
X170335000Y440000D01*
X170336000Y440000D01*
X173554000Y362000D01*
X173556000Y362000D01*
X175632000Y256000D01*
X175636000Y255000D01*
X176902000Y114000D01*
X176911000Y112000D01*
X177582000Y-53000D01*
X177597000Y-58000D01*
X178043000Y-273000D01*
X178047000Y-275000D01*
X178519000Y-538000D01*
X178520000Y-539000D01*
X179241000Y-964000D01*
X179249000Y-969000D01*
X179918000Y-1481000D01*
X179925000Y-1487000D01*
X180538000Y-2074000D01*
X180543000Y-2080000D01*
X181096000Y-2736000D01*
X181101000Y-2742000D01*
X181586000Y-3452000D01*
X181590000Y-3459000D01*
X182008000Y-4223000D01*
X182012000Y-4230000D01*
X182355000Y-5036000D01*
X182358000Y-5043000D01*
X182622000Y-5877000D01*
X182624000Y-5885000D01*
X182801000Y-6730000D01*
X182802000Y-6737000D01*
X182895000Y-7612000D01*
X182895000Y-7620000D01*
X182893000Y-8489000D01*
X182893000Y-8497000D01*
X182795000Y-9351000D01*
X182793000Y-9358000D01*
X182614000Y-10188000D01*
X182612000Y-10195000D01*
X182366000Y-10980000D01*
X182364000Y-10987000D01*
X182053000Y-11729000D01*
X182050000Y-11736000D01*
X181681000Y-12422000D01*
X181678000Y-12428000D01*
X181239000Y-13085000D01*
X181234000Y-13091000D01*
X180744000Y-13689000D01*
X180739000Y-13694000D01*
X180183000Y-14252000D01*
X180177000Y-14256000D01*
X179574000Y-14754000D01*
X179568000Y-14758000D01*
X178897000Y-15210000D01*
X178891000Y-15214000D01*
X178157000Y-15617000D01*
X178151000Y-15620000D01*
X177396000Y-15951000D01*
X177390000Y-15953000D01*
X176557000Y-16237000D01*
X176546000Y-16240000D01*
X176221000Y-16299000D01*
X176214000Y-16300000D01*
X175489000Y-16358000D01*
X175486000Y-16358000D01*
X174224000Y-16407000D01*
X174223000Y-16407000D01*
X172269000Y-16446000D01*
X172268000Y-16446000D01*
X169453000Y-16478000D01*
X165619000Y-16502000D01*
X160597000Y-16521000D01*
X154227000Y-16534000D01*
X146342000Y-16542000D01*
X136778000Y-16547000D01*
X125373000Y-16549000D01*
X111961000Y-16550000D01*
X98022000Y-16551000D01*
X86281000Y-16553000D01*
X76549000Y-16558000D01*
X68637000Y-16567000D01*
X62359000Y-16581000D01*
X57530000Y-16600000D01*
X53956000Y-16626000D01*
X51452000Y-16660000D01*
X49831000Y-16702000D01*
X48882000Y-16756000D01*
X48397000Y-16827000D01*
X48162000Y-17007000D01*
X48128000Y-17352000D01*
X48127000Y-17358000D01*
X48062000Y-17709000D01*
X48062000Y-17712000D01*
X47953000Y-18208000D01*
X47953000Y-18209000D01*
X47815000Y-18787000D01*
X47814000Y-18789000D01*
X47637000Y-19484000D01*
X47635000Y-19486000D01*
X47480000Y-20067000D01*
X47481000Y-20068000D01*
X47259000Y-20864000D01*
X47049000Y-21592000D01*
X47049000Y-21593000D01*
X46836000Y-22303000D01*
X46835000Y-22303000D01*
X46626000Y-22972000D01*
X46626000Y-22973000D01*
X46427000Y-23578000D01*
X46427000Y-23579000D01*
X46248000Y-24086000D01*
X46247000Y-24088000D01*
X45773000Y-25305000D01*
X45772000Y-25307000D01*
X45249000Y-26532000D01*
X45248000Y-26534000D01*
X44676000Y-27774000D01*
X44675000Y-27776000D01*
X44061000Y-29013000D01*
X44060000Y-29015000D01*
X43398000Y-30270000D01*
X43397000Y-30272000D01*
X42704000Y-31505000D01*
X42703000Y-31507000D01*
X41978000Y-32724000D01*
X41977000Y-32725000D01*
X41227000Y-33914000D01*
X41226000Y-33916000D01*
X40453000Y-35069000D01*
X40452000Y-35071000D01*
X39669000Y-36172000D01*
X39667000Y-36174000D01*
X38857000Y-37243000D01*
X38855000Y-37245000D01*
X38044000Y-38244000D01*
X38042000Y-38247000D01*
X36121000Y-40400000D01*
X36118000Y-40403000D01*
X34076000Y-42421000D01*
X34072000Y-42425000D01*
X31889000Y-44329000D01*
X31885000Y-44332000D01*
X29621000Y-46070000D01*
X29617000Y-46073000D01*
X27218000Y-47690000D01*
X27214000Y-47692000D01*
X24721000Y-49157000D01*
X24717000Y-49160000D01*
X22161000Y-50461000D01*
X22157000Y-50463000D01*
X19485000Y-51623000D01*
X19480000Y-51625000D01*
X16723000Y-52630000D01*
X16719000Y-52631000D01*
X13921000Y-53464000D01*
X13916000Y-53466000D01*
X11007000Y-54146000D01*
X11003000Y-54146000D01*
X8063000Y-54653000D01*
X8059000Y-54654000D01*
X7340000Y-54737000D01*
X7337000Y-54737000D01*
X6501000Y-54804000D01*
X6499000Y-54806000D01*
X5381000Y-54868000D01*
X5379000Y-54866000D01*
X4341000Y-54903000D01*
X4340000Y-54903000D01*
X3185000Y-54927000D01*
X3184000Y-54927000D01*
X2001000Y-54935000D01*
X1999000Y-54935000D01*
X816000Y-54927000D01*
X815000Y-54927000D01*
X-340000Y-54903000D01*
X-341000Y-54903000D01*
X-1379000Y-54866000D01*
X-1381000Y-54868000D01*
X-2499000Y-54806000D01*
X-2501000Y-54804000D01*
X-3337000Y-54737000D01*
X-3340000Y-54737000D01*
X-4050000Y-54655000D01*
X-4054000Y-54654000D01*
X-7984000Y-53940000D01*
X-7990000Y-53939000D01*
X-11795000Y-52930000D01*
X-11801000Y-52928000D01*
X-15454000Y-51640000D01*
X-15459000Y-51638000D01*
X-18421261Y-50319000D01*
X12830000Y-50319000D01*
X12830000Y-50528000D01*
X12883000Y-50729000D01*
X12885000Y-50734000D01*
X12991000Y-50916000D01*
X13138000Y-51063000D01*
X13320000Y-51167000D01*
X13525000Y-51222000D01*
X13730000Y-51222000D01*
X13936000Y-51167000D01*
X13935000Y-51167000D01*
X14117000Y-51063000D01*
X14118000Y-51062000D01*
X14262000Y-50917000D01*
X14264000Y-50915000D01*
X14371000Y-50736000D01*
X14425000Y-50531000D01*
X14425000Y-50320000D01*
X14370000Y-50115000D01*
X14370000Y-50114000D01*
X14262000Y-49933000D01*
X14261000Y-49931000D01*
X14117000Y-49787000D01*
X13940000Y-49684000D01*
X13733000Y-49627000D01*
X13522000Y-49627000D01*
X13317000Y-49684000D01*
X13139000Y-49786000D01*
X12990000Y-49934000D01*
X12989000Y-49935000D01*
X12882000Y-50122000D01*
X12830000Y-50319000D01*
X-18421261Y-50319000D01*
X-18967000Y-50076000D01*
X-18972000Y-50073000D01*
X-22328000Y-48241000D01*
X-22333000Y-48238000D01*
X-25510000Y-46152000D01*
X-25515000Y-46148000D01*
X-27083381Y-44924000D01*
X-3744000Y-44924000D01*
X-3744000Y-45129000D01*
X-3689000Y-45334000D01*
X-3583000Y-45519000D01*
X-3438000Y-45661000D01*
X-3436000Y-45662000D01*
X-3256000Y-45770000D01*
X-3051000Y-45824000D01*
X-2842000Y-45824000D01*
X-2637000Y-45770000D01*
X-2457000Y-45662000D01*
X-2455000Y-45661000D01*
X-2310000Y-45519000D01*
X-2204000Y-45334000D01*
X-2149000Y-45129000D01*
X-2149000Y-44971000D01*
X-2031000Y-44881000D01*
X-1930000Y-44908000D01*
X-1723000Y-44908000D01*
X-1519000Y-44854000D01*
X-1517000Y-44853000D01*
X-1335000Y-44747000D01*
X-1190000Y-44602000D01*
X-1084000Y-44420000D01*
X-1082000Y-44415000D01*
X-1029000Y-44214000D01*
X-1029000Y-44005000D01*
X-1080000Y-43810000D01*
X-1080000Y-43808000D01*
X-1188000Y-43621000D01*
X-1189000Y-43620000D01*
X-1338000Y-43472000D01*
X-1339000Y-43471000D01*
X-1512000Y-43370000D01*
X-1722000Y-43313000D01*
X-1930000Y-43313000D01*
X-2136000Y-43370000D01*
X-2316000Y-43473000D01*
X-2464000Y-43621000D01*
X-2567000Y-43801000D01*
X-2624000Y-44007000D01*
X-2624000Y-44166000D01*
X-2741000Y-44256000D01*
X-2842000Y-44229000D01*
X-3049000Y-44229000D01*
X-3254000Y-44284000D01*
X-3436000Y-44388000D01*
X-3585000Y-44537000D01*
X-3689000Y-44719000D01*
X-3744000Y-44924000D01*
X-27083381Y-44924000D01*
X-28498000Y-43820000D01*
X-28502000Y-43816000D01*
X-31168405Y-41360000D01*
X-10624000Y-41360000D01*
X-10624000Y-41565000D01*
X-10569000Y-41770000D01*
X-10465000Y-41952000D01*
X-10316000Y-42101000D01*
X-10134000Y-42205000D01*
X-9929000Y-42260000D01*
X-9724000Y-42260000D01*
X-9518000Y-42205000D01*
X-9519000Y-42205000D01*
X-9334000Y-42099000D01*
X-9335000Y-42099000D01*
X-9192000Y-41954000D01*
X-9191000Y-41952000D01*
X-9083000Y-41772000D01*
X-9029000Y-41567000D01*
X-9029000Y-41358000D01*
X-9083000Y-41153000D01*
X-9187000Y-40977000D01*
X-9193000Y-40969000D01*
X-9333000Y-40829000D01*
X-9339000Y-40825000D01*
X-9517000Y-40719000D01*
X-9722000Y-40665000D01*
X-9931000Y-40665000D01*
X-10136000Y-40719000D01*
X-10316000Y-40827000D01*
X-10318000Y-40828000D01*
X-10463000Y-40970000D01*
X-10569000Y-41155000D01*
X-10624000Y-41360000D01*
X-31168405Y-41360000D01*
X-31290000Y-41248000D01*
X-31294000Y-41244000D01*
X-31835390Y-40656000D01*
X11359000Y-40656000D01*
X11359000Y-40861000D01*
X11414000Y-41067000D01*
X11415000Y-41069000D01*
X11515000Y-41244000D01*
X11518000Y-41248000D01*
X11665000Y-41396000D01*
X11666000Y-41397000D01*
X11853000Y-41504000D01*
X12050000Y-41556000D01*
X12262000Y-41556000D01*
X12459000Y-41504000D01*
X12646000Y-41397000D01*
X12647000Y-41396000D01*
X12794000Y-41248000D01*
X12897000Y-41069000D01*
X12954000Y-40864000D01*
X12954000Y-40653000D01*
X19884000Y-40653000D01*
X19884000Y-40864000D01*
X19941000Y-41069000D01*
X20044000Y-41248000D01*
X20191000Y-41396000D01*
X20192000Y-41397000D01*
X20379000Y-41504000D01*
X20576000Y-41556000D01*
X20788000Y-41556000D01*
X20985000Y-41504000D01*
X21172000Y-41397000D01*
X21173000Y-41396000D01*
X21320000Y-41248000D01*
X21323000Y-41244000D01*
X21423000Y-41069000D01*
X21424000Y-41067000D01*
X21479000Y-40861000D01*
X21479000Y-40656000D01*
X21425000Y-40454000D01*
X21424000Y-40451000D01*
X21320000Y-40269000D01*
X21176000Y-40125000D01*
X21174000Y-40124000D01*
X20993000Y-40016000D01*
X20992000Y-40016000D01*
X20787000Y-39961000D01*
X20577000Y-39961000D01*
X20371000Y-40016000D01*
X20190000Y-40124000D01*
X20188000Y-40125000D01*
X20044000Y-40269000D01*
X19941000Y-40446000D01*
X19884000Y-40653000D01*
X12954000Y-40653000D01*
X12897000Y-40446000D01*
X12794000Y-40269000D01*
X12650000Y-40125000D01*
X12648000Y-40124000D01*
X12467000Y-40016000D01*
X12466000Y-40016000D01*
X12261000Y-39961000D01*
X12051000Y-39961000D01*
X11845000Y-40016000D01*
X11664000Y-40124000D01*
X11662000Y-40125000D01*
X11518000Y-40269000D01*
X11414000Y-40451000D01*
X11413000Y-40454000D01*
X11359000Y-40656000D01*
X-31835390Y-40656000D01*
X-33861000Y-38456000D01*
X-33865000Y-38452000D01*
X-36215000Y-35434000D01*
X-36219000Y-35429000D01*
X-38322000Y-32211000D01*
X-38325000Y-32206000D01*
X-40173000Y-28795000D01*
X-40174000Y-28792000D01*
X-40368000Y-28394000D01*
X-40563000Y-27984000D01*
X-40563000Y-27983000D01*
X-40762000Y-27555000D01*
X-40960000Y-27123000D01*
X-40961000Y-27123000D01*
X-41149000Y-26704000D01*
X-41151000Y-26701000D01*
X-41346000Y-26258000D01*
X-41347000Y-26258000D01*
X-41528000Y-25839000D01*
X-41684000Y-25475000D01*
X-41686000Y-25474000D01*
X-41863000Y-25051000D01*
X-42009000Y-24696000D01*
X-42009000Y-24695000D01*
X-42138000Y-24372000D01*
X-42139000Y-24371000D01*
X-42247000Y-24089000D01*
X-42248000Y-24087000D01*
X-42430000Y-23571000D01*
X-42430000Y-23569000D01*
X-42628000Y-22967000D01*
X-42628000Y-22966000D01*
X-42836000Y-22299000D01*
X-42837000Y-22299000D01*
X-43050000Y-21589000D01*
X-43050000Y-21588000D01*
X-43260000Y-20860000D01*
X-43462000Y-20135000D01*
X-43462000Y-20134000D01*
X-43649000Y-19435000D01*
X-43814000Y-18789000D01*
X-43815000Y-18787000D01*
X-43955000Y-18201000D01*
X-43955000Y-18200000D01*
X-44062000Y-17712000D01*
X-44062000Y-17709000D01*
X-44127000Y-17358000D01*
X-44128000Y-17351000D01*
X-44137000Y-17247000D01*
X-44020000Y-17147000D01*
X-43934000Y-17168000D01*
X-43929000Y-17169000D01*
X-43876000Y-17186000D01*
X-43846000Y-17187000D01*
X-43834000Y-17189000D01*
X-43827000Y-17190000D01*
X-43817000Y-17191000D01*
X-33189000Y-17191000D01*
X-33134000Y-17214000D01*
X-11801000Y-38546000D01*
X-11798000Y-38549000D01*
X-11745000Y-38607000D01*
X-11743000Y-38608000D01*
X-11684000Y-38640000D01*
X-11676000Y-38645000D01*
X-11635000Y-38675000D01*
X-11614000Y-38682000D01*
X-11600000Y-38688000D01*
X-11569000Y-38704000D01*
X-11519000Y-38713000D01*
X-11510000Y-38716000D01*
X-11455000Y-38733000D01*
X-11424000Y-38734000D01*
X-11412000Y-38736000D01*
X-11405000Y-38737000D01*
X-11395000Y-38738000D01*
X-8169000Y-38738000D01*
X-8131000Y-38748000D01*
X-7943000Y-38856000D01*
X-7746000Y-38908000D01*
X-7534000Y-38908000D01*
X-7337000Y-38856000D01*
X-7150000Y-38749000D01*
X-7149000Y-38748000D01*
X-7002000Y-38600000D01*
X-6898000Y-38420000D01*
X-6897000Y-38419000D01*
X-6843000Y-38214000D01*
X-6843000Y-38005000D01*
X-6895000Y-37808000D01*
X-7002000Y-37621000D01*
X-7150000Y-37473000D01*
X-7330000Y-37370000D01*
X-7329000Y-37370000D01*
X-7536000Y-37313000D01*
X-7744000Y-37313000D01*
X-7950000Y-37370000D01*
X-8131000Y-37474000D01*
X-8169000Y-37484000D01*
X-9436000Y-37484000D01*
X-9513000Y-37299000D01*
X-9142000Y-36927000D01*
X-9108000Y-36907000D01*
X-8905000Y-36853000D01*
X-8903000Y-36852000D01*
X-8728000Y-36752000D01*
X-8725000Y-36750000D01*
X-8578000Y-36604000D01*
X-8575000Y-36601000D01*
X-8469000Y-36417000D01*
X-8468000Y-36415000D01*
X-8416000Y-36217000D01*
X-8416000Y-36007000D01*
X21967000Y-36007000D01*
X21967000Y-36215000D01*
X22024000Y-36425000D01*
X22125000Y-36598000D01*
X22126000Y-36599000D01*
X22274000Y-36748000D01*
X22275000Y-36749000D01*
X22462000Y-36856000D01*
X22659000Y-36908000D01*
X22871000Y-36908000D01*
X23068000Y-36856000D01*
X23255000Y-36749000D01*
X23256000Y-36748000D01*
X23403000Y-36600000D01*
X23506000Y-36422000D01*
X23508000Y-36419000D01*
X23562000Y-36214000D01*
X23562000Y-36005000D01*
X26397000Y-36005000D01*
X26397000Y-36217000D01*
X26449000Y-36415000D01*
X26450000Y-36417000D01*
X26556000Y-36601000D01*
X26704000Y-36749000D01*
X26891000Y-36856000D01*
X27088000Y-36908000D01*
X27300000Y-36908000D01*
X27497000Y-36856000D01*
X27684000Y-36749000D01*
X27832000Y-36601000D01*
X27938000Y-36417000D01*
X27939000Y-36415000D01*
X27991000Y-36217000D01*
X27991000Y-36005000D01*
X27940000Y-35810000D01*
X27940000Y-35808000D01*
X27832000Y-35621000D01*
X27684000Y-35473000D01*
X27504000Y-35370000D01*
X27505000Y-35370000D01*
X27298000Y-35313000D01*
X27090000Y-35313000D01*
X26884000Y-35370000D01*
X26704000Y-35473000D01*
X26556000Y-35621000D01*
X26448000Y-35808000D01*
X26448000Y-35810000D01*
X26397000Y-36005000D01*
X23562000Y-36005000D01*
X23511000Y-35810000D01*
X23511000Y-35808000D01*
X23403000Y-35621000D01*
X23255000Y-35473000D01*
X23075000Y-35370000D01*
X23076000Y-35370000D01*
X22869000Y-35313000D01*
X22661000Y-35313000D01*
X22455000Y-35370000D01*
X22275000Y-35473000D01*
X22127000Y-35621000D01*
X22024000Y-35801000D01*
X22022000Y-35806000D01*
X21967000Y-36007000D01*
X-8416000Y-36007000D01*
X-8416000Y-36005000D01*
X-8467000Y-35810000D01*
X-8467000Y-35808000D01*
X-8575000Y-35621000D01*
X-8576000Y-35620000D01*
X-8725000Y-35472000D01*
X-8903000Y-35370000D01*
X-8902000Y-35370000D01*
X-9108000Y-35313000D01*
X-9319000Y-35313000D01*
X-9526000Y-35370000D01*
X-9703000Y-35473000D01*
X-9848000Y-35618000D01*
X-9848000Y-35619000D01*
X-9956000Y-35800000D01*
X-9956000Y-35801000D01*
X-10011000Y-36007000D01*
X-10031000Y-36041000D01*
X-10420000Y-36430000D01*
X-10544000Y-36430000D01*
X-26398000Y-20577000D01*
X-26321000Y-20392000D01*
X-24466000Y-20392000D01*
X-24411000Y-20415000D01*
X-10645000Y-34180000D01*
X-10625000Y-34214000D01*
X-10572000Y-34414000D01*
X-10464000Y-34602000D01*
X-10316000Y-34749000D01*
X-10136000Y-34853000D01*
X-10135000Y-34854000D01*
X-9930000Y-34908000D01*
X-9721000Y-34908000D01*
X-9524000Y-34856000D01*
X-9337000Y-34749000D01*
X-9190000Y-34602000D01*
X-9086000Y-34422000D01*
X-9029000Y-34215000D01*
X-9029000Y-34007000D01*
X-9052243Y-33923000D01*
X17283000Y-33923000D01*
X17283000Y-34131000D01*
X17340000Y-34338000D01*
X17443000Y-34517000D01*
X17591000Y-34665000D01*
X17771000Y-34768000D01*
X17977000Y-34825000D01*
X18185000Y-34825000D01*
X18395000Y-34768000D01*
X18568000Y-34667000D01*
X18569000Y-34666000D01*
X18718000Y-34518000D01*
X18719000Y-34517000D01*
X18826000Y-34330000D01*
X18878000Y-34133000D01*
X18878000Y-33924000D01*
X18825000Y-33723000D01*
X18823000Y-33718000D01*
X18717000Y-33536000D01*
X18572000Y-33391000D01*
X18390000Y-33285000D01*
X18388000Y-33284000D01*
X18184000Y-33230000D01*
X17975000Y-33230000D01*
X17778000Y-33282000D01*
X17591000Y-33389000D01*
X17590000Y-33390000D01*
X17442000Y-33539000D01*
X17441000Y-33540000D01*
X17340000Y-33713000D01*
X17283000Y-33923000D01*
X-9052243Y-33923000D01*
X-9086000Y-33801000D01*
X-9189000Y-33621000D01*
X-9337000Y-33473000D01*
X-9517000Y-33370000D01*
X-9724000Y-33312000D01*
X-9757000Y-33293000D01*
X-11485124Y-31565000D01*
X12830000Y-31565000D01*
X12830000Y-31770000D01*
X12885000Y-31975000D01*
X12989000Y-32157000D01*
X13138000Y-32306000D01*
X13320000Y-32410000D01*
X13525000Y-32465000D01*
X13730000Y-32465000D01*
X13936000Y-32410000D01*
X13935000Y-32410000D01*
X14120000Y-32304000D01*
X14119000Y-32304000D01*
X14262000Y-32159000D01*
X14263000Y-32157000D01*
X14371000Y-31977000D01*
X14425000Y-31772000D01*
X14425000Y-31563000D01*
X14371000Y-31358000D01*
X14263000Y-31178000D01*
X14262000Y-31176000D01*
X14119000Y-31031000D01*
X14120000Y-31031000D01*
X13935000Y-30925000D01*
X13936000Y-30925000D01*
X13730000Y-30870000D01*
X13525000Y-30870000D01*
X13320000Y-30925000D01*
X13138000Y-31029000D01*
X12989000Y-31178000D01*
X12885000Y-31360000D01*
X12830000Y-31565000D01*
X-11485124Y-31565000D01*
X-20497769Y-22553000D01*
X24636000Y-22553000D01*
X24636000Y-22761000D01*
X24694000Y-22972000D01*
X24794000Y-23144000D01*
X24795000Y-23145000D01*
X24943000Y-23294000D01*
X24944000Y-23295000D01*
X25131000Y-23402000D01*
X25328000Y-23454000D01*
X25540000Y-23454000D01*
X25737000Y-23402000D01*
X25924000Y-23295000D01*
X25925000Y-23294000D01*
X26072000Y-23146000D01*
X26176000Y-22967000D01*
X26231000Y-22760000D01*
X26231000Y-22551000D01*
X26180000Y-22356000D01*
X26180000Y-22354000D01*
X26072000Y-22167000D01*
X25924000Y-22019000D01*
X25744000Y-21916000D01*
X25745000Y-21916000D01*
X25538000Y-21859000D01*
X25330000Y-21859000D01*
X25124000Y-21916000D01*
X24944000Y-22019000D01*
X24796000Y-22167000D01*
X24693000Y-22347000D01*
X24636000Y-22553000D01*
X-20497769Y-22553000D01*
X-23730000Y-19321000D01*
X-23733000Y-19318000D01*
X-23776000Y-19271000D01*
X-23831000Y-19240000D01*
X-23840000Y-19235000D01*
X-23889000Y-19199000D01*
X-23888000Y-19199000D01*
X-23920000Y-19189000D01*
X-23933000Y-19183000D01*
X-23954000Y-19172000D01*
X-24005000Y-19161000D01*
X-24012000Y-19159000D01*
X-24068000Y-19142000D01*
X-24102000Y-19141000D01*
X-24111000Y-19140000D01*
X-24120000Y-19138000D01*
X-24120000Y-19139000D01*
X-24128000Y-19138000D01*
X-24215000Y-19138000D01*
X-24256000Y-19137000D01*
X-24265000Y-19138000D01*
X-26048000Y-19138000D01*
X-26103000Y-19115000D01*
X-30988000Y-14231000D01*
X-30991000Y-14228000D01*
X-31034000Y-14181000D01*
X-31089000Y-14150000D01*
X-31098000Y-14145000D01*
X-31147000Y-14109000D01*
X-31146000Y-14109000D01*
X-31178000Y-14099000D01*
X-31191000Y-14093000D01*
X-31212000Y-14082000D01*
X-31263000Y-14071000D01*
X-31270000Y-14069000D01*
X-31326000Y-14052000D01*
X-31360000Y-14051000D01*
X-31369000Y-14050000D01*
X-31378000Y-14048000D01*
X-31378000Y-14049000D01*
X-31386000Y-14048000D01*
X-31473000Y-14048000D01*
X-31514000Y-14047000D01*
X-31523000Y-14048000D01*
X-42958000Y-14048000D01*
X-43013000Y-14025000D01*
X-45245744Y-11793000D01*
X92188000Y-11793000D01*
X92188000Y-12005000D01*
X92240000Y-12202000D01*
X92347000Y-12389000D01*
X92495000Y-12537000D01*
X92682000Y-12644000D01*
X92879000Y-12696000D01*
X93091000Y-12696000D01*
X93288000Y-12644000D01*
X93475000Y-12537000D01*
X93623000Y-12389000D01*
X93726000Y-12210000D01*
X93783000Y-12003000D01*
X93783000Y-11796000D01*
X93726000Y-11589000D01*
X93623000Y-11409000D01*
X93501000Y-11287000D01*
X95906000Y-11287000D01*
X95906000Y-11497000D01*
X95959000Y-11697000D01*
X95960000Y-11698000D01*
X95960000Y-11700000D01*
X95961000Y-11702000D01*
X96067000Y-11884000D01*
X96212000Y-12029000D01*
X96394000Y-12135000D01*
X96396000Y-12136000D01*
X96600000Y-12190000D01*
X96809000Y-12190000D01*
X97006000Y-12138000D01*
X97191000Y-12032000D01*
X97193000Y-12031000D01*
X97340000Y-11883000D01*
X97342000Y-11881000D01*
X97444000Y-11707000D01*
X97501000Y-11497000D01*
X97501000Y-11289000D01*
X97479383Y-11210000D01*
X118340000Y-11210000D01*
X118340000Y-11419000D01*
X118393000Y-11620000D01*
X118395000Y-11625000D01*
X118501000Y-11807000D01*
X118648000Y-11954000D01*
X118830000Y-12058000D01*
X119035000Y-12113000D01*
X119240000Y-12113000D01*
X119446000Y-12058000D01*
X119445000Y-12058000D01*
X119627000Y-11954000D01*
X119628000Y-11953000D01*
X119772000Y-11808000D01*
X119774000Y-11806000D01*
X119781771Y-11793000D01*
X122004000Y-11793000D01*
X122004000Y-12005000D01*
X122056000Y-12202000D01*
X122163000Y-12389000D01*
X122164000Y-12390000D01*
X122313000Y-12538000D01*
X122316000Y-12540000D01*
X122491000Y-12640000D01*
X122493000Y-12641000D01*
X122699000Y-12696000D01*
X122904000Y-12696000D01*
X123110000Y-12641000D01*
X123112000Y-12640000D01*
X123287000Y-12540000D01*
X123290000Y-12538000D01*
X123439000Y-12390000D01*
X123440000Y-12389000D01*
X123547000Y-12202000D01*
X123599000Y-12005000D01*
X123599000Y-11793000D01*
X125125000Y-11793000D01*
X125125000Y-12005000D01*
X125177000Y-12202000D01*
X125284000Y-12389000D01*
X125285000Y-12390000D01*
X125433000Y-12537000D01*
X125613000Y-12641000D01*
X125614000Y-12642000D01*
X125819000Y-12696000D01*
X126028000Y-12696000D01*
X126225000Y-12644000D01*
X126412000Y-12537000D01*
X126560000Y-12389000D01*
X126663000Y-12210000D01*
X126720000Y-12003000D01*
X126720000Y-11796000D01*
X126663000Y-11589000D01*
X126560000Y-11409000D01*
X126412000Y-11261000D01*
X126232000Y-11158000D01*
X126233000Y-11158000D01*
X126026000Y-11101000D01*
X125818000Y-11101000D01*
X125608000Y-11158000D01*
X125434000Y-11260000D01*
X125285000Y-11408000D01*
X125283000Y-11411000D01*
X125176000Y-11596000D01*
X125176000Y-11598000D01*
X125125000Y-11793000D01*
X123599000Y-11793000D01*
X123548000Y-11598000D01*
X123548000Y-11596000D01*
X123441000Y-11411000D01*
X123439000Y-11408000D01*
X123290000Y-11260000D01*
X123112000Y-11158000D01*
X123113000Y-11158000D01*
X122907000Y-11101000D01*
X122696000Y-11101000D01*
X122491000Y-11158000D01*
X122313000Y-11260000D01*
X122164000Y-11408000D01*
X122162000Y-11411000D01*
X122055000Y-11596000D01*
X122055000Y-11598000D01*
X122004000Y-11793000D01*
X119781771Y-11793000D01*
X119881000Y-11627000D01*
X119935000Y-11422000D01*
X119935000Y-11211000D01*
X119880000Y-11006000D01*
X119880000Y-11005000D01*
X119865680Y-10981000D01*
X131142000Y-10981000D01*
X131142000Y-11189000D01*
X131199000Y-11395000D01*
X131303000Y-11575000D01*
X131450000Y-11722000D01*
X131637000Y-11829000D01*
X131834000Y-11881000D01*
X132043000Y-11881000D01*
X132248000Y-11827000D01*
X132249000Y-11826000D01*
X132429000Y-11722000D01*
X132577000Y-11575000D01*
X132684000Y-11390000D01*
X132685000Y-11388000D01*
X132737000Y-11190000D01*
X132737000Y-10978000D01*
X132686000Y-10783000D01*
X132686000Y-10782000D01*
X132577000Y-10594000D01*
X132428000Y-10445000D01*
X132254000Y-10343000D01*
X132044000Y-10286000D01*
X131836000Y-10286000D01*
X131630000Y-10343000D01*
X131450000Y-10446000D01*
X131301000Y-10595000D01*
X131199000Y-10774000D01*
X131142000Y-10981000D01*
X119865680Y-10981000D01*
X119772000Y-10824000D01*
X119772000Y-10823000D01*
X119627000Y-10678000D01*
X119450000Y-10575000D01*
X119243000Y-10518000D01*
X119032000Y-10518000D01*
X118827000Y-10575000D01*
X118649000Y-10677000D01*
X118648000Y-10678000D01*
X118500000Y-10825000D01*
X118499000Y-10826000D01*
X118391000Y-11013000D01*
X118391000Y-11015000D01*
X118340000Y-11210000D01*
X97479383Y-11210000D01*
X97446000Y-11088000D01*
X97444000Y-11083000D01*
X97342000Y-10904000D01*
X97193000Y-10755000D01*
X97013000Y-10652000D01*
X97014000Y-10652000D01*
X96807000Y-10595000D01*
X96599000Y-10595000D01*
X96389000Y-10652000D01*
X96216000Y-10753000D01*
X96066000Y-10903000D01*
X95957000Y-11091000D01*
X95957000Y-11092000D01*
X95906000Y-11287000D01*
X93501000Y-11287000D01*
X93475000Y-11261000D01*
X93295000Y-11158000D01*
X93296000Y-11158000D01*
X93089000Y-11101000D01*
X92881000Y-11101000D01*
X92675000Y-11158000D01*
X92495000Y-11261000D01*
X92347000Y-11409000D01*
X92239000Y-11596000D01*
X92239000Y-11598000D01*
X92188000Y-11793000D01*
X-45245744Y-11793000D01*
X-46014000Y-11025000D01*
X-46017000Y-11022000D01*
X-46060000Y-10975000D01*
X-46115000Y-10944000D01*
X-46124000Y-10939000D01*
X-46171000Y-10904000D01*
X-46172000Y-10903000D01*
X-46204000Y-10893000D01*
X-46217000Y-10887000D01*
X-46238000Y-10876000D01*
X-46289000Y-10865000D01*
X-46296000Y-10863000D01*
X-46352000Y-10846000D01*
X-46386000Y-10845000D01*
X-46395000Y-10844000D01*
X-46404000Y-10842000D01*
X-46404000Y-10843000D01*
X-46412000Y-10842000D01*
X-46499000Y-10842000D01*
X-46540000Y-10841000D01*
X-46549000Y-10842000D01*
X-62593000Y-10842000D01*
X-62638000Y-10840000D01*
X-62696000Y-10856000D01*
X-62706000Y-10858000D01*
X-62763000Y-10866000D01*
X-62786000Y-10878000D01*
X-62802000Y-10884000D01*
X-62832000Y-10892000D01*
X-62878000Y-10921000D01*
X-62886000Y-10926000D01*
X-62937000Y-10951000D01*
X-62962000Y-10976000D01*
X-62979000Y-10989000D01*
X-62984000Y-10992000D01*
X-63470000Y-11479000D01*
X-63525000Y-11502000D01*
X-68635000Y-11502000D01*
X-68673000Y-11492000D01*
X-68854000Y-11388000D01*
X-68853000Y-11388000D01*
X-69060000Y-11331000D01*
X-69268000Y-11331000D01*
X-69474000Y-11388000D01*
X-69654000Y-11491000D01*
X-69802000Y-11639000D01*
X-69909000Y-11826000D01*
X-69961000Y-12023000D01*
X-69961000Y-12232000D01*
X-69907000Y-12437000D01*
X-69906000Y-12438000D01*
X-69801000Y-12619000D01*
X-69655000Y-12766000D01*
X-69654000Y-12767000D01*
X-69467000Y-12874000D01*
X-69270000Y-12926000D01*
X-69058000Y-12926000D01*
X-68861000Y-12874000D01*
X-68671000Y-12765000D01*
X-68534000Y-12822000D01*
X-68479000Y-13027000D01*
X-68373000Y-13211000D01*
G37*
%TD.AperFunction*%
%TD*%
M02*
