M48
; DRILL file {KiCad 7.0.11-7.0.11~ubuntu20.04.1} date Tue Aug 27 08:57:38 2024
; FORMAT={-:-/ absolute / metric / decimal}
; #@! TF.CreationDate,2024-08-27T08:57:38+00:00
; #@! TF.GenerationSoftware,Kicad,Pcbnew,7.0.11-7.0.11~ubuntu20.04.1
; #@! TF.FileFunction,MixedPlating,1,4
FMAT,2
METRIC
; #@! TA.AperFunction,Plated,PTH,ComponentDrill
T1C0.300
; #@! TA.AperFunction,Plated,PTH,ComponentDrill
T2C0.500
%
G90
G05
T1
X-167.158Y-7.792
X-166.73Y-5.52
X-163.385Y-5.52
X-163.385Y-7.792
X-162.704Y-8.891
X-159.624Y-5.52
X-159.624Y-7.284
X-156.378Y-7.641
X-156.103Y-5.473
X-152.594Y-7.792
X-152.232Y-5.473
X-151.134Y-15.437
X-150.649Y-8.196
X-148.809Y-11.782
X-148.133Y-13.332
X-148.133Y-15.437
X-147.552Y-8.537
X-137.916Y-7.963
X-137.487Y-5.411
X-136.351Y-15.747
X-134.063Y-5.411
X-133.819Y-7.409
X-133.304Y-8.752
X-130.582Y-7.409
X-130.376Y-5.411
X-129.841Y-13.332
X-126.29Y-8.147
X-123.292Y-15.437
X-122.987Y-13.332
X-120.461Y-11.782
X-120.151Y-13.332
X-120.151Y-15.127
X-118.318Y-8.658
X-118.097Y-15.748
X-108.75Y-7.68
X-108.22Y-5.566
X-104.667Y-5.287
X-104.667Y-7.327
X-103.896Y-8.651
X-101.565Y-6.705
X-100.969Y-5.287
X-100.969Y-13.332
X-97.638Y-7.76
X-97.296Y-5.429
X-93.182Y-13.332
X-93.13Y-15.385
X-90.358Y-11.813
X-89.876Y-13.363
X-89.876Y-15.385
X-88.586Y-8.497
X-79.454Y-5.477
X-79.454Y-7.71
X-76.129Y-7.71
X-75.639Y-5.525
X-75.118Y-8.725
X-73.462Y-15.752
X-73.03Y-7.71
X-72.296Y-5.525
X-72.296Y-13.751
X-69.164Y-12.129
X-67.735Y-12.721
X-66.1Y-13.121
X-62.183Y-13.363
X-61.34Y-8.237
X-59.2Y-10.185
X-47.788Y-15.322
X-44.2Y-10.185
X-29.2Y19.815
X-29.2Y4.815
X-29.2Y-10.185
X-29.2Y-25.185
X-29.2Y-40.185
X-20.19Y20.648
X-19.534Y15.752
X-19.534Y7.845
X-18.385Y-27.515
X-17.424Y16.021
X-17.041Y12.003
X-14.897Y16.349
X-14.58Y14.601
X-14.2Y34.815
X-14.2Y-10.185
X-14.2Y-25.185
X-14.2Y-40.185
X-11.602Y21.214
X-11.272Y15.87
X-9.827Y-34.111
X-9.827Y-41.463
X-9.213Y-36.111
X-8.97Y17.095
X-8.733Y-39.787
X-7.64Y-38.111
X-2.946Y-45.026
X-1.826Y-44.111
X-0.386Y-35.423
X0.778Y-17.797
X0.8Y34.815
X0.8Y19.815
X0.8Y4.815
X1.152Y-46.301
X4.792Y-33.126
X6.783Y-22.717
X7.116Y-40.049
X11.793Y19.259
X11.793Y17.259
X12.068Y-31.402
X12.156Y-40.759
X13.627Y-31.667
X13.627Y-50.425
X14.926Y23.259
X15.412Y20.108
X15.412Y26.702
X15.8Y34.815
X15.8Y4.815
X15.8Y-10.185
X16.754Y24.439
X16.754Y21.259
X18.081Y-34.027
X19.346Y19.77
X20.294Y14.549
X20.427Y22.404
X20.682Y-40.759
X22.248Y-41.821
X22.765Y-36.111
X23.966Y1.709
X23.978Y-30.838
X24.141Y4.932
X25.344Y10.454
X25.434Y-22.657
X26.526Y20.214
X27.194Y-36.111
X28.183Y20.935
X28.403Y19.446
X28.471Y15.225
X28.681Y6.972
X30.16Y15.259
X30.8Y-10.185
X30.8Y-25.185
X30.8Y-40.185
X31.287Y15.989
X31.826Y12.037
X33.944Y9.149
X34.293Y21.805
X45.8Y4.815
X45.8Y-10.185
X60.512Y-5.554
X62.732Y-8.673
X63.084Y-10.459
X66.221Y-9.235
X66.592Y-10.812
X69.49Y-8.99
X70.022Y-10.812
X72.34Y-2.104
X76.13Y-1.583
X77.269Y-3.6
X77.269Y-2.066
X78.604Y-8.393
X78.791Y-2.066
X79.744Y0.298
X79.99Y-1.547
X82.252Y-7.592
X88.702Y-6.621
X88.884Y-0.203
X92.985Y-11.899
X92.985Y-11.899
X94.815Y-9.412
X95.853Y-7.59
X96.703Y-11.393
X97.153Y-9.235
X97.397Y-4.229
X99.73Y-2.066
X104.271Y-8.237
X105.648Y-3.038
X107.608Y-8.392
X108.123Y-1.583
X110.732Y-7.247
X111.087Y-1.355
X112.358Y0.327
X115.247Y-6.591
X119.137Y-8.784
X119.137Y-11.316
X121.442Y-10.854
X122.801Y-11.899
X123.033Y-8.99
X124.861Y-7.688
X125.142Y-10.834
X125.922Y-11.899
X126.697Y-9.149
X130.501Y-3.454
X131.771Y-7.879
X131.94Y-2.066
X131.94Y-11.084
X134.457Y-2.679
X136.851Y-2.066
X137.045Y-7.912
X139.701Y-0.529
X140.876Y-8.079
X148.837Y-2.337
X150.722Y-1.275
X160.092Y-4.229
X160.375Y-2.066
X162.352Y-1.904
X165.116Y-2.937
X165.159Y-7.845
X180.8Y-10.185
T2
G00X27.936Y22.671
M15
G01X28.431Y23.166
M16
G05
G00X30.623Y25.358
M15
G01X31.118Y25.853
M16
G05
G00X34.045Y16.562
M15
G01X34.54Y17.057
M16
G05
G00X36.732Y19.249
M15
G01X37.227Y19.744
M16
G05
M30
