M48
; DRILL file {KiCad 7.0.11-7.0.11~ubuntu20.04.1} date Wed Aug 21 15:19:06 2024
; FORMAT={-:-/ absolute / metric / decimal}
; #@! TF.CreationDate,2024-08-21T15:19:06+00:00
; #@! TF.GenerationSoftware,Kicad,Pcbnew,7.0.11-7.0.11~ubuntu20.04.1
; #@! TF.FileFunction,MixedPlating,1,4
FMAT,2
METRIC
; #@! TA.AperFunction,Plated,PTH,ComponentDrill
T1C0.300
%
G90
G05
T1
X-163.143Y-8.703
X-150.649Y-8.196
X-147.552Y-8.537
X-133.505Y-8.667
X-118.318Y-8.658
X-104.202Y-8.45
X-75.546Y-8.296
X-61.34Y-8.237
X-59.2Y-10.185
X-44.2Y-10.185
X-29.2Y19.815
X-29.2Y4.815
X-29.2Y-10.185
X-29.2Y-25.185
X-29.2Y-40.185
X-20.19Y20.648
X-19.534Y15.752
X-17.424Y16.021
X-14.897Y16.349
X-14.58Y14.601
X-14.2Y34.815
X-14.2Y-10.185
X-14.2Y-25.185
X-14.2Y-40.185
X-11.602Y21.214
X-11.272Y15.87
X-9.827Y-41.463
X-8.97Y17.095
X0.8Y34.815
X0.8Y19.815
X0.8Y4.815
X0.8Y-25.185
X0.8Y-40.185
X12.068Y-31.402
X12.156Y-40.759
X13.627Y-31.667
X15.412Y20.108
X15.8Y34.815
X15.8Y4.815
X15.8Y-10.185
X18.081Y-34.027
X22.816Y-35.77
X30.8Y19.815
X30.8Y4.815
X30.8Y-10.185
X30.8Y-25.185
X30.8Y-40.185
X45.8Y4.815
X45.8Y-10.185
X60.8Y-10.185
X75.8Y-10.185
X90.8Y-10.185
X105.8Y-10.185
X120.8Y-10.185
X135.8Y-10.185
X150.8Y-10.185
X165.8Y-10.185
X180.8Y-10.185
M30
