%TF.GenerationSoftware,Flux,Pcbnew,7.0.11-7.0.11~ubuntu20.04.1*%
%TF.CreationDate,2024-08-21T13:08:08+00:00*%
%TF.ProjectId,input,696e7075-742e-46b6-9963-61645f706362,rev?*%
%TF.SameCoordinates,Original*%
%TF.FileFunction,Legend,Top*%
%TF.FilePolarity,Positive*%
%FSLAX46Y46*%
G04 Gerber Fmt 4.6, Leading zero omitted, Abs format (unit mm)*
G04 Filename: practical-fuchsia-massive-robot-spider*
G04 Build it with Flux! Visit our site at: https://www.flux.ai (PCBNEW 7.0.11-7.0.11~ubuntu20.04.1) date 2024-08-21 13:08:08*
%MOMM*%
%LPD*%
G01*
G04 APERTURE LIST*
%ADD10C,0.095000*%
%ADD11C,0.120650*%
%ADD12C,0.120000*%
%ADD13C,0.100000*%
%ADD14C,0.050000*%
%ADD15C,0.200000*%
G04 APERTURE END LIST*
D10*
X-47775304Y-5234233D02*
X-47505930Y-5503607D01*
X-47505930Y-5503607D02*
X-47209619Y-5261170D01*
X-47209619Y-5261170D02*
X-47263494Y-5261170D01*
X-47263494Y-5261170D02*
X-47344306Y-5234233D01*
X-47344306Y-5234233D02*
X-47478993Y-5099546D01*
X-47478993Y-5099546D02*
X-47505930Y-5018734D01*
X-47505930Y-5018734D02*
X-47505930Y-4964859D01*
X-47505930Y-4964859D02*
X-47478993Y-4884047D01*
X-47478993Y-4884047D02*
X-47344306Y-4749360D01*
X-47344306Y-4749360D02*
X-47263494Y-4722422D01*
X-47263494Y-4722422D02*
X-47209619Y-4722422D01*
X-47209619Y-4722422D02*
X-47128807Y-4749360D01*
X-47128807Y-4749360D02*
X-46994120Y-4884047D01*
X-46994120Y-4884047D02*
X-46967182Y-4964859D01*
X-46967182Y-4964859D02*
X-46967182Y-5018734D01*
X-48152428Y-4857109D02*
X-48206303Y-4803234D01*
X-48206303Y-4803234D02*
X-48233240Y-4722422D01*
X-48233240Y-4722422D02*
X-48233240Y-4668547D01*
X-48233240Y-4668547D02*
X-48206303Y-4587735D01*
X-48206303Y-4587735D02*
X-48125491Y-4453048D01*
X-48125491Y-4453048D02*
X-47990804Y-4318361D01*
X-47990804Y-4318361D02*
X-47856117Y-4237549D01*
X-47856117Y-4237549D02*
X-47775305Y-4210612D01*
X-47775305Y-4210612D02*
X-47721430Y-4210612D01*
X-47721430Y-4210612D02*
X-47640618Y-4237549D01*
X-47640618Y-4237549D02*
X-47586743Y-4291424D01*
X-47586743Y-4291424D02*
X-47559805Y-4372236D01*
X-47559805Y-4372236D02*
X-47559805Y-4426111D01*
X-47559805Y-4426111D02*
X-47586743Y-4506923D01*
X-47586743Y-4506923D02*
X-47667555Y-4641610D01*
X-47667555Y-4641610D02*
X-47802242Y-4776297D01*
X-47802242Y-4776297D02*
X-47936929Y-4857109D01*
X-47936929Y-4857109D02*
X-48017741Y-4884047D01*
X-48017741Y-4884047D02*
X-48071616Y-4884047D01*
X-48071616Y-4884047D02*
X-48152428Y-4857109D01*
X-48691176Y-4318361D02*
X-48745051Y-4264486D01*
X-48745051Y-4264486D02*
X-48771989Y-4183674D01*
X-48771989Y-4183674D02*
X-48771989Y-4129799D01*
X-48771989Y-4129799D02*
X-48745051Y-4048987D01*
X-48745051Y-4048987D02*
X-48664239Y-3914300D01*
X-48664239Y-3914300D02*
X-48529552Y-3779613D01*
X-48529552Y-3779613D02*
X-48394865Y-3698801D01*
X-48394865Y-3698801D02*
X-48314053Y-3671863D01*
X-48314053Y-3671863D02*
X-48260178Y-3671863D01*
X-48260178Y-3671863D02*
X-48179366Y-3698801D01*
X-48179366Y-3698801D02*
X-48125491Y-3752676D01*
X-48125491Y-3752676D02*
X-48098553Y-3833488D01*
X-48098553Y-3833488D02*
X-48098553Y-3887363D01*
X-48098553Y-3887363D02*
X-48125491Y-3968175D01*
X-48125491Y-3968175D02*
X-48206303Y-4102862D01*
X-48206303Y-4102862D02*
X-48340990Y-4237549D01*
X-48340990Y-4237549D02*
X-48475677Y-4318361D01*
X-48475677Y-4318361D02*
X-48556489Y-4345298D01*
X-48556489Y-4345298D02*
X-48610364Y-4345298D01*
X-48610364Y-4345298D02*
X-48691176Y-4318361D01*
X-48529552Y-3348614D02*
X-48664239Y-3213927D01*
X-48664239Y-3213927D02*
X-48771989Y-3321677D01*
X-48771989Y-3321677D02*
X-48745051Y-3402489D01*
X-48745051Y-3402489D02*
X-48745051Y-3510239D01*
X-48745051Y-3510239D02*
X-48798926Y-3617988D01*
X-48798926Y-3617988D02*
X-48933613Y-3752675D01*
X-48933613Y-3752675D02*
X-49041363Y-3806550D01*
X-49041363Y-3806550D02*
X-49149112Y-3806550D01*
X-49149112Y-3806550D02*
X-49256862Y-3752675D01*
X-49256862Y-3752675D02*
X-49364612Y-3644926D01*
X-49364612Y-3644926D02*
X-49418486Y-3537176D01*
X-49418486Y-3537176D02*
X-49418486Y-3429427D01*
X-49418486Y-3429427D02*
X-49364612Y-3321677D01*
X-49364612Y-3321677D02*
X-49229925Y-3186990D01*
X-49229925Y-3186990D02*
X-49122175Y-3133115D01*
X-49122175Y-3133115D02*
X-49014425Y-3133115D01*
X-49014425Y-3133115D02*
X-48933613Y-3160053D01*
X-48933613Y-3160053D02*
X-48825863Y-3052303D01*
X-48825863Y-3052303D02*
X-48960551Y-2917616D01*
X-49595608Y-6327209D02*
X-49676420Y-6785145D01*
X-49272359Y-6650458D02*
X-49838044Y-7216143D01*
X-49838044Y-7216143D02*
X-50053543Y-7000644D01*
X-50053543Y-7000644D02*
X-50080481Y-6919832D01*
X-50080481Y-6919832D02*
X-50080481Y-6865957D01*
X-50080481Y-6865957D02*
X-50053543Y-6785145D01*
X-50053543Y-6785145D02*
X-49972731Y-6704332D01*
X-49972731Y-6704332D02*
X-49891919Y-6677395D01*
X-49891919Y-6677395D02*
X-49838044Y-6677395D01*
X-49838044Y-6677395D02*
X-49757232Y-6704332D01*
X-49757232Y-6704332D02*
X-49541733Y-6919832D01*
X-50134356Y-5788461D02*
X-49811107Y-6111710D01*
X-49972731Y-5950085D02*
X-50538417Y-6515771D01*
X-50538417Y-6515771D02*
X-50403730Y-6488833D01*
X-50403730Y-6488833D02*
X-50295980Y-6488833D01*
X-50295980Y-6488833D02*
X-50215168Y-6515771D01*
X-51050228Y-6003960D02*
X-51104102Y-5950085D01*
X-51104102Y-5950085D02*
X-51131040Y-5869273D01*
X-51131040Y-5869273D02*
X-51131040Y-5815398D01*
X-51131040Y-5815398D02*
X-51104102Y-5734586D01*
X-51104102Y-5734586D02*
X-51023290Y-5599899D01*
X-51023290Y-5599899D02*
X-50888603Y-5465212D01*
X-50888603Y-5465212D02*
X-50753916Y-5384400D01*
X-50753916Y-5384400D02*
X-50673104Y-5357462D01*
X-50673104Y-5357462D02*
X-50619229Y-5357462D01*
X-50619229Y-5357462D02*
X-50538417Y-5384400D01*
X-50538417Y-5384400D02*
X-50484542Y-5438274D01*
X-50484542Y-5438274D02*
X-50457605Y-5519087D01*
X-50457605Y-5519087D02*
X-50457605Y-5572961D01*
X-50457605Y-5572961D02*
X-50484542Y-5653774D01*
X-50484542Y-5653774D02*
X-50565354Y-5788461D01*
X-50565354Y-5788461D02*
X-50700041Y-5923148D01*
X-50700041Y-5923148D02*
X-50834728Y-6003960D01*
X-50834728Y-6003960D02*
X-50915540Y-6030897D01*
X-50915540Y-6030897D02*
X-50969415Y-6030897D01*
X-50969415Y-6030897D02*
X-51050228Y-6003960D01*
X25270544Y-32257329D02*
X25270544Y-31876377D01*
X25270544Y-31876377D02*
X24889592Y-31838281D01*
X24889592Y-31838281D02*
X24927687Y-31876377D01*
X24927687Y-31876377D02*
X24965782Y-31952567D01*
X24965782Y-31952567D02*
X24965782Y-32143043D01*
X24965782Y-32143043D02*
X24927687Y-32219234D01*
X24927687Y-32219234D02*
X24889592Y-32257329D01*
X24889592Y-32257329D02*
X24813401Y-32295424D01*
X24813401Y-32295424D02*
X24622925Y-32295424D01*
X24622925Y-32295424D02*
X24546735Y-32257329D01*
X24546735Y-32257329D02*
X24508640Y-32219234D01*
X24508640Y-32219234D02*
X24470544Y-32143043D01*
X24470544Y-32143043D02*
X24470544Y-31952567D01*
X24470544Y-31952567D02*
X24508640Y-31876377D01*
X24508640Y-31876377D02*
X24546735Y-31838281D01*
X25270544Y-32790663D02*
X25270544Y-32866853D01*
X25270544Y-32866853D02*
X25232449Y-32943044D01*
X25232449Y-32943044D02*
X25194354Y-32981139D01*
X25194354Y-32981139D02*
X25118163Y-33019234D01*
X25118163Y-33019234D02*
X24965782Y-33057329D01*
X24965782Y-33057329D02*
X24775306Y-33057329D01*
X24775306Y-33057329D02*
X24622925Y-33019234D01*
X24622925Y-33019234D02*
X24546735Y-32981139D01*
X24546735Y-32981139D02*
X24508640Y-32943044D01*
X24508640Y-32943044D02*
X24470544Y-32866853D01*
X24470544Y-32866853D02*
X24470544Y-32790663D01*
X24470544Y-32790663D02*
X24508640Y-32714472D01*
X24508640Y-32714472D02*
X24546735Y-32676377D01*
X24546735Y-32676377D02*
X24622925Y-32638282D01*
X24622925Y-32638282D02*
X24775306Y-32600186D01*
X24775306Y-32600186D02*
X24965782Y-32600186D01*
X24965782Y-32600186D02*
X25118163Y-32638282D01*
X25118163Y-32638282D02*
X25194354Y-32676377D01*
X25194354Y-32676377D02*
X25232449Y-32714472D01*
X25232449Y-32714472D02*
X25270544Y-32790663D01*
X25270544Y-33552568D02*
X25270544Y-33628758D01*
X25270544Y-33628758D02*
X25232449Y-33704949D01*
X25232449Y-33704949D02*
X25194354Y-33743044D01*
X25194354Y-33743044D02*
X25118163Y-33781139D01*
X25118163Y-33781139D02*
X24965782Y-33819234D01*
X24965782Y-33819234D02*
X24775306Y-33819234D01*
X24775306Y-33819234D02*
X24622925Y-33781139D01*
X24622925Y-33781139D02*
X24546735Y-33743044D01*
X24546735Y-33743044D02*
X24508640Y-33704949D01*
X24508640Y-33704949D02*
X24470544Y-33628758D01*
X24470544Y-33628758D02*
X24470544Y-33552568D01*
X24470544Y-33552568D02*
X24508640Y-33476377D01*
X24508640Y-33476377D02*
X24546735Y-33438282D01*
X24546735Y-33438282D02*
X24622925Y-33400187D01*
X24622925Y-33400187D02*
X24775306Y-33362091D01*
X24775306Y-33362091D02*
X24965782Y-33362091D01*
X24965782Y-33362091D02*
X25118163Y-33400187D01*
X25118163Y-33400187D02*
X25194354Y-33438282D01*
X25194354Y-33438282D02*
X25232449Y-33476377D01*
X25232449Y-33476377D02*
X25270544Y-33552568D01*
X24470544Y-34123996D02*
X24470544Y-34314473D01*
X24470544Y-34314473D02*
X24622925Y-34314473D01*
X24622925Y-34314473D02*
X24661020Y-34238282D01*
X24661020Y-34238282D02*
X24737211Y-34162092D01*
X24737211Y-34162092D02*
X24851497Y-34123996D01*
X24851497Y-34123996D02*
X25041973Y-34123996D01*
X25041973Y-34123996D02*
X25156259Y-34162092D01*
X25156259Y-34162092D02*
X25232449Y-34238282D01*
X25232449Y-34238282D02*
X25270544Y-34352568D01*
X25270544Y-34352568D02*
X25270544Y-34504949D01*
X25270544Y-34504949D02*
X25232449Y-34619235D01*
X25232449Y-34619235D02*
X25156259Y-34695425D01*
X25156259Y-34695425D02*
X25041973Y-34733520D01*
X25041973Y-34733520D02*
X24851497Y-34733520D01*
X24851497Y-34733520D02*
X24737211Y-34695425D01*
X24737211Y-34695425D02*
X24661020Y-34619235D01*
X24661020Y-34619235D02*
X24622925Y-34543044D01*
X24622925Y-34543044D02*
X24470544Y-34543044D01*
X24470544Y-34543044D02*
X24470544Y-34733520D01*
X27330544Y-33152566D02*
X27711497Y-32885899D01*
X27330544Y-32695423D02*
X28130544Y-32695423D01*
X28130544Y-32695423D02*
X28130544Y-33000185D01*
X28130544Y-33000185D02*
X28092449Y-33076375D01*
X28092449Y-33076375D02*
X28054354Y-33114470D01*
X28054354Y-33114470D02*
X27978163Y-33152566D01*
X27978163Y-33152566D02*
X27863878Y-33152566D01*
X27863878Y-33152566D02*
X27787687Y-33114470D01*
X27787687Y-33114470D02*
X27749592Y-33076375D01*
X27749592Y-33076375D02*
X27711497Y-33000185D01*
X27711497Y-33000185D02*
X27711497Y-32695423D01*
X28130544Y-33838280D02*
X28130544Y-33685899D01*
X28130544Y-33685899D02*
X28092449Y-33609708D01*
X28092449Y-33609708D02*
X28054354Y-33571613D01*
X28054354Y-33571613D02*
X27940068Y-33495423D01*
X27940068Y-33495423D02*
X27787687Y-33457327D01*
X27787687Y-33457327D02*
X27482925Y-33457327D01*
X27482925Y-33457327D02*
X27406735Y-33495423D01*
X27406735Y-33495423D02*
X27368640Y-33533518D01*
X27368640Y-33533518D02*
X27330544Y-33609708D01*
X27330544Y-33609708D02*
X27330544Y-33762089D01*
X27330544Y-33762089D02*
X27368640Y-33838280D01*
X27368640Y-33838280D02*
X27406735Y-33876375D01*
X27406735Y-33876375D02*
X27482925Y-33914470D01*
X27482925Y-33914470D02*
X27673401Y-33914470D01*
X27673401Y-33914470D02*
X27749592Y-33876375D01*
X27749592Y-33876375D02*
X27787687Y-33838280D01*
X27787687Y-33838280D02*
X27825782Y-33762089D01*
X27825782Y-33762089D02*
X27825782Y-33609708D01*
X27825782Y-33609708D02*
X27787687Y-33533518D01*
X27787687Y-33533518D02*
X27749592Y-33495423D01*
X27749592Y-33495423D02*
X27673401Y-33457327D01*
X14379428Y-45251935D02*
X14417524Y-45213840D01*
X14417524Y-45213840D02*
X14531809Y-45175744D01*
X14531809Y-45175744D02*
X14608000Y-45175744D01*
X14608000Y-45175744D02*
X14722286Y-45213840D01*
X14722286Y-45213840D02*
X14798476Y-45290030D01*
X14798476Y-45290030D02*
X14836571Y-45366220D01*
X14836571Y-45366220D02*
X14874667Y-45518601D01*
X14874667Y-45518601D02*
X14874667Y-45632887D01*
X14874667Y-45632887D02*
X14836571Y-45785268D01*
X14836571Y-45785268D02*
X14798476Y-45861459D01*
X14798476Y-45861459D02*
X14722286Y-45937649D01*
X14722286Y-45937649D02*
X14608000Y-45975744D01*
X14608000Y-45975744D02*
X14531809Y-45975744D01*
X14531809Y-45975744D02*
X14417524Y-45937649D01*
X14417524Y-45937649D02*
X14379428Y-45899554D01*
X13922286Y-45632887D02*
X13998476Y-45670982D01*
X13998476Y-45670982D02*
X14036571Y-45709078D01*
X14036571Y-45709078D02*
X14074667Y-45785268D01*
X14074667Y-45785268D02*
X14074667Y-45823363D01*
X14074667Y-45823363D02*
X14036571Y-45899554D01*
X14036571Y-45899554D02*
X13998476Y-45937649D01*
X13998476Y-45937649D02*
X13922286Y-45975744D01*
X13922286Y-45975744D02*
X13769905Y-45975744D01*
X13769905Y-45975744D02*
X13693714Y-45937649D01*
X13693714Y-45937649D02*
X13655619Y-45899554D01*
X13655619Y-45899554D02*
X13617524Y-45823363D01*
X13617524Y-45823363D02*
X13617524Y-45785268D01*
X13617524Y-45785268D02*
X13655619Y-45709078D01*
X13655619Y-45709078D02*
X13693714Y-45670982D01*
X13693714Y-45670982D02*
X13769905Y-45632887D01*
X13769905Y-45632887D02*
X13922286Y-45632887D01*
X13922286Y-45632887D02*
X13998476Y-45594792D01*
X13998476Y-45594792D02*
X14036571Y-45556697D01*
X14036571Y-45556697D02*
X14074667Y-45480506D01*
X14074667Y-45480506D02*
X14074667Y-45328125D01*
X14074667Y-45328125D02*
X14036571Y-45251935D01*
X14036571Y-45251935D02*
X13998476Y-45213840D01*
X13998476Y-45213840D02*
X13922286Y-45175744D01*
X13922286Y-45175744D02*
X13769905Y-45175744D01*
X13769905Y-45175744D02*
X13693714Y-45213840D01*
X13693714Y-45213840D02*
X13655619Y-45251935D01*
X13655619Y-45251935D02*
X13617524Y-45328125D01*
X13617524Y-45328125D02*
X13617524Y-45480506D01*
X13617524Y-45480506D02*
X13655619Y-45556697D01*
X13655619Y-45556697D02*
X13693714Y-45594792D01*
X13693714Y-45594792D02*
X13769905Y-45632887D01*
X-58204693Y-7233639D02*
X-58474067Y-6964265D01*
X-58474067Y-6964265D02*
X-57908382Y-6398580D01*
X-57719820Y-7125889D02*
X-57531258Y-7314451D01*
X-57746758Y-7691575D02*
X-58016132Y-7422201D01*
X-58016132Y-7422201D02*
X-57450446Y-6856515D01*
X-57450446Y-6856515D02*
X-57181072Y-7125889D01*
X-57504321Y-7934012D02*
X-56938635Y-7368326D01*
X-56938635Y-7368326D02*
X-56803948Y-7503013D01*
X-56803948Y-7503013D02*
X-56750073Y-7610763D01*
X-56750073Y-7610763D02*
X-56750073Y-7718513D01*
X-56750073Y-7718513D02*
X-56777011Y-7799325D01*
X-56777011Y-7799325D02*
X-56857823Y-7934012D01*
X-56857823Y-7934012D02*
X-56938635Y-8014824D01*
X-56938635Y-8014824D02*
X-57073322Y-8095636D01*
X-57073322Y-8095636D02*
X-57154134Y-8122574D01*
X-57154134Y-8122574D02*
X-57261884Y-8122574D01*
X-57261884Y-8122574D02*
X-57369634Y-8068699D01*
X-57369634Y-8068699D02*
X-57504321Y-7934012D01*
X-56103576Y-8203386D02*
X-56372950Y-7934012D01*
X-56372950Y-7934012D02*
X-56669261Y-8176448D01*
X-56669261Y-8176448D02*
X-56615386Y-8176448D01*
X-56615386Y-8176448D02*
X-56534574Y-8203386D01*
X-56534574Y-8203386D02*
X-56399887Y-8338073D01*
X-56399887Y-8338073D02*
X-56372950Y-8418885D01*
X-56372950Y-8418885D02*
X-56372950Y-8472760D01*
X-56372950Y-8472760D02*
X-56399887Y-8553572D01*
X-56399887Y-8553572D02*
X-56534574Y-8688259D01*
X-56534574Y-8688259D02*
X-56615386Y-8715196D01*
X-56615386Y-8715196D02*
X-56669261Y-8715196D01*
X-56669261Y-8715196D02*
X-56750073Y-8688259D01*
X-56750073Y-8688259D02*
X-56884760Y-8553572D01*
X-56884760Y-8553572D02*
X-56911698Y-8472760D01*
X-56911698Y-8472760D02*
X-56911698Y-8418885D01*
X-67469793Y-7233639D02*
X-67739167Y-6964265D01*
X-67739167Y-6964265D02*
X-67173482Y-6398580D01*
X-66984920Y-7125889D02*
X-66796358Y-7314451D01*
X-67011858Y-7691575D02*
X-67281232Y-7422201D01*
X-67281232Y-7422201D02*
X-66715546Y-6856515D01*
X-66715546Y-6856515D02*
X-66446172Y-7125889D01*
X-66769421Y-7934012D02*
X-66203735Y-7368326D01*
X-66203735Y-7368326D02*
X-66069048Y-7503013D01*
X-66069048Y-7503013D02*
X-66015173Y-7610763D01*
X-66015173Y-7610763D02*
X-66015173Y-7718513D01*
X-66015173Y-7718513D02*
X-66042111Y-7799325D01*
X-66042111Y-7799325D02*
X-66122923Y-7934012D01*
X-66122923Y-7934012D02*
X-66203735Y-8014824D01*
X-66203735Y-8014824D02*
X-66338422Y-8095636D01*
X-66338422Y-8095636D02*
X-66419234Y-8122574D01*
X-66419234Y-8122574D02*
X-66526984Y-8122574D01*
X-66526984Y-8122574D02*
X-66634734Y-8068699D01*
X-66634734Y-8068699D02*
X-66769421Y-7934012D01*
X-65799674Y-8257261D02*
X-65826612Y-8176448D01*
X-65826612Y-8176448D02*
X-65826612Y-8122574D01*
X-65826612Y-8122574D02*
X-65799674Y-8041761D01*
X-65799674Y-8041761D02*
X-65772737Y-8014824D01*
X-65772737Y-8014824D02*
X-65691925Y-7987887D01*
X-65691925Y-7987887D02*
X-65638050Y-7987887D01*
X-65638050Y-7987887D02*
X-65557238Y-8014824D01*
X-65557238Y-8014824D02*
X-65449488Y-8122574D01*
X-65449488Y-8122574D02*
X-65422551Y-8203386D01*
X-65422551Y-8203386D02*
X-65422551Y-8257261D01*
X-65422551Y-8257261D02*
X-65449488Y-8338073D01*
X-65449488Y-8338073D02*
X-65476425Y-8365010D01*
X-65476425Y-8365010D02*
X-65557238Y-8391948D01*
X-65557238Y-8391948D02*
X-65611112Y-8391948D01*
X-65611112Y-8391948D02*
X-65691925Y-8365010D01*
X-65691925Y-8365010D02*
X-65799674Y-8257261D01*
X-65799674Y-8257261D02*
X-65880486Y-8230323D01*
X-65880486Y-8230323D02*
X-65934361Y-8230323D01*
X-65934361Y-8230323D02*
X-66015173Y-8257261D01*
X-66015173Y-8257261D02*
X-66122923Y-8365010D01*
X-66122923Y-8365010D02*
X-66149860Y-8445822D01*
X-66149860Y-8445822D02*
X-66149860Y-8499697D01*
X-66149860Y-8499697D02*
X-66122923Y-8580509D01*
X-66122923Y-8580509D02*
X-66015173Y-8688259D01*
X-66015173Y-8688259D02*
X-65934361Y-8715196D01*
X-65934361Y-8715196D02*
X-65880486Y-8715196D01*
X-65880486Y-8715196D02*
X-65799674Y-8688259D01*
X-65799674Y-8688259D02*
X-65691925Y-8580509D01*
X-65691925Y-8580509D02*
X-65664987Y-8499697D01*
X-65664987Y-8499697D02*
X-65664987Y-8445822D01*
X-65664987Y-8445822D02*
X-65691925Y-8365010D01*
X-63217004Y-5234233D02*
X-62947630Y-5503607D01*
X-62947630Y-5503607D02*
X-62651319Y-5261170D01*
X-62651319Y-5261170D02*
X-62705194Y-5261170D01*
X-62705194Y-5261170D02*
X-62786006Y-5234233D01*
X-62786006Y-5234233D02*
X-62920693Y-5099546D01*
X-62920693Y-5099546D02*
X-62947630Y-5018734D01*
X-62947630Y-5018734D02*
X-62947630Y-4964859D01*
X-62947630Y-4964859D02*
X-62920693Y-4884047D01*
X-62920693Y-4884047D02*
X-62786006Y-4749360D01*
X-62786006Y-4749360D02*
X-62705194Y-4722422D01*
X-62705194Y-4722422D02*
X-62651319Y-4722422D01*
X-62651319Y-4722422D02*
X-62570507Y-4749360D01*
X-62570507Y-4749360D02*
X-62435820Y-4884047D01*
X-62435820Y-4884047D02*
X-62408882Y-4964859D01*
X-62408882Y-4964859D02*
X-62408882Y-5018734D01*
X-63594128Y-4857109D02*
X-63648003Y-4803234D01*
X-63648003Y-4803234D02*
X-63674940Y-4722422D01*
X-63674940Y-4722422D02*
X-63674940Y-4668547D01*
X-63674940Y-4668547D02*
X-63648003Y-4587735D01*
X-63648003Y-4587735D02*
X-63567191Y-4453048D01*
X-63567191Y-4453048D02*
X-63432504Y-4318361D01*
X-63432504Y-4318361D02*
X-63297817Y-4237549D01*
X-63297817Y-4237549D02*
X-63217005Y-4210612D01*
X-63217005Y-4210612D02*
X-63163130Y-4210612D01*
X-63163130Y-4210612D02*
X-63082318Y-4237549D01*
X-63082318Y-4237549D02*
X-63028443Y-4291424D01*
X-63028443Y-4291424D02*
X-63001505Y-4372236D01*
X-63001505Y-4372236D02*
X-63001505Y-4426111D01*
X-63001505Y-4426111D02*
X-63028443Y-4506923D01*
X-63028443Y-4506923D02*
X-63109255Y-4641610D01*
X-63109255Y-4641610D02*
X-63243942Y-4776297D01*
X-63243942Y-4776297D02*
X-63378629Y-4857109D01*
X-63378629Y-4857109D02*
X-63459441Y-4884047D01*
X-63459441Y-4884047D02*
X-63513316Y-4884047D01*
X-63513316Y-4884047D02*
X-63594128Y-4857109D01*
X-64132876Y-4318361D02*
X-64186751Y-4264486D01*
X-64186751Y-4264486D02*
X-64213689Y-4183674D01*
X-64213689Y-4183674D02*
X-64213689Y-4129799D01*
X-64213689Y-4129799D02*
X-64186751Y-4048987D01*
X-64186751Y-4048987D02*
X-64105939Y-3914300D01*
X-64105939Y-3914300D02*
X-63971252Y-3779613D01*
X-63971252Y-3779613D02*
X-63836565Y-3698801D01*
X-63836565Y-3698801D02*
X-63755753Y-3671863D01*
X-63755753Y-3671863D02*
X-63701878Y-3671863D01*
X-63701878Y-3671863D02*
X-63621066Y-3698801D01*
X-63621066Y-3698801D02*
X-63567191Y-3752676D01*
X-63567191Y-3752676D02*
X-63540253Y-3833488D01*
X-63540253Y-3833488D02*
X-63540253Y-3887363D01*
X-63540253Y-3887363D02*
X-63567191Y-3968175D01*
X-63567191Y-3968175D02*
X-63648003Y-4102862D01*
X-63648003Y-4102862D02*
X-63782690Y-4237549D01*
X-63782690Y-4237549D02*
X-63917377Y-4318361D01*
X-63917377Y-4318361D02*
X-63998189Y-4345298D01*
X-63998189Y-4345298D02*
X-64052064Y-4345298D01*
X-64052064Y-4345298D02*
X-64132876Y-4318361D01*
X-63971252Y-3348614D02*
X-64105939Y-3213927D01*
X-64105939Y-3213927D02*
X-64213689Y-3321677D01*
X-64213689Y-3321677D02*
X-64186751Y-3402489D01*
X-64186751Y-3402489D02*
X-64186751Y-3510239D01*
X-64186751Y-3510239D02*
X-64240626Y-3617988D01*
X-64240626Y-3617988D02*
X-64375313Y-3752675D01*
X-64375313Y-3752675D02*
X-64483063Y-3806550D01*
X-64483063Y-3806550D02*
X-64590812Y-3806550D01*
X-64590812Y-3806550D02*
X-64698562Y-3752675D01*
X-64698562Y-3752675D02*
X-64806312Y-3644926D01*
X-64806312Y-3644926D02*
X-64860186Y-3537176D01*
X-64860186Y-3537176D02*
X-64860186Y-3429427D01*
X-64860186Y-3429427D02*
X-64806312Y-3321677D01*
X-64806312Y-3321677D02*
X-64671625Y-3186990D01*
X-64671625Y-3186990D02*
X-64563875Y-3133115D01*
X-64563875Y-3133115D02*
X-64456125Y-3133115D01*
X-64456125Y-3133115D02*
X-64375313Y-3160053D01*
X-64375313Y-3160053D02*
X-64267563Y-3052303D01*
X-64267563Y-3052303D02*
X-64402251Y-2917616D01*
X-65037308Y-6327209D02*
X-65118120Y-6785145D01*
X-64714059Y-6650458D02*
X-65279744Y-7216143D01*
X-65279744Y-7216143D02*
X-65495243Y-7000644D01*
X-65495243Y-7000644D02*
X-65522181Y-6919832D01*
X-65522181Y-6919832D02*
X-65522181Y-6865957D01*
X-65522181Y-6865957D02*
X-65495243Y-6785145D01*
X-65495243Y-6785145D02*
X-65414431Y-6704332D01*
X-65414431Y-6704332D02*
X-65333619Y-6677395D01*
X-65333619Y-6677395D02*
X-65279744Y-6677395D01*
X-65279744Y-6677395D02*
X-65198932Y-6704332D01*
X-65198932Y-6704332D02*
X-64983433Y-6919832D01*
X-65576056Y-5788461D02*
X-65252807Y-6111710D01*
X-65414431Y-5950085D02*
X-65980117Y-6515771D01*
X-65980117Y-6515771D02*
X-65845430Y-6488833D01*
X-65845430Y-6488833D02*
X-65737680Y-6488833D01*
X-65737680Y-6488833D02*
X-65656868Y-6515771D01*
X-66653552Y-5842335D02*
X-66384178Y-6111709D01*
X-66384178Y-6111709D02*
X-66087866Y-5869273D01*
X-66087866Y-5869273D02*
X-66141741Y-5869273D01*
X-66141741Y-5869273D02*
X-66222553Y-5842335D01*
X-66222553Y-5842335D02*
X-66357240Y-5707648D01*
X-66357240Y-5707648D02*
X-66384178Y-5626836D01*
X-66384178Y-5626836D02*
X-66384178Y-5572961D01*
X-66384178Y-5572961D02*
X-66357240Y-5492149D01*
X-66357240Y-5492149D02*
X-66222553Y-5357462D01*
X-66222553Y-5357462D02*
X-66141741Y-5330525D01*
X-66141741Y-5330525D02*
X-66087866Y-5330525D01*
X-66087866Y-5330525D02*
X-66007054Y-5357462D01*
X-66007054Y-5357462D02*
X-65872367Y-5492149D01*
X-65872367Y-5492149D02*
X-65845430Y-5572961D01*
X-65845430Y-5572961D02*
X-65845430Y-5626836D01*
X-15318164Y18280333D02*
X-15356260Y18318429D01*
X-15356260Y18318429D02*
X-15394355Y18432714D01*
X-15394355Y18432714D02*
X-15394355Y18508905D01*
X-15394355Y18508905D02*
X-15356260Y18623191D01*
X-15356260Y18623191D02*
X-15280069Y18699381D01*
X-15280069Y18699381D02*
X-15203879Y18737476D01*
X-15203879Y18737476D02*
X-15051498Y18775572D01*
X-15051498Y18775572D02*
X-14937212Y18775572D01*
X-14937212Y18775572D02*
X-14784831Y18737476D01*
X-14784831Y18737476D02*
X-14708640Y18699381D01*
X-14708640Y18699381D02*
X-14632450Y18623191D01*
X-14632450Y18623191D02*
X-14594355Y18508905D01*
X-14594355Y18508905D02*
X-14594355Y18432714D01*
X-14594355Y18432714D02*
X-14632450Y18318429D01*
X-14632450Y18318429D02*
X-14670545Y18280333D01*
X-14594355Y18013667D02*
X-14594355Y17518429D01*
X-14594355Y17518429D02*
X-14899117Y17785095D01*
X-14899117Y17785095D02*
X-14899117Y17670810D01*
X-14899117Y17670810D02*
X-14937212Y17594619D01*
X-14937212Y17594619D02*
X-14975307Y17556524D01*
X-14975307Y17556524D02*
X-15051498Y17518429D01*
X-15051498Y17518429D02*
X-15241974Y17518429D01*
X-15241974Y17518429D02*
X-15318164Y17556524D01*
X-15318164Y17556524D02*
X-15356260Y17594619D01*
X-15356260Y17594619D02*
X-15394355Y17670810D01*
X-15394355Y17670810D02*
X-15394355Y17899381D01*
X-15394355Y17899381D02*
X-15356260Y17975572D01*
X-15356260Y17975572D02*
X-15318164Y18013667D01*
X-55116393Y-7233639D02*
X-55385767Y-6964265D01*
X-55385767Y-6964265D02*
X-54820082Y-6398580D01*
X-54631520Y-7125889D02*
X-54442958Y-7314451D01*
X-54658458Y-7691575D02*
X-54927832Y-7422201D01*
X-54927832Y-7422201D02*
X-54362146Y-6856515D01*
X-54362146Y-6856515D02*
X-54092772Y-7125889D01*
X-54416021Y-7934012D02*
X-53850335Y-7368326D01*
X-53850335Y-7368326D02*
X-53715648Y-7503013D01*
X-53715648Y-7503013D02*
X-53661773Y-7610763D01*
X-53661773Y-7610763D02*
X-53661773Y-7718513D01*
X-53661773Y-7718513D02*
X-53688711Y-7799325D01*
X-53688711Y-7799325D02*
X-53769523Y-7934012D01*
X-53769523Y-7934012D02*
X-53850335Y-8014824D01*
X-53850335Y-8014824D02*
X-53985022Y-8095636D01*
X-53985022Y-8095636D02*
X-54065834Y-8122574D01*
X-54065834Y-8122574D02*
X-54173584Y-8122574D01*
X-54173584Y-8122574D02*
X-54281334Y-8068699D01*
X-54281334Y-8068699D02*
X-54416021Y-7934012D01*
X-53230775Y-8365010D02*
X-53607899Y-8742134D01*
X-53149963Y-8014824D02*
X-53688711Y-8284198D01*
X-53688711Y-8284198D02*
X-53338525Y-8634384D01*
X16553135Y16167533D02*
X16515040Y16205629D01*
X16515040Y16205629D02*
X16476944Y16319914D01*
X16476944Y16319914D02*
X16476944Y16396105D01*
X16476944Y16396105D02*
X16515040Y16510391D01*
X16515040Y16510391D02*
X16591230Y16586581D01*
X16591230Y16586581D02*
X16667420Y16624676D01*
X16667420Y16624676D02*
X16819801Y16662772D01*
X16819801Y16662772D02*
X16934087Y16662772D01*
X16934087Y16662772D02*
X17086468Y16624676D01*
X17086468Y16624676D02*
X17162659Y16586581D01*
X17162659Y16586581D02*
X17238849Y16510391D01*
X17238849Y16510391D02*
X17276944Y16396105D01*
X17276944Y16396105D02*
X17276944Y16319914D01*
X17276944Y16319914D02*
X17238849Y16205629D01*
X17238849Y16205629D02*
X17200754Y16167533D01*
X16476944Y15405629D02*
X16476944Y15862772D01*
X16476944Y15634200D02*
X17276944Y15634200D01*
X17276944Y15634200D02*
X17162659Y15710391D01*
X17162659Y15710391D02*
X17086468Y15786581D01*
X17086468Y15786581D02*
X17048373Y15862772D01*
X-57040304Y-5234233D02*
X-56770930Y-5503607D01*
X-56770930Y-5503607D02*
X-56474619Y-5261170D01*
X-56474619Y-5261170D02*
X-56528494Y-5261170D01*
X-56528494Y-5261170D02*
X-56609306Y-5234233D01*
X-56609306Y-5234233D02*
X-56743993Y-5099546D01*
X-56743993Y-5099546D02*
X-56770930Y-5018734D01*
X-56770930Y-5018734D02*
X-56770930Y-4964859D01*
X-56770930Y-4964859D02*
X-56743993Y-4884047D01*
X-56743993Y-4884047D02*
X-56609306Y-4749360D01*
X-56609306Y-4749360D02*
X-56528494Y-4722422D01*
X-56528494Y-4722422D02*
X-56474619Y-4722422D01*
X-56474619Y-4722422D02*
X-56393807Y-4749360D01*
X-56393807Y-4749360D02*
X-56259120Y-4884047D01*
X-56259120Y-4884047D02*
X-56232182Y-4964859D01*
X-56232182Y-4964859D02*
X-56232182Y-5018734D01*
X-57417428Y-4857109D02*
X-57471303Y-4803234D01*
X-57471303Y-4803234D02*
X-57498240Y-4722422D01*
X-57498240Y-4722422D02*
X-57498240Y-4668547D01*
X-57498240Y-4668547D02*
X-57471303Y-4587735D01*
X-57471303Y-4587735D02*
X-57390491Y-4453048D01*
X-57390491Y-4453048D02*
X-57255804Y-4318361D01*
X-57255804Y-4318361D02*
X-57121117Y-4237549D01*
X-57121117Y-4237549D02*
X-57040305Y-4210612D01*
X-57040305Y-4210612D02*
X-56986430Y-4210612D01*
X-56986430Y-4210612D02*
X-56905618Y-4237549D01*
X-56905618Y-4237549D02*
X-56851743Y-4291424D01*
X-56851743Y-4291424D02*
X-56824805Y-4372236D01*
X-56824805Y-4372236D02*
X-56824805Y-4426111D01*
X-56824805Y-4426111D02*
X-56851743Y-4506923D01*
X-56851743Y-4506923D02*
X-56932555Y-4641610D01*
X-56932555Y-4641610D02*
X-57067242Y-4776297D01*
X-57067242Y-4776297D02*
X-57201929Y-4857109D01*
X-57201929Y-4857109D02*
X-57282741Y-4884047D01*
X-57282741Y-4884047D02*
X-57336616Y-4884047D01*
X-57336616Y-4884047D02*
X-57417428Y-4857109D01*
X-57956176Y-4318361D02*
X-58010051Y-4264486D01*
X-58010051Y-4264486D02*
X-58036989Y-4183674D01*
X-58036989Y-4183674D02*
X-58036989Y-4129799D01*
X-58036989Y-4129799D02*
X-58010051Y-4048987D01*
X-58010051Y-4048987D02*
X-57929239Y-3914300D01*
X-57929239Y-3914300D02*
X-57794552Y-3779613D01*
X-57794552Y-3779613D02*
X-57659865Y-3698801D01*
X-57659865Y-3698801D02*
X-57579053Y-3671863D01*
X-57579053Y-3671863D02*
X-57525178Y-3671863D01*
X-57525178Y-3671863D02*
X-57444366Y-3698801D01*
X-57444366Y-3698801D02*
X-57390491Y-3752676D01*
X-57390491Y-3752676D02*
X-57363553Y-3833488D01*
X-57363553Y-3833488D02*
X-57363553Y-3887363D01*
X-57363553Y-3887363D02*
X-57390491Y-3968175D01*
X-57390491Y-3968175D02*
X-57471303Y-4102862D01*
X-57471303Y-4102862D02*
X-57605990Y-4237549D01*
X-57605990Y-4237549D02*
X-57740677Y-4318361D01*
X-57740677Y-4318361D02*
X-57821489Y-4345298D01*
X-57821489Y-4345298D02*
X-57875364Y-4345298D01*
X-57875364Y-4345298D02*
X-57956176Y-4318361D01*
X-57794552Y-3348614D02*
X-57929239Y-3213927D01*
X-57929239Y-3213927D02*
X-58036989Y-3321677D01*
X-58036989Y-3321677D02*
X-58010051Y-3402489D01*
X-58010051Y-3402489D02*
X-58010051Y-3510239D01*
X-58010051Y-3510239D02*
X-58063926Y-3617988D01*
X-58063926Y-3617988D02*
X-58198613Y-3752675D01*
X-58198613Y-3752675D02*
X-58306363Y-3806550D01*
X-58306363Y-3806550D02*
X-58414112Y-3806550D01*
X-58414112Y-3806550D02*
X-58521862Y-3752675D01*
X-58521862Y-3752675D02*
X-58629612Y-3644926D01*
X-58629612Y-3644926D02*
X-58683486Y-3537176D01*
X-58683486Y-3537176D02*
X-58683486Y-3429427D01*
X-58683486Y-3429427D02*
X-58629612Y-3321677D01*
X-58629612Y-3321677D02*
X-58494925Y-3186990D01*
X-58494925Y-3186990D02*
X-58387175Y-3133115D01*
X-58387175Y-3133115D02*
X-58279425Y-3133115D01*
X-58279425Y-3133115D02*
X-58198613Y-3160053D01*
X-58198613Y-3160053D02*
X-58090863Y-3052303D01*
X-58090863Y-3052303D02*
X-58225551Y-2917616D01*
X-58860608Y-6327209D02*
X-58941420Y-6785145D01*
X-58537359Y-6650458D02*
X-59103044Y-7216143D01*
X-59103044Y-7216143D02*
X-59318543Y-7000644D01*
X-59318543Y-7000644D02*
X-59345481Y-6919832D01*
X-59345481Y-6919832D02*
X-59345481Y-6865957D01*
X-59345481Y-6865957D02*
X-59318543Y-6785145D01*
X-59318543Y-6785145D02*
X-59237731Y-6704332D01*
X-59237731Y-6704332D02*
X-59156919Y-6677395D01*
X-59156919Y-6677395D02*
X-59103044Y-6677395D01*
X-59103044Y-6677395D02*
X-59022232Y-6704332D01*
X-59022232Y-6704332D02*
X-58806733Y-6919832D01*
X-59399356Y-5788461D02*
X-59076107Y-6111710D01*
X-59237731Y-5950085D02*
X-59803417Y-6515771D01*
X-59803417Y-6515771D02*
X-59668730Y-6488833D01*
X-59668730Y-6488833D02*
X-59560980Y-6488833D01*
X-59560980Y-6488833D02*
X-59480168Y-6515771D01*
X-60153603Y-6165584D02*
X-60503789Y-5815398D01*
X-60503789Y-5815398D02*
X-60099728Y-5788461D01*
X-60099728Y-5788461D02*
X-60180540Y-5707648D01*
X-60180540Y-5707648D02*
X-60207478Y-5626836D01*
X-60207478Y-5626836D02*
X-60207478Y-5572961D01*
X-60207478Y-5572961D02*
X-60180540Y-5492149D01*
X-60180540Y-5492149D02*
X-60045853Y-5357462D01*
X-60045853Y-5357462D02*
X-59965041Y-5330525D01*
X-59965041Y-5330525D02*
X-59911166Y-5330525D01*
X-59911166Y-5330525D02*
X-59830354Y-5357462D01*
X-59830354Y-5357462D02*
X-59668730Y-5519087D01*
X-59668730Y-5519087D02*
X-59641792Y-5599899D01*
X-59641792Y-5599899D02*
X-59641792Y-5653774D01*
X-20064044Y17121933D02*
X-20064044Y16740981D01*
X-20064044Y16740981D02*
X-19683092Y16702885D01*
X-19683092Y16702885D02*
X-19721187Y16740981D01*
X-19721187Y16740981D02*
X-19759282Y16817171D01*
X-19759282Y16817171D02*
X-19759282Y17007647D01*
X-19759282Y17007647D02*
X-19721187Y17083838D01*
X-19721187Y17083838D02*
X-19683092Y17121933D01*
X-19683092Y17121933D02*
X-19606901Y17160028D01*
X-19606901Y17160028D02*
X-19416425Y17160028D01*
X-19416425Y17160028D02*
X-19340235Y17121933D01*
X-19340235Y17121933D02*
X-19302140Y17083838D01*
X-19302140Y17083838D02*
X-19264044Y17007647D01*
X-19264044Y17007647D02*
X-19264044Y16817171D01*
X-19264044Y16817171D02*
X-19302140Y16740981D01*
X-19302140Y16740981D02*
X-19340235Y16702885D01*
X-20064044Y17655267D02*
X-20064044Y17731457D01*
X-20064044Y17731457D02*
X-20025949Y17807648D01*
X-20025949Y17807648D02*
X-19987854Y17845743D01*
X-19987854Y17845743D02*
X-19911663Y17883838D01*
X-19911663Y17883838D02*
X-19759282Y17921933D01*
X-19759282Y17921933D02*
X-19568806Y17921933D01*
X-19568806Y17921933D02*
X-19416425Y17883838D01*
X-19416425Y17883838D02*
X-19340235Y17845743D01*
X-19340235Y17845743D02*
X-19302140Y17807648D01*
X-19302140Y17807648D02*
X-19264044Y17731457D01*
X-19264044Y17731457D02*
X-19264044Y17655267D01*
X-19264044Y17655267D02*
X-19302140Y17579076D01*
X-19302140Y17579076D02*
X-19340235Y17540981D01*
X-19340235Y17540981D02*
X-19416425Y17502886D01*
X-19416425Y17502886D02*
X-19568806Y17464790D01*
X-19568806Y17464790D02*
X-19759282Y17464790D01*
X-19759282Y17464790D02*
X-19911663Y17502886D01*
X-19911663Y17502886D02*
X-19987854Y17540981D01*
X-19987854Y17540981D02*
X-20025949Y17579076D01*
X-20025949Y17579076D02*
X-20064044Y17655267D01*
X-20064044Y18417172D02*
X-20064044Y18493362D01*
X-20064044Y18493362D02*
X-20025949Y18569553D01*
X-20025949Y18569553D02*
X-19987854Y18607648D01*
X-19987854Y18607648D02*
X-19911663Y18645743D01*
X-19911663Y18645743D02*
X-19759282Y18683838D01*
X-19759282Y18683838D02*
X-19568806Y18683838D01*
X-19568806Y18683838D02*
X-19416425Y18645743D01*
X-19416425Y18645743D02*
X-19340235Y18607648D01*
X-19340235Y18607648D02*
X-19302140Y18569553D01*
X-19302140Y18569553D02*
X-19264044Y18493362D01*
X-19264044Y18493362D02*
X-19264044Y18417172D01*
X-19264044Y18417172D02*
X-19302140Y18340981D01*
X-19302140Y18340981D02*
X-19340235Y18302886D01*
X-19340235Y18302886D02*
X-19416425Y18264791D01*
X-19416425Y18264791D02*
X-19568806Y18226695D01*
X-19568806Y18226695D02*
X-19759282Y18226695D01*
X-19759282Y18226695D02*
X-19911663Y18264791D01*
X-19911663Y18264791D02*
X-19987854Y18302886D01*
X-19987854Y18302886D02*
X-20025949Y18340981D01*
X-20025949Y18340981D02*
X-20064044Y18417172D01*
X-19264044Y18988600D02*
X-19264044Y19179077D01*
X-19264044Y19179077D02*
X-19416425Y19179077D01*
X-19416425Y19179077D02*
X-19454520Y19102886D01*
X-19454520Y19102886D02*
X-19530711Y19026696D01*
X-19530711Y19026696D02*
X-19644997Y18988600D01*
X-19644997Y18988600D02*
X-19835473Y18988600D01*
X-19835473Y18988600D02*
X-19949759Y19026696D01*
X-19949759Y19026696D02*
X-20025949Y19102886D01*
X-20025949Y19102886D02*
X-20064044Y19217172D01*
X-20064044Y19217172D02*
X-20064044Y19369553D01*
X-20064044Y19369553D02*
X-20025949Y19483839D01*
X-20025949Y19483839D02*
X-19949759Y19560029D01*
X-19949759Y19560029D02*
X-19835473Y19598124D01*
X-19835473Y19598124D02*
X-19644997Y19598124D01*
X-19644997Y19598124D02*
X-19530711Y19560029D01*
X-19530711Y19560029D02*
X-19454520Y19483839D01*
X-19454520Y19483839D02*
X-19416425Y19407648D01*
X-19416425Y19407648D02*
X-19264044Y19407648D01*
X-19264044Y19407648D02*
X-19264044Y19598124D01*
X-22124044Y18017162D02*
X-22504997Y17750495D01*
X-22124044Y17560019D02*
X-22924044Y17560019D01*
X-22924044Y17560019D02*
X-22924044Y17864781D01*
X-22924044Y17864781D02*
X-22885949Y17940971D01*
X-22885949Y17940971D02*
X-22847854Y17979066D01*
X-22847854Y17979066D02*
X-22771663Y18017162D01*
X-22771663Y18017162D02*
X-22657378Y18017162D01*
X-22657378Y18017162D02*
X-22581187Y17979066D01*
X-22581187Y17979066D02*
X-22543092Y17940971D01*
X-22543092Y17940971D02*
X-22504997Y17864781D01*
X-22504997Y17864781D02*
X-22504997Y17560019D01*
X-22847854Y18321923D02*
X-22885949Y18360019D01*
X-22885949Y18360019D02*
X-22924044Y18436209D01*
X-22924044Y18436209D02*
X-22924044Y18626685D01*
X-22924044Y18626685D02*
X-22885949Y18702876D01*
X-22885949Y18702876D02*
X-22847854Y18740971D01*
X-22847854Y18740971D02*
X-22771663Y18779066D01*
X-22771663Y18779066D02*
X-22695473Y18779066D01*
X-22695473Y18779066D02*
X-22581187Y18740971D01*
X-22581187Y18740971D02*
X-22124044Y18283828D01*
X-22124044Y18283828D02*
X-22124044Y18779066D01*
X-10494324Y-29115744D02*
X-10113372Y-29115744D01*
X-10113372Y-29115744D02*
X-10075276Y-28734792D01*
X-10075276Y-28734792D02*
X-10113372Y-28772887D01*
X-10113372Y-28772887D02*
X-10189562Y-28810982D01*
X-10189562Y-28810982D02*
X-10380038Y-28810982D01*
X-10380038Y-28810982D02*
X-10456229Y-28772887D01*
X-10456229Y-28772887D02*
X-10494324Y-28734792D01*
X-10494324Y-28734792D02*
X-10532419Y-28658601D01*
X-10532419Y-28658601D02*
X-10532419Y-28468125D01*
X-10532419Y-28468125D02*
X-10494324Y-28391935D01*
X-10494324Y-28391935D02*
X-10456229Y-28353840D01*
X-10456229Y-28353840D02*
X-10380038Y-28315744D01*
X-10380038Y-28315744D02*
X-10189562Y-28315744D01*
X-10189562Y-28315744D02*
X-10113372Y-28353840D01*
X-10113372Y-28353840D02*
X-10075276Y-28391935D01*
X-11027658Y-29115744D02*
X-11103848Y-29115744D01*
X-11103848Y-29115744D02*
X-11180039Y-29077649D01*
X-11180039Y-29077649D02*
X-11218134Y-29039554D01*
X-11218134Y-29039554D02*
X-11256229Y-28963363D01*
X-11256229Y-28963363D02*
X-11294324Y-28810982D01*
X-11294324Y-28810982D02*
X-11294324Y-28620506D01*
X-11294324Y-28620506D02*
X-11256229Y-28468125D01*
X-11256229Y-28468125D02*
X-11218134Y-28391935D01*
X-11218134Y-28391935D02*
X-11180039Y-28353840D01*
X-11180039Y-28353840D02*
X-11103848Y-28315744D01*
X-11103848Y-28315744D02*
X-11027658Y-28315744D01*
X-11027658Y-28315744D02*
X-10951467Y-28353840D01*
X-10951467Y-28353840D02*
X-10913372Y-28391935D01*
X-10913372Y-28391935D02*
X-10875277Y-28468125D01*
X-10875277Y-28468125D02*
X-10837181Y-28620506D01*
X-10837181Y-28620506D02*
X-10837181Y-28810982D01*
X-10837181Y-28810982D02*
X-10875277Y-28963363D01*
X-10875277Y-28963363D02*
X-10913372Y-29039554D01*
X-10913372Y-29039554D02*
X-10951467Y-29077649D01*
X-10951467Y-29077649D02*
X-11027658Y-29115744D01*
X-11789563Y-29115744D02*
X-11865753Y-29115744D01*
X-11865753Y-29115744D02*
X-11941944Y-29077649D01*
X-11941944Y-29077649D02*
X-11980039Y-29039554D01*
X-11980039Y-29039554D02*
X-12018134Y-28963363D01*
X-12018134Y-28963363D02*
X-12056229Y-28810982D01*
X-12056229Y-28810982D02*
X-12056229Y-28620506D01*
X-12056229Y-28620506D02*
X-12018134Y-28468125D01*
X-12018134Y-28468125D02*
X-11980039Y-28391935D01*
X-11980039Y-28391935D02*
X-11941944Y-28353840D01*
X-11941944Y-28353840D02*
X-11865753Y-28315744D01*
X-11865753Y-28315744D02*
X-11789563Y-28315744D01*
X-11789563Y-28315744D02*
X-11713372Y-28353840D01*
X-11713372Y-28353840D02*
X-11675277Y-28391935D01*
X-11675277Y-28391935D02*
X-11637182Y-28468125D01*
X-11637182Y-28468125D02*
X-11599086Y-28620506D01*
X-11599086Y-28620506D02*
X-11599086Y-28810982D01*
X-11599086Y-28810982D02*
X-11637182Y-28963363D01*
X-11637182Y-28963363D02*
X-11675277Y-29039554D01*
X-11675277Y-29039554D02*
X-11713372Y-29077649D01*
X-11713372Y-29077649D02*
X-11789563Y-29115744D01*
X-12360991Y-28315744D02*
X-12551468Y-28315744D01*
X-12551468Y-28315744D02*
X-12551468Y-28468125D01*
X-12551468Y-28468125D02*
X-12475277Y-28506220D01*
X-12475277Y-28506220D02*
X-12399087Y-28582411D01*
X-12399087Y-28582411D02*
X-12360991Y-28696697D01*
X-12360991Y-28696697D02*
X-12360991Y-28887173D01*
X-12360991Y-28887173D02*
X-12399087Y-29001459D01*
X-12399087Y-29001459D02*
X-12475277Y-29077649D01*
X-12475277Y-29077649D02*
X-12589563Y-29115744D01*
X-12589563Y-29115744D02*
X-12741944Y-29115744D01*
X-12741944Y-29115744D02*
X-12856230Y-29077649D01*
X-12856230Y-29077649D02*
X-12932420Y-29001459D01*
X-12932420Y-29001459D02*
X-12970515Y-28887173D01*
X-12970515Y-28887173D02*
X-12970515Y-28696697D01*
X-12970515Y-28696697D02*
X-12932420Y-28582411D01*
X-12932420Y-28582411D02*
X-12856230Y-28506220D01*
X-12856230Y-28506220D02*
X-12780039Y-28468125D01*
X-12780039Y-28468125D02*
X-12780039Y-28315744D01*
X-12780039Y-28315744D02*
X-12970515Y-28315744D01*
X-11389571Y-31175744D02*
X-11122904Y-31556697D01*
X-10932428Y-31175744D02*
X-10932428Y-31975744D01*
X-10932428Y-31975744D02*
X-11237190Y-31975744D01*
X-11237190Y-31975744D02*
X-11313380Y-31937649D01*
X-11313380Y-31937649D02*
X-11351475Y-31899554D01*
X-11351475Y-31899554D02*
X-11389571Y-31823363D01*
X-11389571Y-31823363D02*
X-11389571Y-31709078D01*
X-11389571Y-31709078D02*
X-11351475Y-31632887D01*
X-11351475Y-31632887D02*
X-11313380Y-31594792D01*
X-11313380Y-31594792D02*
X-11237190Y-31556697D01*
X-11237190Y-31556697D02*
X-10932428Y-31556697D01*
X-12113380Y-31975744D02*
X-11732428Y-31975744D01*
X-11732428Y-31975744D02*
X-11694332Y-31594792D01*
X-11694332Y-31594792D02*
X-11732428Y-31632887D01*
X-11732428Y-31632887D02*
X-11808618Y-31670982D01*
X-11808618Y-31670982D02*
X-11999094Y-31670982D01*
X-11999094Y-31670982D02*
X-12075285Y-31632887D01*
X-12075285Y-31632887D02*
X-12113380Y-31594792D01*
X-12113380Y-31594792D02*
X-12151475Y-31518601D01*
X-12151475Y-31518601D02*
X-12151475Y-31328125D01*
X-12151475Y-31328125D02*
X-12113380Y-31251935D01*
X-12113380Y-31251935D02*
X-12075285Y-31213840D01*
X-12075285Y-31213840D02*
X-11999094Y-31175744D01*
X-11999094Y-31175744D02*
X-11808618Y-31175744D01*
X-11808618Y-31175744D02*
X-11732428Y-31213840D01*
X-11732428Y-31213840D02*
X-11694332Y-31251935D01*
X-44686904Y-5234233D02*
X-44417530Y-5503607D01*
X-44417530Y-5503607D02*
X-44121219Y-5261170D01*
X-44121219Y-5261170D02*
X-44175094Y-5261170D01*
X-44175094Y-5261170D02*
X-44255906Y-5234233D01*
X-44255906Y-5234233D02*
X-44390593Y-5099546D01*
X-44390593Y-5099546D02*
X-44417530Y-5018734D01*
X-44417530Y-5018734D02*
X-44417530Y-4964859D01*
X-44417530Y-4964859D02*
X-44390593Y-4884047D01*
X-44390593Y-4884047D02*
X-44255906Y-4749360D01*
X-44255906Y-4749360D02*
X-44175094Y-4722422D01*
X-44175094Y-4722422D02*
X-44121219Y-4722422D01*
X-44121219Y-4722422D02*
X-44040407Y-4749360D01*
X-44040407Y-4749360D02*
X-43905720Y-4884047D01*
X-43905720Y-4884047D02*
X-43878782Y-4964859D01*
X-43878782Y-4964859D02*
X-43878782Y-5018734D01*
X-45064028Y-4857109D02*
X-45117903Y-4803234D01*
X-45117903Y-4803234D02*
X-45144840Y-4722422D01*
X-45144840Y-4722422D02*
X-45144840Y-4668547D01*
X-45144840Y-4668547D02*
X-45117903Y-4587735D01*
X-45117903Y-4587735D02*
X-45037091Y-4453048D01*
X-45037091Y-4453048D02*
X-44902404Y-4318361D01*
X-44902404Y-4318361D02*
X-44767717Y-4237549D01*
X-44767717Y-4237549D02*
X-44686905Y-4210612D01*
X-44686905Y-4210612D02*
X-44633030Y-4210612D01*
X-44633030Y-4210612D02*
X-44552218Y-4237549D01*
X-44552218Y-4237549D02*
X-44498343Y-4291424D01*
X-44498343Y-4291424D02*
X-44471405Y-4372236D01*
X-44471405Y-4372236D02*
X-44471405Y-4426111D01*
X-44471405Y-4426111D02*
X-44498343Y-4506923D01*
X-44498343Y-4506923D02*
X-44579155Y-4641610D01*
X-44579155Y-4641610D02*
X-44713842Y-4776297D01*
X-44713842Y-4776297D02*
X-44848529Y-4857109D01*
X-44848529Y-4857109D02*
X-44929341Y-4884047D01*
X-44929341Y-4884047D02*
X-44983216Y-4884047D01*
X-44983216Y-4884047D02*
X-45064028Y-4857109D01*
X-45602776Y-4318361D02*
X-45656651Y-4264486D01*
X-45656651Y-4264486D02*
X-45683589Y-4183674D01*
X-45683589Y-4183674D02*
X-45683589Y-4129799D01*
X-45683589Y-4129799D02*
X-45656651Y-4048987D01*
X-45656651Y-4048987D02*
X-45575839Y-3914300D01*
X-45575839Y-3914300D02*
X-45441152Y-3779613D01*
X-45441152Y-3779613D02*
X-45306465Y-3698801D01*
X-45306465Y-3698801D02*
X-45225653Y-3671863D01*
X-45225653Y-3671863D02*
X-45171778Y-3671863D01*
X-45171778Y-3671863D02*
X-45090966Y-3698801D01*
X-45090966Y-3698801D02*
X-45037091Y-3752676D01*
X-45037091Y-3752676D02*
X-45010153Y-3833488D01*
X-45010153Y-3833488D02*
X-45010153Y-3887363D01*
X-45010153Y-3887363D02*
X-45037091Y-3968175D01*
X-45037091Y-3968175D02*
X-45117903Y-4102862D01*
X-45117903Y-4102862D02*
X-45252590Y-4237549D01*
X-45252590Y-4237549D02*
X-45387277Y-4318361D01*
X-45387277Y-4318361D02*
X-45468089Y-4345298D01*
X-45468089Y-4345298D02*
X-45521964Y-4345298D01*
X-45521964Y-4345298D02*
X-45602776Y-4318361D01*
X-45441152Y-3348614D02*
X-45575839Y-3213927D01*
X-45575839Y-3213927D02*
X-45683589Y-3321677D01*
X-45683589Y-3321677D02*
X-45656651Y-3402489D01*
X-45656651Y-3402489D02*
X-45656651Y-3510239D01*
X-45656651Y-3510239D02*
X-45710526Y-3617988D01*
X-45710526Y-3617988D02*
X-45845213Y-3752675D01*
X-45845213Y-3752675D02*
X-45952963Y-3806550D01*
X-45952963Y-3806550D02*
X-46060712Y-3806550D01*
X-46060712Y-3806550D02*
X-46168462Y-3752675D01*
X-46168462Y-3752675D02*
X-46276212Y-3644926D01*
X-46276212Y-3644926D02*
X-46330086Y-3537176D01*
X-46330086Y-3537176D02*
X-46330086Y-3429427D01*
X-46330086Y-3429427D02*
X-46276212Y-3321677D01*
X-46276212Y-3321677D02*
X-46141525Y-3186990D01*
X-46141525Y-3186990D02*
X-46033775Y-3133115D01*
X-46033775Y-3133115D02*
X-45926025Y-3133115D01*
X-45926025Y-3133115D02*
X-45845213Y-3160053D01*
X-45845213Y-3160053D02*
X-45737463Y-3052303D01*
X-45737463Y-3052303D02*
X-45872151Y-2917616D01*
X-46776582Y-6057834D02*
X-46857394Y-6515770D01*
X-46453333Y-6381083D02*
X-47019019Y-6946769D01*
X-47019019Y-6946769D02*
X-47234518Y-6731269D01*
X-47234518Y-6731269D02*
X-47261455Y-6650457D01*
X-47261455Y-6650457D02*
X-47261455Y-6596582D01*
X-47261455Y-6596582D02*
X-47234518Y-6515770D01*
X-47234518Y-6515770D02*
X-47153706Y-6434958D01*
X-47153706Y-6434958D02*
X-47072894Y-6408021D01*
X-47072894Y-6408021D02*
X-47019019Y-6408021D01*
X-47019019Y-6408021D02*
X-46938207Y-6434958D01*
X-46938207Y-6434958D02*
X-46722707Y-6650457D01*
X-47045956Y-5788460D02*
X-47153706Y-5680711D01*
X-47153706Y-5680711D02*
X-47234518Y-5653773D01*
X-47234518Y-5653773D02*
X-47288393Y-5653773D01*
X-47288393Y-5653773D02*
X-47423080Y-5680711D01*
X-47423080Y-5680711D02*
X-47557767Y-5761523D01*
X-47557767Y-5761523D02*
X-47773266Y-5977022D01*
X-47773266Y-5977022D02*
X-47800203Y-6057834D01*
X-47800203Y-6057834D02*
X-47800203Y-6111709D01*
X-47800203Y-6111709D02*
X-47773266Y-6192521D01*
X-47773266Y-6192521D02*
X-47665516Y-6300271D01*
X-47665516Y-6300271D02*
X-47584704Y-6327208D01*
X-47584704Y-6327208D02*
X-47530829Y-6327208D01*
X-47530829Y-6327208D02*
X-47450017Y-6300271D01*
X-47450017Y-6300271D02*
X-47315330Y-6165584D01*
X-47315330Y-6165584D02*
X-47288393Y-6084772D01*
X-47288393Y-6084772D02*
X-47288393Y-6030897D01*
X-47288393Y-6030897D02*
X-47315330Y-5950085D01*
X-47315330Y-5950085D02*
X-47423080Y-5842335D01*
X-47423080Y-5842335D02*
X-47503892Y-5815398D01*
X-47503892Y-5815398D02*
X-47557767Y-5815398D01*
X-47557767Y-5815398D02*
X-47638579Y-5842335D01*
X13167528Y-41106055D02*
X12786576Y-41106055D01*
X12786576Y-41106055D02*
X12748480Y-41487007D01*
X12748480Y-41487007D02*
X12786576Y-41448912D01*
X12786576Y-41448912D02*
X12862766Y-41410817D01*
X12862766Y-41410817D02*
X13053242Y-41410817D01*
X13053242Y-41410817D02*
X13129433Y-41448912D01*
X13129433Y-41448912D02*
X13167528Y-41487007D01*
X13167528Y-41487007D02*
X13205623Y-41563198D01*
X13205623Y-41563198D02*
X13205623Y-41753674D01*
X13205623Y-41753674D02*
X13167528Y-41829864D01*
X13167528Y-41829864D02*
X13129433Y-41867960D01*
X13129433Y-41867960D02*
X13053242Y-41906055D01*
X13053242Y-41906055D02*
X12862766Y-41906055D01*
X12862766Y-41906055D02*
X12786576Y-41867960D01*
X12786576Y-41867960D02*
X12748480Y-41829864D01*
X13700862Y-41106055D02*
X13777052Y-41106055D01*
X13777052Y-41106055D02*
X13853243Y-41144150D01*
X13853243Y-41144150D02*
X13891338Y-41182245D01*
X13891338Y-41182245D02*
X13929433Y-41258436D01*
X13929433Y-41258436D02*
X13967528Y-41410817D01*
X13967528Y-41410817D02*
X13967528Y-41601293D01*
X13967528Y-41601293D02*
X13929433Y-41753674D01*
X13929433Y-41753674D02*
X13891338Y-41829864D01*
X13891338Y-41829864D02*
X13853243Y-41867960D01*
X13853243Y-41867960D02*
X13777052Y-41906055D01*
X13777052Y-41906055D02*
X13700862Y-41906055D01*
X13700862Y-41906055D02*
X13624671Y-41867960D01*
X13624671Y-41867960D02*
X13586576Y-41829864D01*
X13586576Y-41829864D02*
X13548481Y-41753674D01*
X13548481Y-41753674D02*
X13510385Y-41601293D01*
X13510385Y-41601293D02*
X13510385Y-41410817D01*
X13510385Y-41410817D02*
X13548481Y-41258436D01*
X13548481Y-41258436D02*
X13586576Y-41182245D01*
X13586576Y-41182245D02*
X13624671Y-41144150D01*
X13624671Y-41144150D02*
X13700862Y-41106055D01*
X14462767Y-41106055D02*
X14538957Y-41106055D01*
X14538957Y-41106055D02*
X14615148Y-41144150D01*
X14615148Y-41144150D02*
X14653243Y-41182245D01*
X14653243Y-41182245D02*
X14691338Y-41258436D01*
X14691338Y-41258436D02*
X14729433Y-41410817D01*
X14729433Y-41410817D02*
X14729433Y-41601293D01*
X14729433Y-41601293D02*
X14691338Y-41753674D01*
X14691338Y-41753674D02*
X14653243Y-41829864D01*
X14653243Y-41829864D02*
X14615148Y-41867960D01*
X14615148Y-41867960D02*
X14538957Y-41906055D01*
X14538957Y-41906055D02*
X14462767Y-41906055D01*
X14462767Y-41906055D02*
X14386576Y-41867960D01*
X14386576Y-41867960D02*
X14348481Y-41829864D01*
X14348481Y-41829864D02*
X14310386Y-41753674D01*
X14310386Y-41753674D02*
X14272290Y-41601293D01*
X14272290Y-41601293D02*
X14272290Y-41410817D01*
X14272290Y-41410817D02*
X14310386Y-41258436D01*
X14310386Y-41258436D02*
X14348481Y-41182245D01*
X14348481Y-41182245D02*
X14386576Y-41144150D01*
X14386576Y-41144150D02*
X14462767Y-41106055D01*
X15034195Y-41906055D02*
X15224672Y-41906055D01*
X15224672Y-41906055D02*
X15224672Y-41753674D01*
X15224672Y-41753674D02*
X15148481Y-41715579D01*
X15148481Y-41715579D02*
X15072291Y-41639388D01*
X15072291Y-41639388D02*
X15034195Y-41525102D01*
X15034195Y-41525102D02*
X15034195Y-41334626D01*
X15034195Y-41334626D02*
X15072291Y-41220340D01*
X15072291Y-41220340D02*
X15148481Y-41144150D01*
X15148481Y-41144150D02*
X15262767Y-41106055D01*
X15262767Y-41106055D02*
X15415148Y-41106055D01*
X15415148Y-41106055D02*
X15529434Y-41144150D01*
X15529434Y-41144150D02*
X15605624Y-41220340D01*
X15605624Y-41220340D02*
X15643719Y-41334626D01*
X15643719Y-41334626D02*
X15643719Y-41525102D01*
X15643719Y-41525102D02*
X15605624Y-41639388D01*
X15605624Y-41639388D02*
X15529434Y-41715579D01*
X15529434Y-41715579D02*
X15453243Y-41753674D01*
X15453243Y-41753674D02*
X15453243Y-41906055D01*
X15453243Y-41906055D02*
X15643719Y-41906055D01*
X14062767Y-39046055D02*
X13796100Y-38665102D01*
X13605624Y-39046055D02*
X13605624Y-38246055D01*
X13605624Y-38246055D02*
X13910386Y-38246055D01*
X13910386Y-38246055D02*
X13986576Y-38284150D01*
X13986576Y-38284150D02*
X14024671Y-38322245D01*
X14024671Y-38322245D02*
X14062767Y-38398436D01*
X14062767Y-38398436D02*
X14062767Y-38512721D01*
X14062767Y-38512721D02*
X14024671Y-38588912D01*
X14024671Y-38588912D02*
X13986576Y-38627007D01*
X13986576Y-38627007D02*
X13910386Y-38665102D01*
X13910386Y-38665102D02*
X13605624Y-38665102D01*
X14519909Y-38588912D02*
X14443719Y-38550817D01*
X14443719Y-38550817D02*
X14405624Y-38512721D01*
X14405624Y-38512721D02*
X14367528Y-38436531D01*
X14367528Y-38436531D02*
X14367528Y-38398436D01*
X14367528Y-38398436D02*
X14405624Y-38322245D01*
X14405624Y-38322245D02*
X14443719Y-38284150D01*
X14443719Y-38284150D02*
X14519909Y-38246055D01*
X14519909Y-38246055D02*
X14672290Y-38246055D01*
X14672290Y-38246055D02*
X14748481Y-38284150D01*
X14748481Y-38284150D02*
X14786576Y-38322245D01*
X14786576Y-38322245D02*
X14824671Y-38398436D01*
X14824671Y-38398436D02*
X14824671Y-38436531D01*
X14824671Y-38436531D02*
X14786576Y-38512721D01*
X14786576Y-38512721D02*
X14748481Y-38550817D01*
X14748481Y-38550817D02*
X14672290Y-38588912D01*
X14672290Y-38588912D02*
X14519909Y-38588912D01*
X14519909Y-38588912D02*
X14443719Y-38627007D01*
X14443719Y-38627007D02*
X14405624Y-38665102D01*
X14405624Y-38665102D02*
X14367528Y-38741293D01*
X14367528Y-38741293D02*
X14367528Y-38893674D01*
X14367528Y-38893674D02*
X14405624Y-38969864D01*
X14405624Y-38969864D02*
X14443719Y-39007960D01*
X14443719Y-39007960D02*
X14519909Y-39046055D01*
X14519909Y-39046055D02*
X14672290Y-39046055D01*
X14672290Y-39046055D02*
X14748481Y-39007960D01*
X14748481Y-39007960D02*
X14786576Y-38969864D01*
X14786576Y-38969864D02*
X14824671Y-38893674D01*
X14824671Y-38893674D02*
X14824671Y-38741293D01*
X14824671Y-38741293D02*
X14786576Y-38665102D01*
X14786576Y-38665102D02*
X14748481Y-38627007D01*
X14748481Y-38627007D02*
X14672290Y-38588912D01*
X-60128704Y-5234233D02*
X-59859330Y-5503607D01*
X-59859330Y-5503607D02*
X-59563019Y-5261170D01*
X-59563019Y-5261170D02*
X-59616894Y-5261170D01*
X-59616894Y-5261170D02*
X-59697706Y-5234233D01*
X-59697706Y-5234233D02*
X-59832393Y-5099546D01*
X-59832393Y-5099546D02*
X-59859330Y-5018734D01*
X-59859330Y-5018734D02*
X-59859330Y-4964859D01*
X-59859330Y-4964859D02*
X-59832393Y-4884047D01*
X-59832393Y-4884047D02*
X-59697706Y-4749360D01*
X-59697706Y-4749360D02*
X-59616894Y-4722422D01*
X-59616894Y-4722422D02*
X-59563019Y-4722422D01*
X-59563019Y-4722422D02*
X-59482207Y-4749360D01*
X-59482207Y-4749360D02*
X-59347520Y-4884047D01*
X-59347520Y-4884047D02*
X-59320582Y-4964859D01*
X-59320582Y-4964859D02*
X-59320582Y-5018734D01*
X-60505828Y-4857109D02*
X-60559703Y-4803234D01*
X-60559703Y-4803234D02*
X-60586640Y-4722422D01*
X-60586640Y-4722422D02*
X-60586640Y-4668547D01*
X-60586640Y-4668547D02*
X-60559703Y-4587735D01*
X-60559703Y-4587735D02*
X-60478891Y-4453048D01*
X-60478891Y-4453048D02*
X-60344204Y-4318361D01*
X-60344204Y-4318361D02*
X-60209517Y-4237549D01*
X-60209517Y-4237549D02*
X-60128705Y-4210612D01*
X-60128705Y-4210612D02*
X-60074830Y-4210612D01*
X-60074830Y-4210612D02*
X-59994018Y-4237549D01*
X-59994018Y-4237549D02*
X-59940143Y-4291424D01*
X-59940143Y-4291424D02*
X-59913205Y-4372236D01*
X-59913205Y-4372236D02*
X-59913205Y-4426111D01*
X-59913205Y-4426111D02*
X-59940143Y-4506923D01*
X-59940143Y-4506923D02*
X-60020955Y-4641610D01*
X-60020955Y-4641610D02*
X-60155642Y-4776297D01*
X-60155642Y-4776297D02*
X-60290329Y-4857109D01*
X-60290329Y-4857109D02*
X-60371141Y-4884047D01*
X-60371141Y-4884047D02*
X-60425016Y-4884047D01*
X-60425016Y-4884047D02*
X-60505828Y-4857109D01*
X-61044576Y-4318361D02*
X-61098451Y-4264486D01*
X-61098451Y-4264486D02*
X-61125389Y-4183674D01*
X-61125389Y-4183674D02*
X-61125389Y-4129799D01*
X-61125389Y-4129799D02*
X-61098451Y-4048987D01*
X-61098451Y-4048987D02*
X-61017639Y-3914300D01*
X-61017639Y-3914300D02*
X-60882952Y-3779613D01*
X-60882952Y-3779613D02*
X-60748265Y-3698801D01*
X-60748265Y-3698801D02*
X-60667453Y-3671863D01*
X-60667453Y-3671863D02*
X-60613578Y-3671863D01*
X-60613578Y-3671863D02*
X-60532766Y-3698801D01*
X-60532766Y-3698801D02*
X-60478891Y-3752676D01*
X-60478891Y-3752676D02*
X-60451953Y-3833488D01*
X-60451953Y-3833488D02*
X-60451953Y-3887363D01*
X-60451953Y-3887363D02*
X-60478891Y-3968175D01*
X-60478891Y-3968175D02*
X-60559703Y-4102862D01*
X-60559703Y-4102862D02*
X-60694390Y-4237549D01*
X-60694390Y-4237549D02*
X-60829077Y-4318361D01*
X-60829077Y-4318361D02*
X-60909889Y-4345298D01*
X-60909889Y-4345298D02*
X-60963764Y-4345298D01*
X-60963764Y-4345298D02*
X-61044576Y-4318361D01*
X-60882952Y-3348614D02*
X-61017639Y-3213927D01*
X-61017639Y-3213927D02*
X-61125389Y-3321677D01*
X-61125389Y-3321677D02*
X-61098451Y-3402489D01*
X-61098451Y-3402489D02*
X-61098451Y-3510239D01*
X-61098451Y-3510239D02*
X-61152326Y-3617988D01*
X-61152326Y-3617988D02*
X-61287013Y-3752675D01*
X-61287013Y-3752675D02*
X-61394763Y-3806550D01*
X-61394763Y-3806550D02*
X-61502512Y-3806550D01*
X-61502512Y-3806550D02*
X-61610262Y-3752675D01*
X-61610262Y-3752675D02*
X-61718012Y-3644926D01*
X-61718012Y-3644926D02*
X-61771886Y-3537176D01*
X-61771886Y-3537176D02*
X-61771886Y-3429427D01*
X-61771886Y-3429427D02*
X-61718012Y-3321677D01*
X-61718012Y-3321677D02*
X-61583325Y-3186990D01*
X-61583325Y-3186990D02*
X-61475575Y-3133115D01*
X-61475575Y-3133115D02*
X-61367825Y-3133115D01*
X-61367825Y-3133115D02*
X-61287013Y-3160053D01*
X-61287013Y-3160053D02*
X-61179263Y-3052303D01*
X-61179263Y-3052303D02*
X-61313951Y-2917616D01*
X-61949008Y-6327209D02*
X-62029820Y-6785145D01*
X-61625759Y-6650458D02*
X-62191444Y-7216143D01*
X-62191444Y-7216143D02*
X-62406943Y-7000644D01*
X-62406943Y-7000644D02*
X-62433881Y-6919832D01*
X-62433881Y-6919832D02*
X-62433881Y-6865957D01*
X-62433881Y-6865957D02*
X-62406943Y-6785145D01*
X-62406943Y-6785145D02*
X-62326131Y-6704332D01*
X-62326131Y-6704332D02*
X-62245319Y-6677395D01*
X-62245319Y-6677395D02*
X-62191444Y-6677395D01*
X-62191444Y-6677395D02*
X-62110632Y-6704332D01*
X-62110632Y-6704332D02*
X-61895133Y-6919832D01*
X-62487756Y-5788461D02*
X-62164507Y-6111710D01*
X-62326131Y-5950085D02*
X-62891817Y-6515771D01*
X-62891817Y-6515771D02*
X-62757130Y-6488833D01*
X-62757130Y-6488833D02*
X-62649380Y-6488833D01*
X-62649380Y-6488833D02*
X-62568568Y-6515771D01*
X-63349753Y-5680711D02*
X-62972629Y-5303587D01*
X-63430565Y-6030897D02*
X-62891817Y-5761523D01*
X-62891817Y-5761523D02*
X-63242003Y-5411337D01*
X-23694044Y24884159D02*
X-23046425Y24884159D01*
X-23046425Y24884159D02*
X-22970235Y24922254D01*
X-22970235Y24922254D02*
X-22932140Y24960349D01*
X-22932140Y24960349D02*
X-22894044Y25036540D01*
X-22894044Y25036540D02*
X-22894044Y25188921D01*
X-22894044Y25188921D02*
X-22932140Y25265111D01*
X-22932140Y25265111D02*
X-22970235Y25303206D01*
X-22970235Y25303206D02*
X-23046425Y25341302D01*
X-23046425Y25341302D02*
X-23694044Y25341302D01*
X-22894044Y26141301D02*
X-22894044Y25684158D01*
X-22894044Y25912730D02*
X-23694044Y25912730D01*
X-23694044Y25912730D02*
X-23579759Y25836539D01*
X-23579759Y25836539D02*
X-23503568Y25760349D01*
X-23503568Y25760349D02*
X-23465473Y25684158D01*
X-45851293Y-7233639D02*
X-46120667Y-6964265D01*
X-46120667Y-6964265D02*
X-45554982Y-6398580D01*
X-45366420Y-7125889D02*
X-45177858Y-7314451D01*
X-45393358Y-7691575D02*
X-45662732Y-7422201D01*
X-45662732Y-7422201D02*
X-45097046Y-6856515D01*
X-45097046Y-6856515D02*
X-44827672Y-7125889D01*
X-45150921Y-7934012D02*
X-44585235Y-7368326D01*
X-44585235Y-7368326D02*
X-44450548Y-7503013D01*
X-44450548Y-7503013D02*
X-44396673Y-7610763D01*
X-44396673Y-7610763D02*
X-44396673Y-7718513D01*
X-44396673Y-7718513D02*
X-44423611Y-7799325D01*
X-44423611Y-7799325D02*
X-44504423Y-7934012D01*
X-44504423Y-7934012D02*
X-44585235Y-8014824D01*
X-44585235Y-8014824D02*
X-44719922Y-8095636D01*
X-44719922Y-8095636D02*
X-44800734Y-8122574D01*
X-44800734Y-8122574D02*
X-44908484Y-8122574D01*
X-44908484Y-8122574D02*
X-45016234Y-8068699D01*
X-45016234Y-8068699D02*
X-45150921Y-7934012D01*
X-44288924Y-8796009D02*
X-44612173Y-8472760D01*
X-44450548Y-8634384D02*
X-43884863Y-8068699D01*
X-43884863Y-8068699D02*
X-44019550Y-8095636D01*
X-44019550Y-8095636D02*
X-44127299Y-8095636D01*
X-44127299Y-8095636D02*
X-44208112Y-8068699D01*
X-18892532Y20063035D02*
X-18930628Y20024940D01*
X-18930628Y20024940D02*
X-19044913Y19986844D01*
X-19044913Y19986844D02*
X-19121104Y19986844D01*
X-19121104Y19986844D02*
X-19235390Y20024940D01*
X-19235390Y20024940D02*
X-19311580Y20101130D01*
X-19311580Y20101130D02*
X-19349675Y20177320D01*
X-19349675Y20177320D02*
X-19387771Y20329701D01*
X-19387771Y20329701D02*
X-19387771Y20443987D01*
X-19387771Y20443987D02*
X-19349675Y20596368D01*
X-19349675Y20596368D02*
X-19311580Y20672559D01*
X-19311580Y20672559D02*
X-19235390Y20748749D01*
X-19235390Y20748749D02*
X-19121104Y20786844D01*
X-19121104Y20786844D02*
X-19044913Y20786844D01*
X-19044913Y20786844D02*
X-18930628Y20748749D01*
X-18930628Y20748749D02*
X-18892532Y20710654D01*
X-18587771Y20710654D02*
X-18549675Y20748749D01*
X-18549675Y20748749D02*
X-18473485Y20786844D01*
X-18473485Y20786844D02*
X-18283009Y20786844D01*
X-18283009Y20786844D02*
X-18206818Y20748749D01*
X-18206818Y20748749D02*
X-18168723Y20710654D01*
X-18168723Y20710654D02*
X-18130628Y20634463D01*
X-18130628Y20634463D02*
X-18130628Y20558273D01*
X-18130628Y20558273D02*
X-18168723Y20443987D01*
X-18168723Y20443987D02*
X-18625866Y19986844D01*
X-18625866Y19986844D02*
X-18130628Y19986844D01*
X-66305404Y-5234233D02*
X-66036030Y-5503607D01*
X-66036030Y-5503607D02*
X-65739719Y-5261170D01*
X-65739719Y-5261170D02*
X-65793594Y-5261170D01*
X-65793594Y-5261170D02*
X-65874406Y-5234233D01*
X-65874406Y-5234233D02*
X-66009093Y-5099546D01*
X-66009093Y-5099546D02*
X-66036030Y-5018734D01*
X-66036030Y-5018734D02*
X-66036030Y-4964859D01*
X-66036030Y-4964859D02*
X-66009093Y-4884047D01*
X-66009093Y-4884047D02*
X-65874406Y-4749360D01*
X-65874406Y-4749360D02*
X-65793594Y-4722422D01*
X-65793594Y-4722422D02*
X-65739719Y-4722422D01*
X-65739719Y-4722422D02*
X-65658907Y-4749360D01*
X-65658907Y-4749360D02*
X-65524220Y-4884047D01*
X-65524220Y-4884047D02*
X-65497282Y-4964859D01*
X-65497282Y-4964859D02*
X-65497282Y-5018734D01*
X-66682528Y-4857109D02*
X-66736403Y-4803234D01*
X-66736403Y-4803234D02*
X-66763340Y-4722422D01*
X-66763340Y-4722422D02*
X-66763340Y-4668547D01*
X-66763340Y-4668547D02*
X-66736403Y-4587735D01*
X-66736403Y-4587735D02*
X-66655591Y-4453048D01*
X-66655591Y-4453048D02*
X-66520904Y-4318361D01*
X-66520904Y-4318361D02*
X-66386217Y-4237549D01*
X-66386217Y-4237549D02*
X-66305405Y-4210612D01*
X-66305405Y-4210612D02*
X-66251530Y-4210612D01*
X-66251530Y-4210612D02*
X-66170718Y-4237549D01*
X-66170718Y-4237549D02*
X-66116843Y-4291424D01*
X-66116843Y-4291424D02*
X-66089905Y-4372236D01*
X-66089905Y-4372236D02*
X-66089905Y-4426111D01*
X-66089905Y-4426111D02*
X-66116843Y-4506923D01*
X-66116843Y-4506923D02*
X-66197655Y-4641610D01*
X-66197655Y-4641610D02*
X-66332342Y-4776297D01*
X-66332342Y-4776297D02*
X-66467029Y-4857109D01*
X-66467029Y-4857109D02*
X-66547841Y-4884047D01*
X-66547841Y-4884047D02*
X-66601716Y-4884047D01*
X-66601716Y-4884047D02*
X-66682528Y-4857109D01*
X-67221276Y-4318361D02*
X-67275151Y-4264486D01*
X-67275151Y-4264486D02*
X-67302089Y-4183674D01*
X-67302089Y-4183674D02*
X-67302089Y-4129799D01*
X-67302089Y-4129799D02*
X-67275151Y-4048987D01*
X-67275151Y-4048987D02*
X-67194339Y-3914300D01*
X-67194339Y-3914300D02*
X-67059652Y-3779613D01*
X-67059652Y-3779613D02*
X-66924965Y-3698801D01*
X-66924965Y-3698801D02*
X-66844153Y-3671863D01*
X-66844153Y-3671863D02*
X-66790278Y-3671863D01*
X-66790278Y-3671863D02*
X-66709466Y-3698801D01*
X-66709466Y-3698801D02*
X-66655591Y-3752676D01*
X-66655591Y-3752676D02*
X-66628653Y-3833488D01*
X-66628653Y-3833488D02*
X-66628653Y-3887363D01*
X-66628653Y-3887363D02*
X-66655591Y-3968175D01*
X-66655591Y-3968175D02*
X-66736403Y-4102862D01*
X-66736403Y-4102862D02*
X-66871090Y-4237549D01*
X-66871090Y-4237549D02*
X-67005777Y-4318361D01*
X-67005777Y-4318361D02*
X-67086589Y-4345298D01*
X-67086589Y-4345298D02*
X-67140464Y-4345298D01*
X-67140464Y-4345298D02*
X-67221276Y-4318361D01*
X-67059652Y-3348614D02*
X-67194339Y-3213927D01*
X-67194339Y-3213927D02*
X-67302089Y-3321677D01*
X-67302089Y-3321677D02*
X-67275151Y-3402489D01*
X-67275151Y-3402489D02*
X-67275151Y-3510239D01*
X-67275151Y-3510239D02*
X-67329026Y-3617988D01*
X-67329026Y-3617988D02*
X-67463713Y-3752675D01*
X-67463713Y-3752675D02*
X-67571463Y-3806550D01*
X-67571463Y-3806550D02*
X-67679212Y-3806550D01*
X-67679212Y-3806550D02*
X-67786962Y-3752675D01*
X-67786962Y-3752675D02*
X-67894712Y-3644926D01*
X-67894712Y-3644926D02*
X-67948586Y-3537176D01*
X-67948586Y-3537176D02*
X-67948586Y-3429427D01*
X-67948586Y-3429427D02*
X-67894712Y-3321677D01*
X-67894712Y-3321677D02*
X-67760025Y-3186990D01*
X-67760025Y-3186990D02*
X-67652275Y-3133115D01*
X-67652275Y-3133115D02*
X-67544525Y-3133115D01*
X-67544525Y-3133115D02*
X-67463713Y-3160053D01*
X-67463713Y-3160053D02*
X-67355963Y-3052303D01*
X-67355963Y-3052303D02*
X-67490651Y-2917616D01*
X-68125708Y-6327209D02*
X-68206520Y-6785145D01*
X-67802459Y-6650458D02*
X-68368144Y-7216143D01*
X-68368144Y-7216143D02*
X-68583643Y-7000644D01*
X-68583643Y-7000644D02*
X-68610581Y-6919832D01*
X-68610581Y-6919832D02*
X-68610581Y-6865957D01*
X-68610581Y-6865957D02*
X-68583643Y-6785145D01*
X-68583643Y-6785145D02*
X-68502831Y-6704332D01*
X-68502831Y-6704332D02*
X-68422019Y-6677395D01*
X-68422019Y-6677395D02*
X-68368144Y-6677395D01*
X-68368144Y-6677395D02*
X-68287332Y-6704332D01*
X-68287332Y-6704332D02*
X-68071833Y-6919832D01*
X-68664456Y-5788461D02*
X-68341207Y-6111710D01*
X-68502831Y-5950085D02*
X-69068517Y-6515771D01*
X-69068517Y-6515771D02*
X-68933830Y-6488833D01*
X-68933830Y-6488833D02*
X-68826080Y-6488833D01*
X-68826080Y-6488833D02*
X-68745268Y-6515771D01*
X-69715015Y-5869273D02*
X-69607265Y-5977022D01*
X-69607265Y-5977022D02*
X-69526453Y-6003960D01*
X-69526453Y-6003960D02*
X-69472578Y-6003960D01*
X-69472578Y-6003960D02*
X-69337891Y-5977022D01*
X-69337891Y-5977022D02*
X-69203204Y-5896210D01*
X-69203204Y-5896210D02*
X-68987705Y-5680711D01*
X-68987705Y-5680711D02*
X-68960767Y-5599899D01*
X-68960767Y-5599899D02*
X-68960767Y-5546024D01*
X-68960767Y-5546024D02*
X-68987705Y-5465212D01*
X-68987705Y-5465212D02*
X-69095454Y-5357462D01*
X-69095454Y-5357462D02*
X-69176266Y-5330525D01*
X-69176266Y-5330525D02*
X-69230141Y-5330525D01*
X-69230141Y-5330525D02*
X-69310953Y-5357462D01*
X-69310953Y-5357462D02*
X-69445640Y-5492149D01*
X-69445640Y-5492149D02*
X-69472578Y-5572961D01*
X-69472578Y-5572961D02*
X-69472578Y-5626836D01*
X-69472578Y-5626836D02*
X-69445640Y-5707648D01*
X-69445640Y-5707648D02*
X-69337891Y-5815398D01*
X-69337891Y-5815398D02*
X-69257079Y-5842335D01*
X-69257079Y-5842335D02*
X-69203204Y-5842335D01*
X-69203204Y-5842335D02*
X-69122392Y-5815398D01*
X13558528Y12264044D02*
X13177576Y12264044D01*
X13177576Y12264044D02*
X13139480Y11883092D01*
X13139480Y11883092D02*
X13177576Y11921187D01*
X13177576Y11921187D02*
X13253766Y11959282D01*
X13253766Y11959282D02*
X13444242Y11959282D01*
X13444242Y11959282D02*
X13520433Y11921187D01*
X13520433Y11921187D02*
X13558528Y11883092D01*
X13558528Y11883092D02*
X13596623Y11806901D01*
X13596623Y11806901D02*
X13596623Y11616425D01*
X13596623Y11616425D02*
X13558528Y11540235D01*
X13558528Y11540235D02*
X13520433Y11502140D01*
X13520433Y11502140D02*
X13444242Y11464044D01*
X13444242Y11464044D02*
X13253766Y11464044D01*
X13253766Y11464044D02*
X13177576Y11502140D01*
X13177576Y11502140D02*
X13139480Y11540235D01*
X14091862Y12264044D02*
X14168052Y12264044D01*
X14168052Y12264044D02*
X14244243Y12225949D01*
X14244243Y12225949D02*
X14282338Y12187854D01*
X14282338Y12187854D02*
X14320433Y12111663D01*
X14320433Y12111663D02*
X14358528Y11959282D01*
X14358528Y11959282D02*
X14358528Y11768806D01*
X14358528Y11768806D02*
X14320433Y11616425D01*
X14320433Y11616425D02*
X14282338Y11540235D01*
X14282338Y11540235D02*
X14244243Y11502140D01*
X14244243Y11502140D02*
X14168052Y11464044D01*
X14168052Y11464044D02*
X14091862Y11464044D01*
X14091862Y11464044D02*
X14015671Y11502140D01*
X14015671Y11502140D02*
X13977576Y11540235D01*
X13977576Y11540235D02*
X13939481Y11616425D01*
X13939481Y11616425D02*
X13901385Y11768806D01*
X13901385Y11768806D02*
X13901385Y11959282D01*
X13901385Y11959282D02*
X13939481Y12111663D01*
X13939481Y12111663D02*
X13977576Y12187854D01*
X13977576Y12187854D02*
X14015671Y12225949D01*
X14015671Y12225949D02*
X14091862Y12264044D01*
X14853767Y12264044D02*
X14929957Y12264044D01*
X14929957Y12264044D02*
X15006148Y12225949D01*
X15006148Y12225949D02*
X15044243Y12187854D01*
X15044243Y12187854D02*
X15082338Y12111663D01*
X15082338Y12111663D02*
X15120433Y11959282D01*
X15120433Y11959282D02*
X15120433Y11768806D01*
X15120433Y11768806D02*
X15082338Y11616425D01*
X15082338Y11616425D02*
X15044243Y11540235D01*
X15044243Y11540235D02*
X15006148Y11502140D01*
X15006148Y11502140D02*
X14929957Y11464044D01*
X14929957Y11464044D02*
X14853767Y11464044D01*
X14853767Y11464044D02*
X14777576Y11502140D01*
X14777576Y11502140D02*
X14739481Y11540235D01*
X14739481Y11540235D02*
X14701386Y11616425D01*
X14701386Y11616425D02*
X14663290Y11768806D01*
X14663290Y11768806D02*
X14663290Y11959282D01*
X14663290Y11959282D02*
X14701386Y12111663D01*
X14701386Y12111663D02*
X14739481Y12187854D01*
X14739481Y12187854D02*
X14777576Y12225949D01*
X14777576Y12225949D02*
X14853767Y12264044D01*
X15425195Y11464044D02*
X15615672Y11464044D01*
X15615672Y11464044D02*
X15615672Y11616425D01*
X15615672Y11616425D02*
X15539481Y11654520D01*
X15539481Y11654520D02*
X15463291Y11730711D01*
X15463291Y11730711D02*
X15425195Y11844997D01*
X15425195Y11844997D02*
X15425195Y12035473D01*
X15425195Y12035473D02*
X15463291Y12149759D01*
X15463291Y12149759D02*
X15539481Y12225949D01*
X15539481Y12225949D02*
X15653767Y12264044D01*
X15653767Y12264044D02*
X15806148Y12264044D01*
X15806148Y12264044D02*
X15920434Y12225949D01*
X15920434Y12225949D02*
X15996624Y12149759D01*
X15996624Y12149759D02*
X16034719Y12035473D01*
X16034719Y12035473D02*
X16034719Y11844997D01*
X16034719Y11844997D02*
X15996624Y11730711D01*
X15996624Y11730711D02*
X15920434Y11654520D01*
X15920434Y11654520D02*
X15844243Y11616425D01*
X15844243Y11616425D02*
X15844243Y11464044D01*
X15844243Y11464044D02*
X16034719Y11464044D01*
X14453767Y14324044D02*
X14187100Y14704997D01*
X13996624Y14324044D02*
X13996624Y15124044D01*
X13996624Y15124044D02*
X14301386Y15124044D01*
X14301386Y15124044D02*
X14377576Y15085949D01*
X14377576Y15085949D02*
X14415671Y15047854D01*
X14415671Y15047854D02*
X14453767Y14971663D01*
X14453767Y14971663D02*
X14453767Y14857378D01*
X14453767Y14857378D02*
X14415671Y14781187D01*
X14415671Y14781187D02*
X14377576Y14743092D01*
X14377576Y14743092D02*
X14301386Y14704997D01*
X14301386Y14704997D02*
X13996624Y14704997D01*
X15215671Y14324044D02*
X14758528Y14324044D01*
X14987100Y14324044D02*
X14987100Y15124044D01*
X14987100Y15124044D02*
X14910909Y15009759D01*
X14910909Y15009759D02*
X14834719Y14933568D01*
X14834719Y14933568D02*
X14758528Y14895473D01*
X-50863604Y-5234233D02*
X-50594230Y-5503607D01*
X-50594230Y-5503607D02*
X-50297919Y-5261170D01*
X-50297919Y-5261170D02*
X-50351794Y-5261170D01*
X-50351794Y-5261170D02*
X-50432606Y-5234233D01*
X-50432606Y-5234233D02*
X-50567293Y-5099546D01*
X-50567293Y-5099546D02*
X-50594230Y-5018734D01*
X-50594230Y-5018734D02*
X-50594230Y-4964859D01*
X-50594230Y-4964859D02*
X-50567293Y-4884047D01*
X-50567293Y-4884047D02*
X-50432606Y-4749360D01*
X-50432606Y-4749360D02*
X-50351794Y-4722422D01*
X-50351794Y-4722422D02*
X-50297919Y-4722422D01*
X-50297919Y-4722422D02*
X-50217107Y-4749360D01*
X-50217107Y-4749360D02*
X-50082420Y-4884047D01*
X-50082420Y-4884047D02*
X-50055482Y-4964859D01*
X-50055482Y-4964859D02*
X-50055482Y-5018734D01*
X-51240728Y-4857109D02*
X-51294603Y-4803234D01*
X-51294603Y-4803234D02*
X-51321540Y-4722422D01*
X-51321540Y-4722422D02*
X-51321540Y-4668547D01*
X-51321540Y-4668547D02*
X-51294603Y-4587735D01*
X-51294603Y-4587735D02*
X-51213791Y-4453048D01*
X-51213791Y-4453048D02*
X-51079104Y-4318361D01*
X-51079104Y-4318361D02*
X-50944417Y-4237549D01*
X-50944417Y-4237549D02*
X-50863605Y-4210612D01*
X-50863605Y-4210612D02*
X-50809730Y-4210612D01*
X-50809730Y-4210612D02*
X-50728918Y-4237549D01*
X-50728918Y-4237549D02*
X-50675043Y-4291424D01*
X-50675043Y-4291424D02*
X-50648105Y-4372236D01*
X-50648105Y-4372236D02*
X-50648105Y-4426111D01*
X-50648105Y-4426111D02*
X-50675043Y-4506923D01*
X-50675043Y-4506923D02*
X-50755855Y-4641610D01*
X-50755855Y-4641610D02*
X-50890542Y-4776297D01*
X-50890542Y-4776297D02*
X-51025229Y-4857109D01*
X-51025229Y-4857109D02*
X-51106041Y-4884047D01*
X-51106041Y-4884047D02*
X-51159916Y-4884047D01*
X-51159916Y-4884047D02*
X-51240728Y-4857109D01*
X-51779476Y-4318361D02*
X-51833351Y-4264486D01*
X-51833351Y-4264486D02*
X-51860289Y-4183674D01*
X-51860289Y-4183674D02*
X-51860289Y-4129799D01*
X-51860289Y-4129799D02*
X-51833351Y-4048987D01*
X-51833351Y-4048987D02*
X-51752539Y-3914300D01*
X-51752539Y-3914300D02*
X-51617852Y-3779613D01*
X-51617852Y-3779613D02*
X-51483165Y-3698801D01*
X-51483165Y-3698801D02*
X-51402353Y-3671863D01*
X-51402353Y-3671863D02*
X-51348478Y-3671863D01*
X-51348478Y-3671863D02*
X-51267666Y-3698801D01*
X-51267666Y-3698801D02*
X-51213791Y-3752676D01*
X-51213791Y-3752676D02*
X-51186853Y-3833488D01*
X-51186853Y-3833488D02*
X-51186853Y-3887363D01*
X-51186853Y-3887363D02*
X-51213791Y-3968175D01*
X-51213791Y-3968175D02*
X-51294603Y-4102862D01*
X-51294603Y-4102862D02*
X-51429290Y-4237549D01*
X-51429290Y-4237549D02*
X-51563977Y-4318361D01*
X-51563977Y-4318361D02*
X-51644789Y-4345298D01*
X-51644789Y-4345298D02*
X-51698664Y-4345298D01*
X-51698664Y-4345298D02*
X-51779476Y-4318361D01*
X-51617852Y-3348614D02*
X-51752539Y-3213927D01*
X-51752539Y-3213927D02*
X-51860289Y-3321677D01*
X-51860289Y-3321677D02*
X-51833351Y-3402489D01*
X-51833351Y-3402489D02*
X-51833351Y-3510239D01*
X-51833351Y-3510239D02*
X-51887226Y-3617988D01*
X-51887226Y-3617988D02*
X-52021913Y-3752675D01*
X-52021913Y-3752675D02*
X-52129663Y-3806550D01*
X-52129663Y-3806550D02*
X-52237412Y-3806550D01*
X-52237412Y-3806550D02*
X-52345162Y-3752675D01*
X-52345162Y-3752675D02*
X-52452912Y-3644926D01*
X-52452912Y-3644926D02*
X-52506786Y-3537176D01*
X-52506786Y-3537176D02*
X-52506786Y-3429427D01*
X-52506786Y-3429427D02*
X-52452912Y-3321677D01*
X-52452912Y-3321677D02*
X-52318225Y-3186990D01*
X-52318225Y-3186990D02*
X-52210475Y-3133115D01*
X-52210475Y-3133115D02*
X-52102725Y-3133115D01*
X-52102725Y-3133115D02*
X-52021913Y-3160053D01*
X-52021913Y-3160053D02*
X-51914163Y-3052303D01*
X-51914163Y-3052303D02*
X-52048851Y-2917616D01*
X-52683908Y-6327209D02*
X-52764720Y-6785145D01*
X-52360659Y-6650458D02*
X-52926344Y-7216143D01*
X-52926344Y-7216143D02*
X-53141843Y-7000644D01*
X-53141843Y-7000644D02*
X-53168781Y-6919832D01*
X-53168781Y-6919832D02*
X-53168781Y-6865957D01*
X-53168781Y-6865957D02*
X-53141843Y-6785145D01*
X-53141843Y-6785145D02*
X-53061031Y-6704332D01*
X-53061031Y-6704332D02*
X-52980219Y-6677395D01*
X-52980219Y-6677395D02*
X-52926344Y-6677395D01*
X-52926344Y-6677395D02*
X-52845532Y-6704332D01*
X-52845532Y-6704332D02*
X-52630033Y-6919832D01*
X-53222656Y-5788461D02*
X-52899407Y-6111710D01*
X-53061031Y-5950085D02*
X-53626717Y-6515771D01*
X-53626717Y-6515771D02*
X-53492030Y-6488833D01*
X-53492030Y-6488833D02*
X-53384280Y-6488833D01*
X-53384280Y-6488833D02*
X-53303468Y-6515771D01*
X-53761404Y-5249713D02*
X-53438155Y-5572961D01*
X-53599779Y-5411337D02*
X-54165465Y-5977022D01*
X-54165465Y-5977022D02*
X-54030778Y-5950085D01*
X-54030778Y-5950085D02*
X-53923028Y-5950085D01*
X-53923028Y-5950085D02*
X-53842216Y-5977022D01*
X-61293093Y-7233639D02*
X-61562467Y-6964265D01*
X-61562467Y-6964265D02*
X-60996782Y-6398580D01*
X-60808220Y-7125889D02*
X-60619658Y-7314451D01*
X-60835158Y-7691575D02*
X-61104532Y-7422201D01*
X-61104532Y-7422201D02*
X-60538846Y-6856515D01*
X-60538846Y-6856515D02*
X-60269472Y-7125889D01*
X-60592721Y-7934012D02*
X-60027035Y-7368326D01*
X-60027035Y-7368326D02*
X-59892348Y-7503013D01*
X-59892348Y-7503013D02*
X-59838473Y-7610763D01*
X-59838473Y-7610763D02*
X-59838473Y-7718513D01*
X-59838473Y-7718513D02*
X-59865411Y-7799325D01*
X-59865411Y-7799325D02*
X-59946223Y-7934012D01*
X-59946223Y-7934012D02*
X-60027035Y-8014824D01*
X-60027035Y-8014824D02*
X-60161722Y-8095636D01*
X-60161722Y-8095636D02*
X-60242534Y-8122574D01*
X-60242534Y-8122574D02*
X-60350284Y-8122574D01*
X-60350284Y-8122574D02*
X-60458034Y-8068699D01*
X-60458034Y-8068699D02*
X-60592721Y-7934012D01*
X-59218913Y-8176448D02*
X-59326663Y-8068699D01*
X-59326663Y-8068699D02*
X-59407475Y-8041761D01*
X-59407475Y-8041761D02*
X-59461350Y-8041761D01*
X-59461350Y-8041761D02*
X-59596037Y-8068699D01*
X-59596037Y-8068699D02*
X-59730724Y-8149511D01*
X-59730724Y-8149511D02*
X-59946223Y-8365010D01*
X-59946223Y-8365010D02*
X-59973160Y-8445822D01*
X-59973160Y-8445822D02*
X-59973160Y-8499697D01*
X-59973160Y-8499697D02*
X-59946223Y-8580509D01*
X-59946223Y-8580509D02*
X-59838473Y-8688259D01*
X-59838473Y-8688259D02*
X-59757661Y-8715196D01*
X-59757661Y-8715196D02*
X-59703786Y-8715196D01*
X-59703786Y-8715196D02*
X-59622974Y-8688259D01*
X-59622974Y-8688259D02*
X-59488287Y-8553572D01*
X-59488287Y-8553572D02*
X-59461350Y-8472760D01*
X-59461350Y-8472760D02*
X-59461350Y-8418885D01*
X-59461350Y-8418885D02*
X-59488287Y-8338073D01*
X-59488287Y-8338073D02*
X-59596037Y-8230323D01*
X-59596037Y-8230323D02*
X-59676849Y-8203386D01*
X-59676849Y-8203386D02*
X-59730724Y-8203386D01*
X-59730724Y-8203386D02*
X-59811536Y-8230323D01*
X-11060371Y9312464D02*
X-11022275Y9350560D01*
X-11022275Y9350560D02*
X-10907990Y9388655D01*
X-10907990Y9388655D02*
X-10831799Y9388655D01*
X-10831799Y9388655D02*
X-10717513Y9350560D01*
X-10717513Y9350560D02*
X-10641323Y9274369D01*
X-10641323Y9274369D02*
X-10603228Y9198179D01*
X-10603228Y9198179D02*
X-10565132Y9045798D01*
X-10565132Y9045798D02*
X-10565132Y8931512D01*
X-10565132Y8931512D02*
X-10603228Y8779131D01*
X-10603228Y8779131D02*
X-10641323Y8702940D01*
X-10641323Y8702940D02*
X-10717513Y8626750D01*
X-10717513Y8626750D02*
X-10831799Y8588655D01*
X-10831799Y8588655D02*
X-10907990Y8588655D01*
X-10907990Y8588655D02*
X-11022275Y8626750D01*
X-11022275Y8626750D02*
X-11060371Y8664845D01*
X-11746085Y8855321D02*
X-11746085Y9388655D01*
X-11555609Y8550560D02*
X-11365132Y9121988D01*
X-11365132Y9121988D02*
X-11860371Y9121988D01*
X28900544Y-40651371D02*
X28252925Y-40651371D01*
X28252925Y-40651371D02*
X28176735Y-40689466D01*
X28176735Y-40689466D02*
X28138640Y-40727561D01*
X28138640Y-40727561D02*
X28100544Y-40803752D01*
X28100544Y-40803752D02*
X28100544Y-40956133D01*
X28100544Y-40956133D02*
X28138640Y-41032323D01*
X28138640Y-41032323D02*
X28176735Y-41070418D01*
X28176735Y-41070418D02*
X28252925Y-41108514D01*
X28252925Y-41108514D02*
X28900544Y-41108514D01*
X28633878Y-41832323D02*
X28100544Y-41832323D01*
X28938640Y-41641847D02*
X28367211Y-41451370D01*
X28367211Y-41451370D02*
X28367211Y-41946609D01*
X23878367Y-32969864D02*
X23840271Y-33007960D01*
X23840271Y-33007960D02*
X23725986Y-33046055D01*
X23725986Y-33046055D02*
X23649795Y-33046055D01*
X23649795Y-33046055D02*
X23535509Y-33007960D01*
X23535509Y-33007960D02*
X23459319Y-32931769D01*
X23459319Y-32931769D02*
X23421224Y-32855579D01*
X23421224Y-32855579D02*
X23383128Y-32703198D01*
X23383128Y-32703198D02*
X23383128Y-32588912D01*
X23383128Y-32588912D02*
X23421224Y-32436531D01*
X23421224Y-32436531D02*
X23459319Y-32360340D01*
X23459319Y-32360340D02*
X23535509Y-32284150D01*
X23535509Y-32284150D02*
X23649795Y-32246055D01*
X23649795Y-32246055D02*
X23725986Y-32246055D01*
X23725986Y-32246055D02*
X23840271Y-32284150D01*
X23840271Y-32284150D02*
X23878367Y-32322245D01*
X24564081Y-32246055D02*
X24411700Y-32246055D01*
X24411700Y-32246055D02*
X24335509Y-32284150D01*
X24335509Y-32284150D02*
X24297414Y-32322245D01*
X24297414Y-32322245D02*
X24221224Y-32436531D01*
X24221224Y-32436531D02*
X24183128Y-32588912D01*
X24183128Y-32588912D02*
X24183128Y-32893674D01*
X24183128Y-32893674D02*
X24221224Y-32969864D01*
X24221224Y-32969864D02*
X24259319Y-33007960D01*
X24259319Y-33007960D02*
X24335509Y-33046055D01*
X24335509Y-33046055D02*
X24487890Y-33046055D01*
X24487890Y-33046055D02*
X24564081Y-33007960D01*
X24564081Y-33007960D02*
X24602176Y-32969864D01*
X24602176Y-32969864D02*
X24640271Y-32893674D01*
X24640271Y-32893674D02*
X24640271Y-32703198D01*
X24640271Y-32703198D02*
X24602176Y-32627007D01*
X24602176Y-32627007D02*
X24564081Y-32588912D01*
X24564081Y-32588912D02*
X24487890Y-32550817D01*
X24487890Y-32550817D02*
X24335509Y-32550817D01*
X24335509Y-32550817D02*
X24259319Y-32588912D01*
X24259319Y-32588912D02*
X24221224Y-32627007D01*
X24221224Y-32627007D02*
X24183128Y-32703198D01*
X-52027993Y-7233639D02*
X-52297367Y-6964265D01*
X-52297367Y-6964265D02*
X-51731682Y-6398580D01*
X-51543120Y-7125889D02*
X-51354558Y-7314451D01*
X-51570058Y-7691575D02*
X-51839432Y-7422201D01*
X-51839432Y-7422201D02*
X-51273746Y-6856515D01*
X-51273746Y-6856515D02*
X-51004372Y-7125889D01*
X-51327621Y-7934012D02*
X-50761935Y-7368326D01*
X-50761935Y-7368326D02*
X-50627248Y-7503013D01*
X-50627248Y-7503013D02*
X-50573373Y-7610763D01*
X-50573373Y-7610763D02*
X-50573373Y-7718513D01*
X-50573373Y-7718513D02*
X-50600311Y-7799325D01*
X-50600311Y-7799325D02*
X-50681123Y-7934012D01*
X-50681123Y-7934012D02*
X-50761935Y-8014824D01*
X-50761935Y-8014824D02*
X-50896622Y-8095636D01*
X-50896622Y-8095636D02*
X-50977434Y-8122574D01*
X-50977434Y-8122574D02*
X-51085184Y-8122574D01*
X-51085184Y-8122574D02*
X-51192934Y-8068699D01*
X-51192934Y-8068699D02*
X-51327621Y-7934012D01*
X-50250125Y-7880137D02*
X-49899938Y-8230323D01*
X-49899938Y-8230323D02*
X-50303999Y-8257261D01*
X-50303999Y-8257261D02*
X-50223187Y-8338073D01*
X-50223187Y-8338073D02*
X-50196250Y-8418885D01*
X-50196250Y-8418885D02*
X-50196250Y-8472760D01*
X-50196250Y-8472760D02*
X-50223187Y-8553572D01*
X-50223187Y-8553572D02*
X-50357874Y-8688259D01*
X-50357874Y-8688259D02*
X-50438686Y-8715196D01*
X-50438686Y-8715196D02*
X-50492561Y-8715196D01*
X-50492561Y-8715196D02*
X-50573373Y-8688259D01*
X-50573373Y-8688259D02*
X-50734998Y-8526635D01*
X-50734998Y-8526635D02*
X-50761935Y-8445822D01*
X-50761935Y-8445822D02*
X-50761935Y-8391948D01*
D11*
X-32840195Y13012653D02*
X-32840195Y12190176D01*
X-32840195Y12190176D02*
X-32791814Y12093414D01*
X-32791814Y12093414D02*
X-32743433Y12045034D01*
X-32743433Y12045034D02*
X-32646671Y11996653D01*
X-32646671Y11996653D02*
X-32453147Y11996653D01*
X-32453147Y11996653D02*
X-32356385Y12045034D01*
X-32356385Y12045034D02*
X-32308004Y12093414D01*
X-32308004Y12093414D02*
X-32259623Y12190176D01*
X-32259623Y12190176D02*
X-32259623Y13012653D01*
X-31292004Y13012653D02*
X-31775814Y13012653D01*
X-31775814Y13012653D02*
X-31824195Y12528843D01*
X-31824195Y12528843D02*
X-31775814Y12577224D01*
X-31775814Y12577224D02*
X-31679052Y12625605D01*
X-31679052Y12625605D02*
X-31437147Y12625605D01*
X-31437147Y12625605D02*
X-31340385Y12577224D01*
X-31340385Y12577224D02*
X-31292004Y12528843D01*
X-31292004Y12528843D02*
X-31243623Y12432081D01*
X-31243623Y12432081D02*
X-31243623Y12190176D01*
X-31243623Y12190176D02*
X-31292004Y12093414D01*
X-31292004Y12093414D02*
X-31340385Y12045034D01*
X-31340385Y12045034D02*
X-31437147Y11996653D01*
X-31437147Y11996653D02*
X-31679052Y11996653D01*
X-31679052Y11996653D02*
X-31775814Y12045034D01*
X-31775814Y12045034D02*
X-31824195Y12093414D01*
X-38513595Y4795853D02*
X-38513595Y5811853D01*
X-37449213Y4892614D02*
X-37497594Y4844234D01*
X-37497594Y4844234D02*
X-37642737Y4795853D01*
X-37642737Y4795853D02*
X-37739499Y4795853D01*
X-37739499Y4795853D02*
X-37884642Y4844234D01*
X-37884642Y4844234D02*
X-37981404Y4940995D01*
X-37981404Y4940995D02*
X-38029785Y5037757D01*
X-38029785Y5037757D02*
X-38078166Y5231281D01*
X-38078166Y5231281D02*
X-38078166Y5376424D01*
X-38078166Y5376424D02*
X-38029785Y5569948D01*
X-38029785Y5569948D02*
X-37981404Y5666710D01*
X-37981404Y5666710D02*
X-37884642Y5763472D01*
X-37884642Y5763472D02*
X-37739499Y5811853D01*
X-37739499Y5811853D02*
X-37642737Y5811853D01*
X-37642737Y5811853D02*
X-37497594Y5763472D01*
X-37497594Y5763472D02*
X-37449213Y5715091D01*
X-36868642Y5811853D02*
X-36868642Y5569948D01*
X-37110547Y5666710D02*
X-36868642Y5569948D01*
X-36868642Y5569948D02*
X-36626737Y5666710D01*
X-37013785Y5376424D02*
X-36868642Y5569948D01*
X-36868642Y5569948D02*
X-36723499Y5376424D01*
X-36094547Y5811853D02*
X-36094547Y5569948D01*
X-36336452Y5666710D02*
X-36094547Y5569948D01*
X-36094547Y5569948D02*
X-35852642Y5666710D01*
X-36239690Y5376424D02*
X-36094547Y5569948D01*
X-36094547Y5569948D02*
X-35949404Y5376424D01*
D10*
X15224675Y-29115744D02*
X15605627Y-29115744D01*
X15605627Y-29115744D02*
X15643723Y-28734792D01*
X15643723Y-28734792D02*
X15605627Y-28772887D01*
X15605627Y-28772887D02*
X15529437Y-28810982D01*
X15529437Y-28810982D02*
X15338961Y-28810982D01*
X15338961Y-28810982D02*
X15262770Y-28772887D01*
X15262770Y-28772887D02*
X15224675Y-28734792D01*
X15224675Y-28734792D02*
X15186580Y-28658601D01*
X15186580Y-28658601D02*
X15186580Y-28468125D01*
X15186580Y-28468125D02*
X15224675Y-28391935D01*
X15224675Y-28391935D02*
X15262770Y-28353840D01*
X15262770Y-28353840D02*
X15338961Y-28315744D01*
X15338961Y-28315744D02*
X15529437Y-28315744D01*
X15529437Y-28315744D02*
X15605627Y-28353840D01*
X15605627Y-28353840D02*
X15643723Y-28391935D01*
X14691341Y-29115744D02*
X14615151Y-29115744D01*
X14615151Y-29115744D02*
X14538960Y-29077649D01*
X14538960Y-29077649D02*
X14500865Y-29039554D01*
X14500865Y-29039554D02*
X14462770Y-28963363D01*
X14462770Y-28963363D02*
X14424675Y-28810982D01*
X14424675Y-28810982D02*
X14424675Y-28620506D01*
X14424675Y-28620506D02*
X14462770Y-28468125D01*
X14462770Y-28468125D02*
X14500865Y-28391935D01*
X14500865Y-28391935D02*
X14538960Y-28353840D01*
X14538960Y-28353840D02*
X14615151Y-28315744D01*
X14615151Y-28315744D02*
X14691341Y-28315744D01*
X14691341Y-28315744D02*
X14767532Y-28353840D01*
X14767532Y-28353840D02*
X14805627Y-28391935D01*
X14805627Y-28391935D02*
X14843722Y-28468125D01*
X14843722Y-28468125D02*
X14881818Y-28620506D01*
X14881818Y-28620506D02*
X14881818Y-28810982D01*
X14881818Y-28810982D02*
X14843722Y-28963363D01*
X14843722Y-28963363D02*
X14805627Y-29039554D01*
X14805627Y-29039554D02*
X14767532Y-29077649D01*
X14767532Y-29077649D02*
X14691341Y-29115744D01*
X13929436Y-29115744D02*
X13853246Y-29115744D01*
X13853246Y-29115744D02*
X13777055Y-29077649D01*
X13777055Y-29077649D02*
X13738960Y-29039554D01*
X13738960Y-29039554D02*
X13700865Y-28963363D01*
X13700865Y-28963363D02*
X13662770Y-28810982D01*
X13662770Y-28810982D02*
X13662770Y-28620506D01*
X13662770Y-28620506D02*
X13700865Y-28468125D01*
X13700865Y-28468125D02*
X13738960Y-28391935D01*
X13738960Y-28391935D02*
X13777055Y-28353840D01*
X13777055Y-28353840D02*
X13853246Y-28315744D01*
X13853246Y-28315744D02*
X13929436Y-28315744D01*
X13929436Y-28315744D02*
X14005627Y-28353840D01*
X14005627Y-28353840D02*
X14043722Y-28391935D01*
X14043722Y-28391935D02*
X14081817Y-28468125D01*
X14081817Y-28468125D02*
X14119913Y-28620506D01*
X14119913Y-28620506D02*
X14119913Y-28810982D01*
X14119913Y-28810982D02*
X14081817Y-28963363D01*
X14081817Y-28963363D02*
X14043722Y-29039554D01*
X14043722Y-29039554D02*
X14005627Y-29077649D01*
X14005627Y-29077649D02*
X13929436Y-29115744D01*
X13358008Y-28315744D02*
X13167531Y-28315744D01*
X13167531Y-28315744D02*
X13167531Y-28468125D01*
X13167531Y-28468125D02*
X13243722Y-28506220D01*
X13243722Y-28506220D02*
X13319912Y-28582411D01*
X13319912Y-28582411D02*
X13358008Y-28696697D01*
X13358008Y-28696697D02*
X13358008Y-28887173D01*
X13358008Y-28887173D02*
X13319912Y-29001459D01*
X13319912Y-29001459D02*
X13243722Y-29077649D01*
X13243722Y-29077649D02*
X13129436Y-29115744D01*
X13129436Y-29115744D02*
X12977055Y-29115744D01*
X12977055Y-29115744D02*
X12862769Y-29077649D01*
X12862769Y-29077649D02*
X12786579Y-29001459D01*
X12786579Y-29001459D02*
X12748484Y-28887173D01*
X12748484Y-28887173D02*
X12748484Y-28696697D01*
X12748484Y-28696697D02*
X12786579Y-28582411D01*
X12786579Y-28582411D02*
X12862769Y-28506220D01*
X12862769Y-28506220D02*
X12938960Y-28468125D01*
X12938960Y-28468125D02*
X12938960Y-28315744D01*
X12938960Y-28315744D02*
X12748484Y-28315744D01*
X14329428Y-31175744D02*
X14596095Y-31556697D01*
X14786571Y-31175744D02*
X14786571Y-31975744D01*
X14786571Y-31975744D02*
X14481809Y-31975744D01*
X14481809Y-31975744D02*
X14405619Y-31937649D01*
X14405619Y-31937649D02*
X14367524Y-31899554D01*
X14367524Y-31899554D02*
X14329428Y-31823363D01*
X14329428Y-31823363D02*
X14329428Y-31709078D01*
X14329428Y-31709078D02*
X14367524Y-31632887D01*
X14367524Y-31632887D02*
X14405619Y-31594792D01*
X14405619Y-31594792D02*
X14481809Y-31556697D01*
X14481809Y-31556697D02*
X14786571Y-31556697D01*
X14062762Y-31975744D02*
X13529428Y-31975744D01*
X13529428Y-31975744D02*
X13872286Y-31175744D01*
X1443976Y37144044D02*
X1443976Y36496425D01*
X1443976Y36496425D02*
X1482071Y36420235D01*
X1482071Y36420235D02*
X1520166Y36382140D01*
X1520166Y36382140D02*
X1596357Y36344044D01*
X1596357Y36344044D02*
X1748738Y36344044D01*
X1748738Y36344044D02*
X1824928Y36382140D01*
X1824928Y36382140D02*
X1863023Y36420235D01*
X1863023Y36420235D02*
X1901119Y36496425D01*
X1901119Y36496425D02*
X1901119Y37144044D01*
X2243975Y37067854D02*
X2282071Y37105949D01*
X2282071Y37105949D02*
X2358261Y37144044D01*
X2358261Y37144044D02*
X2548737Y37144044D01*
X2548737Y37144044D02*
X2624928Y37105949D01*
X2624928Y37105949D02*
X2663023Y37067854D01*
X2663023Y37067854D02*
X2701118Y36991663D01*
X2701118Y36991663D02*
X2701118Y36915473D01*
X2701118Y36915473D02*
X2663023Y36801187D01*
X2663023Y36801187D02*
X2205880Y36344044D01*
X2205880Y36344044D02*
X2701118Y36344044D01*
X20524664Y-33385537D02*
X20562760Y-33423633D01*
X20562760Y-33423633D02*
X20600855Y-33537918D01*
X20600855Y-33537918D02*
X20600855Y-33614109D01*
X20600855Y-33614109D02*
X20562760Y-33728395D01*
X20562760Y-33728395D02*
X20486569Y-33804585D01*
X20486569Y-33804585D02*
X20410379Y-33842680D01*
X20410379Y-33842680D02*
X20257998Y-33880776D01*
X20257998Y-33880776D02*
X20143712Y-33880776D01*
X20143712Y-33880776D02*
X19991331Y-33842680D01*
X19991331Y-33842680D02*
X19915140Y-33804585D01*
X19915140Y-33804585D02*
X19838950Y-33728395D01*
X19838950Y-33728395D02*
X19800855Y-33614109D01*
X19800855Y-33614109D02*
X19800855Y-33537918D01*
X19800855Y-33537918D02*
X19838950Y-33423633D01*
X19838950Y-33423633D02*
X19877045Y-33385537D01*
X19800855Y-33118871D02*
X19800855Y-32585537D01*
X19800855Y-32585537D02*
X20600855Y-32928395D01*
X-48939693Y-7233639D02*
X-49209067Y-6964265D01*
X-49209067Y-6964265D02*
X-48643382Y-6398580D01*
X-48454820Y-7125889D02*
X-48266258Y-7314451D01*
X-48481758Y-7691575D02*
X-48751132Y-7422201D01*
X-48751132Y-7422201D02*
X-48185446Y-6856515D01*
X-48185446Y-6856515D02*
X-47916072Y-7125889D01*
X-48239321Y-7934012D02*
X-47673635Y-7368326D01*
X-47673635Y-7368326D02*
X-47538948Y-7503013D01*
X-47538948Y-7503013D02*
X-47485073Y-7610763D01*
X-47485073Y-7610763D02*
X-47485073Y-7718513D01*
X-47485073Y-7718513D02*
X-47512011Y-7799325D01*
X-47512011Y-7799325D02*
X-47592823Y-7934012D01*
X-47592823Y-7934012D02*
X-47673635Y-8014824D01*
X-47673635Y-8014824D02*
X-47808322Y-8095636D01*
X-47808322Y-8095636D02*
X-47889134Y-8122574D01*
X-47889134Y-8122574D02*
X-47996884Y-8122574D01*
X-47996884Y-8122574D02*
X-48104634Y-8068699D01*
X-48104634Y-8068699D02*
X-48239321Y-7934012D01*
X-47188762Y-7960949D02*
X-47134887Y-7960949D01*
X-47134887Y-7960949D02*
X-47054075Y-7987887D01*
X-47054075Y-7987887D02*
X-46919388Y-8122574D01*
X-46919388Y-8122574D02*
X-46892451Y-8203386D01*
X-46892451Y-8203386D02*
X-46892451Y-8257261D01*
X-46892451Y-8257261D02*
X-46919388Y-8338073D01*
X-46919388Y-8338073D02*
X-46973263Y-8391948D01*
X-46973263Y-8391948D02*
X-47081012Y-8445822D01*
X-47081012Y-8445822D02*
X-47727510Y-8445822D01*
X-47727510Y-8445822D02*
X-47377324Y-8796009D01*
X-12172171Y22264044D02*
X-12553123Y22264044D01*
X-12553123Y22264044D02*
X-12591219Y21883092D01*
X-12591219Y21883092D02*
X-12553123Y21921187D01*
X-12553123Y21921187D02*
X-12476933Y21959282D01*
X-12476933Y21959282D02*
X-12286457Y21959282D01*
X-12286457Y21959282D02*
X-12210266Y21921187D01*
X-12210266Y21921187D02*
X-12172171Y21883092D01*
X-12172171Y21883092D02*
X-12134076Y21806901D01*
X-12134076Y21806901D02*
X-12134076Y21616425D01*
X-12134076Y21616425D02*
X-12172171Y21540235D01*
X-12172171Y21540235D02*
X-12210266Y21502140D01*
X-12210266Y21502140D02*
X-12286457Y21464044D01*
X-12286457Y21464044D02*
X-12476933Y21464044D01*
X-12476933Y21464044D02*
X-12553123Y21502140D01*
X-12553123Y21502140D02*
X-12591219Y21540235D01*
X-11638837Y22264044D02*
X-11562647Y22264044D01*
X-11562647Y22264044D02*
X-11486456Y22225949D01*
X-11486456Y22225949D02*
X-11448361Y22187854D01*
X-11448361Y22187854D02*
X-11410266Y22111663D01*
X-11410266Y22111663D02*
X-11372171Y21959282D01*
X-11372171Y21959282D02*
X-11372171Y21768806D01*
X-11372171Y21768806D02*
X-11410266Y21616425D01*
X-11410266Y21616425D02*
X-11448361Y21540235D01*
X-11448361Y21540235D02*
X-11486456Y21502140D01*
X-11486456Y21502140D02*
X-11562647Y21464044D01*
X-11562647Y21464044D02*
X-11638837Y21464044D01*
X-11638837Y21464044D02*
X-11715028Y21502140D01*
X-11715028Y21502140D02*
X-11753123Y21540235D01*
X-11753123Y21540235D02*
X-11791218Y21616425D01*
X-11791218Y21616425D02*
X-11829314Y21768806D01*
X-11829314Y21768806D02*
X-11829314Y21959282D01*
X-11829314Y21959282D02*
X-11791218Y22111663D01*
X-11791218Y22111663D02*
X-11753123Y22187854D01*
X-11753123Y22187854D02*
X-11715028Y22225949D01*
X-11715028Y22225949D02*
X-11638837Y22264044D01*
X-10876932Y22264044D02*
X-10800742Y22264044D01*
X-10800742Y22264044D02*
X-10724551Y22225949D01*
X-10724551Y22225949D02*
X-10686456Y22187854D01*
X-10686456Y22187854D02*
X-10648361Y22111663D01*
X-10648361Y22111663D02*
X-10610266Y21959282D01*
X-10610266Y21959282D02*
X-10610266Y21768806D01*
X-10610266Y21768806D02*
X-10648361Y21616425D01*
X-10648361Y21616425D02*
X-10686456Y21540235D01*
X-10686456Y21540235D02*
X-10724551Y21502140D01*
X-10724551Y21502140D02*
X-10800742Y21464044D01*
X-10800742Y21464044D02*
X-10876932Y21464044D01*
X-10876932Y21464044D02*
X-10953123Y21502140D01*
X-10953123Y21502140D02*
X-10991218Y21540235D01*
X-10991218Y21540235D02*
X-11029313Y21616425D01*
X-11029313Y21616425D02*
X-11067409Y21768806D01*
X-11067409Y21768806D02*
X-11067409Y21959282D01*
X-11067409Y21959282D02*
X-11029313Y22111663D01*
X-11029313Y22111663D02*
X-10991218Y22187854D01*
X-10991218Y22187854D02*
X-10953123Y22225949D01*
X-10953123Y22225949D02*
X-10876932Y22264044D01*
X-10305504Y21464044D02*
X-10115027Y21464044D01*
X-10115027Y21464044D02*
X-10115027Y21616425D01*
X-10115027Y21616425D02*
X-10191218Y21654520D01*
X-10191218Y21654520D02*
X-10267408Y21730711D01*
X-10267408Y21730711D02*
X-10305504Y21844997D01*
X-10305504Y21844997D02*
X-10305504Y22035473D01*
X-10305504Y22035473D02*
X-10267408Y22149759D01*
X-10267408Y22149759D02*
X-10191218Y22225949D01*
X-10191218Y22225949D02*
X-10076932Y22264044D01*
X-10076932Y22264044D02*
X-9924551Y22264044D01*
X-9924551Y22264044D02*
X-9810265Y22225949D01*
X-9810265Y22225949D02*
X-9734075Y22149759D01*
X-9734075Y22149759D02*
X-9695980Y22035473D01*
X-9695980Y22035473D02*
X-9695980Y21844997D01*
X-9695980Y21844997D02*
X-9734075Y21730711D01*
X-9734075Y21730711D02*
X-9810265Y21654520D01*
X-9810265Y21654520D02*
X-9886456Y21616425D01*
X-9886456Y21616425D02*
X-9886456Y21464044D01*
X-9886456Y21464044D02*
X-9695980Y21464044D01*
X-11276932Y24324044D02*
X-11543599Y24704997D01*
X-11734075Y24324044D02*
X-11734075Y25124044D01*
X-11734075Y25124044D02*
X-11429313Y25124044D01*
X-11429313Y25124044D02*
X-11353123Y25085949D01*
X-11353123Y25085949D02*
X-11315028Y25047854D01*
X-11315028Y25047854D02*
X-11276932Y24971663D01*
X-11276932Y24971663D02*
X-11276932Y24857378D01*
X-11276932Y24857378D02*
X-11315028Y24781187D01*
X-11315028Y24781187D02*
X-11353123Y24743092D01*
X-11353123Y24743092D02*
X-11429313Y24704997D01*
X-11429313Y24704997D02*
X-11734075Y24704997D01*
X-10591218Y24857378D02*
X-10591218Y24324044D01*
X-10781694Y25162140D02*
X-10972171Y24590711D01*
X-10972171Y24590711D02*
X-10476932Y24590711D01*
X-53952004Y-5234233D02*
X-53682630Y-5503607D01*
X-53682630Y-5503607D02*
X-53386319Y-5261170D01*
X-53386319Y-5261170D02*
X-53440194Y-5261170D01*
X-53440194Y-5261170D02*
X-53521006Y-5234233D01*
X-53521006Y-5234233D02*
X-53655693Y-5099546D01*
X-53655693Y-5099546D02*
X-53682630Y-5018734D01*
X-53682630Y-5018734D02*
X-53682630Y-4964859D01*
X-53682630Y-4964859D02*
X-53655693Y-4884047D01*
X-53655693Y-4884047D02*
X-53521006Y-4749360D01*
X-53521006Y-4749360D02*
X-53440194Y-4722422D01*
X-53440194Y-4722422D02*
X-53386319Y-4722422D01*
X-53386319Y-4722422D02*
X-53305507Y-4749360D01*
X-53305507Y-4749360D02*
X-53170820Y-4884047D01*
X-53170820Y-4884047D02*
X-53143882Y-4964859D01*
X-53143882Y-4964859D02*
X-53143882Y-5018734D01*
X-54329128Y-4857109D02*
X-54383003Y-4803234D01*
X-54383003Y-4803234D02*
X-54409940Y-4722422D01*
X-54409940Y-4722422D02*
X-54409940Y-4668547D01*
X-54409940Y-4668547D02*
X-54383003Y-4587735D01*
X-54383003Y-4587735D02*
X-54302191Y-4453048D01*
X-54302191Y-4453048D02*
X-54167504Y-4318361D01*
X-54167504Y-4318361D02*
X-54032817Y-4237549D01*
X-54032817Y-4237549D02*
X-53952005Y-4210612D01*
X-53952005Y-4210612D02*
X-53898130Y-4210612D01*
X-53898130Y-4210612D02*
X-53817318Y-4237549D01*
X-53817318Y-4237549D02*
X-53763443Y-4291424D01*
X-53763443Y-4291424D02*
X-53736505Y-4372236D01*
X-53736505Y-4372236D02*
X-53736505Y-4426111D01*
X-53736505Y-4426111D02*
X-53763443Y-4506923D01*
X-53763443Y-4506923D02*
X-53844255Y-4641610D01*
X-53844255Y-4641610D02*
X-53978942Y-4776297D01*
X-53978942Y-4776297D02*
X-54113629Y-4857109D01*
X-54113629Y-4857109D02*
X-54194441Y-4884047D01*
X-54194441Y-4884047D02*
X-54248316Y-4884047D01*
X-54248316Y-4884047D02*
X-54329128Y-4857109D01*
X-54867876Y-4318361D02*
X-54921751Y-4264486D01*
X-54921751Y-4264486D02*
X-54948689Y-4183674D01*
X-54948689Y-4183674D02*
X-54948689Y-4129799D01*
X-54948689Y-4129799D02*
X-54921751Y-4048987D01*
X-54921751Y-4048987D02*
X-54840939Y-3914300D01*
X-54840939Y-3914300D02*
X-54706252Y-3779613D01*
X-54706252Y-3779613D02*
X-54571565Y-3698801D01*
X-54571565Y-3698801D02*
X-54490753Y-3671863D01*
X-54490753Y-3671863D02*
X-54436878Y-3671863D01*
X-54436878Y-3671863D02*
X-54356066Y-3698801D01*
X-54356066Y-3698801D02*
X-54302191Y-3752676D01*
X-54302191Y-3752676D02*
X-54275253Y-3833488D01*
X-54275253Y-3833488D02*
X-54275253Y-3887363D01*
X-54275253Y-3887363D02*
X-54302191Y-3968175D01*
X-54302191Y-3968175D02*
X-54383003Y-4102862D01*
X-54383003Y-4102862D02*
X-54517690Y-4237549D01*
X-54517690Y-4237549D02*
X-54652377Y-4318361D01*
X-54652377Y-4318361D02*
X-54733189Y-4345298D01*
X-54733189Y-4345298D02*
X-54787064Y-4345298D01*
X-54787064Y-4345298D02*
X-54867876Y-4318361D01*
X-54706252Y-3348614D02*
X-54840939Y-3213927D01*
X-54840939Y-3213927D02*
X-54948689Y-3321677D01*
X-54948689Y-3321677D02*
X-54921751Y-3402489D01*
X-54921751Y-3402489D02*
X-54921751Y-3510239D01*
X-54921751Y-3510239D02*
X-54975626Y-3617988D01*
X-54975626Y-3617988D02*
X-55110313Y-3752675D01*
X-55110313Y-3752675D02*
X-55218063Y-3806550D01*
X-55218063Y-3806550D02*
X-55325812Y-3806550D01*
X-55325812Y-3806550D02*
X-55433562Y-3752675D01*
X-55433562Y-3752675D02*
X-55541312Y-3644926D01*
X-55541312Y-3644926D02*
X-55595186Y-3537176D01*
X-55595186Y-3537176D02*
X-55595186Y-3429427D01*
X-55595186Y-3429427D02*
X-55541312Y-3321677D01*
X-55541312Y-3321677D02*
X-55406625Y-3186990D01*
X-55406625Y-3186990D02*
X-55298875Y-3133115D01*
X-55298875Y-3133115D02*
X-55191125Y-3133115D01*
X-55191125Y-3133115D02*
X-55110313Y-3160053D01*
X-55110313Y-3160053D02*
X-55002563Y-3052303D01*
X-55002563Y-3052303D02*
X-55137251Y-2917616D01*
X-55772308Y-6327209D02*
X-55853120Y-6785145D01*
X-55449059Y-6650458D02*
X-56014744Y-7216143D01*
X-56014744Y-7216143D02*
X-56230243Y-7000644D01*
X-56230243Y-7000644D02*
X-56257181Y-6919832D01*
X-56257181Y-6919832D02*
X-56257181Y-6865957D01*
X-56257181Y-6865957D02*
X-56230243Y-6785145D01*
X-56230243Y-6785145D02*
X-56149431Y-6704332D01*
X-56149431Y-6704332D02*
X-56068619Y-6677395D01*
X-56068619Y-6677395D02*
X-56014744Y-6677395D01*
X-56014744Y-6677395D02*
X-55933932Y-6704332D01*
X-55933932Y-6704332D02*
X-55718433Y-6919832D01*
X-56311056Y-5788461D02*
X-55987807Y-6111710D01*
X-56149431Y-5950085D02*
X-56715117Y-6515771D01*
X-56715117Y-6515771D02*
X-56580430Y-6488833D01*
X-56580430Y-6488833D02*
X-56472680Y-6488833D01*
X-56472680Y-6488833D02*
X-56391868Y-6515771D01*
X-57038366Y-6084772D02*
X-57092240Y-6084772D01*
X-57092240Y-6084772D02*
X-57173053Y-6057835D01*
X-57173053Y-6057835D02*
X-57307740Y-5923148D01*
X-57307740Y-5923148D02*
X-57334677Y-5842335D01*
X-57334677Y-5842335D02*
X-57334677Y-5788461D01*
X-57334677Y-5788461D02*
X-57307740Y-5707648D01*
X-57307740Y-5707648D02*
X-57253865Y-5653774D01*
X-57253865Y-5653774D02*
X-57146115Y-5599899D01*
X-57146115Y-5599899D02*
X-56499618Y-5599899D01*
X-56499618Y-5599899D02*
X-56849804Y-5249713D01*
X-92820132Y64346835D02*
X-92858228Y64308740D01*
X-92858228Y64308740D02*
X-92972513Y64270644D01*
X-92972513Y64270644D02*
X-93048704Y64270644D01*
X-93048704Y64270644D02*
X-93162990Y64308740D01*
X-93162990Y64308740D02*
X-93239180Y64384930D01*
X-93239180Y64384930D02*
X-93277275Y64461120D01*
X-93277275Y64461120D02*
X-93315371Y64613501D01*
X-93315371Y64613501D02*
X-93315371Y64727787D01*
X-93315371Y64727787D02*
X-93277275Y64880168D01*
X-93277275Y64880168D02*
X-93239180Y64956359D01*
X-93239180Y64956359D02*
X-93162990Y65032549D01*
X-93162990Y65032549D02*
X-93048704Y65070644D01*
X-93048704Y65070644D02*
X-92972513Y65070644D01*
X-92972513Y65070644D02*
X-92858228Y65032549D01*
X-92858228Y65032549D02*
X-92820132Y64994454D01*
X-92439180Y64270644D02*
X-92286799Y64270644D01*
X-92286799Y64270644D02*
X-92210609Y64308740D01*
X-92210609Y64308740D02*
X-92172513Y64346835D01*
X-92172513Y64346835D02*
X-92096323Y64461120D01*
X-92096323Y64461120D02*
X-92058228Y64613501D01*
X-92058228Y64613501D02*
X-92058228Y64918263D01*
X-92058228Y64918263D02*
X-92096323Y64994454D01*
X-92096323Y64994454D02*
X-92134418Y65032549D01*
X-92134418Y65032549D02*
X-92210609Y65070644D01*
X-92210609Y65070644D02*
X-92362990Y65070644D01*
X-92362990Y65070644D02*
X-92439180Y65032549D01*
X-92439180Y65032549D02*
X-92477275Y64994454D01*
X-92477275Y64994454D02*
X-92515371Y64918263D01*
X-92515371Y64918263D02*
X-92515371Y64727787D01*
X-92515371Y64727787D02*
X-92477275Y64651597D01*
X-92477275Y64651597D02*
X-92439180Y64613501D01*
X-92439180Y64613501D02*
X-92362990Y64575406D01*
X-92362990Y64575406D02*
X-92210609Y64575406D01*
X-92210609Y64575406D02*
X-92134418Y64613501D01*
X-92134418Y64613501D02*
X-92096323Y64651597D01*
X-92096323Y64651597D02*
X-92058228Y64727787D01*
X-11439571Y-35080935D02*
X-11401475Y-35042840D01*
X-11401475Y-35042840D02*
X-11287190Y-35004744D01*
X-11287190Y-35004744D02*
X-11210999Y-35004744D01*
X-11210999Y-35004744D02*
X-11096713Y-35042840D01*
X-11096713Y-35042840D02*
X-11020523Y-35119030D01*
X-11020523Y-35119030D02*
X-10982428Y-35195220D01*
X-10982428Y-35195220D02*
X-10944332Y-35347601D01*
X-10944332Y-35347601D02*
X-10944332Y-35461887D01*
X-10944332Y-35461887D02*
X-10982428Y-35614268D01*
X-10982428Y-35614268D02*
X-11020523Y-35690459D01*
X-11020523Y-35690459D02*
X-11096713Y-35766649D01*
X-11096713Y-35766649D02*
X-11210999Y-35804744D01*
X-11210999Y-35804744D02*
X-11287190Y-35804744D01*
X-11287190Y-35804744D02*
X-11401475Y-35766649D01*
X-11401475Y-35766649D02*
X-11439571Y-35728554D01*
X-12163380Y-35804744D02*
X-11782428Y-35804744D01*
X-11782428Y-35804744D02*
X-11744332Y-35423792D01*
X-11744332Y-35423792D02*
X-11782428Y-35461887D01*
X-11782428Y-35461887D02*
X-11858618Y-35499982D01*
X-11858618Y-35499982D02*
X-12049094Y-35499982D01*
X-12049094Y-35499982D02*
X-12125285Y-35461887D01*
X-12125285Y-35461887D02*
X-12163380Y-35423792D01*
X-12163380Y-35423792D02*
X-12201475Y-35347601D01*
X-12201475Y-35347601D02*
X-12201475Y-35157125D01*
X-12201475Y-35157125D02*
X-12163380Y-35080935D01*
X-12163380Y-35080935D02*
X-12125285Y-35042840D01*
X-12125285Y-35042840D02*
X-12049094Y-35004744D01*
X-12049094Y-35004744D02*
X-11858618Y-35004744D01*
X-11858618Y-35004744D02*
X-11782428Y-35042840D01*
X-11782428Y-35042840D02*
X-11744332Y-35080935D01*
X-64381393Y-7233639D02*
X-64650767Y-6964265D01*
X-64650767Y-6964265D02*
X-64085082Y-6398580D01*
X-63896520Y-7125889D02*
X-63707958Y-7314451D01*
X-63923458Y-7691575D02*
X-64192832Y-7422201D01*
X-64192832Y-7422201D02*
X-63627146Y-6856515D01*
X-63627146Y-6856515D02*
X-63357772Y-7125889D01*
X-63681021Y-7934012D02*
X-63115335Y-7368326D01*
X-63115335Y-7368326D02*
X-62980648Y-7503013D01*
X-62980648Y-7503013D02*
X-62926773Y-7610763D01*
X-62926773Y-7610763D02*
X-62926773Y-7718513D01*
X-62926773Y-7718513D02*
X-62953711Y-7799325D01*
X-62953711Y-7799325D02*
X-63034523Y-7934012D01*
X-63034523Y-7934012D02*
X-63115335Y-8014824D01*
X-63115335Y-8014824D02*
X-63250022Y-8095636D01*
X-63250022Y-8095636D02*
X-63330834Y-8122574D01*
X-63330834Y-8122574D02*
X-63438584Y-8122574D01*
X-63438584Y-8122574D02*
X-63546334Y-8068699D01*
X-63546334Y-8068699D02*
X-63681021Y-7934012D01*
X-62603525Y-7880137D02*
X-62226401Y-8257261D01*
X-62226401Y-8257261D02*
X-63034523Y-8580509D01*
X2662989Y-53995744D02*
X2662989Y-53348125D01*
X2662989Y-53348125D02*
X2624894Y-53271935D01*
X2624894Y-53271935D02*
X2586799Y-53233840D01*
X2586799Y-53233840D02*
X2510608Y-53195744D01*
X2510608Y-53195744D02*
X2358227Y-53195744D01*
X2358227Y-53195744D02*
X2282037Y-53233840D01*
X2282037Y-53233840D02*
X2243942Y-53271935D01*
X2243942Y-53271935D02*
X2205846Y-53348125D01*
X2205846Y-53348125D02*
X2205846Y-53995744D01*
X1901085Y-53995744D02*
X1405847Y-53995744D01*
X1405847Y-53995744D02*
X1672513Y-53690982D01*
X1672513Y-53690982D02*
X1558228Y-53690982D01*
X1558228Y-53690982D02*
X1482037Y-53652887D01*
X1482037Y-53652887D02*
X1443942Y-53614792D01*
X1443942Y-53614792D02*
X1405847Y-53538601D01*
X1405847Y-53538601D02*
X1405847Y-53348125D01*
X1405847Y-53348125D02*
X1443942Y-53271935D01*
X1443942Y-53271935D02*
X1482037Y-53233840D01*
X1482037Y-53233840D02*
X1558228Y-53195744D01*
X1558228Y-53195744D02*
X1786799Y-53195744D01*
X1786799Y-53195744D02*
X1862990Y-53233840D01*
X1862990Y-53233840D02*
X1901085Y-53271935D01*
X-12172271Y12264044D02*
X-12553223Y12264044D01*
X-12553223Y12264044D02*
X-12591319Y11883092D01*
X-12591319Y11883092D02*
X-12553223Y11921187D01*
X-12553223Y11921187D02*
X-12477033Y11959282D01*
X-12477033Y11959282D02*
X-12286557Y11959282D01*
X-12286557Y11959282D02*
X-12210366Y11921187D01*
X-12210366Y11921187D02*
X-12172271Y11883092D01*
X-12172271Y11883092D02*
X-12134176Y11806901D01*
X-12134176Y11806901D02*
X-12134176Y11616425D01*
X-12134176Y11616425D02*
X-12172271Y11540235D01*
X-12172271Y11540235D02*
X-12210366Y11502140D01*
X-12210366Y11502140D02*
X-12286557Y11464044D01*
X-12286557Y11464044D02*
X-12477033Y11464044D01*
X-12477033Y11464044D02*
X-12553223Y11502140D01*
X-12553223Y11502140D02*
X-12591319Y11540235D01*
X-11638937Y12264044D02*
X-11562747Y12264044D01*
X-11562747Y12264044D02*
X-11486556Y12225949D01*
X-11486556Y12225949D02*
X-11448461Y12187854D01*
X-11448461Y12187854D02*
X-11410366Y12111663D01*
X-11410366Y12111663D02*
X-11372271Y11959282D01*
X-11372271Y11959282D02*
X-11372271Y11768806D01*
X-11372271Y11768806D02*
X-11410366Y11616425D01*
X-11410366Y11616425D02*
X-11448461Y11540235D01*
X-11448461Y11540235D02*
X-11486556Y11502140D01*
X-11486556Y11502140D02*
X-11562747Y11464044D01*
X-11562747Y11464044D02*
X-11638937Y11464044D01*
X-11638937Y11464044D02*
X-11715128Y11502140D01*
X-11715128Y11502140D02*
X-11753223Y11540235D01*
X-11753223Y11540235D02*
X-11791318Y11616425D01*
X-11791318Y11616425D02*
X-11829414Y11768806D01*
X-11829414Y11768806D02*
X-11829414Y11959282D01*
X-11829414Y11959282D02*
X-11791318Y12111663D01*
X-11791318Y12111663D02*
X-11753223Y12187854D01*
X-11753223Y12187854D02*
X-11715128Y12225949D01*
X-11715128Y12225949D02*
X-11638937Y12264044D01*
X-10877032Y12264044D02*
X-10800842Y12264044D01*
X-10800842Y12264044D02*
X-10724651Y12225949D01*
X-10724651Y12225949D02*
X-10686556Y12187854D01*
X-10686556Y12187854D02*
X-10648461Y12111663D01*
X-10648461Y12111663D02*
X-10610366Y11959282D01*
X-10610366Y11959282D02*
X-10610366Y11768806D01*
X-10610366Y11768806D02*
X-10648461Y11616425D01*
X-10648461Y11616425D02*
X-10686556Y11540235D01*
X-10686556Y11540235D02*
X-10724651Y11502140D01*
X-10724651Y11502140D02*
X-10800842Y11464044D01*
X-10800842Y11464044D02*
X-10877032Y11464044D01*
X-10877032Y11464044D02*
X-10953223Y11502140D01*
X-10953223Y11502140D02*
X-10991318Y11540235D01*
X-10991318Y11540235D02*
X-11029413Y11616425D01*
X-11029413Y11616425D02*
X-11067509Y11768806D01*
X-11067509Y11768806D02*
X-11067509Y11959282D01*
X-11067509Y11959282D02*
X-11029413Y12111663D01*
X-11029413Y12111663D02*
X-10991318Y12187854D01*
X-10991318Y12187854D02*
X-10953223Y12225949D01*
X-10953223Y12225949D02*
X-10877032Y12264044D01*
X-10305604Y11464044D02*
X-10115127Y11464044D01*
X-10115127Y11464044D02*
X-10115127Y11616425D01*
X-10115127Y11616425D02*
X-10191318Y11654520D01*
X-10191318Y11654520D02*
X-10267508Y11730711D01*
X-10267508Y11730711D02*
X-10305604Y11844997D01*
X-10305604Y11844997D02*
X-10305604Y12035473D01*
X-10305604Y12035473D02*
X-10267508Y12149759D01*
X-10267508Y12149759D02*
X-10191318Y12225949D01*
X-10191318Y12225949D02*
X-10077032Y12264044D01*
X-10077032Y12264044D02*
X-9924651Y12264044D01*
X-9924651Y12264044D02*
X-9810365Y12225949D01*
X-9810365Y12225949D02*
X-9734175Y12149759D01*
X-9734175Y12149759D02*
X-9696080Y12035473D01*
X-9696080Y12035473D02*
X-9696080Y11844997D01*
X-9696080Y11844997D02*
X-9734175Y11730711D01*
X-9734175Y11730711D02*
X-9810365Y11654520D01*
X-9810365Y11654520D02*
X-9886556Y11616425D01*
X-9886556Y11616425D02*
X-9886556Y11464044D01*
X-9886556Y11464044D02*
X-9696080Y11464044D01*
X-11277032Y14324044D02*
X-11543699Y14704997D01*
X-11734175Y14324044D02*
X-11734175Y15124044D01*
X-11734175Y15124044D02*
X-11429413Y15124044D01*
X-11429413Y15124044D02*
X-11353223Y15085949D01*
X-11353223Y15085949D02*
X-11315128Y15047854D01*
X-11315128Y15047854D02*
X-11277032Y14971663D01*
X-11277032Y14971663D02*
X-11277032Y14857378D01*
X-11277032Y14857378D02*
X-11315128Y14781187D01*
X-11315128Y14781187D02*
X-11353223Y14743092D01*
X-11353223Y14743092D02*
X-11429413Y14704997D01*
X-11429413Y14704997D02*
X-11734175Y14704997D01*
X-11010366Y15124044D02*
X-10515128Y15124044D01*
X-10515128Y15124044D02*
X-10781794Y14819282D01*
X-10781794Y14819282D02*
X-10667509Y14819282D01*
X-10667509Y14819282D02*
X-10591318Y14781187D01*
X-10591318Y14781187D02*
X-10553223Y14743092D01*
X-10553223Y14743092D02*
X-10515128Y14666901D01*
X-10515128Y14666901D02*
X-10515128Y14476425D01*
X-10515128Y14476425D02*
X-10553223Y14400235D01*
X-10553223Y14400235D02*
X-10591318Y14362140D01*
X-10591318Y14362140D02*
X-10667509Y14324044D01*
X-10667509Y14324044D02*
X-10896080Y14324044D01*
X-10896080Y14324044D02*
X-10972271Y14362140D01*
X-10972271Y14362140D02*
X-11010366Y14400235D01*
X-75801085Y17740235D02*
X-75839181Y17702140D01*
X-75839181Y17702140D02*
X-75953466Y17664044D01*
X-75953466Y17664044D02*
X-76029657Y17664044D01*
X-76029657Y17664044D02*
X-76143943Y17702140D01*
X-76143943Y17702140D02*
X-76220133Y17778330D01*
X-76220133Y17778330D02*
X-76258228Y17854520D01*
X-76258228Y17854520D02*
X-76296324Y18006901D01*
X-76296324Y18006901D02*
X-76296324Y18121187D01*
X-76296324Y18121187D02*
X-76258228Y18273568D01*
X-76258228Y18273568D02*
X-76220133Y18349759D01*
X-76220133Y18349759D02*
X-76143943Y18425949D01*
X-76143943Y18425949D02*
X-76029657Y18464044D01*
X-76029657Y18464044D02*
X-75953466Y18464044D01*
X-75953466Y18464044D02*
X-75839181Y18425949D01*
X-75839181Y18425949D02*
X-75801085Y18387854D01*
X-75039181Y17664044D02*
X-75496324Y17664044D01*
X-75267752Y17664044D02*
X-75267752Y18464044D01*
X-75267752Y18464044D02*
X-75343943Y18349759D01*
X-75343943Y18349759D02*
X-75420133Y18273568D01*
X-75420133Y18273568D02*
X-75496324Y18235473D01*
X-74543942Y18464044D02*
X-74467752Y18464044D01*
X-74467752Y18464044D02*
X-74391561Y18425949D01*
X-74391561Y18425949D02*
X-74353466Y18387854D01*
X-74353466Y18387854D02*
X-74315371Y18311663D01*
X-74315371Y18311663D02*
X-74277276Y18159282D01*
X-74277276Y18159282D02*
X-74277276Y17968806D01*
X-74277276Y17968806D02*
X-74315371Y17816425D01*
X-74315371Y17816425D02*
X-74353466Y17740235D01*
X-74353466Y17740235D02*
X-74391561Y17702140D01*
X-74391561Y17702140D02*
X-74467752Y17664044D01*
X-74467752Y17664044D02*
X-74543942Y17664044D01*
X-74543942Y17664044D02*
X-74620133Y17702140D01*
X-74620133Y17702140D02*
X-74658228Y17740235D01*
X-74658228Y17740235D02*
X-74696323Y17816425D01*
X-74696323Y17816425D02*
X-74734419Y17968806D01*
X-74734419Y17968806D02*
X-74734419Y18159282D01*
X-74734419Y18159282D02*
X-74696323Y18311663D01*
X-74696323Y18311663D02*
X-74658228Y18387854D01*
X-74658228Y18387854D02*
X-74620133Y18425949D01*
X-74620133Y18425949D02*
X-74543942Y18464044D01*
D11*
X-35552195Y-4302346D02*
X-35552195Y-5124823D01*
X-35552195Y-5124823D02*
X-35503814Y-5221585D01*
X-35503814Y-5221585D02*
X-35455433Y-5269966D01*
X-35455433Y-5269966D02*
X-35358671Y-5318346D01*
X-35358671Y-5318346D02*
X-35165147Y-5318346D01*
X-35165147Y-5318346D02*
X-35068385Y-5269966D01*
X-35068385Y-5269966D02*
X-35020004Y-5221585D01*
X-35020004Y-5221585D02*
X-34971623Y-5124823D01*
X-34971623Y-5124823D02*
X-34971623Y-4302346D01*
X-34052385Y-4302346D02*
X-34245909Y-4302346D01*
X-34245909Y-4302346D02*
X-34342671Y-4350727D01*
X-34342671Y-4350727D02*
X-34391052Y-4399108D01*
X-34391052Y-4399108D02*
X-34487814Y-4544251D01*
X-34487814Y-4544251D02*
X-34536195Y-4737775D01*
X-34536195Y-4737775D02*
X-34536195Y-5124823D01*
X-34536195Y-5124823D02*
X-34487814Y-5221585D01*
X-34487814Y-5221585D02*
X-34439433Y-5269966D01*
X-34439433Y-5269966D02*
X-34342671Y-5318346D01*
X-34342671Y-5318346D02*
X-34149147Y-5318346D01*
X-34149147Y-5318346D02*
X-34052385Y-5269966D01*
X-34052385Y-5269966D02*
X-34004004Y-5221585D01*
X-34004004Y-5221585D02*
X-33955623Y-5124823D01*
X-33955623Y-5124823D02*
X-33955623Y-4882918D01*
X-33955623Y-4882918D02*
X-34004004Y-4786156D01*
X-34004004Y-4786156D02*
X-34052385Y-4737775D01*
X-34052385Y-4737775D02*
X-34149147Y-4689394D01*
X-34149147Y-4689394D02*
X-34342671Y-4689394D01*
X-34342671Y-4689394D02*
X-34439433Y-4737775D01*
X-34439433Y-4737775D02*
X-34487814Y-4786156D01*
X-34487814Y-4786156D02*
X-34536195Y-4882918D01*
X-41225595Y-12519146D02*
X-41225595Y-11503146D01*
X-40161213Y-12422385D02*
X-40209594Y-12470766D01*
X-40209594Y-12470766D02*
X-40354737Y-12519146D01*
X-40354737Y-12519146D02*
X-40451499Y-12519146D01*
X-40451499Y-12519146D02*
X-40596642Y-12470766D01*
X-40596642Y-12470766D02*
X-40693404Y-12374004D01*
X-40693404Y-12374004D02*
X-40741785Y-12277242D01*
X-40741785Y-12277242D02*
X-40790166Y-12083718D01*
X-40790166Y-12083718D02*
X-40790166Y-11938575D01*
X-40790166Y-11938575D02*
X-40741785Y-11745051D01*
X-40741785Y-11745051D02*
X-40693404Y-11648289D01*
X-40693404Y-11648289D02*
X-40596642Y-11551527D01*
X-40596642Y-11551527D02*
X-40451499Y-11503146D01*
X-40451499Y-11503146D02*
X-40354737Y-11503146D01*
X-40354737Y-11503146D02*
X-40209594Y-11551527D01*
X-40209594Y-11551527D02*
X-40161213Y-11599908D01*
X-39580642Y-11503146D02*
X-39580642Y-11745051D01*
X-39822547Y-11648289D02*
X-39580642Y-11745051D01*
X-39580642Y-11745051D02*
X-39338737Y-11648289D01*
X-39725785Y-11938575D02*
X-39580642Y-11745051D01*
X-39580642Y-11745051D02*
X-39435499Y-11938575D01*
X-38806547Y-11503146D02*
X-38806547Y-11745051D01*
X-39048452Y-11648289D02*
X-38806547Y-11745051D01*
X-38806547Y-11745051D02*
X-38564642Y-11648289D01*
X-38951690Y-11938575D02*
X-38806547Y-11745051D01*
X-38806547Y-11745051D02*
X-38661404Y-11938575D01*
D10*
X-156382290Y-6798155D02*
X-156763242Y-6798155D01*
X-156763242Y-6798155D02*
X-156763242Y-5998155D01*
X-156115623Y-6379107D02*
X-155848957Y-6379107D01*
X-155734671Y-6798155D02*
X-156115623Y-6798155D01*
X-156115623Y-6798155D02*
X-156115623Y-5998155D01*
X-156115623Y-5998155D02*
X-155734671Y-5998155D01*
X-155391813Y-6798155D02*
X-155391813Y-5998155D01*
X-155391813Y-5998155D02*
X-155201337Y-5998155D01*
X-155201337Y-5998155D02*
X-155087051Y-6036250D01*
X-155087051Y-6036250D02*
X-155010861Y-6112440D01*
X-155010861Y-6112440D02*
X-154972766Y-6188631D01*
X-154972766Y-6188631D02*
X-154934670Y-6341012D01*
X-154934670Y-6341012D02*
X-154934670Y-6455298D01*
X-154934670Y-6455298D02*
X-154972766Y-6607679D01*
X-154972766Y-6607679D02*
X-155010861Y-6683869D01*
X-155010861Y-6683869D02*
X-155087051Y-6760060D01*
X-155087051Y-6760060D02*
X-155201337Y-6798155D01*
X-155201337Y-6798155D02*
X-155391813Y-6798155D01*
X-154172766Y-6798155D02*
X-154629909Y-6798155D01*
X-154401337Y-6798155D02*
X-154401337Y-5998155D01*
X-154401337Y-5998155D02*
X-154477528Y-6112440D01*
X-154477528Y-6112440D02*
X-154553718Y-6188631D01*
X-154553718Y-6188631D02*
X-154629909Y-6226726D01*
X-153448956Y-5998155D02*
X-153829908Y-5998155D01*
X-153829908Y-5998155D02*
X-153868004Y-6379107D01*
X-153868004Y-6379107D02*
X-153829908Y-6341012D01*
X-153829908Y-6341012D02*
X-153753718Y-6302917D01*
X-153753718Y-6302917D02*
X-153563242Y-6302917D01*
X-153563242Y-6302917D02*
X-153487051Y-6341012D01*
X-153487051Y-6341012D02*
X-153448956Y-6379107D01*
X-153448956Y-6379107D02*
X-153410861Y-6455298D01*
X-153410861Y-6455298D02*
X-153410861Y-6645774D01*
X-153410861Y-6645774D02*
X-153448956Y-6721964D01*
X-153448956Y-6721964D02*
X-153487051Y-6760060D01*
X-153487051Y-6760060D02*
X-153563242Y-6798155D01*
X-153563242Y-6798155D02*
X-153753718Y-6798155D01*
X-153753718Y-6798155D02*
X-153829908Y-6760060D01*
X-153829908Y-6760060D02*
X-153868004Y-6721964D01*
X-109005590Y-9286655D02*
X-109386542Y-9286655D01*
X-109386542Y-9286655D02*
X-109386542Y-8486655D01*
X-108738923Y-8867607D02*
X-108472257Y-8867607D01*
X-108357971Y-9286655D02*
X-108738923Y-9286655D01*
X-108738923Y-9286655D02*
X-108738923Y-8486655D01*
X-108738923Y-8486655D02*
X-108357971Y-8486655D01*
X-108015113Y-9286655D02*
X-108015113Y-8486655D01*
X-108015113Y-8486655D02*
X-107824637Y-8486655D01*
X-107824637Y-8486655D02*
X-107710351Y-8524750D01*
X-107710351Y-8524750D02*
X-107634161Y-8600940D01*
X-107634161Y-8600940D02*
X-107596066Y-8677131D01*
X-107596066Y-8677131D02*
X-107557970Y-8829512D01*
X-107557970Y-8829512D02*
X-107557970Y-8943798D01*
X-107557970Y-8943798D02*
X-107596066Y-9096179D01*
X-107596066Y-9096179D02*
X-107634161Y-9172369D01*
X-107634161Y-9172369D02*
X-107710351Y-9248560D01*
X-107710351Y-9248560D02*
X-107824637Y-9286655D01*
X-107824637Y-9286655D02*
X-108015113Y-9286655D01*
X-106796066Y-9286655D02*
X-107253209Y-9286655D01*
X-107024637Y-9286655D02*
X-107024637Y-8486655D01*
X-107024637Y-8486655D02*
X-107100828Y-8600940D01*
X-107100828Y-8600940D02*
X-107177018Y-8677131D01*
X-107177018Y-8677131D02*
X-107253209Y-8715226D01*
X-106300827Y-8486655D02*
X-106224637Y-8486655D01*
X-106224637Y-8486655D02*
X-106148446Y-8524750D01*
X-106148446Y-8524750D02*
X-106110351Y-8562845D01*
X-106110351Y-8562845D02*
X-106072256Y-8639036D01*
X-106072256Y-8639036D02*
X-106034161Y-8791417D01*
X-106034161Y-8791417D02*
X-106034161Y-8981893D01*
X-106034161Y-8981893D02*
X-106072256Y-9134274D01*
X-106072256Y-9134274D02*
X-106110351Y-9210464D01*
X-106110351Y-9210464D02*
X-106148446Y-9248560D01*
X-106148446Y-9248560D02*
X-106224637Y-9286655D01*
X-106224637Y-9286655D02*
X-106300827Y-9286655D01*
X-106300827Y-9286655D02*
X-106377018Y-9248560D01*
X-106377018Y-9248560D02*
X-106415113Y-9210464D01*
X-106415113Y-9210464D02*
X-106453208Y-9134274D01*
X-106453208Y-9134274D02*
X-106491304Y-8981893D01*
X-106491304Y-8981893D02*
X-106491304Y-8791417D01*
X-106491304Y-8791417D02*
X-106453208Y-8639036D01*
X-106453208Y-8639036D02*
X-106415113Y-8562845D01*
X-106415113Y-8562845D02*
X-106377018Y-8524750D01*
X-106377018Y-8524750D02*
X-106300827Y-8486655D01*
X-115263490Y-9286655D02*
X-115644442Y-9286655D01*
X-115644442Y-9286655D02*
X-115644442Y-8486655D01*
X-114996823Y-8867607D02*
X-114730157Y-8867607D01*
X-114615871Y-9286655D02*
X-114996823Y-9286655D01*
X-114996823Y-9286655D02*
X-114996823Y-8486655D01*
X-114996823Y-8486655D02*
X-114615871Y-8486655D01*
X-114273013Y-9286655D02*
X-114273013Y-8486655D01*
X-114273013Y-8486655D02*
X-114082537Y-8486655D01*
X-114082537Y-8486655D02*
X-113968251Y-8524750D01*
X-113968251Y-8524750D02*
X-113892061Y-8600940D01*
X-113892061Y-8600940D02*
X-113853966Y-8677131D01*
X-113853966Y-8677131D02*
X-113815870Y-8829512D01*
X-113815870Y-8829512D02*
X-113815870Y-8943798D01*
X-113815870Y-8943798D02*
X-113853966Y-9096179D01*
X-113853966Y-9096179D02*
X-113892061Y-9172369D01*
X-113892061Y-9172369D02*
X-113968251Y-9248560D01*
X-113968251Y-9248560D02*
X-114082537Y-9286655D01*
X-114082537Y-9286655D02*
X-114273013Y-9286655D01*
X-113053966Y-9286655D02*
X-113511109Y-9286655D01*
X-113282537Y-9286655D02*
X-113282537Y-8486655D01*
X-113282537Y-8486655D02*
X-113358728Y-8600940D01*
X-113358728Y-8600940D02*
X-113434918Y-8677131D01*
X-113434918Y-8677131D02*
X-113511109Y-8715226D01*
X-112292061Y-9286655D02*
X-112749204Y-9286655D01*
X-112520632Y-9286655D02*
X-112520632Y-8486655D01*
X-112520632Y-8486655D02*
X-112596823Y-8600940D01*
X-112596823Y-8600940D02*
X-112673013Y-8677131D01*
X-112673013Y-8677131D02*
X-112749204Y-8715226D01*
X-183621690Y6758344D02*
X-184002642Y6758344D01*
X-184002642Y6758344D02*
X-184002642Y7558344D01*
X-183355023Y7177392D02*
X-183088357Y7177392D01*
X-182974071Y6758344D02*
X-183355023Y6758344D01*
X-183355023Y6758344D02*
X-183355023Y7558344D01*
X-183355023Y7558344D02*
X-182974071Y7558344D01*
X-182631213Y6758344D02*
X-182631213Y7558344D01*
X-182631213Y7558344D02*
X-182440737Y7558344D01*
X-182440737Y7558344D02*
X-182326451Y7520249D01*
X-182326451Y7520249D02*
X-182250261Y7444059D01*
X-182250261Y7444059D02*
X-182212166Y7367868D01*
X-182212166Y7367868D02*
X-182174070Y7215487D01*
X-182174070Y7215487D02*
X-182174070Y7101201D01*
X-182174070Y7101201D02*
X-182212166Y6948820D01*
X-182212166Y6948820D02*
X-182250261Y6872630D01*
X-182250261Y6872630D02*
X-182326451Y6796440D01*
X-182326451Y6796440D02*
X-182440737Y6758344D01*
X-182440737Y6758344D02*
X-182631213Y6758344D01*
X-181412166Y6758344D02*
X-181869309Y6758344D01*
X-181640737Y6758344D02*
X-181640737Y7558344D01*
X-181640737Y7558344D02*
X-181716928Y7444059D01*
X-181716928Y7444059D02*
X-181793118Y7367868D01*
X-181793118Y7367868D02*
X-181869309Y7329773D01*
X-180726451Y7291678D02*
X-180726451Y6758344D01*
X-180916927Y7596440D02*
X-181107404Y7025011D01*
X-181107404Y7025011D02*
X-180612165Y7025011D01*
X-95527838Y-9286655D02*
X-95908790Y-9286655D01*
X-95908790Y-9286655D02*
X-95908790Y-8486655D01*
X-95261171Y-8867607D02*
X-94994505Y-8867607D01*
X-94880219Y-9286655D02*
X-95261171Y-9286655D01*
X-95261171Y-9286655D02*
X-95261171Y-8486655D01*
X-95261171Y-8486655D02*
X-94880219Y-8486655D01*
X-94537361Y-9286655D02*
X-94537361Y-8486655D01*
X-94537361Y-8486655D02*
X-94346885Y-8486655D01*
X-94346885Y-8486655D02*
X-94232599Y-8524750D01*
X-94232599Y-8524750D02*
X-94156409Y-8600940D01*
X-94156409Y-8600940D02*
X-94118314Y-8677131D01*
X-94118314Y-8677131D02*
X-94080218Y-8829512D01*
X-94080218Y-8829512D02*
X-94080218Y-8943798D01*
X-94080218Y-8943798D02*
X-94118314Y-9096179D01*
X-94118314Y-9096179D02*
X-94156409Y-9172369D01*
X-94156409Y-9172369D02*
X-94232599Y-9248560D01*
X-94232599Y-9248560D02*
X-94346885Y-9286655D01*
X-94346885Y-9286655D02*
X-94537361Y-9286655D01*
X-93699266Y-9286655D02*
X-93546885Y-9286655D01*
X-93546885Y-9286655D02*
X-93470695Y-9248560D01*
X-93470695Y-9248560D02*
X-93432599Y-9210464D01*
X-93432599Y-9210464D02*
X-93356409Y-9096179D01*
X-93356409Y-9096179D02*
X-93318314Y-8943798D01*
X-93318314Y-8943798D02*
X-93318314Y-8639036D01*
X-93318314Y-8639036D02*
X-93356409Y-8562845D01*
X-93356409Y-8562845D02*
X-93394504Y-8524750D01*
X-93394504Y-8524750D02*
X-93470695Y-8486655D01*
X-93470695Y-8486655D02*
X-93623076Y-8486655D01*
X-93623076Y-8486655D02*
X-93699266Y-8524750D01*
X-93699266Y-8524750D02*
X-93737361Y-8562845D01*
X-93737361Y-8562845D02*
X-93775457Y-8639036D01*
X-93775457Y-8639036D02*
X-93775457Y-8829512D01*
X-93775457Y-8829512D02*
X-93737361Y-8905702D01*
X-93737361Y-8905702D02*
X-93699266Y-8943798D01*
X-93699266Y-8943798D02*
X-93623076Y-8981893D01*
X-93623076Y-8981893D02*
X-93470695Y-8981893D01*
X-93470695Y-8981893D02*
X-93394504Y-8943798D01*
X-93394504Y-8943798D02*
X-93356409Y-8905702D01*
X-93356409Y-8905702D02*
X-93318314Y-8829512D01*
X-184559190Y-22851855D02*
X-184940142Y-22851855D01*
X-184940142Y-22851855D02*
X-184940142Y-22051855D01*
X-184292523Y-22432807D02*
X-184025857Y-22432807D01*
X-183911571Y-22851855D02*
X-184292523Y-22851855D01*
X-184292523Y-22851855D02*
X-184292523Y-22051855D01*
X-184292523Y-22051855D02*
X-183911571Y-22051855D01*
X-183568713Y-22851855D02*
X-183568713Y-22051855D01*
X-183568713Y-22051855D02*
X-183378237Y-22051855D01*
X-183378237Y-22051855D02*
X-183263951Y-22089950D01*
X-183263951Y-22089950D02*
X-183187761Y-22166140D01*
X-183187761Y-22166140D02*
X-183149666Y-22242331D01*
X-183149666Y-22242331D02*
X-183111570Y-22394712D01*
X-183111570Y-22394712D02*
X-183111570Y-22508998D01*
X-183111570Y-22508998D02*
X-183149666Y-22661379D01*
X-183149666Y-22661379D02*
X-183187761Y-22737569D01*
X-183187761Y-22737569D02*
X-183263951Y-22813760D01*
X-183263951Y-22813760D02*
X-183378237Y-22851855D01*
X-183378237Y-22851855D02*
X-183568713Y-22851855D01*
X-182349666Y-22851855D02*
X-182806809Y-22851855D01*
X-182578237Y-22851855D02*
X-182578237Y-22051855D01*
X-182578237Y-22051855D02*
X-182654428Y-22166140D01*
X-182654428Y-22166140D02*
X-182730618Y-22242331D01*
X-182730618Y-22242331D02*
X-182806809Y-22280426D01*
X-182044904Y-22128045D02*
X-182006808Y-22089950D01*
X-182006808Y-22089950D02*
X-181930618Y-22051855D01*
X-181930618Y-22051855D02*
X-181740142Y-22051855D01*
X-181740142Y-22051855D02*
X-181663951Y-22089950D01*
X-181663951Y-22089950D02*
X-181625856Y-22128045D01*
X-181625856Y-22128045D02*
X-181587761Y-22204236D01*
X-181587761Y-22204236D02*
X-181587761Y-22280426D01*
X-181587761Y-22280426D02*
X-181625856Y-22394712D01*
X-181625856Y-22394712D02*
X-182082999Y-22851855D01*
X-182082999Y-22851855D02*
X-181587761Y-22851855D01*
X-165804890Y-16652555D02*
X-166185842Y-16652555D01*
X-166185842Y-16652555D02*
X-166185842Y-15852555D01*
X-165538223Y-16233507D02*
X-165271557Y-16233507D01*
X-165157271Y-16652555D02*
X-165538223Y-16652555D01*
X-165538223Y-16652555D02*
X-165538223Y-15852555D01*
X-165538223Y-15852555D02*
X-165157271Y-15852555D01*
X-164814413Y-16652555D02*
X-164814413Y-15852555D01*
X-164814413Y-15852555D02*
X-164623937Y-15852555D01*
X-164623937Y-15852555D02*
X-164509651Y-15890650D01*
X-164509651Y-15890650D02*
X-164433461Y-15966840D01*
X-164433461Y-15966840D02*
X-164395366Y-16043031D01*
X-164395366Y-16043031D02*
X-164357270Y-16195412D01*
X-164357270Y-16195412D02*
X-164357270Y-16309698D01*
X-164357270Y-16309698D02*
X-164395366Y-16462079D01*
X-164395366Y-16462079D02*
X-164433461Y-16538269D01*
X-164433461Y-16538269D02*
X-164509651Y-16614460D01*
X-164509651Y-16614460D02*
X-164623937Y-16652555D01*
X-164623937Y-16652555D02*
X-164814413Y-16652555D01*
X-163595366Y-16652555D02*
X-164052509Y-16652555D01*
X-163823937Y-16652555D02*
X-163823937Y-15852555D01*
X-163823937Y-15852555D02*
X-163900128Y-15966840D01*
X-163900128Y-15966840D02*
X-163976318Y-16043031D01*
X-163976318Y-16043031D02*
X-164052509Y-16081126D01*
X-162909651Y-15852555D02*
X-163062032Y-15852555D01*
X-163062032Y-15852555D02*
X-163138223Y-15890650D01*
X-163138223Y-15890650D02*
X-163176318Y-15928745D01*
X-163176318Y-15928745D02*
X-163252508Y-16043031D01*
X-163252508Y-16043031D02*
X-163290604Y-16195412D01*
X-163290604Y-16195412D02*
X-163290604Y-16500174D01*
X-163290604Y-16500174D02*
X-163252508Y-16576364D01*
X-163252508Y-16576364D02*
X-163214413Y-16614460D01*
X-163214413Y-16614460D02*
X-163138223Y-16652555D01*
X-163138223Y-16652555D02*
X-162985842Y-16652555D01*
X-162985842Y-16652555D02*
X-162909651Y-16614460D01*
X-162909651Y-16614460D02*
X-162871556Y-16576364D01*
X-162871556Y-16576364D02*
X-162833461Y-16500174D01*
X-162833461Y-16500174D02*
X-162833461Y-16309698D01*
X-162833461Y-16309698D02*
X-162871556Y-16233507D01*
X-162871556Y-16233507D02*
X-162909651Y-16195412D01*
X-162909651Y-16195412D02*
X-162985842Y-16157317D01*
X-162985842Y-16157317D02*
X-163138223Y-16157317D01*
X-163138223Y-16157317D02*
X-163214413Y-16195412D01*
X-163214413Y-16195412D02*
X-163252508Y-16233507D01*
X-163252508Y-16233507D02*
X-163290604Y-16309698D01*
X-164867390Y-40077855D02*
X-165248342Y-40077855D01*
X-165248342Y-40077855D02*
X-165248342Y-39277855D01*
X-164600723Y-39658807D02*
X-164334057Y-39658807D01*
X-164219771Y-40077855D02*
X-164600723Y-40077855D01*
X-164600723Y-40077855D02*
X-164600723Y-39277855D01*
X-164600723Y-39277855D02*
X-164219771Y-39277855D01*
X-163876913Y-40077855D02*
X-163876913Y-39277855D01*
X-163876913Y-39277855D02*
X-163686437Y-39277855D01*
X-163686437Y-39277855D02*
X-163572151Y-39315950D01*
X-163572151Y-39315950D02*
X-163495961Y-39392140D01*
X-163495961Y-39392140D02*
X-163457866Y-39468331D01*
X-163457866Y-39468331D02*
X-163419770Y-39620712D01*
X-163419770Y-39620712D02*
X-163419770Y-39734998D01*
X-163419770Y-39734998D02*
X-163457866Y-39887379D01*
X-163457866Y-39887379D02*
X-163495961Y-39963569D01*
X-163495961Y-39963569D02*
X-163572151Y-40039760D01*
X-163572151Y-40039760D02*
X-163686437Y-40077855D01*
X-163686437Y-40077855D02*
X-163876913Y-40077855D01*
X-162657866Y-40077855D02*
X-163115009Y-40077855D01*
X-162886437Y-40077855D02*
X-162886437Y-39277855D01*
X-162886437Y-39277855D02*
X-162962628Y-39392140D01*
X-162962628Y-39392140D02*
X-163038818Y-39468331D01*
X-163038818Y-39468331D02*
X-163115009Y-39506426D01*
X-162391199Y-39277855D02*
X-161895961Y-39277855D01*
X-161895961Y-39277855D02*
X-162162627Y-39582617D01*
X-162162627Y-39582617D02*
X-162048342Y-39582617D01*
X-162048342Y-39582617D02*
X-161972151Y-39620712D01*
X-161972151Y-39620712D02*
X-161934056Y-39658807D01*
X-161934056Y-39658807D02*
X-161895961Y-39734998D01*
X-161895961Y-39734998D02*
X-161895961Y-39925474D01*
X-161895961Y-39925474D02*
X-161934056Y-40001664D01*
X-161934056Y-40001664D02*
X-161972151Y-40039760D01*
X-161972151Y-40039760D02*
X-162048342Y-40077855D01*
X-162048342Y-40077855D02*
X-162276913Y-40077855D01*
X-162276913Y-40077855D02*
X-162353104Y-40039760D01*
X-162353104Y-40039760D02*
X-162391199Y-40001664D01*
X-172868071Y-35835055D02*
X-173249023Y-35835055D01*
X-173249023Y-35835055D02*
X-173287119Y-36216007D01*
X-173287119Y-36216007D02*
X-173249023Y-36177912D01*
X-173249023Y-36177912D02*
X-173172833Y-36139817D01*
X-173172833Y-36139817D02*
X-172982357Y-36139817D01*
X-172982357Y-36139817D02*
X-172906166Y-36177912D01*
X-172906166Y-36177912D02*
X-172868071Y-36216007D01*
X-172868071Y-36216007D02*
X-172829976Y-36292198D01*
X-172829976Y-36292198D02*
X-172829976Y-36482674D01*
X-172829976Y-36482674D02*
X-172868071Y-36558864D01*
X-172868071Y-36558864D02*
X-172906166Y-36596960D01*
X-172906166Y-36596960D02*
X-172982357Y-36635055D01*
X-172982357Y-36635055D02*
X-173172833Y-36635055D01*
X-173172833Y-36635055D02*
X-173249023Y-36596960D01*
X-173249023Y-36596960D02*
X-173287119Y-36558864D01*
X-172334737Y-35835055D02*
X-172258547Y-35835055D01*
X-172258547Y-35835055D02*
X-172182356Y-35873150D01*
X-172182356Y-35873150D02*
X-172144261Y-35911245D01*
X-172144261Y-35911245D02*
X-172106166Y-35987436D01*
X-172106166Y-35987436D02*
X-172068071Y-36139817D01*
X-172068071Y-36139817D02*
X-172068071Y-36330293D01*
X-172068071Y-36330293D02*
X-172106166Y-36482674D01*
X-172106166Y-36482674D02*
X-172144261Y-36558864D01*
X-172144261Y-36558864D02*
X-172182356Y-36596960D01*
X-172182356Y-36596960D02*
X-172258547Y-36635055D01*
X-172258547Y-36635055D02*
X-172334737Y-36635055D01*
X-172334737Y-36635055D02*
X-172410928Y-36596960D01*
X-172410928Y-36596960D02*
X-172449023Y-36558864D01*
X-172449023Y-36558864D02*
X-172487118Y-36482674D01*
X-172487118Y-36482674D02*
X-172525214Y-36330293D01*
X-172525214Y-36330293D02*
X-172525214Y-36139817D01*
X-172525214Y-36139817D02*
X-172487118Y-35987436D01*
X-172487118Y-35987436D02*
X-172449023Y-35911245D01*
X-172449023Y-35911245D02*
X-172410928Y-35873150D01*
X-172410928Y-35873150D02*
X-172334737Y-35835055D01*
X-171572832Y-35835055D02*
X-171496642Y-35835055D01*
X-171496642Y-35835055D02*
X-171420451Y-35873150D01*
X-171420451Y-35873150D02*
X-171382356Y-35911245D01*
X-171382356Y-35911245D02*
X-171344261Y-35987436D01*
X-171344261Y-35987436D02*
X-171306166Y-36139817D01*
X-171306166Y-36139817D02*
X-171306166Y-36330293D01*
X-171306166Y-36330293D02*
X-171344261Y-36482674D01*
X-171344261Y-36482674D02*
X-171382356Y-36558864D01*
X-171382356Y-36558864D02*
X-171420451Y-36596960D01*
X-171420451Y-36596960D02*
X-171496642Y-36635055D01*
X-171496642Y-36635055D02*
X-171572832Y-36635055D01*
X-171572832Y-36635055D02*
X-171649023Y-36596960D01*
X-171649023Y-36596960D02*
X-171687118Y-36558864D01*
X-171687118Y-36558864D02*
X-171725213Y-36482674D01*
X-171725213Y-36482674D02*
X-171763309Y-36330293D01*
X-171763309Y-36330293D02*
X-171763309Y-36139817D01*
X-171763309Y-36139817D02*
X-171725213Y-35987436D01*
X-171725213Y-35987436D02*
X-171687118Y-35911245D01*
X-171687118Y-35911245D02*
X-171649023Y-35873150D01*
X-171649023Y-35873150D02*
X-171572832Y-35835055D01*
X-171001404Y-36635055D02*
X-170810927Y-36635055D01*
X-170810927Y-36635055D02*
X-170810927Y-36482674D01*
X-170810927Y-36482674D02*
X-170887118Y-36444579D01*
X-170887118Y-36444579D02*
X-170963308Y-36368388D01*
X-170963308Y-36368388D02*
X-171001404Y-36254102D01*
X-171001404Y-36254102D02*
X-171001404Y-36063626D01*
X-171001404Y-36063626D02*
X-170963308Y-35949340D01*
X-170963308Y-35949340D02*
X-170887118Y-35873150D01*
X-170887118Y-35873150D02*
X-170772832Y-35835055D01*
X-170772832Y-35835055D02*
X-170620451Y-35835055D01*
X-170620451Y-35835055D02*
X-170506165Y-35873150D01*
X-170506165Y-35873150D02*
X-170429975Y-35949340D01*
X-170429975Y-35949340D02*
X-170391880Y-36063626D01*
X-170391880Y-36063626D02*
X-170391880Y-36254102D01*
X-170391880Y-36254102D02*
X-170429975Y-36368388D01*
X-170429975Y-36368388D02*
X-170506165Y-36444579D01*
X-170506165Y-36444579D02*
X-170582356Y-36482674D01*
X-170582356Y-36482674D02*
X-170582356Y-36635055D01*
X-170582356Y-36635055D02*
X-170391880Y-36635055D01*
X-172353785Y-33775055D02*
X-172620452Y-33394102D01*
X-172810928Y-33775055D02*
X-172810928Y-32975055D01*
X-172810928Y-32975055D02*
X-172506166Y-32975055D01*
X-172506166Y-32975055D02*
X-172429976Y-33013150D01*
X-172429976Y-33013150D02*
X-172391881Y-33051245D01*
X-172391881Y-33051245D02*
X-172353785Y-33127436D01*
X-172353785Y-33127436D02*
X-172353785Y-33241721D01*
X-172353785Y-33241721D02*
X-172391881Y-33317912D01*
X-172391881Y-33317912D02*
X-172429976Y-33356007D01*
X-172429976Y-33356007D02*
X-172506166Y-33394102D01*
X-172506166Y-33394102D02*
X-172810928Y-33394102D01*
X-172049024Y-33051245D02*
X-172010928Y-33013150D01*
X-172010928Y-33013150D02*
X-171934738Y-32975055D01*
X-171934738Y-32975055D02*
X-171744262Y-32975055D01*
X-171744262Y-32975055D02*
X-171668071Y-33013150D01*
X-171668071Y-33013150D02*
X-171629976Y-33051245D01*
X-171629976Y-33051245D02*
X-171591881Y-33127436D01*
X-171591881Y-33127436D02*
X-171591881Y-33203626D01*
X-171591881Y-33203626D02*
X-171629976Y-33317912D01*
X-171629976Y-33317912D02*
X-172087119Y-33775055D01*
X-172087119Y-33775055D02*
X-171591881Y-33775055D01*
X-171096642Y-32975055D02*
X-171020452Y-32975055D01*
X-171020452Y-32975055D02*
X-170944261Y-33013150D01*
X-170944261Y-33013150D02*
X-170906166Y-33051245D01*
X-170906166Y-33051245D02*
X-170868071Y-33127436D01*
X-170868071Y-33127436D02*
X-170829976Y-33279817D01*
X-170829976Y-33279817D02*
X-170829976Y-33470293D01*
X-170829976Y-33470293D02*
X-170868071Y-33622674D01*
X-170868071Y-33622674D02*
X-170906166Y-33698864D01*
X-170906166Y-33698864D02*
X-170944261Y-33736960D01*
X-170944261Y-33736960D02*
X-171020452Y-33775055D01*
X-171020452Y-33775055D02*
X-171096642Y-33775055D01*
X-171096642Y-33775055D02*
X-171172833Y-33736960D01*
X-171172833Y-33736960D02*
X-171210928Y-33698864D01*
X-171210928Y-33698864D02*
X-171249023Y-33622674D01*
X-171249023Y-33622674D02*
X-171287119Y-33470293D01*
X-171287119Y-33470293D02*
X-171287119Y-33279817D01*
X-171287119Y-33279817D02*
X-171249023Y-33127436D01*
X-171249023Y-33127436D02*
X-171210928Y-33051245D01*
X-171210928Y-33051245D02*
X-171172833Y-33013150D01*
X-171172833Y-33013150D02*
X-171096642Y-32975055D01*
X-138304771Y-34985355D02*
X-138685723Y-34985355D01*
X-138685723Y-34985355D02*
X-138723819Y-35366307D01*
X-138723819Y-35366307D02*
X-138685723Y-35328212D01*
X-138685723Y-35328212D02*
X-138609533Y-35290117D01*
X-138609533Y-35290117D02*
X-138419057Y-35290117D01*
X-138419057Y-35290117D02*
X-138342866Y-35328212D01*
X-138342866Y-35328212D02*
X-138304771Y-35366307D01*
X-138304771Y-35366307D02*
X-138266676Y-35442498D01*
X-138266676Y-35442498D02*
X-138266676Y-35632974D01*
X-138266676Y-35632974D02*
X-138304771Y-35709164D01*
X-138304771Y-35709164D02*
X-138342866Y-35747260D01*
X-138342866Y-35747260D02*
X-138419057Y-35785355D01*
X-138419057Y-35785355D02*
X-138609533Y-35785355D01*
X-138609533Y-35785355D02*
X-138685723Y-35747260D01*
X-138685723Y-35747260D02*
X-138723819Y-35709164D01*
X-137771437Y-34985355D02*
X-137695247Y-34985355D01*
X-137695247Y-34985355D02*
X-137619056Y-35023450D01*
X-137619056Y-35023450D02*
X-137580961Y-35061545D01*
X-137580961Y-35061545D02*
X-137542866Y-35137736D01*
X-137542866Y-35137736D02*
X-137504771Y-35290117D01*
X-137504771Y-35290117D02*
X-137504771Y-35480593D01*
X-137504771Y-35480593D02*
X-137542866Y-35632974D01*
X-137542866Y-35632974D02*
X-137580961Y-35709164D01*
X-137580961Y-35709164D02*
X-137619056Y-35747260D01*
X-137619056Y-35747260D02*
X-137695247Y-35785355D01*
X-137695247Y-35785355D02*
X-137771437Y-35785355D01*
X-137771437Y-35785355D02*
X-137847628Y-35747260D01*
X-137847628Y-35747260D02*
X-137885723Y-35709164D01*
X-137885723Y-35709164D02*
X-137923818Y-35632974D01*
X-137923818Y-35632974D02*
X-137961914Y-35480593D01*
X-137961914Y-35480593D02*
X-137961914Y-35290117D01*
X-137961914Y-35290117D02*
X-137923818Y-35137736D01*
X-137923818Y-35137736D02*
X-137885723Y-35061545D01*
X-137885723Y-35061545D02*
X-137847628Y-35023450D01*
X-137847628Y-35023450D02*
X-137771437Y-34985355D01*
X-137009532Y-34985355D02*
X-136933342Y-34985355D01*
X-136933342Y-34985355D02*
X-136857151Y-35023450D01*
X-136857151Y-35023450D02*
X-136819056Y-35061545D01*
X-136819056Y-35061545D02*
X-136780961Y-35137736D01*
X-136780961Y-35137736D02*
X-136742866Y-35290117D01*
X-136742866Y-35290117D02*
X-136742866Y-35480593D01*
X-136742866Y-35480593D02*
X-136780961Y-35632974D01*
X-136780961Y-35632974D02*
X-136819056Y-35709164D01*
X-136819056Y-35709164D02*
X-136857151Y-35747260D01*
X-136857151Y-35747260D02*
X-136933342Y-35785355D01*
X-136933342Y-35785355D02*
X-137009532Y-35785355D01*
X-137009532Y-35785355D02*
X-137085723Y-35747260D01*
X-137085723Y-35747260D02*
X-137123818Y-35709164D01*
X-137123818Y-35709164D02*
X-137161913Y-35632974D01*
X-137161913Y-35632974D02*
X-137200009Y-35480593D01*
X-137200009Y-35480593D02*
X-137200009Y-35290117D01*
X-137200009Y-35290117D02*
X-137161913Y-35137736D01*
X-137161913Y-35137736D02*
X-137123818Y-35061545D01*
X-137123818Y-35061545D02*
X-137085723Y-35023450D01*
X-137085723Y-35023450D02*
X-137009532Y-34985355D01*
X-136438104Y-35785355D02*
X-136247627Y-35785355D01*
X-136247627Y-35785355D02*
X-136247627Y-35632974D01*
X-136247627Y-35632974D02*
X-136323818Y-35594879D01*
X-136323818Y-35594879D02*
X-136400008Y-35518688D01*
X-136400008Y-35518688D02*
X-136438104Y-35404402D01*
X-136438104Y-35404402D02*
X-136438104Y-35213926D01*
X-136438104Y-35213926D02*
X-136400008Y-35099640D01*
X-136400008Y-35099640D02*
X-136323818Y-35023450D01*
X-136323818Y-35023450D02*
X-136209532Y-34985355D01*
X-136209532Y-34985355D02*
X-136057151Y-34985355D01*
X-136057151Y-34985355D02*
X-135942865Y-35023450D01*
X-135942865Y-35023450D02*
X-135866675Y-35099640D01*
X-135866675Y-35099640D02*
X-135828580Y-35213926D01*
X-135828580Y-35213926D02*
X-135828580Y-35404402D01*
X-135828580Y-35404402D02*
X-135866675Y-35518688D01*
X-135866675Y-35518688D02*
X-135942865Y-35594879D01*
X-135942865Y-35594879D02*
X-136019056Y-35632974D01*
X-136019056Y-35632974D02*
X-136019056Y-35785355D01*
X-136019056Y-35785355D02*
X-135828580Y-35785355D01*
X-137790485Y-32925355D02*
X-138057152Y-32544402D01*
X-138247628Y-32925355D02*
X-138247628Y-32125355D01*
X-138247628Y-32125355D02*
X-137942866Y-32125355D01*
X-137942866Y-32125355D02*
X-137866676Y-32163450D01*
X-137866676Y-32163450D02*
X-137828581Y-32201545D01*
X-137828581Y-32201545D02*
X-137790485Y-32277736D01*
X-137790485Y-32277736D02*
X-137790485Y-32392021D01*
X-137790485Y-32392021D02*
X-137828581Y-32468212D01*
X-137828581Y-32468212D02*
X-137866676Y-32506307D01*
X-137866676Y-32506307D02*
X-137942866Y-32544402D01*
X-137942866Y-32544402D02*
X-138247628Y-32544402D01*
X-137028581Y-32925355D02*
X-137485724Y-32925355D01*
X-137257152Y-32925355D02*
X-137257152Y-32125355D01*
X-137257152Y-32125355D02*
X-137333343Y-32239640D01*
X-137333343Y-32239640D02*
X-137409533Y-32315831D01*
X-137409533Y-32315831D02*
X-137485724Y-32353926D01*
X-136647628Y-32925355D02*
X-136495247Y-32925355D01*
X-136495247Y-32925355D02*
X-136419057Y-32887260D01*
X-136419057Y-32887260D02*
X-136380961Y-32849164D01*
X-136380961Y-32849164D02*
X-136304771Y-32734879D01*
X-136304771Y-32734879D02*
X-136266676Y-32582498D01*
X-136266676Y-32582498D02*
X-136266676Y-32277736D01*
X-136266676Y-32277736D02*
X-136304771Y-32201545D01*
X-136304771Y-32201545D02*
X-136342866Y-32163450D01*
X-136342866Y-32163450D02*
X-136419057Y-32125355D01*
X-136419057Y-32125355D02*
X-136571438Y-32125355D01*
X-136571438Y-32125355D02*
X-136647628Y-32163450D01*
X-136647628Y-32163450D02*
X-136685723Y-32201545D01*
X-136685723Y-32201545D02*
X-136723819Y-32277736D01*
X-136723819Y-32277736D02*
X-136723819Y-32468212D01*
X-136723819Y-32468212D02*
X-136685723Y-32544402D01*
X-136685723Y-32544402D02*
X-136647628Y-32582498D01*
X-136647628Y-32582498D02*
X-136571438Y-32620593D01*
X-136571438Y-32620593D02*
X-136419057Y-32620593D01*
X-136419057Y-32620593D02*
X-136342866Y-32582498D01*
X-136342866Y-32582498D02*
X-136304771Y-32544402D01*
X-136304771Y-32544402D02*
X-136266676Y-32468212D01*
X-134960471Y-25939255D02*
X-135341423Y-25939255D01*
X-135341423Y-25939255D02*
X-135379519Y-26320207D01*
X-135379519Y-26320207D02*
X-135341423Y-26282112D01*
X-135341423Y-26282112D02*
X-135265233Y-26244017D01*
X-135265233Y-26244017D02*
X-135074757Y-26244017D01*
X-135074757Y-26244017D02*
X-134998566Y-26282112D01*
X-134998566Y-26282112D02*
X-134960471Y-26320207D01*
X-134960471Y-26320207D02*
X-134922376Y-26396398D01*
X-134922376Y-26396398D02*
X-134922376Y-26586874D01*
X-134922376Y-26586874D02*
X-134960471Y-26663064D01*
X-134960471Y-26663064D02*
X-134998566Y-26701160D01*
X-134998566Y-26701160D02*
X-135074757Y-26739255D01*
X-135074757Y-26739255D02*
X-135265233Y-26739255D01*
X-135265233Y-26739255D02*
X-135341423Y-26701160D01*
X-135341423Y-26701160D02*
X-135379519Y-26663064D01*
X-134427137Y-25939255D02*
X-134350947Y-25939255D01*
X-134350947Y-25939255D02*
X-134274756Y-25977350D01*
X-134274756Y-25977350D02*
X-134236661Y-26015445D01*
X-134236661Y-26015445D02*
X-134198566Y-26091636D01*
X-134198566Y-26091636D02*
X-134160471Y-26244017D01*
X-134160471Y-26244017D02*
X-134160471Y-26434493D01*
X-134160471Y-26434493D02*
X-134198566Y-26586874D01*
X-134198566Y-26586874D02*
X-134236661Y-26663064D01*
X-134236661Y-26663064D02*
X-134274756Y-26701160D01*
X-134274756Y-26701160D02*
X-134350947Y-26739255D01*
X-134350947Y-26739255D02*
X-134427137Y-26739255D01*
X-134427137Y-26739255D02*
X-134503328Y-26701160D01*
X-134503328Y-26701160D02*
X-134541423Y-26663064D01*
X-134541423Y-26663064D02*
X-134579518Y-26586874D01*
X-134579518Y-26586874D02*
X-134617614Y-26434493D01*
X-134617614Y-26434493D02*
X-134617614Y-26244017D01*
X-134617614Y-26244017D02*
X-134579518Y-26091636D01*
X-134579518Y-26091636D02*
X-134541423Y-26015445D01*
X-134541423Y-26015445D02*
X-134503328Y-25977350D01*
X-134503328Y-25977350D02*
X-134427137Y-25939255D01*
X-133665232Y-25939255D02*
X-133589042Y-25939255D01*
X-133589042Y-25939255D02*
X-133512851Y-25977350D01*
X-133512851Y-25977350D02*
X-133474756Y-26015445D01*
X-133474756Y-26015445D02*
X-133436661Y-26091636D01*
X-133436661Y-26091636D02*
X-133398566Y-26244017D01*
X-133398566Y-26244017D02*
X-133398566Y-26434493D01*
X-133398566Y-26434493D02*
X-133436661Y-26586874D01*
X-133436661Y-26586874D02*
X-133474756Y-26663064D01*
X-133474756Y-26663064D02*
X-133512851Y-26701160D01*
X-133512851Y-26701160D02*
X-133589042Y-26739255D01*
X-133589042Y-26739255D02*
X-133665232Y-26739255D01*
X-133665232Y-26739255D02*
X-133741423Y-26701160D01*
X-133741423Y-26701160D02*
X-133779518Y-26663064D01*
X-133779518Y-26663064D02*
X-133817613Y-26586874D01*
X-133817613Y-26586874D02*
X-133855709Y-26434493D01*
X-133855709Y-26434493D02*
X-133855709Y-26244017D01*
X-133855709Y-26244017D02*
X-133817613Y-26091636D01*
X-133817613Y-26091636D02*
X-133779518Y-26015445D01*
X-133779518Y-26015445D02*
X-133741423Y-25977350D01*
X-133741423Y-25977350D02*
X-133665232Y-25939255D01*
X-133093804Y-26739255D02*
X-132903327Y-26739255D01*
X-132903327Y-26739255D02*
X-132903327Y-26586874D01*
X-132903327Y-26586874D02*
X-132979518Y-26548779D01*
X-132979518Y-26548779D02*
X-133055708Y-26472588D01*
X-133055708Y-26472588D02*
X-133093804Y-26358302D01*
X-133093804Y-26358302D02*
X-133093804Y-26167826D01*
X-133093804Y-26167826D02*
X-133055708Y-26053540D01*
X-133055708Y-26053540D02*
X-132979518Y-25977350D01*
X-132979518Y-25977350D02*
X-132865232Y-25939255D01*
X-132865232Y-25939255D02*
X-132712851Y-25939255D01*
X-132712851Y-25939255D02*
X-132598565Y-25977350D01*
X-132598565Y-25977350D02*
X-132522375Y-26053540D01*
X-132522375Y-26053540D02*
X-132484280Y-26167826D01*
X-132484280Y-26167826D02*
X-132484280Y-26358302D01*
X-132484280Y-26358302D02*
X-132522375Y-26472588D01*
X-132522375Y-26472588D02*
X-132598565Y-26548779D01*
X-132598565Y-26548779D02*
X-132674756Y-26586874D01*
X-132674756Y-26586874D02*
X-132674756Y-26739255D01*
X-132674756Y-26739255D02*
X-132484280Y-26739255D01*
X-134446185Y-23879255D02*
X-134712852Y-23498302D01*
X-134903328Y-23879255D02*
X-134903328Y-23079255D01*
X-134903328Y-23079255D02*
X-134598566Y-23079255D01*
X-134598566Y-23079255D02*
X-134522376Y-23117350D01*
X-134522376Y-23117350D02*
X-134484281Y-23155445D01*
X-134484281Y-23155445D02*
X-134446185Y-23231636D01*
X-134446185Y-23231636D02*
X-134446185Y-23345921D01*
X-134446185Y-23345921D02*
X-134484281Y-23422112D01*
X-134484281Y-23422112D02*
X-134522376Y-23460207D01*
X-134522376Y-23460207D02*
X-134598566Y-23498302D01*
X-134598566Y-23498302D02*
X-134903328Y-23498302D01*
X-134141424Y-23155445D02*
X-134103328Y-23117350D01*
X-134103328Y-23117350D02*
X-134027138Y-23079255D01*
X-134027138Y-23079255D02*
X-133836662Y-23079255D01*
X-133836662Y-23079255D02*
X-133760471Y-23117350D01*
X-133760471Y-23117350D02*
X-133722376Y-23155445D01*
X-133722376Y-23155445D02*
X-133684281Y-23231636D01*
X-133684281Y-23231636D02*
X-133684281Y-23307826D01*
X-133684281Y-23307826D02*
X-133722376Y-23422112D01*
X-133722376Y-23422112D02*
X-134179519Y-23879255D01*
X-134179519Y-23879255D02*
X-133684281Y-23879255D01*
X-132998566Y-23345921D02*
X-132998566Y-23879255D01*
X-133189042Y-23041160D02*
X-133379519Y-23612588D01*
X-133379519Y-23612588D02*
X-132884280Y-23612588D01*
X-126831971Y-11666655D02*
X-127212923Y-11666655D01*
X-127212923Y-11666655D02*
X-127251019Y-12047607D01*
X-127251019Y-12047607D02*
X-127212923Y-12009512D01*
X-127212923Y-12009512D02*
X-127136733Y-11971417D01*
X-127136733Y-11971417D02*
X-126946257Y-11971417D01*
X-126946257Y-11971417D02*
X-126870066Y-12009512D01*
X-126870066Y-12009512D02*
X-126831971Y-12047607D01*
X-126831971Y-12047607D02*
X-126793876Y-12123798D01*
X-126793876Y-12123798D02*
X-126793876Y-12314274D01*
X-126793876Y-12314274D02*
X-126831971Y-12390464D01*
X-126831971Y-12390464D02*
X-126870066Y-12428560D01*
X-126870066Y-12428560D02*
X-126946257Y-12466655D01*
X-126946257Y-12466655D02*
X-127136733Y-12466655D01*
X-127136733Y-12466655D02*
X-127212923Y-12428560D01*
X-127212923Y-12428560D02*
X-127251019Y-12390464D01*
X-126298637Y-11666655D02*
X-126222447Y-11666655D01*
X-126222447Y-11666655D02*
X-126146256Y-11704750D01*
X-126146256Y-11704750D02*
X-126108161Y-11742845D01*
X-126108161Y-11742845D02*
X-126070066Y-11819036D01*
X-126070066Y-11819036D02*
X-126031971Y-11971417D01*
X-126031971Y-11971417D02*
X-126031971Y-12161893D01*
X-126031971Y-12161893D02*
X-126070066Y-12314274D01*
X-126070066Y-12314274D02*
X-126108161Y-12390464D01*
X-126108161Y-12390464D02*
X-126146256Y-12428560D01*
X-126146256Y-12428560D02*
X-126222447Y-12466655D01*
X-126222447Y-12466655D02*
X-126298637Y-12466655D01*
X-126298637Y-12466655D02*
X-126374828Y-12428560D01*
X-126374828Y-12428560D02*
X-126412923Y-12390464D01*
X-126412923Y-12390464D02*
X-126451018Y-12314274D01*
X-126451018Y-12314274D02*
X-126489114Y-12161893D01*
X-126489114Y-12161893D02*
X-126489114Y-11971417D01*
X-126489114Y-11971417D02*
X-126451018Y-11819036D01*
X-126451018Y-11819036D02*
X-126412923Y-11742845D01*
X-126412923Y-11742845D02*
X-126374828Y-11704750D01*
X-126374828Y-11704750D02*
X-126298637Y-11666655D01*
X-125536732Y-11666655D02*
X-125460542Y-11666655D01*
X-125460542Y-11666655D02*
X-125384351Y-11704750D01*
X-125384351Y-11704750D02*
X-125346256Y-11742845D01*
X-125346256Y-11742845D02*
X-125308161Y-11819036D01*
X-125308161Y-11819036D02*
X-125270066Y-11971417D01*
X-125270066Y-11971417D02*
X-125270066Y-12161893D01*
X-125270066Y-12161893D02*
X-125308161Y-12314274D01*
X-125308161Y-12314274D02*
X-125346256Y-12390464D01*
X-125346256Y-12390464D02*
X-125384351Y-12428560D01*
X-125384351Y-12428560D02*
X-125460542Y-12466655D01*
X-125460542Y-12466655D02*
X-125536732Y-12466655D01*
X-125536732Y-12466655D02*
X-125612923Y-12428560D01*
X-125612923Y-12428560D02*
X-125651018Y-12390464D01*
X-125651018Y-12390464D02*
X-125689113Y-12314274D01*
X-125689113Y-12314274D02*
X-125727209Y-12161893D01*
X-125727209Y-12161893D02*
X-125727209Y-11971417D01*
X-125727209Y-11971417D02*
X-125689113Y-11819036D01*
X-125689113Y-11819036D02*
X-125651018Y-11742845D01*
X-125651018Y-11742845D02*
X-125612923Y-11704750D01*
X-125612923Y-11704750D02*
X-125536732Y-11666655D01*
X-124965304Y-12466655D02*
X-124774827Y-12466655D01*
X-124774827Y-12466655D02*
X-124774827Y-12314274D01*
X-124774827Y-12314274D02*
X-124851018Y-12276179D01*
X-124851018Y-12276179D02*
X-124927208Y-12199988D01*
X-124927208Y-12199988D02*
X-124965304Y-12085702D01*
X-124965304Y-12085702D02*
X-124965304Y-11895226D01*
X-124965304Y-11895226D02*
X-124927208Y-11780940D01*
X-124927208Y-11780940D02*
X-124851018Y-11704750D01*
X-124851018Y-11704750D02*
X-124736732Y-11666655D01*
X-124736732Y-11666655D02*
X-124584351Y-11666655D01*
X-124584351Y-11666655D02*
X-124470065Y-11704750D01*
X-124470065Y-11704750D02*
X-124393875Y-11780940D01*
X-124393875Y-11780940D02*
X-124355780Y-11895226D01*
X-124355780Y-11895226D02*
X-124355780Y-12085702D01*
X-124355780Y-12085702D02*
X-124393875Y-12199988D01*
X-124393875Y-12199988D02*
X-124470065Y-12276179D01*
X-124470065Y-12276179D02*
X-124546256Y-12314274D01*
X-124546256Y-12314274D02*
X-124546256Y-12466655D01*
X-124546256Y-12466655D02*
X-124355780Y-12466655D01*
X-126317685Y-9606655D02*
X-126584352Y-9225702D01*
X-126774828Y-9606655D02*
X-126774828Y-8806655D01*
X-126774828Y-8806655D02*
X-126470066Y-8806655D01*
X-126470066Y-8806655D02*
X-126393876Y-8844750D01*
X-126393876Y-8844750D02*
X-126355781Y-8882845D01*
X-126355781Y-8882845D02*
X-126317685Y-8959036D01*
X-126317685Y-8959036D02*
X-126317685Y-9073321D01*
X-126317685Y-9073321D02*
X-126355781Y-9149512D01*
X-126355781Y-9149512D02*
X-126393876Y-9187607D01*
X-126393876Y-9187607D02*
X-126470066Y-9225702D01*
X-126470066Y-9225702D02*
X-126774828Y-9225702D01*
X-126012924Y-8882845D02*
X-125974828Y-8844750D01*
X-125974828Y-8844750D02*
X-125898638Y-8806655D01*
X-125898638Y-8806655D02*
X-125708162Y-8806655D01*
X-125708162Y-8806655D02*
X-125631971Y-8844750D01*
X-125631971Y-8844750D02*
X-125593876Y-8882845D01*
X-125593876Y-8882845D02*
X-125555781Y-8959036D01*
X-125555781Y-8959036D02*
X-125555781Y-9035226D01*
X-125555781Y-9035226D02*
X-125593876Y-9149512D01*
X-125593876Y-9149512D02*
X-126051019Y-9606655D01*
X-126051019Y-9606655D02*
X-125555781Y-9606655D01*
X-125251019Y-8882845D02*
X-125212923Y-8844750D01*
X-125212923Y-8844750D02*
X-125136733Y-8806655D01*
X-125136733Y-8806655D02*
X-124946257Y-8806655D01*
X-124946257Y-8806655D02*
X-124870066Y-8844750D01*
X-124870066Y-8844750D02*
X-124831971Y-8882845D01*
X-124831971Y-8882845D02*
X-124793876Y-8959036D01*
X-124793876Y-8959036D02*
X-124793876Y-9035226D01*
X-124793876Y-9035226D02*
X-124831971Y-9149512D01*
X-124831971Y-9149512D02*
X-125289114Y-9606655D01*
X-125289114Y-9606655D02*
X-124793876Y-9606655D01*
X-126364971Y-24098655D02*
X-126745923Y-24098655D01*
X-126745923Y-24098655D02*
X-126784019Y-24479607D01*
X-126784019Y-24479607D02*
X-126745923Y-24441512D01*
X-126745923Y-24441512D02*
X-126669733Y-24403417D01*
X-126669733Y-24403417D02*
X-126479257Y-24403417D01*
X-126479257Y-24403417D02*
X-126403066Y-24441512D01*
X-126403066Y-24441512D02*
X-126364971Y-24479607D01*
X-126364971Y-24479607D02*
X-126326876Y-24555798D01*
X-126326876Y-24555798D02*
X-126326876Y-24746274D01*
X-126326876Y-24746274D02*
X-126364971Y-24822464D01*
X-126364971Y-24822464D02*
X-126403066Y-24860560D01*
X-126403066Y-24860560D02*
X-126479257Y-24898655D01*
X-126479257Y-24898655D02*
X-126669733Y-24898655D01*
X-126669733Y-24898655D02*
X-126745923Y-24860560D01*
X-126745923Y-24860560D02*
X-126784019Y-24822464D01*
X-125831637Y-24098655D02*
X-125755447Y-24098655D01*
X-125755447Y-24098655D02*
X-125679256Y-24136750D01*
X-125679256Y-24136750D02*
X-125641161Y-24174845D01*
X-125641161Y-24174845D02*
X-125603066Y-24251036D01*
X-125603066Y-24251036D02*
X-125564971Y-24403417D01*
X-125564971Y-24403417D02*
X-125564971Y-24593893D01*
X-125564971Y-24593893D02*
X-125603066Y-24746274D01*
X-125603066Y-24746274D02*
X-125641161Y-24822464D01*
X-125641161Y-24822464D02*
X-125679256Y-24860560D01*
X-125679256Y-24860560D02*
X-125755447Y-24898655D01*
X-125755447Y-24898655D02*
X-125831637Y-24898655D01*
X-125831637Y-24898655D02*
X-125907828Y-24860560D01*
X-125907828Y-24860560D02*
X-125945923Y-24822464D01*
X-125945923Y-24822464D02*
X-125984018Y-24746274D01*
X-125984018Y-24746274D02*
X-126022114Y-24593893D01*
X-126022114Y-24593893D02*
X-126022114Y-24403417D01*
X-126022114Y-24403417D02*
X-125984018Y-24251036D01*
X-125984018Y-24251036D02*
X-125945923Y-24174845D01*
X-125945923Y-24174845D02*
X-125907828Y-24136750D01*
X-125907828Y-24136750D02*
X-125831637Y-24098655D01*
X-125069732Y-24098655D02*
X-124993542Y-24098655D01*
X-124993542Y-24098655D02*
X-124917351Y-24136750D01*
X-124917351Y-24136750D02*
X-124879256Y-24174845D01*
X-124879256Y-24174845D02*
X-124841161Y-24251036D01*
X-124841161Y-24251036D02*
X-124803066Y-24403417D01*
X-124803066Y-24403417D02*
X-124803066Y-24593893D01*
X-124803066Y-24593893D02*
X-124841161Y-24746274D01*
X-124841161Y-24746274D02*
X-124879256Y-24822464D01*
X-124879256Y-24822464D02*
X-124917351Y-24860560D01*
X-124917351Y-24860560D02*
X-124993542Y-24898655D01*
X-124993542Y-24898655D02*
X-125069732Y-24898655D01*
X-125069732Y-24898655D02*
X-125145923Y-24860560D01*
X-125145923Y-24860560D02*
X-125184018Y-24822464D01*
X-125184018Y-24822464D02*
X-125222113Y-24746274D01*
X-125222113Y-24746274D02*
X-125260209Y-24593893D01*
X-125260209Y-24593893D02*
X-125260209Y-24403417D01*
X-125260209Y-24403417D02*
X-125222113Y-24251036D01*
X-125222113Y-24251036D02*
X-125184018Y-24174845D01*
X-125184018Y-24174845D02*
X-125145923Y-24136750D01*
X-125145923Y-24136750D02*
X-125069732Y-24098655D01*
X-124498304Y-24898655D02*
X-124307827Y-24898655D01*
X-124307827Y-24898655D02*
X-124307827Y-24746274D01*
X-124307827Y-24746274D02*
X-124384018Y-24708179D01*
X-124384018Y-24708179D02*
X-124460208Y-24631988D01*
X-124460208Y-24631988D02*
X-124498304Y-24517702D01*
X-124498304Y-24517702D02*
X-124498304Y-24327226D01*
X-124498304Y-24327226D02*
X-124460208Y-24212940D01*
X-124460208Y-24212940D02*
X-124384018Y-24136750D01*
X-124384018Y-24136750D02*
X-124269732Y-24098655D01*
X-124269732Y-24098655D02*
X-124117351Y-24098655D01*
X-124117351Y-24098655D02*
X-124003065Y-24136750D01*
X-124003065Y-24136750D02*
X-123926875Y-24212940D01*
X-123926875Y-24212940D02*
X-123888780Y-24327226D01*
X-123888780Y-24327226D02*
X-123888780Y-24517702D01*
X-123888780Y-24517702D02*
X-123926875Y-24631988D01*
X-123926875Y-24631988D02*
X-124003065Y-24708179D01*
X-124003065Y-24708179D02*
X-124079256Y-24746274D01*
X-124079256Y-24746274D02*
X-124079256Y-24898655D01*
X-124079256Y-24898655D02*
X-123888780Y-24898655D01*
X-125850685Y-22038655D02*
X-126117352Y-21657702D01*
X-126307828Y-22038655D02*
X-126307828Y-21238655D01*
X-126307828Y-21238655D02*
X-126003066Y-21238655D01*
X-126003066Y-21238655D02*
X-125926876Y-21276750D01*
X-125926876Y-21276750D02*
X-125888781Y-21314845D01*
X-125888781Y-21314845D02*
X-125850685Y-21391036D01*
X-125850685Y-21391036D02*
X-125850685Y-21505321D01*
X-125850685Y-21505321D02*
X-125888781Y-21581512D01*
X-125888781Y-21581512D02*
X-125926876Y-21619607D01*
X-125926876Y-21619607D02*
X-126003066Y-21657702D01*
X-126003066Y-21657702D02*
X-126307828Y-21657702D01*
X-125088781Y-22038655D02*
X-125545924Y-22038655D01*
X-125317352Y-22038655D02*
X-125317352Y-21238655D01*
X-125317352Y-21238655D02*
X-125393543Y-21352940D01*
X-125393543Y-21352940D02*
X-125469733Y-21429131D01*
X-125469733Y-21429131D02*
X-125545924Y-21467226D01*
X-124822114Y-21238655D02*
X-124288780Y-21238655D01*
X-124288780Y-21238655D02*
X-124631638Y-22038655D01*
X-124376971Y-23114955D02*
X-124757923Y-23114955D01*
X-124757923Y-23114955D02*
X-124796019Y-23495907D01*
X-124796019Y-23495907D02*
X-124757923Y-23457812D01*
X-124757923Y-23457812D02*
X-124681733Y-23419717D01*
X-124681733Y-23419717D02*
X-124491257Y-23419717D01*
X-124491257Y-23419717D02*
X-124415066Y-23457812D01*
X-124415066Y-23457812D02*
X-124376971Y-23495907D01*
X-124376971Y-23495907D02*
X-124338876Y-23572098D01*
X-124338876Y-23572098D02*
X-124338876Y-23762574D01*
X-124338876Y-23762574D02*
X-124376971Y-23838764D01*
X-124376971Y-23838764D02*
X-124415066Y-23876860D01*
X-124415066Y-23876860D02*
X-124491257Y-23914955D01*
X-124491257Y-23914955D02*
X-124681733Y-23914955D01*
X-124681733Y-23914955D02*
X-124757923Y-23876860D01*
X-124757923Y-23876860D02*
X-124796019Y-23838764D01*
X-123843637Y-23114955D02*
X-123767447Y-23114955D01*
X-123767447Y-23114955D02*
X-123691256Y-23153050D01*
X-123691256Y-23153050D02*
X-123653161Y-23191145D01*
X-123653161Y-23191145D02*
X-123615066Y-23267336D01*
X-123615066Y-23267336D02*
X-123576971Y-23419717D01*
X-123576971Y-23419717D02*
X-123576971Y-23610193D01*
X-123576971Y-23610193D02*
X-123615066Y-23762574D01*
X-123615066Y-23762574D02*
X-123653161Y-23838764D01*
X-123653161Y-23838764D02*
X-123691256Y-23876860D01*
X-123691256Y-23876860D02*
X-123767447Y-23914955D01*
X-123767447Y-23914955D02*
X-123843637Y-23914955D01*
X-123843637Y-23914955D02*
X-123919828Y-23876860D01*
X-123919828Y-23876860D02*
X-123957923Y-23838764D01*
X-123957923Y-23838764D02*
X-123996018Y-23762574D01*
X-123996018Y-23762574D02*
X-124034114Y-23610193D01*
X-124034114Y-23610193D02*
X-124034114Y-23419717D01*
X-124034114Y-23419717D02*
X-123996018Y-23267336D01*
X-123996018Y-23267336D02*
X-123957923Y-23191145D01*
X-123957923Y-23191145D02*
X-123919828Y-23153050D01*
X-123919828Y-23153050D02*
X-123843637Y-23114955D01*
X-123081732Y-23114955D02*
X-123005542Y-23114955D01*
X-123005542Y-23114955D02*
X-122929351Y-23153050D01*
X-122929351Y-23153050D02*
X-122891256Y-23191145D01*
X-122891256Y-23191145D02*
X-122853161Y-23267336D01*
X-122853161Y-23267336D02*
X-122815066Y-23419717D01*
X-122815066Y-23419717D02*
X-122815066Y-23610193D01*
X-122815066Y-23610193D02*
X-122853161Y-23762574D01*
X-122853161Y-23762574D02*
X-122891256Y-23838764D01*
X-122891256Y-23838764D02*
X-122929351Y-23876860D01*
X-122929351Y-23876860D02*
X-123005542Y-23914955D01*
X-123005542Y-23914955D02*
X-123081732Y-23914955D01*
X-123081732Y-23914955D02*
X-123157923Y-23876860D01*
X-123157923Y-23876860D02*
X-123196018Y-23838764D01*
X-123196018Y-23838764D02*
X-123234113Y-23762574D01*
X-123234113Y-23762574D02*
X-123272209Y-23610193D01*
X-123272209Y-23610193D02*
X-123272209Y-23419717D01*
X-123272209Y-23419717D02*
X-123234113Y-23267336D01*
X-123234113Y-23267336D02*
X-123196018Y-23191145D01*
X-123196018Y-23191145D02*
X-123157923Y-23153050D01*
X-123157923Y-23153050D02*
X-123081732Y-23114955D01*
X-122510304Y-23914955D02*
X-122319827Y-23914955D01*
X-122319827Y-23914955D02*
X-122319827Y-23762574D01*
X-122319827Y-23762574D02*
X-122396018Y-23724479D01*
X-122396018Y-23724479D02*
X-122472208Y-23648288D01*
X-122472208Y-23648288D02*
X-122510304Y-23534002D01*
X-122510304Y-23534002D02*
X-122510304Y-23343526D01*
X-122510304Y-23343526D02*
X-122472208Y-23229240D01*
X-122472208Y-23229240D02*
X-122396018Y-23153050D01*
X-122396018Y-23153050D02*
X-122281732Y-23114955D01*
X-122281732Y-23114955D02*
X-122129351Y-23114955D01*
X-122129351Y-23114955D02*
X-122015065Y-23153050D01*
X-122015065Y-23153050D02*
X-121938875Y-23229240D01*
X-121938875Y-23229240D02*
X-121900780Y-23343526D01*
X-121900780Y-23343526D02*
X-121900780Y-23534002D01*
X-121900780Y-23534002D02*
X-121938875Y-23648288D01*
X-121938875Y-23648288D02*
X-122015065Y-23724479D01*
X-122015065Y-23724479D02*
X-122091256Y-23762574D01*
X-122091256Y-23762574D02*
X-122091256Y-23914955D01*
X-122091256Y-23914955D02*
X-121900780Y-23914955D01*
X-123862685Y-21054955D02*
X-124129352Y-20674002D01*
X-124319828Y-21054955D02*
X-124319828Y-20254955D01*
X-124319828Y-20254955D02*
X-124015066Y-20254955D01*
X-124015066Y-20254955D02*
X-123938876Y-20293050D01*
X-123938876Y-20293050D02*
X-123900781Y-20331145D01*
X-123900781Y-20331145D02*
X-123862685Y-20407336D01*
X-123862685Y-20407336D02*
X-123862685Y-20521621D01*
X-123862685Y-20521621D02*
X-123900781Y-20597812D01*
X-123900781Y-20597812D02*
X-123938876Y-20635907D01*
X-123938876Y-20635907D02*
X-124015066Y-20674002D01*
X-124015066Y-20674002D02*
X-124319828Y-20674002D01*
X-123557924Y-20331145D02*
X-123519828Y-20293050D01*
X-123519828Y-20293050D02*
X-123443638Y-20254955D01*
X-123443638Y-20254955D02*
X-123253162Y-20254955D01*
X-123253162Y-20254955D02*
X-123176971Y-20293050D01*
X-123176971Y-20293050D02*
X-123138876Y-20331145D01*
X-123138876Y-20331145D02*
X-123100781Y-20407336D01*
X-123100781Y-20407336D02*
X-123100781Y-20483526D01*
X-123100781Y-20483526D02*
X-123138876Y-20597812D01*
X-123138876Y-20597812D02*
X-123596019Y-21054955D01*
X-123596019Y-21054955D02*
X-123100781Y-21054955D01*
X-122338876Y-21054955D02*
X-122796019Y-21054955D01*
X-122567447Y-21054955D02*
X-122567447Y-20254955D01*
X-122567447Y-20254955D02*
X-122643638Y-20369240D01*
X-122643638Y-20369240D02*
X-122719828Y-20445431D01*
X-122719828Y-20445431D02*
X-122796019Y-20483526D01*
X-122219771Y-23609055D02*
X-122600723Y-23609055D01*
X-122600723Y-23609055D02*
X-122638819Y-23990007D01*
X-122638819Y-23990007D02*
X-122600723Y-23951912D01*
X-122600723Y-23951912D02*
X-122524533Y-23913817D01*
X-122524533Y-23913817D02*
X-122334057Y-23913817D01*
X-122334057Y-23913817D02*
X-122257866Y-23951912D01*
X-122257866Y-23951912D02*
X-122219771Y-23990007D01*
X-122219771Y-23990007D02*
X-122181676Y-24066198D01*
X-122181676Y-24066198D02*
X-122181676Y-24256674D01*
X-122181676Y-24256674D02*
X-122219771Y-24332864D01*
X-122219771Y-24332864D02*
X-122257866Y-24370960D01*
X-122257866Y-24370960D02*
X-122334057Y-24409055D01*
X-122334057Y-24409055D02*
X-122524533Y-24409055D01*
X-122524533Y-24409055D02*
X-122600723Y-24370960D01*
X-122600723Y-24370960D02*
X-122638819Y-24332864D01*
X-121686437Y-23609055D02*
X-121610247Y-23609055D01*
X-121610247Y-23609055D02*
X-121534056Y-23647150D01*
X-121534056Y-23647150D02*
X-121495961Y-23685245D01*
X-121495961Y-23685245D02*
X-121457866Y-23761436D01*
X-121457866Y-23761436D02*
X-121419771Y-23913817D01*
X-121419771Y-23913817D02*
X-121419771Y-24104293D01*
X-121419771Y-24104293D02*
X-121457866Y-24256674D01*
X-121457866Y-24256674D02*
X-121495961Y-24332864D01*
X-121495961Y-24332864D02*
X-121534056Y-24370960D01*
X-121534056Y-24370960D02*
X-121610247Y-24409055D01*
X-121610247Y-24409055D02*
X-121686437Y-24409055D01*
X-121686437Y-24409055D02*
X-121762628Y-24370960D01*
X-121762628Y-24370960D02*
X-121800723Y-24332864D01*
X-121800723Y-24332864D02*
X-121838818Y-24256674D01*
X-121838818Y-24256674D02*
X-121876914Y-24104293D01*
X-121876914Y-24104293D02*
X-121876914Y-23913817D01*
X-121876914Y-23913817D02*
X-121838818Y-23761436D01*
X-121838818Y-23761436D02*
X-121800723Y-23685245D01*
X-121800723Y-23685245D02*
X-121762628Y-23647150D01*
X-121762628Y-23647150D02*
X-121686437Y-23609055D01*
X-120924532Y-23609055D02*
X-120848342Y-23609055D01*
X-120848342Y-23609055D02*
X-120772151Y-23647150D01*
X-120772151Y-23647150D02*
X-120734056Y-23685245D01*
X-120734056Y-23685245D02*
X-120695961Y-23761436D01*
X-120695961Y-23761436D02*
X-120657866Y-23913817D01*
X-120657866Y-23913817D02*
X-120657866Y-24104293D01*
X-120657866Y-24104293D02*
X-120695961Y-24256674D01*
X-120695961Y-24256674D02*
X-120734056Y-24332864D01*
X-120734056Y-24332864D02*
X-120772151Y-24370960D01*
X-120772151Y-24370960D02*
X-120848342Y-24409055D01*
X-120848342Y-24409055D02*
X-120924532Y-24409055D01*
X-120924532Y-24409055D02*
X-121000723Y-24370960D01*
X-121000723Y-24370960D02*
X-121038818Y-24332864D01*
X-121038818Y-24332864D02*
X-121076913Y-24256674D01*
X-121076913Y-24256674D02*
X-121115009Y-24104293D01*
X-121115009Y-24104293D02*
X-121115009Y-23913817D01*
X-121115009Y-23913817D02*
X-121076913Y-23761436D01*
X-121076913Y-23761436D02*
X-121038818Y-23685245D01*
X-121038818Y-23685245D02*
X-121000723Y-23647150D01*
X-121000723Y-23647150D02*
X-120924532Y-23609055D01*
X-120353104Y-24409055D02*
X-120162627Y-24409055D01*
X-120162627Y-24409055D02*
X-120162627Y-24256674D01*
X-120162627Y-24256674D02*
X-120238818Y-24218579D01*
X-120238818Y-24218579D02*
X-120315008Y-24142388D01*
X-120315008Y-24142388D02*
X-120353104Y-24028102D01*
X-120353104Y-24028102D02*
X-120353104Y-23837626D01*
X-120353104Y-23837626D02*
X-120315008Y-23723340D01*
X-120315008Y-23723340D02*
X-120238818Y-23647150D01*
X-120238818Y-23647150D02*
X-120124532Y-23609055D01*
X-120124532Y-23609055D02*
X-119972151Y-23609055D01*
X-119972151Y-23609055D02*
X-119857865Y-23647150D01*
X-119857865Y-23647150D02*
X-119781675Y-23723340D01*
X-119781675Y-23723340D02*
X-119743580Y-23837626D01*
X-119743580Y-23837626D02*
X-119743580Y-24028102D01*
X-119743580Y-24028102D02*
X-119781675Y-24142388D01*
X-119781675Y-24142388D02*
X-119857865Y-24218579D01*
X-119857865Y-24218579D02*
X-119934056Y-24256674D01*
X-119934056Y-24256674D02*
X-119934056Y-24409055D01*
X-119934056Y-24409055D02*
X-119743580Y-24409055D01*
X-121705485Y-21549055D02*
X-121972152Y-21168102D01*
X-122162628Y-21549055D02*
X-122162628Y-20749055D01*
X-122162628Y-20749055D02*
X-121857866Y-20749055D01*
X-121857866Y-20749055D02*
X-121781676Y-20787150D01*
X-121781676Y-20787150D02*
X-121743581Y-20825245D01*
X-121743581Y-20825245D02*
X-121705485Y-20901436D01*
X-121705485Y-20901436D02*
X-121705485Y-21015721D01*
X-121705485Y-21015721D02*
X-121743581Y-21091912D01*
X-121743581Y-21091912D02*
X-121781676Y-21130007D01*
X-121781676Y-21130007D02*
X-121857866Y-21168102D01*
X-121857866Y-21168102D02*
X-122162628Y-21168102D01*
X-121400724Y-20825245D02*
X-121362628Y-20787150D01*
X-121362628Y-20787150D02*
X-121286438Y-20749055D01*
X-121286438Y-20749055D02*
X-121095962Y-20749055D01*
X-121095962Y-20749055D02*
X-121019771Y-20787150D01*
X-121019771Y-20787150D02*
X-120981676Y-20825245D01*
X-120981676Y-20825245D02*
X-120943581Y-20901436D01*
X-120943581Y-20901436D02*
X-120943581Y-20977626D01*
X-120943581Y-20977626D02*
X-120981676Y-21091912D01*
X-120981676Y-21091912D02*
X-121438819Y-21549055D01*
X-121438819Y-21549055D02*
X-120943581Y-21549055D01*
X-120676914Y-20749055D02*
X-120181676Y-20749055D01*
X-120181676Y-20749055D02*
X-120448342Y-21053817D01*
X-120448342Y-21053817D02*
X-120334057Y-21053817D01*
X-120334057Y-21053817D02*
X-120257866Y-21091912D01*
X-120257866Y-21091912D02*
X-120219771Y-21130007D01*
X-120219771Y-21130007D02*
X-120181676Y-21206198D01*
X-120181676Y-21206198D02*
X-120181676Y-21396674D01*
X-120181676Y-21396674D02*
X-120219771Y-21472864D01*
X-120219771Y-21472864D02*
X-120257866Y-21510960D01*
X-120257866Y-21510960D02*
X-120334057Y-21549055D01*
X-120334057Y-21549055D02*
X-120562628Y-21549055D01*
X-120562628Y-21549055D02*
X-120638819Y-21510960D01*
X-120638819Y-21510960D02*
X-120676914Y-21472864D01*
X-119636571Y-23153555D02*
X-120017523Y-23153555D01*
X-120017523Y-23153555D02*
X-120055619Y-23534507D01*
X-120055619Y-23534507D02*
X-120017523Y-23496412D01*
X-120017523Y-23496412D02*
X-119941333Y-23458317D01*
X-119941333Y-23458317D02*
X-119750857Y-23458317D01*
X-119750857Y-23458317D02*
X-119674666Y-23496412D01*
X-119674666Y-23496412D02*
X-119636571Y-23534507D01*
X-119636571Y-23534507D02*
X-119598476Y-23610698D01*
X-119598476Y-23610698D02*
X-119598476Y-23801174D01*
X-119598476Y-23801174D02*
X-119636571Y-23877364D01*
X-119636571Y-23877364D02*
X-119674666Y-23915460D01*
X-119674666Y-23915460D02*
X-119750857Y-23953555D01*
X-119750857Y-23953555D02*
X-119941333Y-23953555D01*
X-119941333Y-23953555D02*
X-120017523Y-23915460D01*
X-120017523Y-23915460D02*
X-120055619Y-23877364D01*
X-119103237Y-23153555D02*
X-119027047Y-23153555D01*
X-119027047Y-23153555D02*
X-118950856Y-23191650D01*
X-118950856Y-23191650D02*
X-118912761Y-23229745D01*
X-118912761Y-23229745D02*
X-118874666Y-23305936D01*
X-118874666Y-23305936D02*
X-118836571Y-23458317D01*
X-118836571Y-23458317D02*
X-118836571Y-23648793D01*
X-118836571Y-23648793D02*
X-118874666Y-23801174D01*
X-118874666Y-23801174D02*
X-118912761Y-23877364D01*
X-118912761Y-23877364D02*
X-118950856Y-23915460D01*
X-118950856Y-23915460D02*
X-119027047Y-23953555D01*
X-119027047Y-23953555D02*
X-119103237Y-23953555D01*
X-119103237Y-23953555D02*
X-119179428Y-23915460D01*
X-119179428Y-23915460D02*
X-119217523Y-23877364D01*
X-119217523Y-23877364D02*
X-119255618Y-23801174D01*
X-119255618Y-23801174D02*
X-119293714Y-23648793D01*
X-119293714Y-23648793D02*
X-119293714Y-23458317D01*
X-119293714Y-23458317D02*
X-119255618Y-23305936D01*
X-119255618Y-23305936D02*
X-119217523Y-23229745D01*
X-119217523Y-23229745D02*
X-119179428Y-23191650D01*
X-119179428Y-23191650D02*
X-119103237Y-23153555D01*
X-118341332Y-23153555D02*
X-118265142Y-23153555D01*
X-118265142Y-23153555D02*
X-118188951Y-23191650D01*
X-118188951Y-23191650D02*
X-118150856Y-23229745D01*
X-118150856Y-23229745D02*
X-118112761Y-23305936D01*
X-118112761Y-23305936D02*
X-118074666Y-23458317D01*
X-118074666Y-23458317D02*
X-118074666Y-23648793D01*
X-118074666Y-23648793D02*
X-118112761Y-23801174D01*
X-118112761Y-23801174D02*
X-118150856Y-23877364D01*
X-118150856Y-23877364D02*
X-118188951Y-23915460D01*
X-118188951Y-23915460D02*
X-118265142Y-23953555D01*
X-118265142Y-23953555D02*
X-118341332Y-23953555D01*
X-118341332Y-23953555D02*
X-118417523Y-23915460D01*
X-118417523Y-23915460D02*
X-118455618Y-23877364D01*
X-118455618Y-23877364D02*
X-118493713Y-23801174D01*
X-118493713Y-23801174D02*
X-118531809Y-23648793D01*
X-118531809Y-23648793D02*
X-118531809Y-23458317D01*
X-118531809Y-23458317D02*
X-118493713Y-23305936D01*
X-118493713Y-23305936D02*
X-118455618Y-23229745D01*
X-118455618Y-23229745D02*
X-118417523Y-23191650D01*
X-118417523Y-23191650D02*
X-118341332Y-23153555D01*
X-117769904Y-23953555D02*
X-117579427Y-23953555D01*
X-117579427Y-23953555D02*
X-117579427Y-23801174D01*
X-117579427Y-23801174D02*
X-117655618Y-23763079D01*
X-117655618Y-23763079D02*
X-117731808Y-23686888D01*
X-117731808Y-23686888D02*
X-117769904Y-23572602D01*
X-117769904Y-23572602D02*
X-117769904Y-23382126D01*
X-117769904Y-23382126D02*
X-117731808Y-23267840D01*
X-117731808Y-23267840D02*
X-117655618Y-23191650D01*
X-117655618Y-23191650D02*
X-117541332Y-23153555D01*
X-117541332Y-23153555D02*
X-117388951Y-23153555D01*
X-117388951Y-23153555D02*
X-117274665Y-23191650D01*
X-117274665Y-23191650D02*
X-117198475Y-23267840D01*
X-117198475Y-23267840D02*
X-117160380Y-23382126D01*
X-117160380Y-23382126D02*
X-117160380Y-23572602D01*
X-117160380Y-23572602D02*
X-117198475Y-23686888D01*
X-117198475Y-23686888D02*
X-117274665Y-23763079D01*
X-117274665Y-23763079D02*
X-117350856Y-23801174D01*
X-117350856Y-23801174D02*
X-117350856Y-23953555D01*
X-117350856Y-23953555D02*
X-117160380Y-23953555D01*
X-119122285Y-21093555D02*
X-119388952Y-20712602D01*
X-119579428Y-21093555D02*
X-119579428Y-20293555D01*
X-119579428Y-20293555D02*
X-119274666Y-20293555D01*
X-119274666Y-20293555D02*
X-119198476Y-20331650D01*
X-119198476Y-20331650D02*
X-119160381Y-20369745D01*
X-119160381Y-20369745D02*
X-119122285Y-20445936D01*
X-119122285Y-20445936D02*
X-119122285Y-20560221D01*
X-119122285Y-20560221D02*
X-119160381Y-20636412D01*
X-119160381Y-20636412D02*
X-119198476Y-20674507D01*
X-119198476Y-20674507D02*
X-119274666Y-20712602D01*
X-119274666Y-20712602D02*
X-119579428Y-20712602D01*
X-118360381Y-21093555D02*
X-118817524Y-21093555D01*
X-118588952Y-21093555D02*
X-118588952Y-20293555D01*
X-118588952Y-20293555D02*
X-118665143Y-20407840D01*
X-118665143Y-20407840D02*
X-118741333Y-20484031D01*
X-118741333Y-20484031D02*
X-118817524Y-20522126D01*
X-117903238Y-20636412D02*
X-117979428Y-20598317D01*
X-117979428Y-20598317D02*
X-118017523Y-20560221D01*
X-118017523Y-20560221D02*
X-118055619Y-20484031D01*
X-118055619Y-20484031D02*
X-118055619Y-20445936D01*
X-118055619Y-20445936D02*
X-118017523Y-20369745D01*
X-118017523Y-20369745D02*
X-117979428Y-20331650D01*
X-117979428Y-20331650D02*
X-117903238Y-20293555D01*
X-117903238Y-20293555D02*
X-117750857Y-20293555D01*
X-117750857Y-20293555D02*
X-117674666Y-20331650D01*
X-117674666Y-20331650D02*
X-117636571Y-20369745D01*
X-117636571Y-20369745D02*
X-117598476Y-20445936D01*
X-117598476Y-20445936D02*
X-117598476Y-20484031D01*
X-117598476Y-20484031D02*
X-117636571Y-20560221D01*
X-117636571Y-20560221D02*
X-117674666Y-20598317D01*
X-117674666Y-20598317D02*
X-117750857Y-20636412D01*
X-117750857Y-20636412D02*
X-117903238Y-20636412D01*
X-117903238Y-20636412D02*
X-117979428Y-20674507D01*
X-117979428Y-20674507D02*
X-118017523Y-20712602D01*
X-118017523Y-20712602D02*
X-118055619Y-20788793D01*
X-118055619Y-20788793D02*
X-118055619Y-20941174D01*
X-118055619Y-20941174D02*
X-118017523Y-21017364D01*
X-118017523Y-21017364D02*
X-117979428Y-21055460D01*
X-117979428Y-21055460D02*
X-117903238Y-21093555D01*
X-117903238Y-21093555D02*
X-117750857Y-21093555D01*
X-117750857Y-21093555D02*
X-117674666Y-21055460D01*
X-117674666Y-21055460D02*
X-117636571Y-21017364D01*
X-117636571Y-21017364D02*
X-117598476Y-20941174D01*
X-117598476Y-20941174D02*
X-117598476Y-20788793D01*
X-117598476Y-20788793D02*
X-117636571Y-20712602D01*
X-117636571Y-20712602D02*
X-117674666Y-20674507D01*
X-117674666Y-20674507D02*
X-117750857Y-20636412D01*
D12*
%TO.C,*%
X-49407969Y-5747859D02*
X-49743561Y-5412264D01*
X-48669039Y-5008936D02*
X-49004631Y-4673341D01*
X26788200Y-33048599D02*
X26788200Y-33523199D01*
X25743200Y-33048601D02*
X25743200Y-33523201D01*
X14386699Y-44620900D02*
X14105499Y-44620900D01*
X14386701Y-43600900D02*
X14105501Y-43600900D01*
X-59929756Y-7467039D02*
X-59940111Y-7474985D01*
X-59940111Y-7474985D02*
X-59952170Y-7479980D01*
X-59952170Y-7479980D02*
X-59965111Y-7481684D01*
X-59965111Y-7481684D02*
X-59978052Y-7479980D01*
X-59978052Y-7479980D02*
X-59990111Y-7474985D01*
X-59990111Y-7474985D02*
X-60000466Y-7467039D01*
X-60000466Y-7467039D02*
X-60008412Y-7456684D01*
X-60008412Y-7456684D02*
X-60013407Y-7444625D01*
X-60013407Y-7444625D02*
X-60015111Y-7431684D01*
X-60015111Y-7431684D02*
X-60013407Y-7418743D01*
X-60013407Y-7418743D02*
X-60008412Y-7406684D01*
X-60008412Y-7406684D02*
X-60000466Y-7396328D01*
X-60000466Y-7396328D02*
X-59990111Y-7388383D01*
X-59990111Y-7388383D02*
X-59978052Y-7383388D01*
X-59978052Y-7383388D02*
X-59965111Y-7381684D01*
X-59965111Y-7381684D02*
X-59952170Y-7383388D01*
X-59952170Y-7383388D02*
X-59940111Y-7388383D01*
X-59940111Y-7388383D02*
X-59929756Y-7396329D01*
X-59929756Y-7396329D02*
X-59921810Y-7406684D01*
X-59921810Y-7406684D02*
X-59916815Y-7418743D01*
X-59916815Y-7418743D02*
X-59915111Y-7431684D01*
X-59915111Y-7431684D02*
X-59916815Y-7444625D01*
X-59916815Y-7444625D02*
X-59921810Y-7456684D01*
X-59921810Y-7456684D02*
X-59929756Y-7467039D01*
D13*
X-57278108Y-8775192D02*
X-59045871Y-7007421D01*
X-59045871Y-7007421D02*
X-60389377Y-8350922D01*
X-60389377Y-8350922D02*
X-58621613Y-10118692D01*
D12*
X-69194856Y-7467039D02*
X-69205211Y-7474985D01*
X-69205211Y-7474985D02*
X-69217270Y-7479980D01*
X-69217270Y-7479980D02*
X-69230211Y-7481684D01*
X-69230211Y-7481684D02*
X-69243152Y-7479980D01*
X-69243152Y-7479980D02*
X-69255211Y-7474985D01*
X-69255211Y-7474985D02*
X-69265566Y-7467039D01*
X-69265566Y-7467039D02*
X-69273512Y-7456684D01*
X-69273512Y-7456684D02*
X-69278507Y-7444625D01*
X-69278507Y-7444625D02*
X-69280211Y-7431684D01*
X-69280211Y-7431684D02*
X-69278507Y-7418743D01*
X-69278507Y-7418743D02*
X-69273512Y-7406684D01*
X-69273512Y-7406684D02*
X-69265566Y-7396328D01*
X-69265566Y-7396328D02*
X-69255211Y-7388383D01*
X-69255211Y-7388383D02*
X-69243152Y-7383388D01*
X-69243152Y-7383388D02*
X-69230211Y-7381684D01*
X-69230211Y-7381684D02*
X-69217270Y-7383388D01*
X-69217270Y-7383388D02*
X-69205211Y-7388383D01*
X-69205211Y-7388383D02*
X-69194856Y-7396329D01*
X-69194856Y-7396329D02*
X-69186910Y-7406684D01*
X-69186910Y-7406684D02*
X-69181915Y-7418743D01*
X-69181915Y-7418743D02*
X-69180211Y-7431684D01*
X-69180211Y-7431684D02*
X-69181915Y-7444625D01*
X-69181915Y-7444625D02*
X-69186910Y-7456684D01*
X-69186910Y-7456684D02*
X-69194856Y-7467039D01*
D13*
X-66543208Y-8775192D02*
X-68310971Y-7007421D01*
X-68310971Y-7007421D02*
X-69654477Y-8350922D01*
X-69654477Y-8350922D02*
X-67886713Y-10118692D01*
D12*
X-64849669Y-5747859D02*
X-65185261Y-5412264D01*
X-64110739Y-5008936D02*
X-64446331Y-4673341D01*
X-15949200Y18287601D02*
X-15949200Y18006401D01*
X-16969200Y18287599D02*
X-16969200Y18006399D01*
X-56841456Y-7467039D02*
X-56851811Y-7474985D01*
X-56851811Y-7474985D02*
X-56863870Y-7479980D01*
X-56863870Y-7479980D02*
X-56876811Y-7481684D01*
X-56876811Y-7481684D02*
X-56889752Y-7479980D01*
X-56889752Y-7479980D02*
X-56901811Y-7474985D01*
X-56901811Y-7474985D02*
X-56912166Y-7467039D01*
X-56912166Y-7467039D02*
X-56920112Y-7456684D01*
X-56920112Y-7456684D02*
X-56925107Y-7444625D01*
X-56925107Y-7444625D02*
X-56926811Y-7431684D01*
X-56926811Y-7431684D02*
X-56925107Y-7418743D01*
X-56925107Y-7418743D02*
X-56920112Y-7406684D01*
X-56920112Y-7406684D02*
X-56912166Y-7396328D01*
X-56912166Y-7396328D02*
X-56901811Y-7388383D01*
X-56901811Y-7388383D02*
X-56889752Y-7383388D01*
X-56889752Y-7383388D02*
X-56876811Y-7381684D01*
X-56876811Y-7381684D02*
X-56863870Y-7383388D01*
X-56863870Y-7383388D02*
X-56851811Y-7388383D01*
X-56851811Y-7388383D02*
X-56841456Y-7396329D01*
X-56841456Y-7396329D02*
X-56833510Y-7406684D01*
X-56833510Y-7406684D02*
X-56828515Y-7418743D01*
X-56828515Y-7418743D02*
X-56826811Y-7431684D01*
X-56826811Y-7431684D02*
X-56828515Y-7444625D01*
X-56828515Y-7444625D02*
X-56833510Y-7456684D01*
X-56833510Y-7456684D02*
X-56841456Y-7467039D01*
D13*
X-54189808Y-8775192D02*
X-55957571Y-7007421D01*
X-55957571Y-7007421D02*
X-57301077Y-8350922D01*
X-57301077Y-8350922D02*
X-55533313Y-10118692D01*
D12*
X15922100Y16174801D02*
X15922100Y15893601D01*
X14902100Y16174799D02*
X14902100Y15893599D01*
X-58672969Y-5747859D02*
X-59008561Y-5412264D01*
X-57934039Y-5008936D02*
X-58269631Y-4673341D01*
X-21581699Y17913198D02*
X-21581701Y18387798D01*
X-20536699Y17913202D02*
X-20536701Y18387802D01*
X-11285601Y-30633401D02*
X-11760201Y-30633399D01*
X-11285599Y-29588401D02*
X-11760199Y-29588399D01*
X-46319569Y-5747859D02*
X-46655161Y-5412264D01*
X-45580639Y-5008936D02*
X-45916231Y-4673341D01*
X13958800Y-39588400D02*
X14433400Y-39588400D01*
X13958800Y-40633400D02*
X14433400Y-40633400D01*
X-61761369Y-5747859D02*
X-62096961Y-5412264D01*
X-61022439Y-5008936D02*
X-61358031Y-4673341D01*
X-15349207Y27403713D02*
X-16609207Y27403708D01*
X-22169207Y27403687D02*
X-20909207Y27403692D01*
X-15349193Y23643713D02*
X-15349207Y27403713D01*
X-22169185Y21393687D02*
X-22169207Y27403687D01*
X-47576356Y-7467039D02*
X-47586711Y-7474985D01*
X-47586711Y-7474985D02*
X-47598770Y-7479980D01*
X-47598770Y-7479980D02*
X-47611711Y-7481684D01*
X-47611711Y-7481684D02*
X-47624652Y-7479980D01*
X-47624652Y-7479980D02*
X-47636711Y-7474985D01*
X-47636711Y-7474985D02*
X-47647066Y-7467039D01*
X-47647066Y-7467039D02*
X-47655012Y-7456684D01*
X-47655012Y-7456684D02*
X-47660007Y-7444625D01*
X-47660007Y-7444625D02*
X-47661711Y-7431684D01*
X-47661711Y-7431684D02*
X-47660007Y-7418743D01*
X-47660007Y-7418743D02*
X-47655012Y-7406684D01*
X-47655012Y-7406684D02*
X-47647066Y-7396328D01*
X-47647066Y-7396328D02*
X-47636711Y-7388383D01*
X-47636711Y-7388383D02*
X-47624652Y-7383388D01*
X-47624652Y-7383388D02*
X-47611711Y-7381684D01*
X-47611711Y-7381684D02*
X-47598770Y-7383388D01*
X-47598770Y-7383388D02*
X-47586711Y-7388383D01*
X-47586711Y-7388383D02*
X-47576356Y-7396329D01*
X-47576356Y-7396329D02*
X-47568410Y-7406684D01*
X-47568410Y-7406684D02*
X-47563415Y-7418743D01*
X-47563415Y-7418743D02*
X-47561711Y-7431684D01*
X-47561711Y-7431684D02*
X-47563415Y-7444625D01*
X-47563415Y-7444625D02*
X-47568410Y-7456684D01*
X-47568410Y-7456684D02*
X-47576356Y-7467039D01*
D13*
X-44924708Y-8775192D02*
X-46692471Y-7007421D01*
X-46692471Y-7007421D02*
X-48035977Y-8350922D01*
X-48035977Y-8350922D02*
X-46268213Y-10118692D01*
D12*
X-18899800Y19432000D02*
X-18618600Y19432000D01*
X-18899800Y18412000D02*
X-18618600Y18412000D01*
X-67938069Y-5747859D02*
X-68273661Y-5412264D01*
X-67199139Y-5008936D02*
X-67534731Y-4673341D01*
X14349800Y13781700D02*
X14824400Y13781700D01*
X14349800Y12736700D02*
X14824400Y12736700D01*
X-52496269Y-5747859D02*
X-52831861Y-5412264D01*
X-51757339Y-5008936D02*
X-52092931Y-4673341D01*
X-63018156Y-7467039D02*
X-63028511Y-7474985D01*
X-63028511Y-7474985D02*
X-63040570Y-7479980D01*
X-63040570Y-7479980D02*
X-63053511Y-7481684D01*
X-63053511Y-7481684D02*
X-63066452Y-7479980D01*
X-63066452Y-7479980D02*
X-63078511Y-7474985D01*
X-63078511Y-7474985D02*
X-63088866Y-7467039D01*
X-63088866Y-7467039D02*
X-63096812Y-7456684D01*
X-63096812Y-7456684D02*
X-63101807Y-7444625D01*
X-63101807Y-7444625D02*
X-63103511Y-7431684D01*
X-63103511Y-7431684D02*
X-63101807Y-7418743D01*
X-63101807Y-7418743D02*
X-63096812Y-7406684D01*
X-63096812Y-7406684D02*
X-63088866Y-7396328D01*
X-63088866Y-7396328D02*
X-63078511Y-7388383D01*
X-63078511Y-7388383D02*
X-63066452Y-7383388D01*
X-63066452Y-7383388D02*
X-63053511Y-7381684D01*
X-63053511Y-7381684D02*
X-63040570Y-7383388D01*
X-63040570Y-7383388D02*
X-63028511Y-7388383D01*
X-63028511Y-7388383D02*
X-63018156Y-7396329D01*
X-63018156Y-7396329D02*
X-63010210Y-7406684D01*
X-63010210Y-7406684D02*
X-63005215Y-7418743D01*
X-63005215Y-7418743D02*
X-63003511Y-7431684D01*
X-63003511Y-7431684D02*
X-63005215Y-7444625D01*
X-63005215Y-7444625D02*
X-63010210Y-7456684D01*
X-63010210Y-7456684D02*
X-63018156Y-7467039D01*
D13*
X-60366508Y-8775192D02*
X-62134271Y-7007421D01*
X-62134271Y-7007421D02*
X-63477777Y-8350922D01*
X-63477777Y-8350922D02*
X-61710013Y-10118692D01*
D12*
X-11053101Y9943500D02*
X-11334301Y9943500D01*
X-11053099Y10963500D02*
X-11334299Y10963500D01*
X20555702Y-43170903D02*
X21815702Y-43170902D01*
X27375702Y-43170897D02*
X26115702Y-43170898D01*
X20555698Y-39410903D02*
X20555702Y-43170903D01*
X27375696Y-37160897D02*
X27375702Y-43170897D01*
X23871100Y-33600900D02*
X24152300Y-33600900D01*
X23871100Y-34620900D02*
X24152300Y-34620900D01*
X-53753056Y-7467039D02*
X-53763411Y-7474985D01*
X-53763411Y-7474985D02*
X-53775470Y-7479980D01*
X-53775470Y-7479980D02*
X-53788411Y-7481684D01*
X-53788411Y-7481684D02*
X-53801352Y-7479980D01*
X-53801352Y-7479980D02*
X-53813411Y-7474985D01*
X-53813411Y-7474985D02*
X-53823766Y-7467039D01*
X-53823766Y-7467039D02*
X-53831712Y-7456684D01*
X-53831712Y-7456684D02*
X-53836707Y-7444625D01*
X-53836707Y-7444625D02*
X-53838411Y-7431684D01*
X-53838411Y-7431684D02*
X-53836707Y-7418743D01*
X-53836707Y-7418743D02*
X-53831712Y-7406684D01*
X-53831712Y-7406684D02*
X-53823766Y-7396328D01*
X-53823766Y-7396328D02*
X-53813411Y-7388383D01*
X-53813411Y-7388383D02*
X-53801352Y-7383388D01*
X-53801352Y-7383388D02*
X-53788411Y-7381684D01*
X-53788411Y-7381684D02*
X-53775470Y-7383388D01*
X-53775470Y-7383388D02*
X-53763411Y-7388383D01*
X-53763411Y-7388383D02*
X-53753056Y-7396329D01*
X-53753056Y-7396329D02*
X-53745110Y-7406684D01*
X-53745110Y-7406684D02*
X-53740115Y-7418743D01*
X-53740115Y-7418743D02*
X-53738411Y-7431684D01*
X-53738411Y-7431684D02*
X-53740115Y-7444625D01*
X-53740115Y-7444625D02*
X-53745110Y-7456684D01*
X-53745110Y-7456684D02*
X-53753056Y-7467039D01*
D13*
X-51101408Y-8775192D02*
X-52869171Y-7007421D01*
X-52869171Y-7007421D02*
X-54212677Y-8350922D01*
X-54212677Y-8350922D02*
X-52444913Y-10118692D01*
D14*
X-35752700Y11258500D02*
X-28302700Y11258500D01*
X-28302700Y11258500D02*
X-28302700Y758500D01*
X-28302700Y758500D02*
X-35752700Y758500D01*
X-35752700Y758500D02*
X-35752700Y11258500D01*
D15*
X-33627700Y10958500D02*
X-30427700Y10958500D01*
X-30427700Y10958500D02*
X-30427700Y1058500D01*
X-30427700Y1058500D02*
X-33627700Y1058500D01*
X-33627700Y1058500D02*
X-33627700Y10958500D01*
X-35502700Y11128500D02*
X-33977700Y11128500D01*
D12*
X14433399Y-30633401D02*
X13958799Y-30633399D01*
X14433401Y-29588401D02*
X13958801Y-29588399D01*
X-6066500Y35879200D02*
X10173500Y35879200D01*
X10173500Y35879200D02*
X10173500Y28259200D01*
X10173500Y12259200D02*
X10173500Y11639200D01*
X10173500Y11639200D02*
X8053500Y11639200D01*
X-3946500Y11639200D02*
X-6066500Y11639200D01*
X-6066500Y11639200D02*
X-6066500Y12259200D01*
X-6066500Y28259200D02*
X-6066500Y35879200D01*
X-6066500Y28259200D02*
X-6676500Y28259200D01*
X-6066500Y35879200D02*
X10173500Y35879200D01*
X10173500Y35879200D02*
X10173500Y28559200D01*
X-6066500Y28559200D02*
X-6066500Y35879200D01*
X21155701Y-33392802D02*
X21155699Y-33111602D01*
X22175701Y-33392798D02*
X22175699Y-33111598D01*
X-50664756Y-7467039D02*
X-50675111Y-7474985D01*
X-50675111Y-7474985D02*
X-50687170Y-7479980D01*
X-50687170Y-7479980D02*
X-50700111Y-7481684D01*
X-50700111Y-7481684D02*
X-50713052Y-7479980D01*
X-50713052Y-7479980D02*
X-50725111Y-7474985D01*
X-50725111Y-7474985D02*
X-50735466Y-7467039D01*
X-50735466Y-7467039D02*
X-50743412Y-7456684D01*
X-50743412Y-7456684D02*
X-50748407Y-7444625D01*
X-50748407Y-7444625D02*
X-50750111Y-7431684D01*
X-50750111Y-7431684D02*
X-50748407Y-7418743D01*
X-50748407Y-7418743D02*
X-50743412Y-7406684D01*
X-50743412Y-7406684D02*
X-50735466Y-7396328D01*
X-50735466Y-7396328D02*
X-50725111Y-7388383D01*
X-50725111Y-7388383D02*
X-50713052Y-7383388D01*
X-50713052Y-7383388D02*
X-50700111Y-7381684D01*
X-50700111Y-7381684D02*
X-50687170Y-7383388D01*
X-50687170Y-7383388D02*
X-50675111Y-7388383D01*
X-50675111Y-7388383D02*
X-50664756Y-7396329D01*
X-50664756Y-7396329D02*
X-50656810Y-7406684D01*
X-50656810Y-7406684D02*
X-50651815Y-7418743D01*
X-50651815Y-7418743D02*
X-50650111Y-7431684D01*
X-50650111Y-7431684D02*
X-50651815Y-7444625D01*
X-50651815Y-7444625D02*
X-50656810Y-7456684D01*
X-50656810Y-7456684D02*
X-50664756Y-7467039D01*
D13*
X-48013108Y-8775192D02*
X-49780871Y-7007421D01*
X-49780871Y-7007421D02*
X-51124377Y-8350922D01*
X-51124377Y-8350922D02*
X-49356613Y-10118692D01*
D12*
X-11380900Y23781700D02*
X-10906300Y23781700D01*
X-11380900Y22736700D02*
X-10906300Y22736700D01*
X-55584669Y-5747859D02*
X-55920261Y-5412264D01*
X-54845739Y-5008936D02*
X-55181331Y-4673341D01*
X-92827400Y63715800D02*
X-92546200Y63715800D01*
X-92827400Y62695800D02*
X-92546200Y62695800D01*
X-11432301Y-34449900D02*
X-11713501Y-34449900D01*
X-11432299Y-33429900D02*
X-11713499Y-33429900D01*
X-66106456Y-7467039D02*
X-66116811Y-7474985D01*
X-66116811Y-7474985D02*
X-66128870Y-7479980D01*
X-66128870Y-7479980D02*
X-66141811Y-7481684D01*
X-66141811Y-7481684D02*
X-66154752Y-7479980D01*
X-66154752Y-7479980D02*
X-66166811Y-7474985D01*
X-66166811Y-7474985D02*
X-66177166Y-7467039D01*
X-66177166Y-7467039D02*
X-66185112Y-7456684D01*
X-66185112Y-7456684D02*
X-66190107Y-7444625D01*
X-66190107Y-7444625D02*
X-66191811Y-7431684D01*
X-66191811Y-7431684D02*
X-66190107Y-7418743D01*
X-66190107Y-7418743D02*
X-66185112Y-7406684D01*
X-66185112Y-7406684D02*
X-66177166Y-7396328D01*
X-66177166Y-7396328D02*
X-66166811Y-7388383D01*
X-66166811Y-7388383D02*
X-66154752Y-7383388D01*
X-66154752Y-7383388D02*
X-66141811Y-7381684D01*
X-66141811Y-7381684D02*
X-66128870Y-7383388D01*
X-66128870Y-7383388D02*
X-66116811Y-7388383D01*
X-66116811Y-7388383D02*
X-66106456Y-7396329D01*
X-66106456Y-7396329D02*
X-66098510Y-7406684D01*
X-66098510Y-7406684D02*
X-66093515Y-7418743D01*
X-66093515Y-7418743D02*
X-66091811Y-7431684D01*
X-66091811Y-7431684D02*
X-66093515Y-7444625D01*
X-66093515Y-7444625D02*
X-66098510Y-7456684D01*
X-66098510Y-7456684D02*
X-66106456Y-7467039D01*
D13*
X-63454808Y-8775192D02*
X-65222571Y-7007421D01*
X-65222571Y-7007421D02*
X-66566077Y-8350922D01*
X-66566077Y-8350922D02*
X-64798313Y-10118692D01*
D12*
X10173468Y-52730922D02*
X-6066532Y-52730878D01*
X-6066532Y-52730878D02*
X-6066512Y-45110878D01*
X-6066469Y-29110878D02*
X-6066468Y-28490878D01*
X-6066468Y-28490878D02*
X-3946468Y-28490884D01*
X8053532Y-28490916D02*
X10173532Y-28490922D01*
X10173532Y-28490922D02*
X10173531Y-29110922D01*
X10173488Y-45110922D02*
X10173468Y-52730922D01*
X10173488Y-45110922D02*
X10783488Y-45110923D01*
X10173468Y-52730922D02*
X-6066532Y-52730878D01*
X-6066532Y-52730878D02*
X-6066513Y-45410878D01*
X10173487Y-45410922D02*
X10173468Y-52730922D01*
X-11381000Y13781700D02*
X-10906400Y13781700D01*
X-11381000Y12736700D02*
X-10906400Y12736700D01*
X-75427400Y17109200D02*
X-75146200Y17109200D01*
X-75427400Y16089200D02*
X-75146200Y16089200D01*
D14*
X-38464700Y-6056500D02*
X-31014700Y-6056500D01*
X-31014700Y-6056500D02*
X-31014700Y-16556500D01*
X-31014700Y-16556500D02*
X-38464700Y-16556500D01*
X-38464700Y-16556500D02*
X-38464700Y-6056500D01*
D15*
X-36339700Y-6356500D02*
X-33139700Y-6356500D01*
X-33139700Y-6356500D02*
X-33139700Y-16256500D01*
X-33139700Y-16256500D02*
X-36339700Y-16256500D01*
X-36339700Y-16256500D02*
X-36339700Y-6356500D01*
X-38214700Y-6186500D02*
X-36689700Y-6186500D01*
D12*
X-157056100Y-8183000D02*
X-157057804Y-8195941D01*
X-157057804Y-8195941D02*
X-157062799Y-8208000D01*
X-157062799Y-8208000D02*
X-157070745Y-8218355D01*
X-157070745Y-8218355D02*
X-157081100Y-8226301D01*
X-157081100Y-8226301D02*
X-157093159Y-8231296D01*
X-157093159Y-8231296D02*
X-157106100Y-8233000D01*
X-157106100Y-8233000D02*
X-157119041Y-8231296D01*
X-157119041Y-8231296D02*
X-157131100Y-8226301D01*
X-157131100Y-8226301D02*
X-157141455Y-8218355D01*
X-157141455Y-8218355D02*
X-157149401Y-8208000D01*
X-157149401Y-8208000D02*
X-157154396Y-8195941D01*
X-157154396Y-8195941D02*
X-157156100Y-8183000D01*
X-157156100Y-8183000D02*
X-157154396Y-8170059D01*
X-157154396Y-8170059D02*
X-157149401Y-8158000D01*
X-157149401Y-8158000D02*
X-157141455Y-8147645D01*
X-157141455Y-8147645D02*
X-157131100Y-8139699D01*
X-157131100Y-8139699D02*
X-157119041Y-8134704D01*
X-157119041Y-8134704D02*
X-157106100Y-8133000D01*
X-157106100Y-8133000D02*
X-157093159Y-8134704D01*
X-157093159Y-8134704D02*
X-157081100Y-8139699D01*
X-157081100Y-8139699D02*
X-157070745Y-8147645D01*
X-157070745Y-8147645D02*
X-157062799Y-8158000D01*
X-157062799Y-8158000D02*
X-157057804Y-8170059D01*
X-157057804Y-8170059D02*
X-157056100Y-8183000D01*
D13*
X-154256100Y-7233000D02*
X-156756100Y-7233000D01*
X-156756100Y-7233000D02*
X-156756100Y-9133000D01*
X-156756100Y-9133000D02*
X-154256100Y-9133000D01*
D12*
X-109679400Y-10671500D02*
X-109681104Y-10684441D01*
X-109681104Y-10684441D02*
X-109686099Y-10696500D01*
X-109686099Y-10696500D02*
X-109694045Y-10706855D01*
X-109694045Y-10706855D02*
X-109704400Y-10714801D01*
X-109704400Y-10714801D02*
X-109716459Y-10719796D01*
X-109716459Y-10719796D02*
X-109729400Y-10721500D01*
X-109729400Y-10721500D02*
X-109742341Y-10719796D01*
X-109742341Y-10719796D02*
X-109754400Y-10714801D01*
X-109754400Y-10714801D02*
X-109764755Y-10706855D01*
X-109764755Y-10706855D02*
X-109772701Y-10696500D01*
X-109772701Y-10696500D02*
X-109777696Y-10684441D01*
X-109777696Y-10684441D02*
X-109779400Y-10671500D01*
X-109779400Y-10671500D02*
X-109777696Y-10658559D01*
X-109777696Y-10658559D02*
X-109772701Y-10646500D01*
X-109772701Y-10646500D02*
X-109764755Y-10636145D01*
X-109764755Y-10636145D02*
X-109754400Y-10628199D01*
X-109754400Y-10628199D02*
X-109742341Y-10623204D01*
X-109742341Y-10623204D02*
X-109729400Y-10621500D01*
X-109729400Y-10621500D02*
X-109716459Y-10623204D01*
X-109716459Y-10623204D02*
X-109704400Y-10628199D01*
X-109704400Y-10628199D02*
X-109694045Y-10636145D01*
X-109694045Y-10636145D02*
X-109686099Y-10646500D01*
X-109686099Y-10646500D02*
X-109681104Y-10658559D01*
X-109681104Y-10658559D02*
X-109679400Y-10671500D01*
D13*
X-106879400Y-9721500D02*
X-109379400Y-9721500D01*
X-109379400Y-9721500D02*
X-109379400Y-11621500D01*
X-109379400Y-11621500D02*
X-106879400Y-11621500D01*
D12*
X-115937300Y-10671500D02*
X-115939004Y-10684441D01*
X-115939004Y-10684441D02*
X-115943999Y-10696500D01*
X-115943999Y-10696500D02*
X-115951945Y-10706855D01*
X-115951945Y-10706855D02*
X-115962300Y-10714801D01*
X-115962300Y-10714801D02*
X-115974359Y-10719796D01*
X-115974359Y-10719796D02*
X-115987300Y-10721500D01*
X-115987300Y-10721500D02*
X-116000241Y-10719796D01*
X-116000241Y-10719796D02*
X-116012300Y-10714801D01*
X-116012300Y-10714801D02*
X-116022655Y-10706855D01*
X-116022655Y-10706855D02*
X-116030601Y-10696500D01*
X-116030601Y-10696500D02*
X-116035596Y-10684441D01*
X-116035596Y-10684441D02*
X-116037300Y-10671500D01*
X-116037300Y-10671500D02*
X-116035596Y-10658559D01*
X-116035596Y-10658559D02*
X-116030601Y-10646500D01*
X-116030601Y-10646500D02*
X-116022655Y-10636145D01*
X-116022655Y-10636145D02*
X-116012300Y-10628199D01*
X-116012300Y-10628199D02*
X-116000241Y-10623204D01*
X-116000241Y-10623204D02*
X-115987300Y-10621500D01*
X-115987300Y-10621500D02*
X-115974359Y-10623204D01*
X-115974359Y-10623204D02*
X-115962300Y-10628199D01*
X-115962300Y-10628199D02*
X-115951945Y-10636145D01*
X-115951945Y-10636145D02*
X-115943999Y-10646500D01*
X-115943999Y-10646500D02*
X-115939004Y-10658559D01*
X-115939004Y-10658559D02*
X-115937300Y-10671500D01*
D13*
X-113137300Y-9721500D02*
X-115637300Y-9721500D01*
X-115637300Y-9721500D02*
X-115637300Y-11621500D01*
X-115637300Y-11621500D02*
X-113137300Y-11621500D01*
D12*
X-184295500Y5373500D02*
X-184297204Y5360559D01*
X-184297204Y5360559D02*
X-184302199Y5348500D01*
X-184302199Y5348500D02*
X-184310145Y5338145D01*
X-184310145Y5338145D02*
X-184320500Y5330199D01*
X-184320500Y5330199D02*
X-184332559Y5325204D01*
X-184332559Y5325204D02*
X-184345500Y5323500D01*
X-184345500Y5323500D02*
X-184358441Y5325204D01*
X-184358441Y5325204D02*
X-184370500Y5330199D01*
X-184370500Y5330199D02*
X-184380855Y5338145D01*
X-184380855Y5338145D02*
X-184388801Y5348500D01*
X-184388801Y5348500D02*
X-184393796Y5360559D01*
X-184393796Y5360559D02*
X-184395500Y5373500D01*
X-184395500Y5373500D02*
X-184393796Y5386441D01*
X-184393796Y5386441D02*
X-184388801Y5398500D01*
X-184388801Y5398500D02*
X-184380855Y5408855D01*
X-184380855Y5408855D02*
X-184370500Y5416801D01*
X-184370500Y5416801D02*
X-184358441Y5421796D01*
X-184358441Y5421796D02*
X-184345500Y5423500D01*
X-184345500Y5423500D02*
X-184332559Y5421796D01*
X-184332559Y5421796D02*
X-184320500Y5416801D01*
X-184320500Y5416801D02*
X-184310145Y5408855D01*
X-184310145Y5408855D02*
X-184302199Y5398500D01*
X-184302199Y5398500D02*
X-184297204Y5386441D01*
X-184297204Y5386441D02*
X-184295500Y5373500D01*
D13*
X-181495500Y6323500D02*
X-183995500Y6323500D01*
X-183995500Y6323500D02*
X-183995500Y4423500D01*
X-183995500Y4423500D02*
X-181495500Y4423500D01*
D12*
X-96582600Y-10671500D02*
X-96584304Y-10684441D01*
X-96584304Y-10684441D02*
X-96589299Y-10696500D01*
X-96589299Y-10696500D02*
X-96597245Y-10706855D01*
X-96597245Y-10706855D02*
X-96607600Y-10714801D01*
X-96607600Y-10714801D02*
X-96619659Y-10719796D01*
X-96619659Y-10719796D02*
X-96632600Y-10721500D01*
X-96632600Y-10721500D02*
X-96645541Y-10719796D01*
X-96645541Y-10719796D02*
X-96657600Y-10714801D01*
X-96657600Y-10714801D02*
X-96667955Y-10706855D01*
X-96667955Y-10706855D02*
X-96675901Y-10696500D01*
X-96675901Y-10696500D02*
X-96680896Y-10684441D01*
X-96680896Y-10684441D02*
X-96682600Y-10671500D01*
X-96682600Y-10671500D02*
X-96680896Y-10658559D01*
X-96680896Y-10658559D02*
X-96675901Y-10646500D01*
X-96675901Y-10646500D02*
X-96667955Y-10636145D01*
X-96667955Y-10636145D02*
X-96657600Y-10628199D01*
X-96657600Y-10628199D02*
X-96645541Y-10623204D01*
X-96645541Y-10623204D02*
X-96632600Y-10621500D01*
X-96632600Y-10621500D02*
X-96619659Y-10623204D01*
X-96619659Y-10623204D02*
X-96607600Y-10628199D01*
X-96607600Y-10628199D02*
X-96597245Y-10636145D01*
X-96597245Y-10636145D02*
X-96589299Y-10646500D01*
X-96589299Y-10646500D02*
X-96584304Y-10658559D01*
X-96584304Y-10658559D02*
X-96582600Y-10671500D01*
D13*
X-93782600Y-9721500D02*
X-96282600Y-9721500D01*
X-96282600Y-9721500D02*
X-96282600Y-11621500D01*
X-96282600Y-11621500D02*
X-93782600Y-11621500D01*
D12*
X-185233000Y-24236700D02*
X-185234704Y-24249641D01*
X-185234704Y-24249641D02*
X-185239699Y-24261700D01*
X-185239699Y-24261700D02*
X-185247645Y-24272055D01*
X-185247645Y-24272055D02*
X-185258000Y-24280001D01*
X-185258000Y-24280001D02*
X-185270059Y-24284996D01*
X-185270059Y-24284996D02*
X-185283000Y-24286700D01*
X-185283000Y-24286700D02*
X-185295941Y-24284996D01*
X-185295941Y-24284996D02*
X-185308000Y-24280001D01*
X-185308000Y-24280001D02*
X-185318355Y-24272055D01*
X-185318355Y-24272055D02*
X-185326301Y-24261700D01*
X-185326301Y-24261700D02*
X-185331296Y-24249641D01*
X-185331296Y-24249641D02*
X-185333000Y-24236700D01*
X-185333000Y-24236700D02*
X-185331296Y-24223759D01*
X-185331296Y-24223759D02*
X-185326301Y-24211700D01*
X-185326301Y-24211700D02*
X-185318355Y-24201345D01*
X-185318355Y-24201345D02*
X-185308000Y-24193399D01*
X-185308000Y-24193399D02*
X-185295941Y-24188404D01*
X-185295941Y-24188404D02*
X-185283000Y-24186700D01*
X-185283000Y-24186700D02*
X-185270059Y-24188404D01*
X-185270059Y-24188404D02*
X-185258000Y-24193399D01*
X-185258000Y-24193399D02*
X-185247645Y-24201345D01*
X-185247645Y-24201345D02*
X-185239699Y-24211700D01*
X-185239699Y-24211700D02*
X-185234704Y-24223759D01*
X-185234704Y-24223759D02*
X-185233000Y-24236700D01*
D13*
X-182433000Y-23286700D02*
X-184933000Y-23286700D01*
X-184933000Y-23286700D02*
X-184933000Y-25186700D01*
X-184933000Y-25186700D02*
X-182433000Y-25186700D01*
D12*
X-166478700Y-18037400D02*
X-166480404Y-18050341D01*
X-166480404Y-18050341D02*
X-166485399Y-18062400D01*
X-166485399Y-18062400D02*
X-166493345Y-18072755D01*
X-166493345Y-18072755D02*
X-166503700Y-18080701D01*
X-166503700Y-18080701D02*
X-166515759Y-18085696D01*
X-166515759Y-18085696D02*
X-166528700Y-18087400D01*
X-166528700Y-18087400D02*
X-166541641Y-18085696D01*
X-166541641Y-18085696D02*
X-166553700Y-18080701D01*
X-166553700Y-18080701D02*
X-166564055Y-18072755D01*
X-166564055Y-18072755D02*
X-166572001Y-18062400D01*
X-166572001Y-18062400D02*
X-166576996Y-18050341D01*
X-166576996Y-18050341D02*
X-166578700Y-18037400D01*
X-166578700Y-18037400D02*
X-166576996Y-18024459D01*
X-166576996Y-18024459D02*
X-166572001Y-18012400D01*
X-166572001Y-18012400D02*
X-166564055Y-18002045D01*
X-166564055Y-18002045D02*
X-166553700Y-17994099D01*
X-166553700Y-17994099D02*
X-166541641Y-17989104D01*
X-166541641Y-17989104D02*
X-166528700Y-17987400D01*
X-166528700Y-17987400D02*
X-166515759Y-17989104D01*
X-166515759Y-17989104D02*
X-166503700Y-17994099D01*
X-166503700Y-17994099D02*
X-166493345Y-18002045D01*
X-166493345Y-18002045D02*
X-166485399Y-18012400D01*
X-166485399Y-18012400D02*
X-166480404Y-18024459D01*
X-166480404Y-18024459D02*
X-166478700Y-18037400D01*
D13*
X-163678700Y-17087400D02*
X-166178700Y-17087400D01*
X-166178700Y-17087400D02*
X-166178700Y-18987400D01*
X-166178700Y-18987400D02*
X-163678700Y-18987400D01*
D12*
X-165541200Y-41462700D02*
X-165542904Y-41475641D01*
X-165542904Y-41475641D02*
X-165547899Y-41487700D01*
X-165547899Y-41487700D02*
X-165555845Y-41498055D01*
X-165555845Y-41498055D02*
X-165566200Y-41506001D01*
X-165566200Y-41506001D02*
X-165578259Y-41510996D01*
X-165578259Y-41510996D02*
X-165591200Y-41512700D01*
X-165591200Y-41512700D02*
X-165604141Y-41510996D01*
X-165604141Y-41510996D02*
X-165616200Y-41506001D01*
X-165616200Y-41506001D02*
X-165626555Y-41498055D01*
X-165626555Y-41498055D02*
X-165634501Y-41487700D01*
X-165634501Y-41487700D02*
X-165639496Y-41475641D01*
X-165639496Y-41475641D02*
X-165641200Y-41462700D01*
X-165641200Y-41462700D02*
X-165639496Y-41449759D01*
X-165639496Y-41449759D02*
X-165634501Y-41437700D01*
X-165634501Y-41437700D02*
X-165626555Y-41427345D01*
X-165626555Y-41427345D02*
X-165616200Y-41419399D01*
X-165616200Y-41419399D02*
X-165604141Y-41414404D01*
X-165604141Y-41414404D02*
X-165591200Y-41412700D01*
X-165591200Y-41412700D02*
X-165578259Y-41414404D01*
X-165578259Y-41414404D02*
X-165566200Y-41419399D01*
X-165566200Y-41419399D02*
X-165555845Y-41427345D01*
X-165555845Y-41427345D02*
X-165547899Y-41437700D01*
X-165547899Y-41437700D02*
X-165542904Y-41449759D01*
X-165542904Y-41449759D02*
X-165541200Y-41462700D01*
D13*
X-162741200Y-40512700D02*
X-165241200Y-40512700D01*
X-165241200Y-40512700D02*
X-165241200Y-42412700D01*
X-165241200Y-42412700D02*
X-162741200Y-42412700D01*
D12*
X-172076800Y-34317400D02*
X-171602200Y-34317400D01*
X-172076800Y-35362400D02*
X-171602200Y-35362400D01*
X-137513500Y-33467700D02*
X-137038900Y-33467700D01*
X-137513500Y-34512700D02*
X-137038900Y-34512700D01*
X-134169200Y-24421600D02*
X-133694600Y-24421600D01*
X-134169200Y-25466600D02*
X-133694600Y-25466600D01*
X-126040700Y-10149000D02*
X-125566100Y-10149000D01*
X-126040700Y-11194000D02*
X-125566100Y-11194000D01*
X-125573700Y-22581000D02*
X-125099100Y-22581000D01*
X-125573700Y-23626000D02*
X-125099100Y-23626000D01*
X-123585700Y-21597300D02*
X-123111100Y-21597300D01*
X-123585700Y-22642300D02*
X-123111100Y-22642300D01*
X-121428500Y-22091400D02*
X-120953900Y-22091400D01*
X-121428500Y-23136400D02*
X-120953900Y-23136400D01*
X-118845300Y-21635900D02*
X-118370700Y-21635900D01*
X-118845300Y-22680900D02*
X-118370700Y-22680900D01*
%TD*%
M02*
